<?xml version="1.0" standalone="no"?><!DOCTYPE svg PUBLIC "-//W3C//DTD SVG 1.1//EN" "http://www.w3.org/Graphics/SVG/1.1/DTD/svg11.dtd"><svg width="100%" height="100%" viewBox="0 0 13 13" version="1.1" xmlns="http://www.w3.org/2000/svg" xmlns:xlink="http://www.w3.org/1999/xlink" xml:space="preserve" style="fill-rule:evenodd;clip-rule:evenodd;stroke-linejoin:round;stroke-miterlimit:1.41421;"><g id="Layer 1"><path d="M2.636,11.03l-0.793,0.234c-0.046,-0.13 -0.12,-0.252 -0.224,-0.355c-0.082,-0.083 -0.177,-0.146 -0.277,-0.192l0.223,-0.758l7.297,-7.297l1.072,1.071l-7.298,7.297ZM0.893,9.56l-0.893,3.036l3.035,-0.894l7.97,-7.969l-2.143,-2.143l-7.969,7.97Z" style="fill:#000;fill-rule:nonzero;"/><path d="M12.299,1.01l-0.714,-0.714c-0.191,-0.191 -0.444,-0.296 -0.714,-0.296c-0.27,0 -0.524,0.105 -0.714,0.296l-0.692,0.692l0.536,0.536l0.691,-0.692c0.099,-0.099 0.259,-0.099 0.357,0l0.715,0.714c0.047,0.048 0.073,0.111 0.073,0.178c0,0.068 -0.026,0.131 -0.073,0.179l-0.692,0.692l0.535,0.536l0.692,-0.692c0.191,-0.191 0.296,-0.445 0.296,-0.715c0,-0.269 -0.105,-0.523 -0.296,-0.714" style="fill:#000;fill-rule:nonzero;"/></g></svg>