<!--?xml version="1.0"?-->
<svg xmlns="http://www.w3.org/2000/svg" version="1.2" baseProfile="tiny" width="800" height="298" viewBox="0 0 800 298" stroke-linecap="round" stroke-linejoin="round">
<g id="T_rkiye" class="area excluded" title="Türkiye">
<path d="M 376.0517 195.5664 380.622 196.0567 383.5042 194.5761 383.7742 187.6092 385.7078 185.1073 393.9286 186.5923 409.572 183.4182 411.743 185.1612 412.26 181.8254 415.6609 179.4183 414.8168 173.7507 418.0025 172.8158 420.8694 169.5373 429.7765 166.8218 433.7898 159.9922 439.9758 155.218 442.9624 154.4205 447.7393 157.1536 447.8793 161.8674 446.2286 169.9209 442.688 169.7944 440.007 174.3934 444.3146 178.1036 441.553 181.1524 442.4622 182.4708 433.4425 182.866 435.4247 185.6248 428.286 193.64 428.1359 203.4935 426.4553 206.0033 430.5045 204.5318 434.9 205.4749 435.5971 210.1801 433.8017 213.5172 430.0213 217.8034 423.079 223.4471 417.7977 223.3953 415.2538 224.9111 414.9001 226.1944 417.1777 224.6122 416.8067 225.9032 420.1384 225.4571 413.3963 231.8143 407.595 230.7503 404.0553 232.9399 386.1028 225.1168 393.0576 222.0844 395.6858 222.4219 396.5372 219.665 393.8082 215.1221 394.9014 212.0117 390.4453 211.0003 390.074 208.6752 387.7936 207.7057 386.8387 205.079 388.6741 202.6135 379.5227 199.4145 377.5714 200.623 376.0517 195.5664 Z" id="_2" class="area" title="Adana"></path>
<path d="M 500.1273 174.2453 506.8772 176.3986 517.2039 176.3599 521.1494 173.4461 520.6067 169.3054 525.2546 165.3778 532.1909 167.2215 533.1731 165.3651 536.985 165.5789 548.6685 171.8079 557.5842 168.8921 561.9652 164.0808 565.1079 163.5804 567.2219 164.9777 563.1704 171.2067 561.498 171.0518 555.4333 175.9937 555.525 179.1151 552.308 180.0407 554.6288 180.1859 554.8355 182.1277 552.1011 182.2366 553.2729 184.0151 548.3325 184.4871 550.4162 186.6023 542.1651 188.0464 534.1542 193.6702 528.0102 193.3513 523.2089 194.9145 522.3547 196.6008 518.4772 194.9532 508.9239 193.934 503.6113 191.5363 498.2928 193.0818 496.9236 189.5135 493.0666 189.9615 491.7666 187.1896 500.1273 174.2453 Z" id="_3" class="area" title="Adıyaman"></path>
<path d="M 174.4565 152.6629 174.6092 149.4581 177.4386 145.4259 179.441 145.4066 177.5917 144.9085 178.3934 142.4472 181.6283 140.7998 182.4743 137.9217 185.1218 137.6939 192.4773 130.9982 191.4409 128.1976 193.2388 125.0807 200.7407 121.0783 204.7178 125.4984 211.9848 127.9871 220.211 125.2329 219.3668 121.9726 224.8312 123.5363 224.9055 122.1841 227.564 122.1923 227.8182 119.7691 236.8604 120.0107 237.395 122.3457 247.9284 129.3061 253.8152 131.2222 249.8712 132.412 248.772 134.4388 246.2628 141.995 248.0647 145.2772 233.8088 153.4511 234.653 156.3589 232.2588 155.7643 228.6263 151.2486 224.1192 151.1388 221.8648 154.4434 215.357 156.9332 214.2295 159.2243 201.4111 164.292 195.5502 170.1302 189.7172 172.2097 184.9838 180.7711 177.0511 181.319 169.044 177.6449 168.7281 174.2298 166.7284 173.3516 177.4978 166.3691 184.977 163.7575 184.9785 160.7943 181.3244 157.4693 181.1245 155.1326 178.3091 154.8176 177.6255 152.7403 174.4565 152.6629 Z" id="_4" class="area" title="Afyonkarahisar"></path>
<path d="M 705.2298 91.6261 719.248 89.2555 735.2539 88.822 739.2555 89.5146 741.9219 98.0626 745.6124 95.2039 754.4635 98.4006 757.9064 97.8686 767.2835 100.4372 770.3806 99.3132 778.2157 102.5014 785.0392 102.5456 782.5786 106.688 782.5 113.2138 777.1931 114.7839 774.2364 112.9686 770.2134 114.1374 767.9343 113.1759 766.51 115.1735 759.888 116.3058 752.0843 122.1063 749.5166 121.9839 741.1849 115.4711 734.1835 115.6745 731.7202 116.9673 729.3876 122.9235 722.6532 127.3426 723.3853 129.5033 721.0744 129.5901 719.5927 133.1096 710.8162 132.6111 710.1071 122.2893 705.8763 115.4488 703.1218 114.8531 701.5034 110.7267 697.7067 109.4995 703.2162 103.5419 693.525 95.9754 705.2298 91.6261 Z" id="_5" class="area" title="Ağrı"></path>
<path d="M 394.2682 43.6433 400.272 45.7297 409.3271 46.4349 410.2727 49.1599 415.4763 49.7936 419.5499 52.5885 433.5693 53.8303 440.3067 47.8633 445.4544 48.0194 446.1849 50.8225 449.8447 51.7287 448.7588 54.5862 452.0504 56.4627 448.299 58.0912 448.2379 60.8576 441.3715 67.9623 436.0768 70.5028 431.3994 68.1991 426.1293 68.5741 408.0128 78.9469 406.8929 78.6219 405.3303 73.8497 406.7473 69.9314 411.9907 65.9315 402.7565 59.5176 393.6851 59.7826 391.0086 58.2604 389.2682 55.3575 392.6383 50.8097 391.5131 46.8918 394.2682 43.6433 Z" id="_6" class="area" title="Amasya"></path>
<path d="M 216.3636 82.6863 225.4062 79.137 225.5538 74.3185 228.4641 73.4761 233.668 74.8103 241.9356 73.6375 239.8213 76.9306 244.3513 75.9578 247.8636 77.4801 254.6294 74.7817 258.8416 75.9544 266.9931 71.2345 270.9421 70.8921 270.3813 68.852 273.5666 65.7469 278.287 64.308 280.2862 66.0226 283.8218 65.1525 282.8192 60.1273 285.7145 60.4592 288.7157 57.4021 293.5029 57.3088 297.541 61.0996 302.1025 62.3221 302.1045 67.4681 305.4567 66.1362 308.9724 69.2232 313.0403 69.5233 317.781 75.1446 322.8139 71.7281 333.2479 74.6533 331.5595 84.3196 326.6953 86.3077 327.5105 88.8686 323.8253 90.6852 323.0885 89.8467 319.2974 92.8376 318.9895 95.1317 317.3291 94.7891 318.9728 96.1261 318.4255 99.5767 314.3266 102.8254 319.4657 103.1026 318.9513 107.4048 321.1175 108.9661 319.5902 109.1428 322.8551 110.4865 323.1043 112.6358 330.0854 121.9999 338.6416 127.5103 343.5792 128.8213 343.013 130.0957 336.8507 131.3764 339.9513 135.532 334.2047 143.732 328.1231 143.7566 322.1452 139.2718 322.5557 129.044 320.3973 126.2638 317.1583 127.2105 313.8893 125.0374 312.0786 121.8281 313.5874 119.2537 308.2143 121.5492 304.5966 119.4181 298.7884 119.1872 300.5974 122.8867 299.3763 124.6196 292.9741 126.2373 284.1926 131.5712 274.1683 129.2049 268.2832 132.083 259.1652 125.4631 257.9086 123.7249 266.2003 118.3223 263.9994 113.2344 264.8926 111.0055 260.6226 106.4012 262.9556 104.1453 255.1764 100.2458 256.322 97.5138 260.4527 96.4646 260.6804 94.7534 259.1096 95.3311 259.2627 93.7907 255.167 92.932 254.318 90.0755 252.5203 89.9478 253.3621 87.9806 250.7759 88.3547 251.2647 86.4635 248.633 87.8837 242.7482 86.8427 240.0357 87.9977 239.5468 86.1001 228.2023 85.6779 220.7088 87.4673 217.0926 85.9119 216.3636 82.6863 Z" id="_7" class="area" title="Ankara"></path>
<path d="M 151.145 243.4224 153.1634 241.9616 154.0764 237.3509 160.1399 236.0466 167.674 229.436 171.8139 220.0112 170.2145 215.195 174.6257 213.6889 175.9957 211.629 174.4918 208.4586 183.534 201.9594 191.0234 199.925 202.2318 203.3012 213.0425 204.5251 216.6932 203.8517 220.7395 200.1815 219.6535 197.9703 224.6935 198.4696 238.4361 195.9093 239.2629 197.8155 243.6716 199.3689 254.6932 198.4372 278.4725 221.4028 284.303 224.0158 284.2884 226.2083 287.3877 232.8842 290.285 243.5255 288.2473 251.2239 277.2492 245.5697 265.815 232.83 251.2583 228.5336 236.878 221.6249 223.454 219.6319 213.1723 220.1405 210.7346 218.477 205.6064 222.1067 204.7985 229.4519 206.2949 230.7334 201.4333 238.8115 203.6506 241.4284 201.0421 242.2864 201.931 243.7184 198.4549 246.6278 198.5321 243.8832 189.4573 242.2652 186.3698 245.0778 183.9521 243.8894 181.0057 246.3573 178.365 245.6161 172.9823 249.3997 169.9818 248.5576 168.431 249.9128 166.6485 247.0737 164.2874 247.6056 166.2532 246.8209 157.1367 246.0176 156.2888 244.3272 154.6616 245.784 151.145 243.4224 Z" id="_8" class="area" title="Antalya"></path>
<path d="M 646.4631 54.0634 655.5503 42.1411 650.1118 33.6208 657.0669 30.8891 662.7252 25.3424 669.4849 26.3598 674.2306 29.0722 679.9966 25.1583 703.2752 28.8066 706.3116 32.5067 705.7935 35.7715 696.649 43.892 697.2588 47.9663 694.8973 50.4952 680.8472 48.5985 675.6033 52.7112 676.5989 55.5549 673.3463 60.9202 665.6465 59.261 656.7296 64.8968 653.1894 62.3407 654.3843 58.0246 646.4631 54.0634 Z" id="_9" class="area" title="Artvin"></path>
<path d="M 68.0397 175.2832 73.6053 179.5931 75.6964 178.8835 76.6635 173.228 79.7731 171.5723 83.2374 173.6366 98.2295 172.9701 104.8059 170.1961 109.8671 170.3682 112.4278 167.0566 116.5256 168.1748 119.0749 166.7811 124.9042 168.4197 129.697 170.3407 130.2939 172.7174 133.4241 173.1901 132.2042 175.0112 128.1582 174.0453 132.2167 183.8159 129.2935 188.5675 122.206 191.8144 123.431 192.7943 121.2651 194.0044 115.0289 192.1031 110.3434 192.3803 109.5249 189.9702 107.7661 193.1214 104.9258 192.7964 104.1634 194.488 94.2079 193.1422 92.1281 194.2772 82.584 190.5216 78.1035 190.7061 74.3825 194.1351 77.4025 196.5182 76.9048 197.7828 73.3998 198.4122 73.8778 196.3554 69.8677 198.3221 70.3652 199.411 64.6112 198.9607 66.0268 193.4409 64.1855 193.9488 65.0269 192.1651 64.7477 190.955 64.1342 190.9281 63.7592 191.4217 63.5313 191.2153 63.2724 189.3214 63.5445 191.2129 64.6725 189.8034 65.5693 189.7832 65.738 189.2248 56.7414 186.2274 66.5293 183.3563 68.0397 175.2832 Z" id="_10" class="area" title="Aydın"></path>
<g id="_11" class="area excluded" title="Balıkesir">
<path d="M 83.1586 60.9399 87.6104 62.321 81.9478 64.7527 78.6782 63.8314 78.8098 61.7408 83.1586 60.9399 Z" id="PATH_12" class="area  excluded included" title=""></path>
<path d="M 78.0327 66.328 79.6583 66.9607 77.0117 69.217 78.0327 66.328 Z" id="PATH_13" class="area  excluded included" title=""></path>
<path d="M 107.7938 72.0571 105.4293 77.3115 101.6253 77.9983 109.4138 92.6908 115.9644 94.9965 120.9816 99.3139 127.8203 98.0624 131.6514 104.17 140.4197 105.1897 137.1097 108.1297 137.8832 113.1739 130.7827 118.3151 124.1034 118.6672 126.9134 124.1594 123.8207 123.6824 117.4504 125.7761 105.2678 126.9442 95.8294 119.8954 96.785 117.5259 94.7492 115.8062 90.142 117.3171 87.3473 115.3687 81.1457 116.0197 76.1937 113.1354 73.3255 114.1576 61.7443 114.9102 46.9647 123.4314 45.0076 119.6581 40.326 118.9677 42.1088 116.8924 41.2086 117.9807 42.8836 118.7444 44.2231 116.3068 40.8875 116.7422 39.8818 114.2671 42.8601 114.1169 40.8369 114.5752 42.6469 116.2398 47.259 114.9978 48.3196 112.2414 53.7051 110.149 54.6279 107.2592 51.5875 105.9656 42.3265 107.3493 43.6718 101.4614 49.41 99.3516 61.1341 99.1409 68.7839 101.8378 75.3129 98.3665 78.8458 91.7852 75.2706 89.2329 75.8911 86.5416 72.9112 82.97 78.855 76.1317 82.8947 75.0692 88.2934 75.9347 93.238 73.1729 89.7608 72.6932 85.2318 69.0006 87.317 66.7384 99.6462 68.6858 93.9836 72.4013 96.5887 74.0347 107.7938 72.0571 Z" id="_14" class="area included" title=""></path>
<path d="M 82.5008 67.4212 84.3813 70.1241 80.6683 69.4177 82.5008 67.4212 Z" id="PATH_15" class="area  excluded included" title=""></path>
</g>
<path d="M 206.3185 77.009 207.7745 81.4533 209.2594 81.5216 204.2873 83.6097 201.0806 87.8003 196.9279 88.7488 196.351 91.206 193.7833 90.63 193.884 95.312 187.793 94.7922 184.6428 96.0274 181.2642 100.174 183.1211 102.9291 171.0128 99.5542 170.7199 94.8127 171.9563 90.9351 169.3011 83.167 174.8544 78.3814 174.0204 73.7615 177.0647 70.8952 176.5473 68.9244 180.6111 67.2228 182.3151 70.7933 184.8404 69.7441 188.3834 73.7499 199.7038 72.7271 201.6268 75.5508 206.3185 77.009 Z" id="_16" class="area" title="Bilecik"></path>
<path d="M 595.5742 126.3304 599.3271 119.316 598.6703 116.7913 603.4081 117.7443 603.9448 114.031 609.596 113.3436 611.513 109.3622 624.0392 108.5218 623.9618 113.778 631.2318 113.3488 637.4283 110.3884 645.8789 112.8269 646.4083 115.4538 646.0127 120.3302 651.0497 126.9711 644.5474 134.1876 646.9732 141.7195 631.9887 148.5013 626.3961 146.8963 623.139 148.5925 617.8723 146.2679 611.5955 152.3835 604.0646 146.0965 609.2057 141.1083 612.0409 141.0766 613.7045 139.2273 605.1789 133.7841 607.7949 132.2946 610.0529 123.4739 608.3605 122.5615 600.4029 124.4891 599.267 126.3993 595.5742 126.3304 Z" id="_17" class="area" title="Bingöl"></path>
<path d="M 662.6523 150.3384 666.1597 146.1124 679.8173 147.5902 679.7657 145.9506 686.309 141.4708 685.1324 139.5913 688.1074 135.6269 694.5387 133.7916 710.8162 132.6111 719.5927 133.1096 721.0744 129.5901 723.3853 129.5033 726.4922 133.6747 730.5756 133.693 732.6441 135.9591 724.0953 142.6674 722.0001 146.4669 713.4116 151.2267 714.0267 156.0658 709.1704 159.5456 712.0855 161.505 709.6839 171.2091 707.7933 172.9681 703.6156 172.373 697.308 168.2798 697.802 166.6329 692.7067 166.0628 691.6897 162.1339 680.543 165.8696 667.4418 160.8274 666.0666 158.6694 667.3873 151.9874 662.6523 150.3384 Z" id="_18" class="area" title="Bitlis"></path>
<path d="M 288.9095 54.5623 288.7157 57.4021 285.7145 60.4592 282.8192 60.1273 283.8218 65.1525 280.2862 66.0226 278.287 64.308 273.5666 65.7469 270.3813 68.852 270.9421 70.8921 266.9931 71.2345 258.8416 75.9544 254.6294 74.7817 247.8636 77.4801 244.3513 75.9578 239.8213 76.9306 241.9356 73.6375 233.668 74.8103 228.4641 73.4761 225.5538 74.3185 225.4062 79.137 216.3636 82.6863 209.2594 81.5216 207.7745 81.4533 206.3185 77.009 205.1276 75.7402 206.9315 74.5521 205.0415 73.6994 206.2948 68.8904 209.0091 67.4684 212.71 68.3823 217.5891 67.2778 220.3313 61.0837 226.9173 59.6626 232.6713 62.7949 237.6224 61.6178 240.0779 56.958 245.3301 55.2573 244.5545 52.4671 249.6884 49.0978 254.4863 47.458 255.8451 48.6479 258.8462 46.6212 264.0963 45.091 268.6951 46.6847 271.9978 44.9251 278.7119 45.9441 278.3154 48.9697 280.8654 48.3813 281.2859 49.5301 277.8911 52.2808 286.2472 51.4705 288.9095 54.5623 Z" id="_19" class="area" title="Bolu"></path>
<path d="M 152.5136 218.5406 156.9286 214.8441 153.9028 212.8588 157.7981 211.6976 157.6911 207.1375 165.1484 198.6756 162.3363 193.8877 162.4437 191.9272 164.2353 191.7686 161.6057 190.6964 163.1367 186.9083 168.5869 187.4681 167.7166 185.374 175.3152 183.6311 177.0511 181.319 184.9838 180.7711 190.5286 181.1237 198.5356 179.1895 202.1351 184.6977 212.8757 186.616 214.0903 191.8526 219.6535 197.9703 220.7395 200.1815 216.6932 203.8517 213.0425 204.5251 202.2318 203.3012 191.0234 199.925 183.534 201.9594 174.4918 208.4586 175.9957 211.629 174.6257 213.6889 170.2145 215.195 164.6672 214.9 160.2948 219.8969 156.5872 221.4374 152.5136 218.5406 Z" id="_20" class="area" title="Burdur"></path>
<path d="M 179.7382 66.2091 180.6111 67.2228 176.5473 68.9244 177.0647 70.8952 174.0204 73.7615 174.8544 78.3814 169.3011 83.167 171.9563 90.9351 170.7199 94.8127 158.7336 93.5429 148.2393 104.8666 140.4197 105.1897 131.6514 104.17 127.8203 98.0624 120.9816 99.3139 115.9644 94.9965 109.4138 92.6908 101.6253 77.9983 105.4293 77.3115 107.7938 72.0571 125.6546 73.6506 131.4586 72.2681 139.0086 73.874 146.3599 71.0577 143.4206 68.8067 140.3849 69.1135 141.2016 64.5742 146.1251 64.7162 149.4986 67.0068 153.0366 66.8464 154.3539 65.0443 158.579 66.1702 160.0013 65.1786 162.9698 66.9865 169.2154 63.1354 177.691 64.9806 177.6513 66.7209 179.7382 66.2091 Z" id="_21" class="area" title="Bursa"></path>
<g id="_22" class="area excluded" title="Çanakkale">
<path d="M 53.6756 66.0552 44.044 69.7944 39.5979 75.2854 29.9413 80.1854 30.8238 82.7118 22.1543 86.8539 26.55 79.7177 23.921 75.5265 39.4993 68.0047 48.195 65.5298 49.3092 62.1446 46.7121 61.4805 47.745 57.9131 53.9146 57.6931 57.044 59.1366 53.6756 66.0552 Z" id="_23" class="area included" title="Çanakkale"></path>
<path d="M 78.855 76.1317 72.9112 82.97 75.8911 86.5416 75.2706 89.2329 78.8458 91.7852 75.3129 98.3665 68.7839 101.8378 61.1341 99.1409 49.41 99.3516 43.6718 101.4614 42.3265 107.3493 25.0114 111.0229 17.5961 110.4915 21.7527 102.8655 20.5634 95.3367 22.3791 89.1076 28.8454 87.5369 32.0124 83.7817 31.6571 80.5196 36.79 79.6445 46.2787 71.924 57.9993 72.4553 60.3575 70.2703 65.1653 70.5871 68.4518 68.9084 70.1205 73.166 78.855 76.1317 Z" id="_24" class="area included" title="Çanakkale"></path>
<path d="M 11.944 78.6991 13.9522 79.7043 13.5607 82.4984 15.4875 81.9199 14.6623 83.1962 4.0555 84.8919 1 83.4939 3.5016 81.0586 11.944 78.6991 Z" id="_25" class="area included" title="Çanakkale"></path>
<path d="M 17.1247 95.086 17.4959 97.5643 13.3945 95.52 17.1247 95.086 Z" id="_26" class="area included" title="Çanakkale"></path>
</g>
<path d="M 288.9095 54.5623 295.3282 52.4852 298.0676 48.6721 307.0982 47.9656 309.5723 44.486 314.4686 43.9886 321.2515 47.6581 326.5971 44.8634 331.7603 46.0302 341.5199 43.604 339.839 51.2043 348.3633 54.106 351.9876 55.6567 351.0561 58.2209 353.6072 60.7543 352.0683 64.1322 354.3559 71.364 350.9946 76.2621 346.766 77.3916 333.2479 74.6533 322.8139 71.7281 317.781 75.1446 313.0403 69.5233 308.9724 69.2232 305.4567 66.1362 302.1045 67.4681 302.1025 62.3221 297.541 61.0996 293.5029 57.3088 288.7157 57.4021 288.9095 54.5623 Z" id="_27" class="area" title="Çankırı"></path>
<path d="M 346.766 77.3916 350.9946 76.2621 354.3559 71.364 352.0683 64.1322 353.6072 60.7543 351.0561 58.2209 351.9876 55.6567 348.3633 54.106 357.8247 52.8644 361.9969 46.1443 358.1158 43.3433 357.5525 39.4253 362.6621 34.9584 365.4989 35.9528 367.3713 33.5368 377.5939 34.5911 377.8085 36.2761 383.6964 38.4476 384.7126 36.6813 389.4506 40.883 387.5514 43.2787 394.2682 43.6433 391.5131 46.8918 392.6383 50.8097 389.2682 55.3575 391.0086 58.2604 393.6851 59.7826 402.7565 59.5176 411.9907 65.9315 406.7473 69.9314 405.3303 73.8497 406.8929 78.6219 400.3036 80.5039 396.4445 79.096 396.7623 81.7515 398.6809 82.248 395.4625 84.3684 397.6735 87.0447 391.7274 89.0062 386.2978 88.7675 384.8325 86.8049 381.8457 88.8857 375.8247 87.8739 373.6093 90.8071 367.1517 88.6654 362.9548 91.5389 356.6104 91.555 356.9279 89.4921 346.766 77.3916 Z" id="_28" class="area" title="Çorum"></path>
<path d="M 124.9042 168.4197 128.3324 167.1699 129.0697 164.3349 133.1009 164.2656 134.4958 161.9437 144.759 161.8956 148.8304 164.53 148.8529 161.9426 156.0991 158.4623 164.5362 161.3943 166.4976 159.8467 166.6481 154.3234 174.4565 152.6629 177.6255 152.7403 178.3091 154.8176 181.1245 155.1326 181.3244 157.4693 184.9785 160.7943 184.977 163.7575 177.4978 166.3691 166.7284 173.3516 168.7281 174.2298 169.044 177.6449 177.0511 181.319 175.3152 183.6311 167.7166 185.374 168.5869 187.4681 163.1367 186.9083 161.6057 190.6964 164.2353 191.7686 162.4437 191.9272 162.3363 193.8877 165.1484 198.6756 157.6911 207.1375 157.7981 211.6976 153.9028 212.8588 156.9286 214.8441 152.5136 218.5406 147.3317 217.6945 144.9765 219.2455 144.1776 212.5581 141.2195 212.011 137.6417 207.9511 133.1574 208.0726 127.5378 198.4281 124.9446 198.1537 123.431 192.7943 122.206 191.8144 129.2935 188.5675 132.2167 183.8159 128.1582 174.0453 132.2042 175.0112 133.4241 173.1901 130.2939 172.7174 129.697 170.3407 124.9042 168.4197 Z" id="_29" class="area" title="Denizli"></path>
<path d="M 562.1273 158.9484 566.8148 159.1294 569.2746 156.8879 580.2899 160.8679 585.4027 156.929 592.7293 156.376 596.4569 152.221 611.5955 152.3835 617.8723 146.2679 623.139 148.5925 626.3961 146.8963 631.9887 148.5013 646.9732 141.7195 653.9009 152.1639 651.8436 152.452 647.2154 158.9108 649.2299 164.6789 648.4796 168.9205 645.9066 172.8536 640.9222 174.4603 639.6215 180.105 642.4203 181.4114 641.6968 182.9628 634.3817 186.8648 626.032 182.9418 626.0595 190.2366 616.8946 188.6641 609.8334 192.078 603.43 190.6223 594.4586 192.6967 591.7825 190.4617 590.4396 177.8165 584.096 180.4594 576.978 175.8788 561.498 171.0518 563.1704 171.2067 567.2219 164.9777 565.1079 163.5804 561.9652 164.0808 562.1273 158.9484 Z" id="_30" class="area" title="Diyarbakır"></path>
<path d="M 55.1415 5.4908 57.2527 14.4975 55.4633 18.6366 52.3833 19.8342 52.8187 21.5851 55.5642 20.4266 56.879 22.1565 51.371 29.6285 53.5433 34.026 54.8363 36.8822 52.4381 42.1201 43.5603 44.8805 46.4006 47.466 44.8197 53.3856 47.745 57.9131 46.7121 61.4805 40.3705 62.1363 37.1702 64.0469 34.1324 63.0226 20.0878 64.0496 17.768 62.6355 16.3642 58.3217 20.1457 57.7537 21.2742 54.8169 24.1181 53.9324 24.1988 51.6214 29.9208 49.2713 28.5049 47.6425 30.2146 46.1884 27.5629 42.2994 28.4377 36.4427 31.7336 36.4995 36.5784 32.8793 39.2725 33.6123 41.1861 32.1908 39.7404 21.6067 29.8469 17.5113 28.6788 15.7528 30.3161 12.8426 37.3839 12.7246 40.9251 6.2022 46.2156 7.0948 47.7515 5.7906 50.0624 6.648 55.1415 5.4908 Z" id="_31" class="area" title="Edirne"></path>
<path d="M 543.4032 128.4156 546.2148 129.7535 546.6327 135.3432 550.8577 136.3955 555.911 134.7264 562.3534 135.3548 567.8071 136.5271 572.7851 139.9729 576.7506 140.1924 578.8397 138.0937 589.4494 137.4285 593.0227 133.898 594.1762 129.9939 592.5488 128.141 595.5742 126.3304 599.267 126.3993 600.4029 124.4891 608.3605 122.5615 610.0529 123.4739 607.7949 132.2946 605.1789 133.7841 613.7045 139.2273 612.0409 141.0766 609.2057 141.1083 604.0646 146.0965 611.5955 152.3835 596.4569 152.221 592.7293 156.376 585.4027 156.929 580.2899 160.8679 569.2746 156.8879 566.8148 159.1294 562.1273 158.9484 561.8456 157.362 555.3665 158.7551 548.5518 153.894 543.7402 154.6528 530.4733 150.6438 530.2136 145.6208 534.2957 143.0068 534.38 140.7916 541.8165 140.4633 542.672 136.911 538.2152 133.4415 543.4032 128.4156 Z" id="_32" class="area" title="Elazığ"></path>
<path d="M 547.0893 85.7062 553.9723 86.7144 554.5765 85.6185 563.4492 89.0658 565.2449 91.3137 574.6319 93.9763 582.7623 94.0106 590.4686 91.9762 599.6108 86.3666 611.2442 87.9916 609.8952 91.0005 621.0782 95.0811 622.0641 100.0267 626.2852 102.7933 626.2381 107.3585 624.0392 108.5218 611.513 109.3622 614.3765 105.9674 604.2299 106.5212 602.7421 108.1824 602.7565 106.7003 590.2905 105.046 587.1413 110.8916 579.3719 109.3 560.856 110.9978 552.0737 116.6558 553.8327 120.1133 546.8595 121.9994 546.2148 129.7535 543.4032 128.4156 536.2104 124.5683 531.2909 125.6229 528.4682 124.0516 531.4567 113.102 526.9733 107.7379 530.4216 99.0048 535.1346 96.1235 531.3409 92.2666 534.3871 89.2966 537.7208 90.272 543.5444 87.8273 546.3791 88.2767 547.0893 85.7062 Z" id="_33" class="area" title="Erzincan"></path>
<path d="M 611.2442 87.9916 617.4228 87.9215 627.6961 82.3502 627.9159 80.177 620.3405 74.8657 622.47 73.12 620.9237 70.1438 623.3229 66.8113 629.6915 63.1008 634.2715 62.3564 646.4631 54.0634 654.3843 58.0246 653.1894 62.3407 656.7296 64.8968 665.6465 59.261 673.3463 60.9202 676.5989 55.5549 675.6033 52.7112 680.8472 48.5985 694.8973 50.4952 697.5303 54.1683 704.7213 57.1816 705.4071 61.7009 702.7297 71.3485 688.3698 75.3083 687.0422 76.9162 698.061 82.5702 705.2298 91.6261 693.525 95.9754 703.2162 103.5419 697.7067 109.4995 690.2501 112.7996 689.9846 116.6926 684.8734 118.3171 683.8393 120.6465 672.0623 123.3264 665.7923 123.5159 665.7279 119.2792 658.8089 116.6567 646.4083 115.4538 645.8789 112.8269 637.4283 110.3884 631.2318 113.3488 623.9618 113.778 624.0392 108.5218 626.2381 107.3585 626.2852 102.7933 622.0641 100.0267 621.0782 95.0811 609.8952 91.0005 611.2442 87.9916 Z" id="_34" class="area" title="Erzurum"></path>
<path d="M 209.2594 81.5216 216.3636 82.6863 217.0926 85.9119 220.7088 87.4673 228.2023 85.6779 239.5468 86.1001 240.0357 87.9977 242.7482 86.8427 248.633 87.8837 251.2647 86.4635 250.7759 88.3547 253.3621 87.9806 252.5203 89.9478 254.318 90.0755 255.167 92.932 259.2627 93.7907 259.1096 95.3311 260.6804 94.7534 260.4527 96.4646 256.322 97.5138 255.1764 100.2458 262.9556 104.1453 260.6226 106.4012 264.8926 111.0055 263.9994 113.2344 266.2003 118.3223 257.9086 123.7249 259.1652 125.4631 247.9284 129.3061 237.395 122.3457 236.8604 120.0107 227.8182 119.7691 227.564 122.1923 224.9055 122.1841 224.8312 123.5363 219.3668 121.9726 220.211 125.2329 211.9848 127.9871 204.7178 125.4984 200.7407 121.0783 197.9222 119.4095 195.8889 114.9905 197.6298 113.0748 195.5465 112.0508 195.572 108.3145 191.7976 106.3423 190.1564 102.094 183.1211 102.9291 181.2642 100.174 184.6428 96.0274 187.793 94.7922 193.884 95.312 193.7833 90.63 196.351 91.206 196.9279 88.7488 201.0806 87.8003 204.2873 83.6097 209.2594 81.5216 Z" id="_35" class="area" title="Eskişehir"></path>
<path d="M 450.1109 216.9579 459.9318 205.9792 467.3599 202.4557 468.3587 200.1324 470.8843 200.589 473.8849 205.1118 477.1468 204.8631 483.1428 199.9263 487.8781 200.2587 494.4537 197.3965 498.2928 193.0818 503.6113 191.5363 508.9239 193.934 518.4772 194.9532 513.944 195.5006 508.2872 202.5832 510.0155 204.4705 508.0836 204.8331 509.3972 210.5324 511.3093 211.9529 514.032 211.5193 512.2216 212.7311 515.2167 215.329 516.0717 220.7066 496.9569 226.0399 491.3795 220.9993 488.5051 225.103 486.0285 223.3209 485.333 219.4023 477.1123 217.6519 472.8579 212.3059 468.0917 217.6995 464.8053 217.1751 461.1777 220.9485 459.3172 220.7603 450.1109 216.9579 Z" id="_36" class="area" title="Gaziantep"></path>
<path d="M 519.7745 48.7777 529.882 50.8196 537.0231 50.4726 540.9767 48.1377 544.6644 49.0915 553.302 45.3472 563.9088 43.944 562.576 55.003 553.1842 57.7232 553.6934 61.0369 550.4571 61.5215 547.606 65.6702 548.6299 67.2598 555.9655 69.3619 558.2258 72.1774 551.6561 81.4445 554.5765 85.6185 553.9723 86.7144 547.0893 85.7062 539.7898 84.9967 536.9158 81.9378 532.7201 83.1789 523.2938 79.9869 521.6266 69.0815 516.5686 67.6184 517.8783 64.9623 514.6506 59.1895 516.3026 56.255 515.111 53.678 519.7745 48.7777 Z" id="_37" class="area" title="Giresun"></path>
<path d="M 562.576 55.003 562.7897 57.713 569.1308 58.0706 576.1293 63.0058 586.3672 62.7912 591.3052 58.2117 591.3712 62.6705 594.6106 62.9991 595.7175 65.9173 599.6965 65.298 598.0862 62.8918 599.258 61.9977 602.8805 64.0995 603.0324 66.1595 593.601 70.4226 591.1726 75.2968 591.2997 80.3289 584.299 84.117 585.1161 88.0835 590.4686 91.9762 582.7623 94.0106 574.6319 93.9763 565.2449 91.3137 563.4492 89.0658 554.5765 85.6185 551.6561 81.4445 558.2258 72.1774 555.9655 69.3619 548.6299 67.2598 547.606 65.6702 550.4571 61.5215 553.6934 61.0369 553.1842 57.7232 562.576 55.003 Z" id="_38" class="area" title="Gümüşhane"></path>
<path d="M 735.5268 200.9015 736.6019 191.2935 741.2165 188.4163 744.1664 182.9294 749.7322 181.5605 764.4805 181.5944 767.3707 180.1516 769.07 183.2796 773.8159 183.1793 782.424 180.07 783.8455 181.7527 788.3769 181.2943 790.788 183.4125 788.5787 186.8625 790.5178 188.5821 789.0835 195.0516 798.2361 200.7686 798.8124 202.401 796.5024 204.1865 797.6213 207.6358 791.0413 205.7903 784.3332 210.6161 779.8821 211.5125 777.8232 215.2492 775.3592 214.3879 772.5642 209.4506 776.5258 206.7043 776.0814 203.503 770.1664 200.2531 765.6732 200.0593 761.5764 204.3609 757.862 205.6694 756.7906 204.2545 743.9361 203.5559 738.2608 200.0256 735.5268 200.9015 Z" id="_39" class="area" title="Hakkari"></path>
<path d="M 430.0213 217.8034 433.8017 213.5172 437.3523 212.8911 442.5028 215.6899 450.1109 216.9579 459.3172 220.7603 455.4929 227.91 456.2154 230.9716 454.2287 235.1424 456.8178 241.7584 459.007 241.26 460.5739 245.2379 457.6428 246.442 452.5459 245.2995 450.9314 247.1832 447.5108 246.3298 447.2759 254.8872 443.5389 254.9803 443.8219 257.2231 439.4557 257.837 437.8903 263.3447 436.0527 260.9258 431.5433 260.2734 431.8455 257.851 428.1675 258.3447 430.793 254.8231 422.4578 242.9212 427.5018 237.0899 439.487 230.6507 440.4296 228.5912 440.1113 222.6227 437.757 219.7128 432.2715 216.6613 430.0213 217.8034 Z" id="_40" class="area" title="Hatay"></path>
<path d="M 184.9838 180.7711 189.7172 172.2097 195.5502 170.1302 201.4111 164.292 214.2295 159.2243 215.357 156.9332 221.8648 154.4434 224.1192 151.1388 228.6263 151.2486 232.2588 155.7643 234.653 156.3589 235.8233 159.1698 244.213 164.2664 245.9274 169.4748 241.6097 178.0609 241.4682 184.3107 237.649 186.1965 238.4361 195.9093 224.6935 198.4696 219.6535 197.9703 214.0903 191.8526 212.8757 186.616 202.1351 184.6977 198.5356 179.1895 190.5286 181.1237 184.9838 180.7711 Z" id="_41" class="area" title="Isparta"></path>
<path d="M 287.3877 232.8842 308.0973 236.3881 309.012 231.5065 314.7832 232.0367 307.4529 224.9245 306.5358 220.7741 307.978 218.7447 312.2607 219.4578 315.3744 216.6239 317.9816 217.2312 332.87 213.7169 350.6637 212.6565 355.564 210.7002 355.1736 206.6048 359.6157 204.0177 366.0608 197.5007 376.0517 195.5664 377.5714 200.623 379.5227 199.4145 388.6741 202.6135 386.8387 205.079 387.7936 207.7057 390.074 208.6752 390.4453 211.0003 394.9014 212.0117 393.8082 215.1221 396.5372 219.665 395.6858 222.4219 393.0576 222.0844 386.1028 225.1168 379.7978 221.6039 371.7628 223.3198 353.1266 236.7282 351.2782 242.1001 346.7879 245.6238 342.7867 242.1895 335.3411 249.7428 333.5755 247.278 329.9606 250.1293 326.3279 248.7178 322.9856 250.1714 321.24 248.9256 312.5623 249.6286 309.9789 252.4532 304.4071 251.0581 298.4685 254.6721 288.2473 251.2239 290.285 243.5255 287.3877 232.8842 Z" id="_42" class="area" title="Mersin"></path>
<g id="_43" class="area excluded" title="İstanbul">
<path d="M 98.6424 45.7245 97.0823 42.8407 99.2986 39.5936 98.2054 37.2742 101.4649 35.0418 103.3749 29.9652 101.2151 25.8522 104.385 22.671 109.6142 26.3484 124.3066 32.2439 138.8448 36.4999 143.1967 36.4476 144.5929 38.1046 141.4597 40.4942 142.936 41.8863 141.3086 44.9574 138.9681 46.1543 137.2606 44.8561 139.3437 46.7826 132.8545 48.9209 130.255 47.6691 124.168 48.6733 122.8284 46.3431 120.8331 47.6731 108.1112 43.7988 98.6424 45.7245 Z" id="_44" class="area included" title="İstanbul"></path>
<path d="M 177.9745 41.0977 176.5794 45.3355 174.2295 46.4781 169.257 45.5993 168.1483 48.5179 165.23 47.8215 164.8309 45.8121 161.113 45.2941 158.93 50.678 154.1026 54.931 150.6533 55.2519 151.8991 53.0789 140.769 47.8301 140.0936 46.0771 142.1212 45.0077 144.0088 41.9396 143.0016 40.1734 145.3542 38.3446 150.6292 37.2565 177.9745 41.0977 Z" id="_45" class="area included" title="İstanbul"></path>
</g>
<g id="_46" class="area excluded" title="İzmir">
<path d="M 73.3255 114.1576 78.3534 129.1282 75.4616 133.1223 67.8873 134.0602 60.7471 138.7177 66.1329 142.3857 64.9285 143.5734 67.6199 147.2446 66.1328 148.4094 75.4843 148.9603 79.3163 153.1429 82.4588 151.0349 86.326 154.3091 86.2044 156.8748 88.8985 158.0743 93.2619 158.8377 94.1683 155.3216 101.9632 155.1863 104.0226 157.2304 118.2651 161.6031 117.2607 165.2337 119.0749 166.7811 116.5256 168.1748 112.4278 167.0566 109.8671 170.3682 104.8059 170.1961 98.2295 172.9701 83.2374 173.6366 79.7731 171.5723 76.6635 173.228 75.6964 178.8835 73.6053 179.5931 68.0397 175.2832 66.9137 172.8063 62.0832 172.5695 55.8058 168.9243 50.9525 170.8408 46.5176 162.7893 41.451 163.3761 39.6286 167.7445 38.7552 166.0422 37.0829 166.6985 36.541 164.2142 31.1625 162.7247 31.244 161.1653 28.9184 162.6132 24.5437 160.7742 27.5794 158.6645 26.8102 156.3436 30.5202 159.1774 30.9863 157.4699 31.4501 158.6559 35.0783 156.3695 33.7402 154.2063 35.4038 155.3422 36.4346 154.2252 33.1504 152.1517 31.3252 153.3904 29.6735 145.385 32.309 143.6819 36.7136 144.9455 40.9755 149.8848 41.6668 152.4509 39.3757 152.4754 39.2809 154.2277 43.0438 159.0623 44.401 153.9348 48.4019 157.2332 63.6128 153.6536 63.0993 152.5508 57.5935 152.391 54.273 154.2023 49.9819 150.3314 51.9438 150.7814 49.2278 149.0908 49.9435 147.5399 45.0584 144.8605 45.7712 141.1348 49.2773 140.258 52.2204 141.4606 54.0863 140.1569 52.1466 137.6679 55.5043 138.457 55.3827 136.7623 59.3605 135.4218 58.3759 132.7838 57.4112 133.9628 54.8428 132.7254 50.743 133.9329 48.371 132.4113 48.2458 129.037 51.9335 127.2494 46.9647 123.4314 61.7443 114.9102 73.3255 114.1576 Z" id="_47" class="area included" title="İzmir"></path>
<path d="M 44.2568 149.4597 45.8126 152.9131 43.8494 152.1011 44.2568 149.4597 Z" id="_48" class="area    included" title="İzmir"></path>
</g>
<path d="M 705.4071 61.7009 716.9498 58.2487 719.3681 51.8354 721.2786 52.1039 725.4045 48.5647 730.7301 48.3562 736.8589 43.1564 742.9913 45.9227 751.2405 49.6423 754.4323 58.2398 750.3468 66.5558 745.8473 68.829 749.0639 71.1158 747.8712 74.3072 752.9607 81.5687 750.2869 83.2464 738.0876 83.6642 735.2539 88.822 719.248 89.2555 705.2298 91.6261 698.061 82.5702 687.0422 76.9162 688.3698 75.3083 702.7297 71.3485 705.4071 61.7009 Z" id="_49" class="area" title="Kars"></path>
<path d="M 296.3291 11.7136 320.6751 4.5473 357.8043 7.2404 360.2422 11.2429 358.3879 16.0732 369.4821 16.3906 373.3336 18.9776 370.5961 24.1774 366.233 26.2097 367.3713 33.5368 365.4989 35.9528 362.6621 34.9584 357.5525 39.4253 358.1158 43.3433 361.9969 46.1443 357.8247 52.8644 348.3633 54.106 339.839 51.2043 341.5199 43.604 331.7603 46.0302 326.5971 44.8634 321.2515 47.6581 314.4686 43.9886 309.5723 44.486 307.6797 41.1808 303.5186 39.5065 303.4173 37.4475 305.166 34.7458 311.5247 32.1315 312.9524 29.2541 308.9241 26.4871 308.9511 23.3683 302.182 23.1273 303.5994 16.4347 297.3108 15.6603 296.3291 11.7136 Z" id="_50" class="area" title="Kastamonu"></path>
<path d="M 392.4269 130.0495 396.148 129.0075 402.8881 131.8432 409.1449 127.523 407.8598 125.4415 409.0964 123.7766 418.0532 121.9147 425.0047 117.773 436.1996 126.6014 454.1054 126.0266 461.0764 123.98 468.9755 127.5638 471.5618 131.6764 463.6354 139.9918 464.0858 149.6914 461.1624 150.8137 459.9542 158.534 447.8793 161.8674 447.7393 157.1536 442.9624 154.4205 439.9758 155.218 433.7898 159.9922 429.7765 166.8218 420.8694 169.5373 418.0025 172.8158 414.8168 173.7507 415.6609 179.4183 412.26 181.8254 411.743 185.1612 409.572 183.4182 393.9286 186.5923 399.9149 177.8789 400.2075 166.4824 391.7142 164.9948 386.1796 157.349 386.1544 154.2434 396.8534 151.0902 393.0405 145.9042 394.8495 145.1789 394.1335 142.6968 388.9057 138.4359 392.4269 130.0495 Z" id="_51" class="area" title="Kayseri"></path>
<path d="M 103.5064 21.5647 96.1482 23.6934 93.8716 26.1248 83.0959 28.7569 81.389 35.3225 74.6807 37.5125 66.1819 33.4419 61.6458 33.5547 61.3927 35.7218 60.3473 33.2143 57.3458 32.1304 53.5433 34.026 51.371 29.6285 56.879 22.1565 55.5642 20.4266 52.8187 21.5851 52.3833 19.8342 55.4633 18.6366 57.2527 14.4975 55.1415 5.4908 57.6382 1.9755 65.1123 2.856 66.5605 1.0001 71.792 2.9384 79.9578 9.3285 85.608 6.2661 91.4449 7.5344 90.6947 5.9113 92.4673 5.1097 94.6908 6.472 99.4758 6.0663 100.6614 10.1798 98.2759 9.9967 97.4445 12.2293 103.5064 21.5647 Z" id="_52" class="area" title="Kırklareli"></path>
<path d="M 323.1043 112.6358 328.9481 112.6287 334.8562 109.5591 338.0061 110.6434 337.4033 108.0652 347.2058 102.0883 346.6708 100.0274 353.4638 97.4189 355.719 97.3654 359.2676 100.7754 367.7123 102.3859 367.1413 103.9289 370.4061 106.248 370.0947 109.6176 374.8793 112.1159 374.7679 114.5662 373.0533 116.9412 377.379 119.0681 371.6467 125.6611 372.793 128.5857 366.8672 131.4629 363.3745 136.3119 359.0488 134.185 359.2851 137.6541 354.5271 137.5678 347.4758 129.3392 343.5792 128.8213 338.6416 127.5103 330.0854 121.9999 323.1043 112.6358 Z" id="_53" class="area" title="Kırşehir"></path>
<path d="M 196.9284 39.5577 191.7708 43.4782 191.0557 46.3676 193.7126 48.8824 190.583 54.5237 192.5297 58.7592 188.1234 59.0494 186.2516 63.9041 179.7382 66.2091 177.6513 66.7209 177.691 64.9806 169.2154 63.1354 162.9698 66.9865 160.0013 65.1786 163.0845 60.0583 173.8095 58.2649 178.1208 58.9365 179.2653 57.1477 172.5686 57.8401 165.6671 56.0458 154.7174 57.2249 154.1026 54.931 158.93 50.678 161.113 45.2941 164.8309 45.8121 165.23 47.8215 168.1483 48.5179 169.257 45.5993 174.2295 46.4781 176.5794 45.3355 177.9745 41.0977 188.107 41.2291 192.8867 38.2901 196.9284 39.5577 Z" id="_54" class="area" title="Kocaeli"></path>
<path d="M 247.9284 129.3061 259.1652 125.4631 268.2832 132.083 274.1683 129.2049 284.1926 131.5712 292.9741 126.2373 299.3763 124.6196 300.5974 122.8867 298.7884 119.1872 304.5966 119.4181 308.2143 121.5492 313.5874 119.2537 312.0786 121.8281 313.8893 125.0374 317.1583 127.2105 320.3973 126.2638 322.5557 129.044 322.1452 139.2718 328.1231 143.7566 320.9503 144.4382 320.1972 151.3308 314.0146 159.7368 314.5696 161.5979 318.1004 162.0334 318.7181 172.1247 320.8767 170.292 325.0733 173.1412 329.5344 172.8203 330.6923 168.9231 335.4524 167.4971 339.4282 168.7468 344.1147 166.7973 351.6198 169.5004 348.4909 171.4389 348.9649 172.765 358.244 177.2728 364.7167 184.4433 360.7665 189.3952 362.6537 191.5002 361.6221 193.4583 366.0608 197.5007 359.6157 204.0177 354.8223 199.5529 349.1943 198.4426 345.4422 196.7416 344.4006 194.1741 340.2831 193.5622 337.844 190.0141 320.6793 194.2948 313.269 191.558 298.8249 200.4954 297.606 206.1115 298.9195 210.546 296.7623 211.5799 299.2644 215.672 297.6073 221.1874 286.9142 219.7059 288.3523 222.9457 284.2884 226.2083 284.303 224.0158 278.4725 221.4028 254.6932 198.4372 243.6716 199.3689 239.2629 197.8155 238.4361 195.9093 237.649 186.1965 241.4682 184.3107 241.6097 178.0609 245.9274 169.4748 244.213 164.2664 235.8233 159.1698 234.653 156.3589 233.8088 153.4511 248.0647 145.2772 246.2628 141.995 248.772 134.4388 249.8712 132.412 253.8152 131.2222 247.9284 129.3061 Z" id="_55" class="area" title="Konya"></path>
<path d="M 170.7199 94.8127 171.0128 99.5542 183.1211 102.9291 190.1564 102.094 191.7976 106.3423 195.572 108.3145 195.5465 112.0508 197.6298 113.0748 195.8889 114.9905 197.9222 119.4095 200.7407 121.0783 193.2388 125.0807 191.4409 128.1976 192.4773 130.9982 185.1218 137.6939 182.4743 137.9217 178.1365 134.8685 169.4104 133.5416 156.3937 135.648 151.6836 138.6183 145.4209 136.6617 139.3171 135.5547 136.4485 131.6764 136.9638 127.4507 123.8207 123.6824 126.9134 124.1594 124.1034 118.6672 130.7827 118.3151 137.8832 113.1739 137.1097 108.1297 140.4197 105.1897 148.2393 104.8666 158.7336 93.5429 170.7199 94.8127 Z" id="_56" class="area" title="Kütahya"></path>
<path d="M 486.5686 148.6538 493.551 140.6693 497.5544 139.6056 493.7947 129.6489 504.0603 131.4216 506.0525 126.8438 521.2838 127.0659 528.4682 124.0516 531.2909 125.6229 536.2104 124.5683 543.4032 128.4156 538.2152 133.4415 542.672 136.911 541.8165 140.4633 534.38 140.7916 534.2957 143.0068 530.2136 145.6208 530.4733 150.6438 543.7402 154.6528 548.5518 153.894 555.3665 158.7551 561.8456 157.362 562.1273 158.9484 561.9652 164.0808 557.5842 168.8921 548.6685 171.8079 536.985 165.5789 533.1731 165.3651 532.1909 167.2215 525.2546 165.3778 520.6067 169.3054 521.1494 173.4461 517.2039 176.3599 506.8772 176.3986 500.1273 174.2453 498.1793 170.7184 502.7553 167.2336 502.859 163.209 500.1215 158.8522 483.6509 151.3823 486.5686 148.6538 Z" id="_57" class="area" title="Malatya"></path>
<path d="M 123.8207 123.6824 136.9638 127.4507 136.4485 131.6764 139.3171 135.5547 145.4209 136.6617 140.6173 141.688 133.9256 143.027 132.432 153.3073 129.8098 157.1676 134.4958 161.9437 133.1009 164.2656 129.0697 164.3349 128.3324 167.1699 124.9042 168.4197 119.0749 166.7811 117.2607 165.2337 118.2651 161.6031 104.0226 157.2304 101.9632 155.1863 94.1683 155.3216 93.2619 158.8377 88.8985 158.0743 86.2044 156.8748 86.326 154.3091 82.4588 151.0349 79.3163 153.1429 75.4843 148.9603 66.1328 148.4094 67.6199 147.2446 64.9285 143.5734 66.1329 142.3857 60.7471 138.7177 67.8873 134.0602 75.4616 133.1223 78.3534 129.1282 73.3255 114.1576 76.1937 113.1354 81.1457 116.0197 87.3473 115.3687 90.142 117.3171 94.7492 115.8062 96.785 117.5259 95.8294 119.8954 105.2678 126.9442 117.4504 125.7761 123.8207 123.6824 Z" id="_58" class="area" title="Manisa"></path>
<path d="M 447.8793 161.8674 459.9542 158.534 461.1624 150.8137 464.0858 149.6914 475.0158 147.3679 486.5686 148.6538 483.6509 151.3823 500.1215 158.8522 502.859 163.209 502.7553 167.2336 498.1793 170.7184 500.1273 174.2453 491.7666 187.1896 493.0666 189.9615 496.9236 189.5135 498.2928 193.0818 494.4537 197.3965 487.8781 200.2587 483.1428 199.9263 477.1468 204.8631 473.8849 205.1118 470.8843 200.589 468.3587 200.1324 467.3599 202.4557 459.9318 205.9792 461.1913 204.0872 459.277 202.5049 458.9252 198.4075 443.324 199.5414 441.4748 192.024 442.7278 185.931 440.4769 183.8307 442.4622 182.4708 441.553 181.1524 444.3146 178.1036 440.007 174.3934 442.688 169.7944 446.2286 169.9209 447.8793 161.8674 Z" id="_59" class="area" title="Kahramanmaraş"></path>
<path d="M 594.4586 192.6967 603.43 190.6223 609.8334 192.078 616.8946 188.6641 626.0595 190.2366 626.032 182.9418 634.3817 186.8648 641.6968 182.9628 645.1948 191.1698 647.7372 193.0714 661.2022 192.4325 670.3507 185.139 674.1067 185.5025 677.3312 189.5774 674.8402 192.0183 676.3234 196.3967 665.2603 195.5371 662.3544 200.9497 667.8301 204.7529 667.6681 208.7957 649.0329 211.1162 636.307 208.2139 633.0287 209.2587 630.2049 208.3785 620.3324 212.5416 615.4452 213.0737 607.8295 217.533 602.2841 206.9776 598.9009 204.5328 594.4586 192.6967 Z" id="_60" class="area" title="Mardin"></path>
<path d="M 73.3998 198.4122 76.9048 197.7828 77.4025 196.5182 74.3825 194.1351 78.1035 190.7061 82.584 190.5216 92.1281 194.2772 94.2079 193.1422 104.1634 194.488 104.9258 192.7964 107.7661 193.1214 109.5249 189.9702 110.3434 192.3803 115.0289 192.1031 121.2651 194.0044 123.431 192.7943 124.9446 198.1537 127.5378 198.4281 133.1574 208.0726 137.6417 207.9511 141.2195 212.011 144.1776 212.5581 144.9765 219.2455 147.3317 217.6945 152.5136 218.5406 156.5872 221.4374 160.2948 219.8969 164.6672 214.9 170.2145 215.195 171.8139 220.0112 167.674 229.436 160.1399 236.0466 154.0764 237.3509 153.1634 241.9616 151.145 243.4224 144.1513 239.2118 145.5319 237.5251 144.8405 232.3951 140.2911 232.7063 141.9212 232.0896 141.6361 229.5521 143.1698 228.4563 144.7608 229.3149 143.9436 227.1869 136.9761 223.8864 134.2595 226.3659 133.6635 228.5854 136.116 228.3769 133.5308 230.8431 133.7783 228.7833 131.0705 226.7649 124.0034 226.0285 124.0844 222.0901 121.5119 220.7088 120.7712 222.6061 117.5 221.5241 117.2223 218.6895 114.0544 220.0676 116.0524 220.5532 114.8597 222.6564 111.1992 221.2992 109.6974 222.1983 111.4406 220.937 109.2048 220.0101 107.9914 221.8291 110.9144 224.9357 105.0855 226.8526 103.0689 230.3551 99.7275 231.9171 97.3914 232.3074 96.4576 230.3207 100.9457 230.1602 102.2529 228.466 100.0635 226.5157 96.7745 226.888 103.6406 225.1632 101.784 224.2899 102.9683 223.0912 103.7697 223.9903 103.3171 221.8329 95.3742 224.4395 86.8503 223.6621 84.9057 227.9662 80.5386 226.8223 76.4963 228.3934 71.7477 226.8424 74.4397 224.1771 81.9928 223.5466 83.3159 221.5676 99.6305 222.576 100.9705 221.0233 98.3894 220.5734 100.7414 219.1852 99.1461 216.8024 103.4353 216.2809 105.2711 217.5913 107.2372 213.757 112.0702 212.2579 93.8199 212.5051 80.1652 214.7483 74.2859 212.1929 67.6026 215.1842 66.0085 211.2667 68.8242 209.0522 67.1561 208.3362 69.6566 208.8748 70.072 207.0682 71.1046 208.2636 71.8592 207.1814 76.2105 210.3468 80.8239 208.0423 78.5255 205.6063 82.2396 205.8852 80.5794 204.7592 82.1288 202.0284 77.6401 204.149 78.2244 202.1575 75.5367 203.0307 77.1876 199.9108 73.7929 200.9881 73.3998 198.4122 Z" id="_61" class="area" title="Muğla"></path>
<path d="M 646.4083 115.4538 658.8089 116.6567 665.7279 119.2792 665.7923 123.5159 672.0623 123.3264 683.8393 120.6465 684.8734 118.3171 689.9846 116.6926 690.2501 112.7996 697.7067 109.4995 701.5034 110.7267 703.1218 114.8531 705.8763 115.4488 710.1071 122.2893 710.8162 132.6111 694.5387 133.7916 688.1074 135.6269 685.1324 139.5913 686.309 141.4708 679.7657 145.9506 679.8173 147.5902 666.1597 146.1124 662.6523 150.3384 653.9009 152.1639 646.9732 141.7195 644.5474 134.1876 651.0497 126.9711 646.0127 120.3302 646.4083 115.4538 Z" id="_62" class="area" title="Muş"></path>
<path d="M 374.7679 114.5662 387.2022 118.3246 392.4269 130.0495 388.9057 138.4359 394.1335 142.6968 394.8495 145.1789 393.0405 145.9042 396.8534 151.0902 386.1544 154.2434 386.1796 157.349 373.5241 158.5904 368.9243 155.8574 365.9908 153.6186 366.4063 148.9364 359.4964 145.9715 359.2851 137.6541 359.0488 134.185 363.3745 136.3119 366.8672 131.4629 372.793 128.5857 371.6467 125.6611 377.379 119.0681 373.0533 116.9412 374.7679 114.5662 Z" id="_63" class="area" title="Nevşehir"></path>
<path d="M 459.7696 51.4513 469.8669 49.701 472.9765 42.8539 478.1899 43.1951 480.5511 40.954 485.487 40.9809 495.6419 46.1417 501.7261 41.3375 506.0383 42.1742 505.5431 44.3258 509.8766 47.5613 519.7745 48.7777 515.111 53.678 516.3026 56.255 514.6506 59.1895 517.8783 64.9623 516.5686 67.6184 512.6027 68.6823 509.5567 74.4451 505.7632 72.5388 503.0044 75.0656 498.0038 72.6272 498.0954 66.5195 488.0451 65.2368 478.84 57.8151 472.9805 60.0203 466.7355 59.0169 467.1186 56.6259 460.0792 53.0114 459.7696 51.4513 Z" id="_64" class="area" title="Ordu"></path>
<path d="M 351.6198 169.5004 359.9874 166.8522 366.7807 161.9228 366.1704 158.1263 368.9243 155.8574 373.5241 158.5904 386.1796 157.349 391.7142 164.9948 400.2075 166.4824 399.9149 177.8789 393.9286 186.5923 385.7078 185.1073 383.7742 187.6092 383.5042 194.5761 380.622 196.0567 376.0517 195.5664 366.0608 197.5007 361.6221 193.4583 362.6537 191.5002 360.7665 189.3952 364.7167 184.4433 358.244 177.2728 348.9649 172.765 348.4909 171.4389 351.6198 169.5004 Z" id="_65" class="area" title="Niğde"></path>
<path d="M 612.0299 47.4071 627.8901 43.5297 631.5192 40.3581 642.1915 38.098 650.1118 33.6208 655.5503 42.1411 646.4631 54.0634 634.2715 62.3564 629.6915 63.1008 623.3229 66.8113 618.0677 66.8077 616.0725 63.0327 619.2746 59.393 615.7161 55.0481 618.1015 53.1252 612.0299 47.4071 Z" id="_66" class="area" title="Rize"></path>
<path d="M 221.7189 43.9955 223.5754 45.3905 215.3746 51.9322 219.3374 54.3474 216.4272 56.8378 220.7602 58.7769 220.3313 61.0837 217.5891 67.2778 212.71 68.3823 209.0091 67.4684 206.2948 68.8904 205.0415 73.6994 206.9315 74.5521 205.1276 75.7402 206.3185 77.009 201.6268 75.5508 199.7038 72.7271 188.3834 73.7499 184.8404 69.7441 182.3151 70.7933 180.6111 67.2228 179.7382 66.2091 186.2516 63.9041 188.1234 59.0494 192.5297 58.7592 190.583 54.5237 193.7126 48.8824 191.0557 46.3676 191.7708 43.4782 196.9284 39.5577 213.1156 43.4463 221.7189 43.9955 Z" id="_67" class="area" title="Sakarya"></path>
<path d="M 384.7126 36.6813 391.3089 31.9614 395.4177 32.1108 398.1741 35.8328 402.7674 37.2716 406.0884 36.084 405.1693 32.9296 407.9606 33.9064 408.9851 32.9562 408.5959 28.4953 405.1155 26.7926 402.9949 22.3316 407.2452 18.5526 414.7195 20.6324 429.9626 16.3838 436.4076 21.0297 437.0802 27.8047 447.6655 36.3764 452.9865 36.2063 459.0573 31.0694 473.3239 35.2747 474.6518 39.2081 480.5511 40.954 478.1899 43.1951 472.9765 42.8539 469.8669 49.701 459.7696 51.4513 449.8447 51.7287 446.1849 50.8225 445.4544 48.0194 440.3067 47.8633 433.5693 53.8303 419.5499 52.5885 415.4763 49.7936 410.2727 49.1599 409.3271 46.4349 400.272 45.7297 394.2682 43.6433 387.5514 43.2787 389.4506 40.883 384.7126 36.6813 Z" id="_68" class="area" title="Samsun"></path>
<path d="M 667.4418 160.8274 680.543 165.8696 691.6897 162.1339 692.7067 166.0628 697.802 166.6329 697.308 168.2798 703.6156 172.373 707.7933 172.9681 709.6839 171.2091 712.05 171.2258 718.5709 181.7245 715.8071 185.9521 704.4008 183.4635 698.8605 185.059 694.4062 184.4241 691.3954 189.5075 686.35 187.7834 680.12 188.1212 674.1067 185.5025 670.3507 185.139 667.8959 178.0729 658.3628 176.6735 655.0441 173.6265 665.5833 168.6461 667.4418 160.8274 Z" id="_69" class="area" title="Siirt"></path>
<path d="M 357.8043 7.2404 368.6705 6.3148 373.9942 7.909 380.7531 7.3631 386.1094 4.2926 387.62 1.2712 390.6369 1.473 392.3831 3.9743 398.7367 4.61 395.0194 4.7803 393.6152 8.2464 398.6861 15.1207 407.2452 18.5526 402.9949 22.3316 405.1155 26.7926 408.5959 28.4953 408.9851 32.9562 407.9606 33.9064 405.1693 32.9296 406.0884 36.084 402.7674 37.2716 398.1741 35.8328 395.4177 32.1108 391.3089 31.9614 384.7126 36.6813 383.6964 38.4476 377.8085 36.2761 377.5939 34.5911 367.3713 33.5368 366.233 26.2097 370.5961 24.1774 373.3336 18.9776 369.4821 16.3906 358.3879 16.0732 360.2422 11.2429 357.8043 7.2404 Z" id="_70" class="area" title="Sinop"></path>
<path d="M 425.0047 117.773 427.7389 109.6068 435.0991 109.2512 438.0356 105.7035 438.1418 101.5805 433.5897 97.9326 435.1104 94.9001 432.2054 92.6563 436.2172 93.3279 441.6504 92.4167 443.0568 90.3579 456.5638 89.3387 457.8856 85.083 462.3112 82.3346 464.2078 78.5666 475.6457 79.9411 481.2784 78.6114 492.3853 81.8074 491.1069 79.4096 497.2621 75.5579 498.0038 72.6272 503.0044 75.0656 505.7632 72.5388 509.5567 74.4451 512.6027 68.6823 516.5686 67.6184 521.6266 69.0815 523.2938 79.9869 532.7201 83.1789 536.9158 81.9378 539.7898 84.9967 547.0893 85.7062 546.3791 88.2767 543.5444 87.8273 537.7208 90.272 534.3871 89.2966 531.3409 92.2666 535.1346 96.1235 530.4216 99.0048 526.9733 107.7379 531.4567 113.102 528.4682 124.0516 521.2838 127.0659 506.0525 126.8438 504.0603 131.4216 493.7947 129.6489 497.5544 139.6056 493.551 140.6693 486.5686 148.6538 475.0158 147.3679 464.0858 149.6914 463.6354 139.9918 471.5618 131.6764 468.9755 127.5638 461.0764 123.98 454.1054 126.0266 436.1996 126.6014 425.0047 117.773 Z" id="_71" class="area" title="Sivas"></path>
<path d="M 104.385 22.671 101.2151 25.8522 103.3749 29.9652 101.4649 35.0418 98.2054 37.2742 99.2986 39.5936 97.0823 42.8407 98.6424 45.7245 96.4426 48.5201 88.1975 46.4601 77.9457 48.0936 75.596 53.427 69.4839 59.4216 53.6756 66.0552 57.044 59.1366 53.9146 57.6931 47.745 57.9131 44.8197 53.3856 46.4006 47.466 43.5603 44.8805 52.4381 42.1201 54.8363 36.8822 53.5433 34.026 57.3458 32.1304 60.3473 33.2143 61.3927 35.7218 61.6458 33.5547 66.1819 33.4419 74.6807 37.5125 81.389 35.3225 83.0959 28.7569 93.8716 26.1248 96.1482 23.6934 103.5064 21.5647 104.385 22.671 Z" id="_72" class="area" title="Tekirdağ"></path>
<path d="M 408.0128 78.9469 426.1293 68.5741 431.3994 68.1991 436.0768 70.5028 441.3715 67.9623 448.2379 60.8576 448.299 58.0912 452.0504 56.4627 448.7588 54.5862 449.8447 51.7287 459.7696 51.4513 460.0792 53.0114 467.1186 56.6259 466.7355 59.0169 472.9805 60.0203 478.84 57.8151 488.0451 65.2368 498.0954 66.5195 498.0038 72.6272 497.2621 75.5579 491.1069 79.4096 492.3853 81.8074 481.2784 78.6114 475.6457 79.9411 464.2078 78.5666 462.3112 82.3346 457.8856 85.083 456.5638 89.3387 443.0568 90.3579 441.6504 92.4167 436.2172 93.3279 432.2054 92.6563 429.0177 86.8514 429.7657 84.6513 414.8805 84.7215 411.0066 83.3798 408.0128 78.9469 Z" id="_73" class="area" title="Tokat"></path>
<path d="M 563.9088 43.944 568.1624 44.959 574.0623 42.545 583.5355 47.1949 586.6409 46.4726 593.0435 48.9212 599.5843 48.6886 603.3204 50.666 612.0299 47.4071 618.1015 53.1252 615.7161 55.0481 619.2746 59.393 616.0725 63.0327 618.0677 66.8077 608.9443 66.7074 606.6081 64.7552 603.0324 66.1595 602.8805 64.0995 599.258 61.9977 598.0862 62.8918 599.6965 65.298 595.7175 65.9173 594.6106 62.9991 591.3712 62.6705 591.3052 58.2117 586.3672 62.7912 576.1293 63.0058 569.1308 58.0706 562.7897 57.713 562.576 55.003 563.9088 43.944 Z" id="_74" class="area" title="Trabzon"></path>
<path d="M 611.513 109.3622 609.596 113.3436 603.9448 114.031 603.4081 117.7443 598.6703 116.7913 599.3271 119.316 595.5742 126.3304 592.5488 128.141 594.1762 129.9939 593.0227 133.898 589.4494 137.4285 578.8397 138.0937 576.7506 140.1924 572.7851 139.9729 567.8071 136.5271 562.3534 135.3548 555.911 134.7264 550.8577 136.3955 546.6327 135.3432 546.2148 129.7535 546.8595 121.9994 553.8327 120.1133 552.0737 116.6558 560.856 110.9978 579.3719 109.3 587.1413 110.8916 590.2905 105.046 602.7565 106.7003 602.7421 108.1824 604.2299 106.5212 614.3765 105.9674 611.513 109.3622 Z" id="_75" class="area" title="Tunceli"></path>
<path d="M 518.4772 194.9532 522.3547 196.6008 523.2089 194.9145 528.0102 193.3513 534.1542 193.6702 542.1651 188.0464 550.4162 186.6023 548.3325 184.4871 553.2729 184.0151 552.1011 182.2366 554.8355 182.1277 554.6288 180.1859 552.308 180.0407 555.525 179.1151 555.4333 175.9937 561.498 171.0518 576.978 175.8788 584.096 180.4594 590.4396 177.8165 591.7825 190.4617 594.4586 192.6967 598.9009 204.5328 602.2841 206.9776 607.8295 217.533 590.7286 223.8599 565.3945 227.4983 557.4567 225.7606 545.6927 225.8558 538.0363 220.1742 525.0358 216.8744 516.0717 220.7066 515.2167 215.329 512.2216 212.7311 514.032 211.5193 511.3093 211.9529 509.3972 210.5324 508.0836 204.8331 510.0155 204.4705 508.2872 202.5832 513.944 195.5006 518.4772 194.9532 Z" id="_76" class="area" title="Şanlıurfa"></path>
<path d="M 145.4209 136.6617 151.6836 138.6183 156.3937 135.648 169.4104 133.5416 178.1365 134.8685 182.4743 137.9217 181.6283 140.7998 178.3934 142.4472 177.5917 144.9085 179.441 145.4066 177.4386 145.4259 174.6092 149.4581 174.4565 152.6629 166.6481 154.3234 166.4976 159.8467 164.5362 161.3943 156.0991 158.4623 148.8529 161.9426 148.8304 164.53 144.759 161.8956 134.4958 161.9437 129.8098 157.1676 132.432 153.3073 133.9256 143.027 140.6173 141.688 145.4209 136.6617 Z" id="_77" class="area" title="Uşak"></path>
<path d="M 723.3853 129.5033 722.6532 127.3426 729.3876 122.9235 731.7202 116.9673 734.1835 115.6745 741.1849 115.4711 749.5166 121.9839 752.0843 122.1063 759.888 116.3058 766.51 115.1735 769.4391 118.5481 768.9589 121.8761 773.8091 124.9165 772.7722 133.0866 778.0353 138.3426 775.4658 142.1242 778.3552 146.3201 777.4282 155.6201 780.7567 157.1023 783.6612 155.9612 786.2904 157.8326 781.6623 161.5657 781.279 165.9351 779.5187 166.4072 780.2099 167.6776 778.5874 167.8543 774.1998 176.6783 781.1356 177.7358 782.424 180.07 773.8159 183.1793 769.07 183.2796 767.3707 180.1516 764.4805 181.5944 749.7322 181.5605 744.1664 182.9294 718.5709 181.7245 712.05 171.2258 709.6839 171.2091 712.0855 161.505 709.1704 159.5456 714.0267 156.0658 713.4116 151.2267 722.0001 146.4669 724.0953 142.6674 732.6441 135.9591 730.5756 133.693 726.4922 133.6747 723.3853 129.5033 Z" id="_78" class="area" title="Van"></path>
<path d="M 356.6104 91.555 362.9548 91.5389 367.1517 88.6654 373.6093 90.8071 375.8247 87.8739 381.8457 88.8857 384.8325 86.8049 386.2978 88.7675 391.7274 89.0062 397.6735 87.0447 395.4625 84.3684 398.6809 82.248 396.7623 81.7515 396.4445 79.096 400.3036 80.5039 406.8929 78.6219 408.0128 78.9469 411.0066 83.3798 414.8805 84.7215 429.7657 84.6513 429.0177 86.8514 432.2054 92.6563 435.1104 94.9001 433.5897 97.9326 438.1418 101.5805 438.0356 105.7035 435.0991 109.2512 427.7389 109.6068 425.0047 117.773 418.0532 121.9147 409.0964 123.7766 407.8598 125.4415 409.1449 127.523 402.8881 131.8432 396.148 129.0075 392.4269 130.0495 387.2022 118.3246 374.7679 114.5662 374.8793 112.1159 370.0947 109.6176 370.4061 106.248 367.1413 103.9289 367.7123 102.3859 359.2676 100.7754 355.719 97.3654 353.4638 97.4189 351.3874 92.9696 356.6104 91.555 Z" id="_79" class="area" title="Yozgat"></path>
<path d="M 235.5373 42.1939 240.3005 38.2235 240.077 33.8352 269.1371 22.3839 271.7455 25.4507 274.2955 24.6415 276.8887 29.33 276.7764 33.6284 275.2028 36.4179 271.6436 36.9893 267.4445 40.3501 264.0963 45.091 258.8462 46.6212 249.4849 44.906 238.0168 46.0802 235.5373 42.1939 Z" id="_80" class="area" title="Zonguldak"></path>
<path d="M 328.1231 143.7566 334.2047 143.732 339.9513 135.532 336.8507 131.3764 343.013 130.0957 343.5792 128.8213 347.4758 129.3392 354.5271 137.5678 359.2851 137.6541 359.4964 145.9715 366.4063 148.9364 365.9908 153.6186 368.9243 155.8574 366.1704 158.1263 366.7807 161.9228 359.9874 166.8522 351.6198 169.5004 344.1147 166.7973 339.4282 168.7468 335.4524 167.4971 330.6923 168.9231 329.5344 172.8203 325.0733 173.1412 320.8767 170.292 318.7181 172.1247 318.1004 162.0334 314.5696 161.5979 314.0146 159.7368 320.1972 151.3308 320.9503 144.4382 328.1231 143.7566 Z" id="_81" class="area" title="Aksaray"></path>
<path d="M 603.0324 66.1595 606.6081 64.7552 608.9443 66.7074 618.0677 66.8077 623.3229 66.8113 620.9237 70.1438 622.47 73.12 620.3405 74.8657 627.9159 80.177 627.6961 82.3502 617.4228 87.9215 611.2442 87.9916 599.6108 86.3666 590.4686 91.9762 585.1161 88.0835 584.299 84.117 591.2997 80.3289 591.1726 75.2968 593.601 70.4226 603.0324 66.1595 Z" id="_82" class="area" title="Bayburt"></path>
<path d="M 284.2884 226.2083 288.3523 222.9457 286.9142 219.7059 297.6073 221.1874 299.2644 215.672 296.7623 211.5799 298.9195 210.546 297.606 206.1115 298.8249 200.4954 313.269 191.558 320.6793 194.2948 337.844 190.0141 340.2831 193.5622 344.4006 194.1741 345.4422 196.7416 349.1943 198.4426 354.8223 199.5529 359.6157 204.0177 355.1736 206.6048 355.564 210.7002 350.6637 212.6565 332.87 213.7169 317.9816 217.2312 315.3744 216.6239 312.2607 219.4578 307.978 218.7447 306.5358 220.7741 307.4529 224.9245 314.7832 232.0367 309.012 231.5065 308.0973 236.3881 287.3877 232.8842 284.2884 226.2083 Z" id="_83" class="area" title="Karaman"></path>
<path d="M 333.2479 74.6533 346.766 77.3916 356.9279 89.4921 356.6104 91.555 351.3874 92.9696 353.4638 97.4189 346.6708 100.0274 347.2058 102.0883 337.4033 108.0652 338.0061 110.6434 334.8562 109.5591 328.9481 112.6287 323.1043 112.6358 322.8551 110.4865 319.5902 109.1428 321.1175 108.9661 318.9513 107.4048 319.4657 103.1026 314.3266 102.8254 318.4255 99.5767 318.9728 96.1261 317.3291 94.7891 318.9895 95.1317 319.2974 92.8376 323.0885 89.8467 323.8253 90.6852 327.5105 88.8686 326.6953 86.3077 331.5595 84.3196 333.2479 74.6533 Z" id="_84" class="area" title="Kırıkkale"></path>
<path d="M 653.9009 152.1639 662.6523 150.3384 667.3873 151.9874 666.0666 158.6694 667.4418 160.8274 665.5833 168.6461 655.0441 173.6265 658.3628 176.6735 667.8959 178.0729 670.3507 185.139 661.2022 192.4325 647.7372 193.0714 645.1948 191.1698 641.6968 182.9628 642.4203 181.4114 639.6215 180.105 640.9222 174.4603 645.9066 172.8536 648.4796 168.9205 649.2299 164.6789 647.2154 158.9108 651.8436 152.452 653.9009 152.1639 Z" id="_85" class="area" title="Batman"></path>
<path d="M 674.1067 185.5025 680.12 188.1212 686.35 187.7834 691.3954 189.5075 694.4062 184.4241 698.8605 185.059 704.4008 183.4635 715.8071 185.9521 718.5709 181.7245 744.1664 182.9294 741.2165 188.4163 736.6019 191.2935 735.5268 200.9015 729.3869 198.162 721.5763 200.6906 714.4745 197.8594 710.229 200.8593 705.6065 207.7837 696.4753 209.285 695.796 203.909 693.3952 201.9502 690.2293 202.0811 690.2331 200.4339 682.9985 206.1358 667.6681 208.7957 667.8301 204.7529 662.3544 200.9497 665.2603 195.5371 676.3234 196.3967 674.8402 192.0183 677.3312 189.5774 674.1067 185.5025 Z" id="_86" class="area" title="Şırnak"></path>
<path d="M 269.1371 22.3839 276.8292 17.0112 282.2591 16.2228 289.1146 12.57 296.3291 11.7136 297.3108 15.6603 303.5994 16.4347 302.182 23.1273 297.2813 24.6653 298.0991 25.8732 291.7099 26.5986 293.8424 30.2663 291.8895 33.0558 287.0743 31.5628 283.2248 34.1768 276.7764 33.6284 276.8887 29.33 274.2955 24.6415 271.7455 25.4507 269.1371 22.3839 Z" id="_87" class="area" title="Bartın"></path>
<path d="M 694.8973 50.4952 697.2588 47.9663 696.649 43.892 705.7935 35.7715 706.3116 32.5067 703.2752 28.8066 706.6254 22.654 716.1627 22.5423 714.975 26.3568 717.0751 27.4278 719.125 26.1714 724.0356 31.3773 732.1267 34.272 728.5882 36.5075 731.3679 36.4412 732.8678 39.7992 738.5692 38.5396 741.9411 39.6669 742.9913 45.9227 736.8589 43.1564 730.7301 48.3562 725.4045 48.5647 721.2786 52.1039 719.3681 51.8354 716.9498 58.2487 705.4071 61.7009 704.7213 57.1816 697.5303 54.1683 694.8973 50.4952 Z" id="_88" class="area" title="Ardahan"></path>
<path d="M 735.2539 88.822 738.0876 83.6642 750.2869 83.2464 761.1729 87.8196 776.4106 86.6475 782.3685 88.671 799 103.1903 798.5841 104.1805 792.494 100.4407 790.5135 97.7794 785.0392 102.5456 778.2157 102.5014 770.3806 99.3132 767.2835 100.4372 757.9064 97.8686 754.4635 98.4006 745.6124 95.2039 741.9219 98.0626 739.2555 89.5146 735.2539 88.822 Z" id="_89" class="area" title="Iğdır"></path>
<path d="M 163.0845 60.0583 160.0013 65.1786 158.579 66.1702 154.3539 65.0443 153.0366 66.8464 149.4986 67.0068 146.1251 64.7162 141.2016 64.5742 140.3849 69.1135 136.6734 69.2704 130.79 66.4214 139.7949 61.7841 151.6411 61.1942 158.9694 59.7283 161.4282 57.7832 163.0845 60.0583 Z" id="_90" class="area" title="Yalova"></path>
<path d="M 276.7764 33.6284 283.2248 34.1768 287.0743 31.5628 291.8895 33.0558 293.8424 30.2663 291.7099 26.5986 298.0991 25.8732 297.2813 24.6653 302.182 23.1273 308.9511 23.3683 308.9241 26.4871 312.9524 29.2541 311.5247 32.1315 305.166 34.7458 303.4173 37.4475 303.5186 39.5065 307.6797 41.1808 309.5723 44.486 307.0982 47.9656 298.0676 48.6721 295.3282 52.4852 288.9095 54.5623 286.2472 51.4705 277.8911 52.2808 281.2859 49.5301 280.8654 48.3813 278.3154 48.9697 278.7119 45.9441 271.9978 44.9251 268.6951 46.6847 264.0963 45.091 267.4445 40.3501 271.6436 36.9893 275.2028 36.4179 276.7764 33.6284 Z" id="_91" class="area" title="Karabük"></path>
<path d="M 461.1777 220.9485 464.8053 217.1751 468.0917 217.6995 472.8579 212.3059 477.1123 217.6519 485.333 219.4023 486.0285 223.3209 488.5051 225.103 491.3795 220.9993 496.9569 226.0399 492.9487 229.0439 479.1762 227.1508 476.8437 228.9391 474.1292 227.6573 475.3634 225.1288 473.15 223.5352 461.1777 220.9485 Z" id="_92" class="area" title="Kilis"></path>
<path d="M 442.4622 182.4708 440.4769 183.8307 442.7278 185.931 441.4748 192.024 443.324 199.5414 458.9252 198.4075 459.277 202.5049 461.1913 204.0872 459.9318 205.9792 450.1109 216.9579 442.5028 215.6899 437.3523 212.8911 433.8017 213.5172 435.5971 210.1801 434.9 205.4749 430.5045 204.5318 426.4553 206.0033 428.1359 203.4935 428.286 193.64 435.4247 185.6248 433.4425 182.866 442.4622 182.4708 Z" id="_93" class="area" title="Osmaniye"></path>
<path d="M 258.8462 46.6212 255.8451 48.6479 254.4863 47.458 249.6884 49.0978 244.5545 52.4671 245.3301 55.2573 240.0779 56.958 237.6224 61.6178 232.6713 62.7949 226.9173 59.6626 220.3313 61.0837 220.7602 58.7769 216.4272 56.8378 219.3374 54.3474 215.3746 51.9322 223.5754 45.3905 221.7189 43.9955 235.5373 42.1939 238.0168 46.0802 249.4849 44.906 258.8462 46.6212 Z" id="D_zce" class="area" title="Düzce"></path>
<path d="M 372.7977 268.071 371.7209 270.3132 353.8498 279.7079 351.0054 283.3493 345.8634 284.3548 344.1534 288.9635 348.2441 294.121 344.345 294.0404 343.4305 291.8881 342.4492 294.0924 338.4466 295.3985 335.9834 295.4237 336.0073 293.8899 334.9661 295.3523 331.0483 295.4157 328.5015 293.652 325.6617 296.9999 326.7128 294.1675 323.2742 288.6363 318.6592 290.129 313.2475 288.8088 300.4981 293.6374 294.5095 290.7451 294.5942 289.3768 299.3177 291.1707 302.3312 289.7627 304.073 284.7997 303.2918 280.2043 309.2638 282.2366 321.1116 283.0844 333.5458 282.1566 347.3141 278.4618 355.6494 273.6142 372.7977 268.071 Z" id="_95" class="area" title="KKTC"></path>
</g>
</svg>