<!--?xml version="1.0"?-->
<svg xmlns="http://www.w3.org/2000/svg" version="1.2" baseProfile="tiny" width="800" height="588" viewBox="0 0 800 588" stroke-linecap="round" stroke-linejoin="round">
<g id="_1" class="area" title="BMO">
<path d="M 455.6724 339.89 460.9737 354.337 466.5382 356.8616 464.0949 356.572 445.8338 356.9091 451.7896 349.5177 452.0996 339.825 455.6724 339.89 Z" id="_506699" class="area included" title="Otmarov"></path>
<path d="M 552.7148 303.2586 547.6176 302.0803 542.3727 308.0961 536.4275 309.7367 524.2449 305.7614 525.4096 298.136 539.9797 290.1169 550.2423 295.698 552.7148 303.2586 Z" id="_549738" class="area included" title="Ponětovice"></path>
<path d="M 162.3883 69.8235 162.4323 74.3909 171.1357 83.0637 169.8077 92.5267 179.1017 98.9904 166.2107 103.0529 155.0729 97.3348 154.9185 96.8502 151.3553 91.9568 145.6232 91.8676 140.7634 87.2513 132.4249 85.4919 128.9985 76.1186 138.4608 74.2512 135.1251 64.7215 139.6874 65.2982 155.4015 61.6122 164.285 62.5348 162.3883 69.8235 Z" id="_549746" class="area included" title="Předklášteří"></path>
<path d="M 124.0279 203.6914 131.4661 208.9956 124.1156 210.1195 110.1643 216.0791 102.277 214.6854 92.151 207.1772 103.1798 200.0095 109.9949 201.2482 116.0543 197.4976 124.0279 203.6914 Z" id="_549789" class="area included" title="Říčky"></path>
<path d="M 738.3114 330.4998 752.5511 342.9032 760.7384 342.224 766.5293 346.3276 777.2015 340.9989 787.743 342.8591 790.6149 350.6254 799 359.0886 789.2612 370.278 779.9892 373.6022 765.2469 376.0671 756.7994 371.9142 739.2206 375.027 722.3774 362.4478 714.7966 360.8856 720.9045 352.0139 721.2227 346.5724 714.1859 345.008 709.907 336.0475 705.9603 336.614 701.2674 328.6542 712.6765 326.9926 738.3114 330.4998 Z" id="_550213" class="area included" title="Heršpice"></path>
<path d="M 703.6787 469.9373 695.9525 473.0373 676.6377 470.1752 667.2589 465.5771 672.6658 461.0519 690.9705 465.4354 703.6787 469.9373 Z" id="_550256" class="area included" title="Kašnice"></path>
<path d="M 245.8125 487.77 233.7417 483.8868 237.7243 478.3843 221.8949 473.4518 230.8923 467.8827 283.2187 462.2517 291.5344 458.74 299.0144 458.2236 311.2335 466.4159 299.1287 473.5477 283.105 479.7158 245.8125 487.77 Z" id="_550272" class="area included" title="Cvrčovice"></path>
<path d="M 619.227 262.8682 622.626 264.0992 623.226 271.593 649.5555 287.0898 640.1705 290.469 616.723 293.0189 609.2259 286.2937 601.9192 285.7947 591.6398 273.8456 587.4978 265.8355 596.3663 266.158 594.5169 258.5116 604.9576 256.4834 608.5979 263.3998 619.227 262.8682 Z" id="_550825" class="area included" title="Holubice"></path>
<path d="M 472.959 126.0846 474.9562 127.2278 468.7882 126.2205 461.3169 129.4097 454.6802 128.7542 445.7524 133.6074 446.1569 139.048 453.827 145.5974 448.064 152.3767 435.5083 153.0486 427.3255 150.6583 424.888 145.851 431.0968 136.405 418.8535 128.7856 424.7686 126.3655 428.2227 130.8464 449.6743 128.0603 461.3812 128.301 469.0123 124.9322 472.959 126.0846 Z" id="_581291" class="area included" title="Adamov"></path>
<path d="M 520.6476 142.5534 527.2068 146.7836 541.7251 150.6124 554.9799 147.7406 564.8265 148.4445 567.5021 155.0544 559.5078 161.2663 544.5182 169.9909 534.739 166.9547 524.0523 159.0215 516.3511 157.0922 510.3743 157.0743 508.2901 150.1249 500.376 151.3474 495.6361 141.3381 516.7526 144.772 520.6476 142.5534 Z" id="_581429" class="area included" title="Březina"></path>
<path d="M 574.1429 146.1797 564.8265 148.4445 554.9799 147.7406 558.2909 146.3215 554.1379 130.9902 562.1977 131.2199 562.76 126.1789 566.4612 126.6084 574.2798 137.5708 582.2014 143.2209 574.1429 146.1797 Z" id="_581445" class="area included" title="Bukovina"></path>
<path d="M 619.0663 144.9954 607.4999 148.669 602.1624 153.9931 594.0788 153.5005 589.7068 148.4584 575.8274 148.3165 574.1429 146.1797 582.2014 143.2209 574.2798 137.5708 566.4612 126.6084 562.76 126.1789 564.3311 121.4183 576.2938 123.2517 589.5341 132.2625 601.5629 123.088 610.7006 124.3413 621.3103 132.6664 627.5783 132.633 643.3993 138.8604 633.5902 145.2658 619.0663 144.9954 Z" id="_581453" class="area included" title="Bukovinka"></path>
<path d="M 352.5033 59.9457 349.9859 62.8529 343.0627 55.9565 346.4441 47.5353 338.2694 45.0528 331.8106 47.9215 330.223 43.9245 322.2445 24.8992 331.6367 18.5373 329.2459 12.3907 322.7514 11.135 326.4119 1.2412 332.6968 1.0014 344.544 6.8704 352.4669 3.6741 366.7208 4.5796 380.3198 8.8634 372.8075 18.3821 377.8279 37.7281 383.629 43.22 374.7213 45.9005 370.5947 52.4105 361.564 58.8358 352.5033 59.9457 Z" id="_581496" class="area included" title="Černá Hora"></path>
<path d="M 516.7146 114.7281 520.6948 130.725 520.6476 142.5534 516.7526 144.772 495.6361 141.3381 485.9502 136.2599 484.0115 131.3898 474.9562 127.2278 472.959 126.0846 473.6737 120.5174 468.1057 116.8099 470.8898 105.9966 489.9989 101.6159 501.4027 108.2674 516.7146 114.7281 Z" id="_581569" class="area included" title="Habrůvka"></path>
<path d="M 564.3311 121.4183 562.76 126.1789 562.1977 131.2199 554.1379 130.9902 558.2909 146.3215 554.9799 147.7406 541.7251 150.6124 527.2068 146.7836 520.6476 142.5534 520.6948 130.725 516.7146 114.7281 515.7439 108.1679 522.9415 101.1872 531.0712 101.4074 535.3663 104.6389 542.2475 101.3917 564.3311 121.4183 Z" id="_581828" class="area included" title="Křtiny"></path>
<path d="M 328.9609 60.6623 330.8864 67.584 323.0203 74.148 321.4118 80.0705 312.6201 83.5092 304.5435 83.2234 306.8775 75.1959 305.115 64.589 316.5332 60.374 328.9609 60.6623 Z" id="_581909" class="area included" title="Lažany"></path>
<path d="M 366.7391 72.2441 351.3388 79.2245 355.6872 87.2033 355.8051 93.2675 345.453 97.0086 336.1248 95.1615 334.7218 100.0291 323.2334 106.7082 313.6912 104.8731 306.9155 100.4055 294.8397 97.1749 304.8603 90.9752 304.5435 83.2234 312.6201 83.5092 321.4118 80.0705 323.0203 74.148 337.6135 74.708 347.3554 68.0366 349.9859 62.8529 352.5033 59.9457 367.1158 65.106 366.7391 72.2441 Z" id="_581968" class="area included" title="Lipůvka"></path>
<path d="M 322.2445 24.8992 330.223 43.9245 319.6141 44.1728 311.2255 47.3069 307.9704 38.6013 302.5182 35.8854 310.316 25.191 318.1347 27.2927 322.2445 24.8992 Z" id="_582034" class="area included" title="Malá Lhota"></path>
<path d="M 338.2694 45.0528 339.6096 54.3291 343.0627 55.9565 349.9859 62.8529 347.3554 68.0366 337.6135 74.708 323.0203 74.148 330.8864 67.584 328.9609 60.6623 331.8106 47.9215 338.2694 45.0528 Z" id="_582077" class="area included" title="Milonice"></path>
<path d="M 355.8051 93.2675 363.314 105.9214 364.8262 112.5445 374.8223 118.1116 363.7143 121.3263 337.191 124.9517 328.8654 124.5837 320.9714 117.8962 323.2334 106.7082 334.7218 100.0291 336.1248 95.1615 345.453 97.0086 355.8051 93.2675 Z" id="_582433" class="area included" title="Svinošice"></path>
<path d="M 401.8596 109.1816 374.8223 118.1116 364.8262 112.5445 363.314 105.9214 355.8051 93.2675 355.6872 87.2033 351.3388 79.2245 366.7391 72.2441 398.0309 80.042 396.3911 89.8742 401.9311 95.5161 397.2735 105.2949 401.8596 109.1816 Z" id="_582476" class="area included" title="Šebrov-Kateřina"></path>
<path d="M 330.223 43.9245 331.8106 47.9215 328.9609 60.6623 316.5332 60.374 305.115 64.589 306.8775 75.1959 290.9174 72.6729 293.6155 54.6805 311.2255 47.3069 319.6141 44.1728 330.223 43.9245 Z" id="_582557" class="area included" title="Újezd u Černé Hory"></path>
<path d="M 273.3397 176.0617 266.936 184.4724 283.7095 194.8469 283.3851 198.2278 294.6659 200.8336 298.6475 195.8407 297.1147 189.2313 299.3308 185.5191 309.99 184.8375 321.381 181.061 327.6266 187.086 335.2401 166.9946 346.7134 167.8924 346.8224 161.9196 351.6196 154.1648 361.5309 153.9164 369.0843 151.1286 373.3802 143.0453 379.1604 147.4319 388.7311 145.2792 395.6216 146.2068 401.7553 152.1168 407.6686 143.4819 427.3064 150.6497 420.881 153.0916 401.0281 156.6904 399.5715 163.3358 404.7723 169.9112 413.5078 170.7769 421.3737 177.5645 426.4123 188.8842 419.7048 194.061 440.7189 201.8939 453.7294 208.4914 445.3287 218.0911 448.2219 221.6008 461.9442 226.7497 469.5649 219.6466 491.1133 209.4474 493.6176 201.0575 498.6216 197.7078 510.5251 196.4423 514.6761 205.1651 501.0757 216.6463 504.4887 238.2266 504.0018 249.5744 506.6832 253.3791 491.9301 257.0468 489.9809 260.3283 477.8502 262.4109 478.5003 268.4979 477.7836 271.9054 489.3423 276.6753 479.1655 286.2148 483.6812 301.1426 488.0903 306.665 497.1638 308.0658 494.2028 316.4693 490.164 325.4093 481.2276 324.6673 472.7354 328.8925 466.4469 335.1793 455.6724 339.89 452.0996 339.825 441.8885 339.9521 430.0201 336.9549 415.564 335.6229 403.8195 345.28 403.1498 345.3086 400.7082 340.1894 403.7854 327.7366 409.2795 327.8291 409.9842 320.9365 417.8649 318.8626 418.4902 306.4618 411.5424 305.2907 409.077 314.9694 392.97 316.0241 381.2551 313.4209 371.4532 317.3354 362.9977 316.504 370.1032 298.5689 367.4728 291.2672 351.2386 290.4998 345.1806 294.4964 334.5812 296.798 325.5103 295.8597 321.9152 285.5166 315.2403 279.1138 298.7076 282.5095 296.6573 285.2092 284.0407 277.4375 280.5236 269.7337 261.0431 263.0554 258.6625 260.931 258.5625 252.5466 249.65 252.1925 244.4096 248.0678 235.7075 247.463 235.9891 254.0478 220.9501 254.1272 215.8208 252.1064 212.2774 245.9298 203.661 237.7527 185.8413 226.796 194.1847 216.3396 193.1595 206.3649 198.4945 206.888 204.7769 196.5182 211.6021 190.4462 210.161 182.3768 204.9098 177.4959 210.0767 166.5166 216.2395 160.8389 224.4992 153.3901 235.1346 161.9001 248.4246 160.6559 251.393 166.0866 259.5501 167.0629 273.3397 176.0617 Z" id="_582786" class="area included" title="Brno"></path>
<path d="M 474.9562 127.2278 484.0115 131.3898 485.9502 136.2599 495.6361 141.3381 500.376 151.3474 508.2901 150.1249 510.3743 157.0743 516.3511 157.0922 517.237 174.5234 511.562 175.3072 496.1622 169.8381 489.8671 177.4091 482.4513 174.4409 464.0417 182.0179 450.147 180.9782 443.8077 176.4053 449.2508 163.6863 457.9877 159.7068 453.5964 153.3344 448.064 152.3767 453.827 145.5974 446.1569 139.048 445.7524 133.6074 454.6802 128.7542 461.3169 129.4097 468.7882 126.2205 474.9562 127.2278 Z" id="_582794" class="area included" title="Babice nad svitavou"></path>
<path d="M 97.4253 256.6394 108.1875 263.6227 116.3496 263.726 119.9576 266.9075 126.5213 280.0216 114.1944 289.0137 110.5925 288.8565 106.5079 283.0321 93.2586 281.8723 80.8494 274.0459 79.9412 265.0027 89.7625 260.4731 97.4253 256.6394 Z" id="_582808" class="area included" title="Babice u Rosic"></path>
<path d="M 427.3255 150.6583 435.5083 153.0486 448.064 152.3767 453.5964 153.3344 457.9877 159.7068 449.2508 163.6863 443.8077 176.4053 450.147 180.9782 464.0417 182.0179 469.2119 186.5557 475.5085 203.4611 458.5995 205.7559 453.7294 208.4914 440.7189 201.8939 419.7048 194.061 426.4123 188.8842 421.3737 177.5645 413.5078 170.7769 404.7723 169.9112 399.5715 163.3358 401.0281 156.6904 420.881 153.0916 427.3064 150.6497 427.3255 150.6583 Z" id="_582824" class="area included" title="Bílovice nad Svitavou"></path>
<path d="M 601.9192 285.7947 586.0237 303.9129 584.206 306.5999 568.2096 299.1502 562.5406 292.1997 562.1976 283.0222 557.0159 277.8029 564.4861 278.2917 591.6398 273.8456 601.9192 285.7947 Z" id="_582841" class="area included" title="Blažovice"></path>
<path d="M 445.9015 394.3399 453.5426 391.7419 460.0039 395.3559 468.9912 396.0262 468.6316 403.1786 477.9784 403.5486 482.5002 413.8887 475.2085 422.4513 466.5794 423.206 466.5489 430.3057 436.6388 426.5303 429.843 429.9046 408.4483 413.0375 397.5251 410.5259 385.7458 399.9318 389.0495 392.7506 396.5914 389.2472 413.0291 392.1932 415.3515 395.5556 437.1027 392.7089 445.9015 394.3399 Z" id="_582859" class="area included" title="Blučina"></path>
<path d="M 108.1416 134.6581 116.0135 137.2861 125.2811 144.5568 108.4273 142.8398 86.7346 150.6194 78.9361 151.5052 74.8533 131.0153 77.6485 128.0822 88.5023 131.8761 96.7512 136.9896 108.1416 134.6581 Z" id="_582875" class="area included" title="Braníškov"></path>
<path d="M 291.1887 374.3513 297.7861 380.306 305.3194 391.1454 310.9122 391.5504 309.8732 405.8913 306.2411 409.6575 305.6981 409.4374 271.0926 395.8343 268.4501 393.0832 281.2912 380.0343 276.2681 378.391 275.8799 370.2942 284.5071 368.2978 291.1887 374.3513 Z" id="_582883" class="area included" title="Bratčice"></path>
<path d="M 229.0104 112.9501 239.464 111.7794 245.8758 108.6579 256.7241 109.9831 266.9719 116.993 267.4044 118.892 260.6658 129.0783 248.1893 135.4082 246.4379 144.3433 233.9322 142.6014 219.3795 136.2293 222.0552 126.7602 228.9446 116.5227 221.8383 110.1398 229.0104 112.9501 Z" id="_582913" class="area included" title="Čebín"></path>
<path d="M 346.8224 161.9196 346.7134 167.8924 335.2401 166.9946 328.9186 162.9408 318.5355 155.1746 328.5117 150.1984 330.9291 145.1886 344.1886 161.2126 346.8224 161.9196 Z" id="_582921" class="area included" title="Česká"></path>
<path d="M 210.6429 362.605 221.5297 368.2541 230.9956 370.2533 239.0661 375.7102 238.8657 380.642 247.7738 389.8785 245.7844 396.3856 240.7697 397.7914 241.1627 405.2237 234.7875 408.0147 230.1138 404.8437 214.2986 400.7797 204.401 401.7036 205.0063 394.4887 211.8119 388.0129 199.0362 381.867 206.7554 362.2304 210.6429 362.605 Z" id="_582956" class="area included" title="Dolní Kounice"></path>
<path d="M 69.2333 174.3272 80.9979 181.499 96.2322 185.3559 107.9469 194.1521 109.9949 201.2482 103.1798 200.0095 92.151 207.1772 87.4169 206.1623 82.7541 198.2947 68.5135 190.7965 65.5141 187.1719 57.2666 186.4463 45.7998 179.1029 69.2333 174.3272 Z" id="_582964" class="area included" title="Domašov"></path>
<path d="M 240.388 65.3893 250.9747 72.6036 253.6694 78.6975 271.1511 89.0278 267.794 95.5049 255.6991 96.9083 256.7241 109.9831 245.8758 108.6579 239.464 111.7794 229.0104 112.9501 229.0139 106.1131 222.2393 98.7183 210.9556 96.5814 216.9317 80.5468 230.4891 70.0347 240.388 65.3893 Z" id="_582972" class="area included" title="Drásov"></path>
<path d="M 323.5245 358.6672 312.3516 360.6726 314.6116 347.2809 309.8873 341.4884 314.5867 334.9913 331.7817 341.1488 329.238 354.352 323.5245 358.6672 Z" id="_582999" class="area included" title="Hajany"></path>
<path d="M 202.4975 332.097 201.0974 340.0978 209.4093 345.392 202.8004 351.5321 198.9599 354.9116 191.4122 350.7443 186.1309 344.2287 180.7715 349.8516 169.8902 351.64 163.1034 335.6766 156.6404 325.9032 160.6225 321.8266 169.8233 326.0816 175.4032 320.9337 191.609 313.8611 200.3282 316.5912 197.9195 324.8046 202.4975 332.097 Z" id="_583022" class="area included" title="Hlína"></path>
<path d="M 389.0495 392.7506 385.7458 399.9318 382.8124 400.1123 372.021 390.5076 358.9171 386.3654 349.8893 385.6072 344.4183 382.0623 348.8943 378.0618 375.7037 379.7705 382.6067 379.1799 393.4034 388.0057 389.0495 392.7506 Z" id="_583031" class="area included" title="Holasice"></path>
<path d="M 574.1429 146.1797 575.8274 148.3165 589.7068 148.4584 594.0788 153.5005 602.1624 153.9931 607.4999 148.669 619.0663 144.9954 629.2156 149.0751 624.4291 160.8031 608.3198 165.2697 607.1242 178.3969 616.5782 189.5157 605.0824 192.0379 597.0551 202.3293 599.0271 205.9036 575.0019 210.1419 562.5885 211.1009 561.5936 214.7351 550.8983 208.8562 546.3423 200.7624 554.1976 193.8204 554.6533 189.0752 564.8651 185.6533 571.8719 175.0423 570.9416 162.9171 567.5021 155.0544 564.8265 148.4445 574.1429 146.1797 Z" id="_583057" class="area included" title="Hostěnice"></path>
<path d="M 210.9556 96.5814 222.2393 98.7183 229.0139 106.1131 229.0104 112.9501 221.8383 110.1398 205.4377 107.7458 192.6338 112.7163 182.884 120.8079 177.1922 121.3022 191.0336 110.4971 192.918 102.5427 205.1199 100.2945 210.9556 96.5814 Z" id="_583065" class="area included active" title="Hradčany"></path>
<path d="M 378.596 423.0107 379.9455 428.1172 392.4318 435.6144 388.3536 439.5346 377.3588 438.8562 338.0478 438.7328 334.7077 443.6542 326.5282 441.0453 325.3983 440.7545 335.6639 413.4795 343.0095 416.715 352.7125 408.3448 360.6055 412.7202 368.2515 411.1779 377.8766 416.3378 378.596 423.0107 Z" id="_583081" class="area included" title="Hrušovany u Brna"></path>
<path d="M 176.367 188.5888 191.4245 194.5078 204.7769 196.5182 198.4945 206.888 193.1595 206.3649 175.6435 202.8892 170.3256 197.6127 154.7226 190.4394 140.1847 189.2442 150.2445 185.4671 167.1367 191.5439 170.5531 187.0625 176.367 188.5888 Z" id="_583090" class="area included" title="Hvozdec"></path>
<path d="M 219.3795 136.2293 233.9322 142.6014 223.3232 149.341 224.4992 153.3901 216.2395 160.8389 203.5933 150.154 188.989 144.1618 190.5716 136.0818 201.4702 140.8021 209.8467 135.3753 219.3795 136.2293 Z" id="_583111" class="area included" title="Chudčice"></path>
<path d="M 156.6404 325.9032 163.1034 335.6766 169.8902 351.64 171.8124 358.0326 163.6773 362.163 166.8924 367.9591 165.0065 381.2095 168.693 382.8007 159.0066 388.7788 157.4009 394.611 149.3231 394.6107 130.0887 401.196 117.4191 415.6885 109.5367 400.9263 99.4061 391.3879 94.0692 395.3037 84.695 394.6927 75.6392 390.6947 62.1883 377.2577 58.1471 379.2056 40.7176 380.4337 37.0821 382.7238 14.1459 377.7796 11.4183 372.6865 16.4528 360.7002 31.4546 363.7498 45.2925 358.8048 61.2366 364.5176 70.8661 366.5346 79.5071 349.3842 85.966 351.0224 99.4231 347.608 103.3723 331.8607 122.7051 321.5831 131.0696 319.4363 143.2711 317.9523 156.6404 325.9032 Z" id="_583120" class="area included" title="Ivančice"></path>
<path d="M 112.1158 174.6292 133.342 178.6829 153.6434 173.8106 169.4582 178.6629 169.1172 184.2044 176.367 188.5888 170.5531 187.0625 167.1367 191.5439 150.2445 185.4671 140.1847 189.2442 131.869 199.2491 124.0279 203.6914 116.0543 197.4976 109.9949 201.2482 107.9469 194.1521 96.2322 185.3559 80.9979 181.499 69.2333 174.3272 76.0616 170.1482 78.517 164.5813 88.381 171.8295 106.1415 176.6466 112.1158 174.6292 Z" id="_583154" class="area included" title="Javůrek"></path>
<path d="M 328.9186 162.9408 335.2401 166.9946 327.6266 187.086 321.381 181.061 309.99 184.8375 299.3308 185.5191 297.1147 189.2313 293.3841 182.5126 275.8597 176.5866 275.6303 169.7446 290.3963 157.4206 313.4445 173.9547 328.9186 162.9408 Z" id="_583171" class="area included" title="Jinačovice"></path>
<path d="M 557.0159 277.8029 562.1976 283.0222 562.5406 292.1997 568.2096 299.1502 584.206 306.5999 579.4752 310.444 570.0379 306.3816 552.7148 303.2586 550.2423 295.698 539.9797 290.1169 545.219 281.0241 542.3467 270.7838 545.0727 263.6329 554.1162 263.1537 553.3855 277.0312 557.0159 277.8029 Z" id="_583189" class="area included" title="Jiříkovice"></path>
<path d="M 517.237 174.5234 504.4681 179.3254 492.8259 190.7572 493.6176 201.0575 491.1133 209.4474 469.5649 219.6466 461.9442 226.7497 448.2219 221.6008 445.3287 218.0911 453.7294 208.4914 458.5995 205.7559 475.5085 203.4611 469.2119 186.5557 479.1015 186.9178 492.2155 182.0506 489.8671 177.4091 496.1622 169.8381 511.562 175.3072 517.237 174.5234 Z" id="_583197" class="area included" title="Kanice"></path>
<path d="M 524.2449 305.7614 536.4275 309.7367 542.3727 308.0961 538.8519 313.4856 539.5309 320.8468 550.9931 323.9649 551.1048 328.8518 547.9697 326.7738 507.8605 323.8151 503.4601 316.8374 494.2028 316.4693 497.1638 308.0658 510.8283 307.0343 515.4696 302.9629 524.2449 305.7614 Z" id="_583219" class="area included" title="Kobylnice"></path>
<path d="M 639.4147 254.2713 637.5832 258.9346 622.626 264.0992 619.227 262.8682 602.3654 248.6166 596.9905 242.5869 604.517 238.6927 606.5786 234.5548 616.8026 234.5551 620.5037 240.5848 635.4365 243.5188 635.1615 250.3913 639.4147 254.2713 Z" id="_583227" class="area included" title="Kovalovice"></path>
<path d="M 140.6851 284.5378 140.042 291.9385 136.6942 299.1088 130.7429 299.5491 128.213 299.9516 110.5925 288.8565 114.1944 289.0137 126.5213 280.0216 134.5747 280.4758 140.6851 284.5378 Z" id="_583235" class="area included" title="Kratochvilka"></path>
<path d="M 265.4093 420.1408 258.5463 420.7355 234.3877 426.1702 224.2171 438.6732 212.75 434.2757 219.269 430.0872 216.3909 424.3371 223.4589 428.3341 232.5504 417.4047 238.9062 413.429 254.5916 411.6286 261.2862 413.3787 265.4093 420.1408 Z" id="_583243" class="area included" title="Kupařovice"></path>
<path d="M 323.2334 106.7082 320.9714 117.8962 328.8654 124.5837 337.191 124.9517 335.5468 137.0505 337.3628 141.9874 330.9291 145.1886 328.5117 150.1984 318.5355 155.1746 328.9186 162.9408 313.4445 173.9547 290.3963 157.4206 282.5853 147.7097 274.9558 124.7407 267.4044 118.892 266.9719 116.993 271.735 120.9802 280.8838 114.5763 288.7762 112.5999 298.9341 114.2488 316.7985 110.2781 313.6912 104.8731 323.2334 106.7082 Z" id="_583251" class="area included" title="Kuřim"></path>
<path d="M 134.975 128.0386 141.62 128.2035 148.0432 133.387 162.3455 130.1174 169.7223 134.5831 174.5767 140.9126 168.5091 143.3829 167.0444 155.1437 157.5689 159.0666 159.764 166.7376 153.6434 173.8106 133.342 178.6829 112.1158 174.6292 124.9569 155.3482 129.9795 152.999 125.2811 144.5568 116.0135 137.2861 108.1416 134.6581 110.172 131.9397 118.6123 131.8666 123.1612 125.3967 131.0618 124.1779 134.975 128.0386 Z" id="_583260" class="area included" title="Lažánky"></path>
<path d="M 348.8774 407.1531 352.7125 408.3448 343.0095 416.715 335.6639 413.4795 325.3983 440.7545 320.8294 439.5895 321.9284 426.4422 318.218 426.8227 313.469 415.51 319.1213 412.8227 329.2014 405.29 338.7942 402.7352 341.7589 407.2291 348.8774 407.1531 Z" id="_583278" class="area included" title="Ledce"></path>
<path d="M 363.7143 121.3263 367.4872 135.9023 373.3802 143.0453 369.0843 151.1286 361.5309 153.9164 351.6196 154.1648 346.8224 161.9196 344.1886 161.2126 330.9291 145.1886 337.3628 141.9874 335.5468 137.0505 337.191 124.9517 363.7143 121.3263 Z" id="_583286" class="area included" title="Lelekovice"></path>
<path d="M 87.4169 206.1623 92.151 207.1772 102.277 214.6854 98.7641 226.7576 102.0717 234.1619 102.7811 241.5744 95.8128 243.4694 78.2437 237.9887 72.5917 231.278 72.2264 227.2094 63.1196 217.7081 58.2629 216.0802 52.0229 208.0861 61.6668 202.5107 70.4142 207.7064 83.5249 210.8023 87.4169 206.1623 Z" id="_583308" class="area included" title="Litostrov"></path>
<path d="M 11.3583 270.6303 20.7723 273.8202 27.0143 271.0956 46.9784 271.2956 68.7771 287.1201 67.3304 296.2844 62.3918 301.5097 45.9502 297.2147 42.7668 300.5931 23.7431 296.7455 8.1658 278.4852 1 272.7758 3.3699 267.5554 11.3583 270.6303 Z" id="_583324" class="area included" title="Lukovany"></path>
<path d="M 273.8508 422.8811 283.7725 446.685 274.5295 449.4229 270.0235 447.1478 249.2317 453.1239 241.9778 458.426 238.5143 451.3852 224.2171 438.6732 234.3877 426.1702 258.5463 420.7355 265.4093 420.1408 273.8508 422.8811 Z" id="_583332" class="area included" title="Malešovice"></path>
<path d="M 290.9174 72.6729 306.8775 75.1959 304.5435 83.2234 304.8603 90.9752 294.8397 97.1749 306.9155 100.4055 313.6912 104.8731 316.7985 110.2781 298.9341 114.2488 288.7762 112.5999 280.8838 114.5763 271.735 120.9802 266.9719 116.993 256.7241 109.9831 255.6991 96.9083 267.794 95.5049 271.1511 89.0278 277.8624 73.8935 290.9174 72.6729 Z" id="_583341" class="area included" title="Malhostovice"></path>
<path d="M 306.2411 409.6575 319.1213 412.8227 313.469 415.51 318.218 426.8227 321.9284 426.4422 320.8294 439.5895 325.3983 440.7545 326.5282 441.0453 304.0887 451.6853 290.1003 454.97 283.7725 446.685 273.8508 422.8811 286.1052 416.5917 305.6981 409.4374 306.2411 409.6575 Z" id="_583367" class="area included" title="Medlov"></path>
<path d="M 245.0461 360.2789 253.9374 362.2721 275.8799 370.2942 276.2681 378.391 281.2912 380.0343 268.4501 393.0832 271.0926 395.8343 268.6342 397.1627 263.6199 398.7772 247.7738 389.8785 238.8657 380.642 239.0661 375.7102 230.9956 370.2533 235.299 360.1016 245.0461 360.2789 Z" id="_583375" class="area included" title="Mělčany"></path>
<path d="M 464.0949 356.572 478.2198 369.5996 485.6535 366.3935 490.3686 368.0222 500.4968 364.463 500.7471 368.1367 509.9234 377.4333 513.296 389.7573 516.2319 394.0198 502.7423 409.8573 505.8456 418.8925 497.8058 422.4329 488.8567 430.1446 482.8659 426.2202 478.3282 429.861 474.0579 432.4461 466.5489 430.3057 466.5794 423.206 475.2085 422.4513 482.5002 413.8887 477.9784 403.5486 468.6316 403.1786 468.9912 396.0262 460.0039 395.3559 453.5426 391.7419 445.9015 394.3399 442.7999 387.6621 436.8829 366.674 444.4297 364.826 445.8338 356.9091 464.0949 356.572 Z" id="_583383" class="area included" title="Měnín"></path>
<path d="M 403.1498 345.3086 380.6895 347.1188 374.0793 350.7074 370.8221 346.3368 368.954 334.404 351.7687 324.4006 340.7429 319.7517 348.2213 321.2201 362.9977 316.504 371.4532 317.3354 381.2551 313.4209 392.97 316.0241 409.077 314.9694 411.5424 305.2907 418.4902 306.4618 417.8649 318.8626 409.9842 320.9365 409.2795 327.8291 403.7854 327.7366 400.7082 340.1894 403.1498 345.3086 Z" id="_583391" class="area included" title="Modřice"></path>
<path d="M 546.3423 200.7624 550.8983 208.8562 561.5936 214.7351 562.9338 217.2644 546.9317 218.8865 544.5084 234.2095 540.4966 241.569 534.2346 242.8685 523.0608 237.8527 513.4456 238.9847 509.0585 249.9521 504.0018 249.5744 504.4887 238.2266 501.0757 216.6463 514.6761 205.1651 519.9698 206.6093 522.5018 198.5584 535.4757 198.6846 546.3423 200.7624 Z" id="_583405" class="area included" title="Mokrá-Horákov"></path>
<path d="M 362.9977 316.504 348.2213 321.2201 340.7429 319.7517 328.6617 319.3731 322.9267 322.8973 312.7649 325.6978 307.3116 322.8938 313.1189 322.6677 333.5798 313.3874 332.6091 303.6199 334.5812 296.798 345.1806 294.4964 351.2386 290.4998 367.4728 291.2672 370.1032 298.5689 362.9977 316.504 Z" id="_583413" class="area included" title="Moravany"></path>
<path d="M 202.8004 351.5321 210.6429 362.605 206.7554 362.2304 199.0362 381.867 185.4214 380.7788 168.693 382.8007 165.0065 381.2095 166.8924 367.9591 163.6773 362.163 171.8124 358.0326 169.8902 351.64 180.7715 349.8516 186.1309 344.2287 191.4122 350.7443 198.9599 354.9116 202.8004 351.5321 Z" id="_583421" class="area included" title="Moravské Bránice"></path>
<path d="M 290.3963 157.4206 275.6303 169.7446 275.8597 176.5866 273.3397 176.0617 259.5501 167.0629 251.393 166.0866 248.4246 160.6559 235.1346 161.9001 224.4992 153.3901 223.3232 149.341 233.9322 142.6014 246.4379 144.3433 248.1893 135.4082 260.6658 129.0783 267.4044 118.892 274.9558 124.7407 282.5853 147.7097 290.3963 157.4206 Z" id="_583430" class="area included" title="Moravské Knínice"></path>
<path d="M 532.5565 394.6482 531.0979 398.6003 545.6828 405.3299 540.2484 415.6809 540.6559 421.0515 531.2063 432.2175 505.8456 418.8925 502.7423 409.8573 516.2319 394.0198 513.296 389.7573 532.5565 394.6482 Z" id="_583448" class="area included" title="Moutnice"></path>
<path d="M 332.6091 303.6199 333.5798 313.3874 313.1189 322.6677 307.3116 322.8938 295.1802 317.7902 299.0808 309.7248 294.6273 303.9877 296.3354 297.1997 317.8049 302.1357 324.373 306.0565 332.6091 303.6199 Z" id="_583456" class="area included" title="Nebovidy"></path>
<path d="M 305.6981 409.4374 286.1052 416.5917 273.8508 422.8811 265.4093 420.1408 261.2862 413.3787 254.5916 411.6286 256.5209 404.5427 267.3968 402.8012 268.6342 397.1627 271.0926 395.8343 305.6981 409.4374 Z" id="_583472" class="area included" title="Němčičky"></path>
<path d="M 175.4032 320.9337 169.8233 326.0816 160.6225 321.8266 156.6404 325.9032 143.2711 317.9523 131.0696 319.4363 126.5492 304.9926 130.7429 299.5491 136.6942 299.1088 140.042 291.9385 158.5725 301.0229 170.9618 319.3328 175.4032 320.9337 Z" id="_583481" class="area included" title="Neslovice"></path>
<path d="M 567.1919 392.4308 558.3976 398.0908 550.2742 400.0943 545.6828 405.3299 531.0979 398.6003 532.5565 394.6482 534.6919 388.7817 540.9833 392.1656 551.0143 385.0143 567.1919 392.4308 Z" id="_583499" class="area included" title="Nesvačilka"></path>
<path d="M 199.0362 381.867 211.8119 388.0129 205.0063 394.4887 204.401 401.7036 195.9707 401.1867 180.8218 404.7584 157.4009 394.611 159.0066 388.7788 168.693 382.8007 185.4214 380.7788 199.0362 381.867 Z" id="_583511" class="area included" title="Nové Bránice"></path>
<path d="M 283.7725 446.685 290.1003 454.97 291.5344 458.74 283.2187 462.2517 230.8923 467.8827 232.5817 463.2063 241.9778 458.426 249.2317 453.1239 270.0235 447.1478 274.5295 449.4229 283.7725 446.685 Z" id="_583529" class="area included" title="Odrovice"></path>
<path d="M 567.5021 155.0544 570.9416 162.9171 571.8719 175.0423 564.8651 185.6533 554.6533 189.0752 554.1976 193.8204 546.3423 200.7624 535.4757 198.6846 522.5018 198.5584 519.9698 206.6093 514.6761 205.1651 510.5251 196.4423 498.6216 197.7078 493.6176 201.0575 492.8259 190.7572 504.4681 179.3254 517.237 174.5234 516.3511 157.0922 524.0523 159.0215 534.739 166.9547 544.5182 169.9909 559.5078 161.2663 567.5021 155.0544 Z" id="_583537" class="area included" title="Ochoz u Brna"></path>
<path d="M 205.7101 249.4094 212.2936 256.9096 209.7958 261.9004 218.202 266.1582 220.659 279.9408 224.0322 284.3478 215.0033 298.0876 219.6853 301.2119 219.5558 301.3045 205.9861 294.6501 195.4312 283.8616 192.0403 286.7211 180.1437 283.8736 180.2186 279.3907 173.7793 266.5615 177.987 259.8546 183.5326 258.932 187.8318 251.5312 199.6468 245.6257 205.7101 249.4094 Z" id="_583545" class="area included" title="Omice"></path>
<path d="M 436.8829 366.674 442.7999 387.6621 445.9015 394.3399 437.1027 392.7089 415.3515 395.5556 413.0291 392.1932 396.5914 389.2472 396.7406 380.8208 406.7681 375.9668 414.5931 376.8221 418.8165 370.1584 430.9467 366.1976 436.8829 366.674 Z" id="_583553" class="area included" title="Opatovice"></path>
<path d="M 295.1802 317.7902 307.3116 322.8938 312.7649 325.6978 322.9267 322.8973 314.5867 334.9913 309.8873 341.4884 314.6116 347.2809 312.3516 360.6726 291.1887 374.3513 284.5071 368.2978 275.8799 370.2942 253.9374 362.2721 245.0461 360.2789 242.4752 349.1331 258.9478 346.7659 256.7629 329.1455 258.5584 319.8335 262.7716 317.2161 275.8118 321.8386 277.615 317.5596 295.1802 317.7902 Z" id="_583561" class="area included" title="Ořechov"></path>
<path d="M 334.5812 296.798 332.6091 303.6199 324.373 306.0565 317.8049 302.1357 296.3354 297.1997 295.1143 292.7915 296.6573 285.2092 298.7076 282.5095 315.2403 279.1138 321.9152 285.5166 325.5103 295.8597 334.5812 296.798 Z" id="_583596" class="area included" title="Ostopovice"></path>
<path d="M 185.8413 226.796 203.661 237.7527 212.2774 245.9298 215.8208 252.1064 205.7101 249.4094 199.6468 245.6257 187.8318 251.5312 183.5326 258.932 161.0351 253.0005 164.9112 245.4801 157.1309 244.6909 157.3095 235.6055 160.9075 226.3765 168.3094 225.0229 185.8413 226.796 Z" id="_583600" class="area included" title="Ostrovačice"></path>
<path d="M 534.2346 242.8685 532.5641 252.2489 534.3454 265.7729 525.2465 270.797 511.0938 267.1851 509.1417 261.7826 501.0805 262.6707 490.9504 268.3381 478.5003 268.4979 477.8502 262.4109 489.9809 260.3283 491.9301 257.0468 506.6832 253.3791 504.0018 249.5744 509.0585 249.9521 513.4456 238.9847 523.0608 237.8527 534.2346 242.8685 Z" id="_583634" class="area included" title="Podolí"></path>
<path d="M 403.1498 345.3086 403.8195 345.28 403.0669 354.403 389.2384 359.6849 380.0649 357.7126 371.3551 360.5644 362.5972 354.5558 374.0793 350.7074 380.6895 347.1188 403.1498 345.3086 Z" id="_583651" class="area included" title="Popovice"></path>
<path d="M 258.6625 260.931 261.4945 267.3271 249.2364 278.1035 232.627 274.3062 232.1897 281.6784 224.0322 284.3478 220.659 279.9408 218.202 266.1582 209.7958 261.9004 212.2936 256.9096 205.7101 249.4094 215.8208 252.1064 220.9501 254.1272 235.9891 254.0478 235.7075 247.463 244.4096 248.0678 249.65 252.1925 258.5625 252.5466 258.6625 260.931 Z" id="_583669" class="area included" title="Popůvky"></path>
<path d="M 616.5782 189.5157 624.0437 198.0488 638.3147 204.746 641.2757 202.3001 649.8855 218.1164 634.4003 223.4915 625.0228 228.0376 616.4983 226.377 607.5405 228.5001 604.517 238.6927 596.9905 242.5869 602.3654 248.6166 619.227 262.8682 608.5979 263.3998 604.9576 256.4834 594.5169 258.5116 593.9418 254.1531 585.3584 243.1139 580.494 241.5055 579.5226 231.9584 587.971 223.2347 580.6995 219.0376 575.0019 210.1419 599.0271 205.9036 597.0551 202.3293 605.0824 192.0379 616.5782 189.5157 Z" id="_583677" class="area included" title="Pozořice"></path>
<path d="M 552.7148 303.2586 570.0379 306.3816 579.4752 310.444 572.2469 319.5209 548.6534 334.0542 551.1048 328.8518 550.9931 323.9649 539.5309 320.8468 538.8519 313.4856 542.3727 308.0961 547.6176 302.0803 552.7148 303.2586 Z" id="_583685" class="area included" title="Prace"></path>
<path d="M 268.6342 397.1627 267.3968 402.8012 256.5209 404.5427 254.5916 411.6286 238.9062 413.429 232.5504 417.4047 234.7875 408.0147 241.1627 405.2237 240.7697 397.7914 245.7844 396.3856 247.7738 389.8785 263.6199 398.7772 268.6342 397.1627 Z" id="_583693" class="area included" title="Pravlov"></path>
<path d="M 215.7364 311.0919 225.397 322.4388 235.2681 330.8464 249.6756 326.3409 256.7629 329.1455 258.9478 346.7659 242.4752 349.1331 235.5375 343.628 223.5338 339.6704 209.844 337.3514 202.4975 332.097 197.9195 324.8046 200.3282 316.5912 191.609 313.8611 215.7364 311.0919 Z" id="_583707" class="area included" title="Prštice"></path>
<path d="M 72.5917 231.278 78.2437 237.9887 95.8128 243.4694 102.4304 242.557 112.9198 248.0554 116.2104 252.3769 106.8105 248.1457 104.0933 254.1041 97.4253 256.6394 89.7625 260.4731 84.693 258.734 71.2547 261.423 57.2398 266.5499 49.4284 265.7618 37.8448 256.7029 25.9702 253.2365 26.9599 247.5671 32.9357 240.1457 41.3128 239.4118 51.1408 232.3446 59.4499 232.6389 64.758 236.287 72.5917 231.278 Z" id="_583715" class="area included" title="Příbram na Moravě"></path>
<path d="M 421.4845 484.8836 417.4315 491.6347 399.5839 486.3276 383.7243 483.8215 379.8241 478.6899 369.2509 475.5665 385.3813 461.6802 386.3281 455.1308 394.7697 450.1762 396.6571 458.7497 406.4677 462.3032 414.2743 468.1958 422.9479 470.3735 419.8346 480.6319 421.4845 484.8836 Z" id="_583731" class="area included" title="Přísnotice"></path>
<path d="M 258.5584 319.8335 256.7629 329.1455 249.6756 326.3409 235.2681 330.8464 225.397 322.4388 215.7364 311.0919 219.5558 301.3045 219.6853 301.2119 229.779 306.2258 227.733 312.5531 235.6732 314.1828 237.8966 308.2183 243.7415 309.1296 258.5584 319.8335 Z" id="_583740" class="area included" title="Radostice"></path>
<path d="M 362.5972 354.5558 371.3551 360.5644 380.0649 357.7126 389.2384 359.6849 403.0669 354.403 406.0016 354.2264 404.625 362.8261 396.6654 362.3514 395.8998 368.0695 403.624 371.1585 406.7681 375.9668 396.7406 380.8208 396.5914 389.2472 389.0495 392.7506 393.4034 388.0057 382.6067 379.1799 375.7037 379.7705 348.8943 378.0618 335.701 362.9655 349.3863 353.805 356.9961 351.1839 362.5972 354.5558 Z" id="_583758" class="area included" title="Rajhrad"></path>
<path d="M 451.7896 349.5177 445.8338 356.9091 444.4297 364.826 436.8829 366.674 430.9467 366.1976 418.8165 370.1584 414.5931 376.8221 406.7681 375.9668 403.624 371.1585 395.8998 368.0695 396.6654 362.3514 404.625 362.8261 406.0016 354.2264 409.7017 352.4276 417.9819 356.4591 427.9266 351.2216 451.7896 349.5177 Z" id="_583766" class="area included" title="Rajhradice"></path>
<path d="M 452.0996 339.825 451.7896 349.5177 427.9266 351.2216 417.9819 356.4591 409.7017 352.4276 406.0016 354.2264 403.0669 354.403 403.8195 345.28 415.564 335.6229 430.0201 336.9549 441.8885 339.9521 452.0996 339.825 Z" id="_583774" class="area included" title="Rebešovice"></path>
<path d="M 157.1309 244.6909 164.9112 245.4801 161.0351 253.0005 183.5326 258.932 177.987 259.8546 173.7793 266.5615 160.4522 264.6902 155.3636 270.245 151.1465 279.8094 143.7619 280.4421 140.6851 284.5378 134.5747 280.4758 126.5213 280.0216 119.9576 266.9075 116.3496 263.726 116.2104 252.3769 112.9198 248.0554 102.4304 242.557 95.8128 243.4694 102.7811 241.5744 102.0717 234.1619 110.3596 234.2738 121.8512 238.3331 136.6139 247.4757 148.6323 247.992 157.1309 244.6909 Z" id="_583782" class="area included" title="Rosice"></path>
<path d="M 275.8597 176.5866 293.3841 182.5126 297.1147 189.2313 298.6475 195.8407 294.6659 200.8336 283.3851 198.2278 283.7095 194.8469 266.936 184.4724 273.3397 176.0617 275.8597 176.5866 Z" id="_583791" class="area included" title="Rozdrojovice"></path>
<path d="M 68.5135 190.7965 82.7541 198.2947 87.4169 206.1623 83.5249 210.8023 70.4142 207.7064 61.6668 202.5107 52.0229 208.0861 44.8499 205.0445 35.6007 206.2255 35.6226 198.5607 50.1943 196.4465 55.1367 190.3292 64.9676 194.8905 68.5135 190.7965 Z" id="_583804" class="area included" title="Rudka"></path>
<path d="M 489.8671 177.4091 492.2155 182.0506 479.1015 186.9178 469.2119 186.5557 464.0417 182.0179 482.4513 174.4409 489.8671 177.4091 Z" id="_583821" class="area included" title="Řícmanice"></path>
<path d="M 168.3094 225.0229 160.9075 226.3765 157.3095 235.6055 157.1309 244.6909 148.6323 247.992 136.6139 247.4757 121.8512 238.3331 110.3596 234.2738 102.0717 234.1619 98.7641 226.7576 102.277 214.6854 110.1643 216.0791 124.1156 210.1195 131.4661 208.9956 137.5139 213.9382 161.8718 220.9192 168.3094 225.0229 Z" id="_583839" class="area included" title="Říčany"></path>
<path d="M 221.8383 110.1398 228.9446 116.5227 222.0552 126.7602 219.3795 136.2293 209.8467 135.3753 201.4702 140.8021 190.5716 136.0818 188.989 144.1618 183.1622 154.6997 176.9853 148.0961 174.5767 140.9126 169.7223 134.5831 174.8804 132.635 177.1922 121.3022 182.884 120.8079 192.6338 112.7163 205.4377 107.7458 221.8383 110.1398 Z" id="_583847" class="area included" title="Sentice"></path>
<path d="M 242.4752 349.1331 245.0461 360.2789 235.299 360.1016 230.9956 370.2533 221.5297 368.2541 210.6429 362.605 202.8004 351.5321 209.4093 345.392 201.0974 340.0978 202.4975 332.097 209.844 337.3514 223.5338 339.6704 235.5375 343.628 242.4752 349.1331 Z" id="_583855" class="area included" title="Silůvky"></path>
<path d="M 594.5169 258.5116 596.3663 266.158 587.4978 265.8355 583.7966 265.7202 578.5199 255.5984 571.1915 253.0756 559.6044 241.2075 560.6791 234.1703 558.3251 221.8891 562.9338 217.2644 561.5936 214.7351 562.5885 211.1009 575.0019 210.1419 580.6995 219.0376 587.971 223.2347 579.5226 231.9584 580.494 241.5055 585.3584 243.1139 593.9418 254.1531 594.5169 258.5116 Z" id="_583863" class="area included" title="Sivice"></path>
<path d="M 349.8893 385.6072 344.4412 391.3226 352.083 395.5787 345.8891 402.0039 348.8774 407.1531 341.7589 407.2291 338.7942 402.7352 329.2014 405.29 319.1213 412.8227 306.2411 409.6575 309.8732 405.8913 310.9122 391.5504 321.9821 391.9553 330.2955 383.8488 338.2393 387.898 344.4183 382.0623 349.8893 385.6072 Z" id="_583880" class="area included" title="Sobotovice"></path>
<path d="M 551.1048 328.8518 548.6534 334.0542 547.8684 334.4567 542.0209 337.8707 523.2693 338.4006 521.8059 341.6897 501.1328 350.6187 492.2443 342.8873 480.3181 342.781 470.3713 346.7452 466.5382 356.8616 460.9737 354.337 455.6724 339.89 466.4469 335.1793 472.7354 328.8925 481.2276 324.6673 490.164 325.4093 494.2028 316.4693 503.4601 316.8374 507.8605 323.8151 547.9697 326.7738 551.1048 328.8518 Z" id="_583898" class="area included" title="Sokolnice"></path>
<path d="M 295.1143 292.7915 296.3354 297.1997 294.6273 303.9877 299.0808 309.7248 295.1802 317.7902 277.615 317.5596 275.8118 321.8386 262.7716 317.2161 258.5584 319.8335 243.7415 309.1296 237.8966 308.2183 235.6732 314.1828 227.733 312.5531 229.779 306.2258 219.6853 301.2119 215.0033 298.0876 224.0322 284.3478 232.1897 281.6784 245.8187 285.262 257.2651 286.2295 269.2104 284.9791 288.2043 287.7844 295.1143 292.7915 Z" id="_583910" class="area included" title="Střelice"></path>
<path d="M 323.5245 358.6672 335.701 362.9655 348.8943 378.0618 344.4183 382.0623 338.2393 387.898 330.2955 383.8488 321.9821 391.9553 310.9122 391.5504 305.3194 391.1454 297.7861 380.306 291.1887 374.3513 312.3516 360.6726 323.5245 358.6672 Z" id="_583936" class="area included" title="Syrovice"></path>
<path d="M 534.3454 265.7729 545.0727 263.6329 542.3467 270.7838 545.219 281.0241 539.9797 290.1169 525.4096 298.136 524.2449 305.7614 515.4696 302.9629 510.8283 307.0343 497.1638 308.0658 488.0903 306.665 483.6812 301.1426 479.1655 286.2148 489.3423 276.6753 477.7836 271.9054 478.5003 268.4979 490.9504 268.3381 501.0805 262.6707 509.1417 261.7826 511.0938 267.1851 525.2465 270.797 534.3454 265.7729 Z" id="_583952" class="area included" title="Šlapanice"></path>
<path d="M 155.4015 61.6122 139.6874 65.2982 135.1251 64.7215 124.8088 58.157 129.5464 50.5192 123.3315 40.2241 135.9045 36.8637 140.1887 41.4509 152.6099 42.9567 161.3909 48.5911 155.4015 61.6122 Z" id="_583961" class="area included" title="Štěpánovice"></path>
<path d="M 521.8059 341.6897 521.6036 348.3481 510.3217 354.5122 512.7299 358.1189 501.9785 359.1176 500.4968 364.463 490.3686 368.0222 485.6535 366.3935 478.2198 369.5996 464.0949 356.572 466.5382 356.8616 470.3713 346.7452 480.3181 342.781 492.2443 342.8873 501.1328 350.6187 521.8059 341.6897 Z" id="_583979" class="area included" title="Telnice"></path>
<path d="M 173.7793 266.5615 180.2186 279.3907 180.1437 283.8736 192.0403 286.7211 195.4312 283.8616 205.9861 294.6501 219.5558 301.3045 215.7364 311.0919 191.609 313.8611 175.4032 320.9337 170.9618 319.3328 158.5725 301.0229 140.042 291.9385 140.6851 284.5378 143.7619 280.4421 151.1465 279.8094 155.3636 270.245 160.4522 264.6902 173.7793 266.5615 Z" id="_583987" class="area included" title="Tetčice"></path>
<path d="M 600.294 391.9475 598.8342 398.403 603.5533 408.3386 597.2903 409.0535 594.0824 419.5164 588.3297 426.0698 578.8032 432.6724 568.7016 432.421 548.0366 437.4818 531.2063 432.2175 540.6559 421.0515 540.2484 415.6809 545.6828 405.3299 550.2742 400.0943 558.3976 398.0908 567.1919 392.4308 566.483 385.8065 573.6688 381.9092 576.6203 375.6492 591.9789 380.6833 595.1999 388.4947 600.294 391.9475 Z" id="_583995" class="area included" title="Těšany"></path>
<g id="_584002" class="area included" title="Tišnov">
<path d="M 134.975 128.0386 131.0618 124.1779 123.1612 125.3967 118.6123 131.8666 110.172 131.9397 111.7024 123.6136 122.4835 111.0385 128.2441 109.3162 131.804 113.7355 139.7199 113.0966 152.8452 115.9938 138.801 123.6764 134.975 128.0386 Z" id="_114" class="area included excluded" title=""></path>
<path d="M 216.9317 80.5468 210.9556 96.5814 205.1199 100.2945 192.918 102.5427 183.9932 103.7025 179.1017 98.9904 169.8077 92.5267 171.1357 83.0637 162.4323 74.3909 162.3883 69.8235 180.0267 64.181 183.9673 66.7532 200.7241 69.6972 208.8764 73.4271 210.8163 79.7461 216.9317 80.5468 Z" id="_115" class="area included excluded" title=""></path>
<path d="M 250.4347 55.0766 240.388 65.3893 230.4891 70.0347 221.6873 69.0139 215.8176 61.5407 216.6949 53.5646 210.1277 48.4758 219.9575 31.5134 235.5257 34.7269 237.2475 38.1841 226.2469 46.6552 231.7753 51.7789 237.39 48.9269 250.4347 55.0766 Z" id="_116" class="area included excluded" title=""></path>
</g>
<path d="M 204.401 401.7036 214.2986 400.7797 230.1138 404.8437 234.7875 408.0147 232.5504 417.4047 223.4589 428.3341 216.3909 424.3371 196.5337 412.933 181.4698 410.2504 180.8218 404.7584 195.9707 401.1867 204.401 401.7036 Z" id="_584011" class="area included" title="Trboušany"></path>
<path d="M 296.6573 285.2092 295.1143 292.7915 288.2043 287.7844 269.2104 284.9791 257.2651 286.2295 245.8187 285.262 232.1897 281.6784 232.627 274.3062 249.2364 278.1035 261.4945 267.3271 258.6625 260.931 261.0431 263.0554 280.5236 269.7337 284.0407 277.4375 296.6573 285.2092 Z" id="_584029" class="area included" title="Troubsko"></path>
<path d="M 562.9338 217.2644 558.3251 221.8891 560.6791 234.1703 559.6044 241.2075 571.1915 253.0756 578.5199 255.5984 583.7966 265.7202 587.4978 265.8355 591.6398 273.8456 564.4861 278.2917 557.0159 277.8029 553.3855 277.0312 554.1162 263.1537 545.0727 263.6329 543.3251 259.9209 548.1187 249.0375 553.324 246.4026 544.5084 234.2095 546.9317 218.8865 562.9338 217.2644 Z" id="_584037" class="area included" title="Tvarožná"></path>
<path d="M 586.2383 338.8578 584.9695 347.063 576.8115 352.451 585.995 362.4865 576.6203 375.6492 573.6688 381.9092 566.483 385.8065 559.8066 380.0437 541.9907 371.9448 550.0262 366.0613 544.7071 357.6019 530.5841 362.7143 528.5508 357.7828 512.7299 358.1189 510.3217 354.5122 521.6036 348.3481 521.8059 341.6897 523.2693 338.4006 542.0209 337.8707 547.8684 334.4567 556.9152 338.2408 571.0981 349.5207 576.2439 341.8497 586.2383 338.8578 Z" id="_584045" class="area included" title="Újezd u Brna"></path>
<path d="M 388.3536 439.5346 387.1359 446.7391 379.3533 448.8588 354.2618 451.1372 352.9171 452.9735 336.769 449.5852 334.7077 443.6542 338.0478 438.7328 377.3588 438.8562 388.3536 439.5346 Z" id="_584061" class="area included" title="Unkovice"></path>
<path d="M 545.0727 263.6329 534.3454 265.7729 532.5641 252.2489 534.2346 242.8685 540.4966 241.569 544.5084 234.2095 553.324 246.4026 548.1187 249.0375 543.3251 259.9209 545.0727 263.6329 Z" id="_584096" class="area included" title="Velatice"></path>
<path d="M 188.989 144.1618 203.5933 150.154 216.2395 160.8389 210.0767 166.5166 204.9098 177.4959 210.161 182.3768 211.6021 190.4462 204.7769 196.5182 191.4245 194.5078 176.367 188.5888 169.1172 184.2044 169.4582 178.6629 153.6434 173.8106 159.764 166.7376 157.5689 159.0666 167.0444 155.1437 168.5091 143.3829 174.5767 140.9126 176.9853 148.0961 183.1622 154.6997 188.989 144.1618 Z" id="_584100" class="area included" title="Veverská Bítýška"></path>
<path d="M 193.1595 206.3649 194.1847 216.3396 185.8413 226.796 168.3094 225.0229 161.8718 220.9192 137.5139 213.9382 131.4661 208.9956 124.0279 203.6914 131.869 199.2491 140.1847 189.2442 154.7226 190.4394 170.3256 197.6127 175.6435 202.8892 193.1595 206.3649 Z" id="_584118" class="area included" title="Veverské Knínice"></path>
<path d="M 642.3893 252.5789 639.4147 254.2713 635.1615 250.3913 635.4365 243.5188 620.5037 240.5848 616.8026 234.5551 606.5786 234.5548 604.517 238.6927 607.5405 228.5001 616.4983 226.377 625.0228 228.0376 634.4003 223.4915 641.1474 226.4679 649.6839 237.2176 651.8516 248.9378 642.3893 252.5789 Z" id="_584126" class="area included" title="Viničné Šumice"></path>
<path d="M 385.7458 399.9318 397.5251 410.5259 393.2924 416.7143 378.596 423.0107 377.8766 416.3378 368.2515 411.1779 360.6055 412.7202 352.7125 408.3448 348.8774 407.1531 345.8891 402.0039 352.083 395.5787 344.4412 391.3226 349.8893 385.6072 358.9171 386.3654 372.021 390.5076 382.8124 400.1123 385.7458 399.9318 Z" id="_584142" class="area included" title="Vojkovice"></path>
<path d="M 424.7686 126.3655 418.8535 128.7856 431.0968 136.405 424.888 145.851 427.3255 150.6583 427.3064 150.6497 407.6686 143.4819 401.7553 152.1168 395.6216 146.2068 388.7311 145.2792 379.1604 147.4319 373.3802 143.0453 367.4872 135.9023 363.7143 121.3263 374.8223 118.1116 401.8596 109.1816 409.0204 106.4416 417.3668 111.711 424.7686 126.3655 Z" id="_584151" class="area included" title="Vranov"></path>
<path d="M 277.8624 73.8935 271.1511 89.0278 253.6694 78.6975 250.9747 72.6036 240.388 65.3893 250.4347 55.0766 260.6658 52.4286 274.187 61.3342 277.8624 73.8935 Z" id="_584169" class="area included" title="Všechovice"></path>
<path d="M 25.9702 253.2365 37.8448 256.7029 49.4284 265.7618 46.9784 271.2956 27.0143 271.0956 20.7723 273.8202 11.3583 270.6303 17.2665 263.7641 9.2094 261.8679 8.2787 251.4224 25.9702 253.2365 Z" id="_584177" class="area included" title="Vysoké Popovice"></path>
<path d="M 89.7625 260.4731 79.9412 265.0027 80.8494 274.0459 93.2586 281.8723 80.4844 287.76 68.7771 287.1201 46.9784 271.2956 49.4284 265.7618 57.2398 266.5499 71.2547 261.423 84.693 258.734 89.7625 260.4731 Z" id="_584185" class="area included" title="Zakřany"></path>
<path d="M 116.2104 252.3769 116.3496 263.726 108.1875 263.6227 97.4253 256.6394 104.0933 254.1041 106.8105 248.1457 116.2104 252.3769 Z" id="_584207" class="area included" title="Zastávka"></path>
<path d="M 110.5925 288.8565 128.213 299.9516 130.7429 299.5491 126.5492 304.9926 122.6358 310.7931 98.7981 307.5725 85.3207 300.7502 80.4844 287.76 93.2586 281.8723 106.5079 283.0321 110.5925 288.8565 Z" id="_584223" class="area included" title="Zbýšov"></path>
<path d="M 394.7697 450.1762 386.3281 455.1308 385.3813 461.6802 369.2509 475.5665 357.0109 474.7202 335.6098 476.5017 339.0511 470.2795 332.9301 459.0508 336.769 449.5852 352.9171 452.9735 354.2618 451.1372 379.3533 448.8588 387.1359 446.7391 388.3536 439.5346 388.1365 445.0467 394.7697 450.1762 Z" id="_584231" class="area included" title="Žabčice"></path>
<path d="M 512.7299 358.1189 528.5508 357.7828 530.5841 362.7143 544.7071 357.6019 550.0262 366.0613 541.9907 371.9448 559.8066 380.0437 566.483 385.8065 567.1919 392.4308 551.0143 385.0143 540.9833 392.1656 534.6919 388.7817 532.5565 394.6482 513.296 389.7573 509.9234 377.4333 500.7471 368.1367 500.4968 364.463 501.9785 359.1176 512.7299 358.1189 Z" id="_584240" class="area included" title="Žatčany"></path>
<path d="M 340.7429 319.7517 351.7687 324.4006 368.954 334.404 370.8221 346.3368 374.0793 350.7074 362.5972 354.5558 356.9961 351.1839 349.3863 353.805 335.701 362.9655 323.5245 358.6672 329.238 354.352 331.7817 341.1488 314.5867 334.9913 322.9267 322.8973 328.6617 319.3731 340.7429 319.7517 Z" id="_584266" class="area included" title="Želešice"></path>
<path d="M 429.843 429.9046 420.5657 431.4072 418.4322 437.213 411.8311 442.1205 398.8663 440.6244 392.4318 435.6144 379.9455 428.1172 378.596 423.0107 393.2924 416.7143 397.5251 410.5259 408.4483 413.0375 429.843 429.9046 Z" id="_584282" class="area included" title="Židlochovice"></path>
<path d="M 603.5533 408.3386 611.7866 417.1569 624.3023 420.9855 639.8245 420.0869 659.4564 425.5713 661.7398 439.3555 658.0822 439.9991 646.1019 449.8681 637.9596 444.4251 626.4092 452.2165 612.2674 445.6524 608.0992 449.344 600.2161 450.1028 598.373 446.6129 578.8032 432.6724 588.3297 426.0698 594.0824 419.5164 597.2903 409.0535 603.5533 408.3386 Z" id="_584339" class="area included" title="Borkovany"></path>
<path d="M 359.1083 514.109 371.3219 517.1727 386.0273 523.4805 382.1306 531.2576 376.6662 534.274 380.6953 546.6287 385.6806 551.6266 383.884 559.4265 377.7267 565.975 369.5452 565.3484 361.7866 558.0869 350.2025 555.2974 348.2478 549.722 339.4404 545.6298 334.7009 541.8943 330.0873 532.6581 331.7498 528.9577 340.6166 527.4966 339.3102 521.3294 343.2256 517.1199 349.5449 524.5755 355.3214 523.2513 359.1083 514.109 Z" id="_584517" class="area included" title="Ivaň"></path>
<path d="M 703.6787 469.9373 690.9705 465.4354 672.6658 461.0519 667.2589 465.5771 676.6377 470.1752 695.9525 473.0373 688.1937 481.6677 676.3344 485.1715 668.3035 485.0319 656.6393 490.6247 652.3432 498.5385 645.1141 505.7345 636.5214 503.9492 628.3378 495.5467 621.5038 492.3614 607.5102 474.0909 602.1306 469.4827 598.3213 463.3905 602.1347 457.2808 600.2161 450.1028 608.0992 449.344 612.2674 445.6524 626.4092 452.2165 637.9596 444.4251 646.1019 449.8681 658.0822 439.9991 661.7398 439.3555 666.1304 438.9758 673.561 444.0908 680.0492 441.0952 688.9733 432.5019 698.3943 426.501 705.5871 436.379 704.998 443.2796 712.1723 445.629 716.8869 454.482 705.5091 460.643 708.7361 468.4214 703.6787 469.9373 Z" id="_584550" class="area included" title="Klobouky u Brna"></path>
<path d="M 521.1537 485.4183 519.0531 487.7927 507.8679 481.3286 488.7553 473.2092 484.5053 467.3152 491.4115 452.8032 496.5332 449.0941 508.4112 447.6747 513.4938 455.7776 518.8655 455.3844 520.2188 465.2368 524.2835 474.7758 521.1537 485.4183 Z" id="_584592" class="area included" title="Křepice"></path>
<path d="M 531.2063 432.2175 520.4678 441.6827 542.9794 451.0241 563.0519 465.4541 560.0777 466.9564 551.2015 474.3913 553.68 490.6147 535.858 493.1535 521.1537 485.4183 524.2835 474.7758 520.2188 465.2368 518.8655 455.3844 513.4938 455.7776 508.4112 447.6747 496.5332 449.0941 483.8644 443.9189 488.7307 439.7159 483.6645 434.5416 478.3282 429.861 482.8659 426.2202 488.8567 430.1446 497.8058 422.4329 505.8456 418.8925 531.2063 432.2175 Z" id="_584711" class="area included" title="Nikolčice"></path>
<path d="M 466.5489 430.3057 474.0579 432.4461 478.3282 429.861 483.6645 434.5416 468.7565 442.528 469.6502 448.0905 454.825 455.4339 452.4051 460.5906 446.3312 458.7591 436.9847 460.9048 433.7801 471.1439 434.6186 484.7333 429.7786 487.2596 421.4845 484.8836 419.8346 480.6319 422.9479 470.3735 414.2743 468.1958 406.4677 462.3032 396.6571 458.7497 394.7697 450.1762 388.1365 445.0467 388.3536 439.5346 392.4318 435.6144 398.8663 440.6244 411.8311 442.1205 418.4322 437.213 420.5657 431.4072 429.843 429.9046 436.6388 426.5303 466.5489 430.3057 Z" id="_584720" class="area included" title="Nosislav"></path>
<path d="M 334.7077 443.6542 336.769 449.5852 332.9301 459.0508 339.0511 470.2795 335.6098 476.5017 334.0814 484.1745 325.8414 487.4642 329.8233 494.9475 323.6486 500.5146 331.8985 507.4433 335.9738 520.0237 339.3102 521.3294 340.6166 527.4966 331.7498 528.9577 330.0873 532.6581 334.7009 541.8943 339.4404 545.6298 336.0498 554.7402 319.9343 543.1866 308.0237 552.3946 294.3625 546.9459 289.3465 557.2693 287.3977 567.1886 271.3571 563.1028 283.4048 552.4968 284.5672 539.7557 295.5059 541.1009 285.4563 526.3526 270.1985 518.8491 256.9094 516.8662 229.4981 510.1122 219.3713 508.6918 214.5597 501.4431 235.3066 497.7675 245.8125 487.77 283.105 479.7158 299.1287 473.5477 311.2335 466.4159 299.0144 458.2236 291.5344 458.74 290.1003 454.97 304.0887 451.6853 326.5282 441.0453 334.7077 443.6542 Z" id="_584801" class="area included" title="Pohořelice"></path>
<path d="M 357.0109 474.7202 353.6035 483.1903 353.1274 496.6506 354.5524 512.3535 359.1083 514.109 355.3214 523.2513 349.5449 524.5755 343.2256 517.1199 339.3102 521.3294 335.9738 520.0237 331.8985 507.4433 323.6486 500.5146 329.8233 494.9475 325.8414 487.4642 334.0814 484.1745 335.6098 476.5017 357.0109 474.7202 Z" id="_584843" class="area included" title="Přibice"></path>
<path d="M 578.8032 432.6724 598.373 446.6129 600.2161 450.1028 602.1347 457.2808 598.3213 463.3905 602.1306 469.4827 595.7237 465.2761 584.5699 468.8947 560.0777 466.9564 563.0519 465.4541 542.9794 451.0241 520.4678 441.6827 531.2063 432.2175 548.0366 437.4818 568.7016 432.421 578.8032 432.6724 Z" id="_584932" class="area included" title="Šitbořice"></path>
<path d="M 693.3336 398.2538 703.5041 397.9215 701.3437 403.8131 707.463 418.7647 699.2067 416.863 698.3943 426.501 688.9733 432.5019 680.0492 441.0952 673.561 444.0908 666.1304 438.9758 661.7398 439.3555 659.4564 425.5713 639.8245 420.0869 654.9058 409.5436 671.3294 411.2065 675.4674 409.9926 683.2461 401.3216 693.3336 398.2538 Z" id="_584991" class="area included" title="Velké Hostěrádky"></path>
<path d="M 496.5332 449.0941 491.4115 452.8032 484.5053 467.3152 488.7553 473.2092 507.8679 481.3286 519.0531 487.7927 508.8955 496.9559 492.5936 500.3548 483.741 503.6587 473.3445 513.0815 466.5864 511.3382 463.5822 505.1197 452.222 495.6472 446.5301 495.0378 436.3794 489.4409 434.6186 484.7333 433.7801 471.1439 436.9847 460.9048 446.3312 458.7591 452.4051 460.5906 454.825 455.4339 469.6502 448.0905 468.7565 442.528 483.6645 434.5416 488.7307 439.7159 483.8644 443.9189 496.5332 449.0941 Z" id="_585009" class="area included" title="Velké Němčice"></path>
<path d="M 271.3571 563.1028 264.1939 569.4258 261.1867 575.4399 251.4075 569.8354 237.0486 570.2888 235.5422 550.3716 225.517 543.6083 195.1731 538.312 200.8475 526.8639 211.6835 516.9525 218.8105 520.2424 229.4981 510.1122 256.9094 516.8662 270.1985 518.8491 285.4563 526.3526 295.5059 541.1009 284.5672 539.7557 283.4048 552.4968 271.3571 563.1028 Z" id="_585025" class="area included" title="Vlasatice"></path>
<path d="M 369.2509 475.5665 379.8241 478.6899 383.7243 483.8215 399.5839 486.3276 417.4315 491.6347 413.0241 496.6726 405.7773 511.7664 393.5714 521.7023 386.0273 523.4805 371.3219 517.1727 359.1083 514.109 354.5524 512.3535 353.1274 496.6506 353.6035 483.1903 357.0109 474.7202 369.2509 475.5665 Z" id="_585033" class="area included" title="Vranovice"></path>
<path d="M 343.0627 55.9565 339.6096 54.3291 338.2694 45.0528 346.4441 47.5353 343.0627 55.9565 Z" id="_586005" class="area included" title="Závist"></path>
<path d="M 664.2065 388.9484 668.7651 391.8744 674.0979 385.5459 681.2777 392.8377 693.3336 398.2538 683.2461 401.3216 675.4674 409.9926 671.3294 411.2065 654.9058 409.5436 639.8245 420.0869 624.3023 420.9855 611.7866 417.1569 603.5533 408.3386 598.8342 398.403 600.294 391.9475 615.9134 391.0362 615.6605 386.5528 626.5611 384.1056 634.6912 386.3178 644.1889 400.5455 656.0304 395.4948 664.2065 388.9484 Z" id="_592919" class="area included" title="Bošovice"></path>
<path d="M 746.2342 293.126 739.5288 314.2177 739.7342 322.5614 738.3114 330.4998 712.6765 326.9926 701.2674 328.6542 696.1711 317.3792 702.3142 305.3355 708.9076 304.97 713.5896 295.6084 741.507 292.4147 746.2342 293.126 Z" id="_593044" class="area included" title="Hodějice"></path>
<path d="M 595.148 332.6061 586.2383 338.8578 576.2439 341.8497 571.0981 349.5207 556.9152 338.2408 547.8684 334.4567 548.6534 334.0542 572.2469 319.5209 585.159 325.5954 595.148 332.6061 Z" id="_593052" class="area included" title="Hostěrádky-Rešov"></path>
<path d="M 644.5352 319.3259 643.7433 324.8336 659.318 341.3055 644.8699 350.3286 623.7573 339.5683 615.4414 325.3155 619.4579 320.7542 644.5352 319.3259 Z" id="_593079" class="area included" title="Hrušky"></path>
<path d="M 681.2938 342.8959 685.4067 355.6029 691.811 358.7205 705.3468 358.8437 714.7966 360.8856 722.3774 362.4478 739.2206 375.027 722.4285 391.862 703.5041 397.9215 693.3336 398.2538 681.2777 392.8377 674.0979 385.5459 675.9801 381.8837 662.2754 371.8055 661.5454 363.8012 652.2669 355.0179 681.2938 342.8959 Z" id="_593141" class="area included" title="Kobeřice u Brna"></path>
<path d="M 640.1705 290.469 646.9432 310.1978 652.3562 309.7156 640.6184 315.4229 644.5352 319.3259 619.4579 320.7542 608.694 313.0995 596.0607 306.8085 586.0237 303.9129 601.9192 285.7947 609.2259 286.2937 616.723 293.0189 640.1705 290.469 Z" id="_593214" class="area included" title="Křenovice"></path>
<path d="M 739.7342 322.5614 739.5288 314.2177 746.2342 293.126 751.705 286.1275 766.5219 287.757 765.5956 296.6654 761.393 303.7203 763.582 315.3763 762.1437 319.4299 739.7342 322.5614 Z" id="_593222" class="area included" title="Křižanovice"></path>
<path d="M 638.6307 376.0771 651.4801 384.7713 666.3365 384.2688 664.2065 388.9484 656.0304 395.4948 644.1889 400.5455 634.6912 386.3178 626.5611 384.1056 615.6605 386.5528 615.6714 377.7161 619.3135 376.3953 633.3636 379.7577 638.6307 376.0771 Z" id="_593265" class="area included" title="Lovčičky"></path>
<path d="M 652.2669 355.0179 661.5454 363.8012 662.2754 371.8055 675.9801 381.8837 674.0979 385.5459 668.7651 391.8744 664.2065 388.9484 666.3365 384.2688 651.4801 384.7713 638.6307 376.0771 628.5046 364.4321 620.0017 361.1015 613.1633 353.7681 630.4383 355.5654 644.1231 350.6738 652.2669 355.0179 Z" id="_593320" class="area included" title="Milešovice"></path>
<path d="M 751.705 286.1275 746.2342 293.126 741.507 292.4147 713.5896 295.6084 702.6319 295.3253 701.3132 282.9968 697.2122 278.478 725.1847 271.9219 733.8241 266.8114 750.6852 277.2492 751.705 286.1275 Z" id="_593371" class="area included" title="Němčany"></path>
<path d="M 701.2674 328.6542 705.9603 336.614 709.907 336.0475 714.1859 345.008 721.2227 346.5724 720.9045 352.0139 714.7966 360.8856 705.3468 358.8437 691.811 358.7205 685.4067 355.6029 681.2938 342.8959 679.7807 332.1482 681.2501 325.5262 696.1711 317.3792 701.2674 328.6542 Z" id="_593435" class="area included" title="Nížkovice"></path>
<path d="M 613.1633 353.7681 620.0017 361.1015 628.5046 364.4321 638.6307 376.0771 633.3636 379.7577 619.3135 376.3953 615.6714 377.7161 615.6605 386.5528 615.9134 391.0362 600.294 391.9475 595.1999 388.4947 591.9789 380.6833 576.6203 375.6492 585.995 362.4865 601.623 355.8765 603.231 352.4252 613.1633 353.7681 Z" id="_593478" class="area included" title="Otnice"></path>
<path d="M 672.2609 276.0385 686.2931 275.8729 697.2122 278.478 701.3132 282.9968 702.6319 295.3253 713.5896 295.6084 708.9076 304.97 702.3142 305.3355 696.1711 317.3792 681.2501 325.5262 671.7214 316.4413 666.4553 318.1005 656.9964 315.8233 652.3562 309.7156 646.9432 310.1978 640.1705 290.469 649.5555 287.0898 661.27 283.1076 672.2609 276.0385 Z" id="_593583" class="area included" title="Slavkov u Brna"></path>
<path d="M 615.4414 325.3155 623.7573 339.5683 644.8699 350.3286 644.1231 350.6738 630.4383 355.5654 613.1633 353.7681 603.231 352.4252 601.623 355.8765 585.995 362.4865 576.8115 352.451 584.9695 347.063 586.2383 338.8578 595.148 332.6061 606.7341 326.2333 615.4414 325.3155 Z" id="_593613" class="area included" title="Šaratice"></path>
<path d="M 681.2501 325.5262 679.7807 332.1482 681.2938 342.8959 652.2669 355.0179 644.1231 350.6738 644.8699 350.3286 659.318 341.3055 643.7433 324.8336 644.5352 319.3259 640.6184 315.4229 652.3562 309.7156 656.9964 315.8233 666.4553 318.1005 671.7214 316.4413 681.2501 325.5262 Z" id="_593664" class="area included" title="Vážany nad Litavou"></path>
<path d="M 672.2609 276.0385 661.27 283.1076 649.5555 287.0898 623.226 271.593 622.626 264.0992 637.5832 258.9346 639.4147 254.2713 642.3893 252.5789 652.5181 259.6586 671.1427 268.0668 672.2609 276.0385 Z" id="_593681" class="area included" title="Velešovice"></path>
<path d="M 619.4579 320.7542 615.4414 325.3155 606.7341 326.2333 595.148 332.6061 585.159 325.5954 572.2469 319.5209 579.4752 310.444 584.206 306.5999 586.0237 303.9129 596.0607 306.8085 608.694 313.0995 619.4579 320.7542 Z" id="_593699" class="area included" title="Zbýšov"></path>
<path d="M 214.5597 501.4431 219.3713 508.6918 229.4981 510.1122 218.8105 520.2424 211.6835 516.9525 200.8475 526.8639 156.1698 514.85 163.1096 503.8566 172.2919 497.0417 194.2434 483.6232 214.5597 501.4431 Z" id="_593834" class="area included" title="Branišovice"></path>
<path d="M 181.4698 410.2504 196.5337 412.933 216.3909 424.3371 219.269 430.0872 212.75 434.2757 181.0306 453.5388 168.5975 447.6602 157.2277 437.0369 167.3618 425.5498 168.8024 415.2757 177.1816 414.4475 181.4698 410.2504 Z" id="_594211" class="area included" title="Jezeřany-Maršovice"></path>
<path d="M 224.2171 438.6732 238.5143 451.3852 241.9778 458.426 232.5817 463.2063 230.8923 467.8827 221.8949 473.4518 214.7308 471.4491 192.631 462.0763 181.0306 453.5388 212.75 434.2757 224.2171 438.6732 Z" id="_594377" class="area included" title="Loděnice"></path>
<path d="M 195.1731 538.312 225.517 543.6083 235.5422 550.3716 237.0486 570.2888 210.0666 578.2095 201.6602 586.9986 175.3708 575.9931 167.6089 575.5268 165.9267 556.6059 168.5471 548.8854 164.0383 539.2185 166.1451 532.1081 195.1731 538.312 Z" id="_584517" class="area included" title="Ivaň"></path>
</g>
</svg>