<!--?xml version="1.0" encoding="utf-8"?-->
<svg version="1.1" xmlns:svg="http://www.w3.org/2000/svg" xmlns="http://www.w3.org/2000/svg" xmlns:xlink="http://www.w3.org/1999/xlink" x="0px" y="0px" viewBox="-439 191.1 400.9 419.9" style="enable-background:new -439 191.1 400.9 419.9;" xml:space="preserve" width="400.8999938964844" height="419.8999938964844">
<path d="M-73.4,386c-2.2-2.4-3.4-2.9-5.5-2.5c-3,0.6-5.8-1.2-8.5-5.5c-2.6-4.2-4.8-4.3-11.3-0.3c-3.2,1.9-6.1,3.5-6.5,3.5
	c-0.3,0-1.6-1.8-2.9-4l-2.2-4l3.6-1.7c2-0.9,3.6-2.4,3.6-3.4c0-2.3-3.2-5-5.9-5c-3.7,0-11.9-5.2-13.2-8.3c-0.6-1.5-2-3.9-3.1-5.2
	l-1.9-2.4l-3.7,1.9c-3.4,1.7-4,1.8-6.5,0.4c-1.8-1-4.1-1.3-6.2-0.9c-3.1,0.6-3.5,0.4-5.3-3.2c-1.1-2.1-3.1-4.9-4.5-6.2
	c-1.4-1.3-2.3-2.8-2-3.3s-0.6-2.7-2-4.8c-2.2-3.3-2.4-4.3-1.6-6.6c1.4-3.8,0.3-6.4-3.6-8c-1.9-0.8-3.4-1.7-3.4-2
	c0-1.1,2.8-3.3,3.4-2.7c0.6,0.6,1-1.2,0.7-3c-0.1-0.7,0.7-1,4.3-1.1c1.1-0.1,2.1-0.6,2.3-1.2c0.5-1.6-2.5-2.6-4.5-1.5
	c-2.1,1.1-5.7-0.2-6.5-2.4c-0.3-0.9-1.1-1.4-1.6-1c-1.6,1-1.2-0.8,2-10.5c3.3-9.9,3.5-12.1,1.9-16.9c-0.8-2.3-2.4-3.9-5.9-5.6
	c-3.8-1.9-4.7-2.8-4.3-4.4c0.4-1.3-0.6-3.1-3.1-5.5c-2-2-4-3.6-4.6-3.6s-1.3-1.3-1.7-3c-0.3-1.7-1-3-1.6-3s-0.6-0.5,0.1-1.3
	c0.8-1,0-2.4-3.8-6.1c-4.4-4.4-5-5.4-5.6-10.7c-0.6-5.1-1-6.1-3.5-7.4c-1.6-0.8-3.6-1.5-4.4-1.5c-0.9,0-1.8-1.2-2.2-3
	c-0.3-1.7-0.9-3-1.4-3c-0.9,0,2.2-9.4,3.3-9.8c0.4-0.2,0.8-0.8,0.8-1.3s0.7-1.7,1.6-2.6c1.3-1.3,1.8-1.3,2.4-0.3
	c0.5,0.8,1.7,1.1,3.4,0.6c2-0.5,2.6-0.3,2.6,1c0,1.5,0.2,1.5,1.8,0.2c3.8-3.2,8.1-4.1,16-3.3c8.4,0.8,16.8,1.5,19.3,1.6
	c0.9,0,3,1.3,4.8,2.9c4.9,4.5,4.2,11.3-1.6,16.8c-2.2,2-8.2,3.5-19.3,4.7c-0.8,0.1-2,0.5-2.7,0.9s-3.1,0.5-5.5,0.1l-4.3-0.6l4,2.6
	c2.2,1.4,6.4,3.2,9.2,4.1c4.2,1.2,5.2,2,5.2,3.6c0,3.3,8,11.7,11.3,11.8c0.4,0,0.5-0.5,0.1-1.1c-0.5-0.8-0.2-0.9,1.2-0.3
	c1.1,0.5,3.5,1,5.4,1.2c2.7,0.3,3.8,0,4.8-1.7c1.8-3-0.3-6.4-3.8-5.7c-3.6,0.7-6.3-0.7-6.5-3.2c-0.1-1.6,0.4-2.2,2.1-2.2
	c1.2,0,2.8,0.7,3.4,1.5c1.1,1.3,1.4,1.3,2.7,0c0.8-0.8,2.5-1.5,3.8-1.5s2.5-0.5,2.7-1.1s2.2-1.2,4.3-1.3c2.2-0.1,5.1-0.6,6.4-1
	c2.3-0.7,2.3-0.9,0.6-2.1c-1.3-0.9-2.4-1-3.7-0.3s-3.2,0.6-6.4-0.5c-2.5-0.8-5.2-1.5-6.1-1.5c-1.3,0-1.4-0.7-0.9-3.8
	c0.4-2.1,1.3-4.8,2.1-6c0.9-1.3,1.2-3.3,0.8-4.7c-0.5-2.1-0.2-2.7,2.2-3.5c1.5-0.6,3.3-0.8,4-0.6c1.9,0.7,2.6-2.3,1.4-6.1
	c-1.2-3.5-4.2-5.9-6.1-4.8c-0.7,0.4-0.9-0.2-0.7-1.7c0.3-2,0.9-2.3,3.8-2.3c1.9,0.1,4.3,0.4,5.2,0.8c1.2,0.5,2.5-0.1,4.1-1.9
	l2.4-2.6h43.1h43.1v98c0,85.5-0.2,97.9-1.5,97.4c-0.8-0.3-3.7-0.1-6.5,0.5c-4.2,0.9-5.5,0.8-7.5-0.5c-2.2-1.4-2.7-1.4-5.4,0
	c-1.7,0.9-5,1.8-7.3,2C-70.1,389-71,388.7-73.4,386z" id="_1" class="area excluded" title=""></path>
<path d="M-44.1,567.3c-0.6-1-3.3-2.7-6-3.7c-2.8-1-5-2.2-5-2.6c0-0.4-0.7-0.8-1.5-0.8s-1.5,0.6-1.5,1.4c0,0.8-0.7,1.7-1.5,2
	c-0.8,0.3-1.5,1.2-1.5,2c0,0.8-0.6,1.7-1.3,1.9c-2,0.7-10.7-0.4-10.7-1.4c0-0.5-0.6-0.9-1.2-0.9s-2.5-0.7-4-1.4
	c-2.3-1.2-3-1.2-4-0.1s-1.5,1.1-2.5,0c-0.7-0.7-1.3-2-1.3-2.8c0-0.8-1.1-1.8-2.4-2.2c-1.7-0.4-2.6-1.6-3.1-3.6
	c-0.4-1.7-1.5-3.8-2.5-4.8c-3.7-3.7-4.2-5.7-2-8c1.1-1.1,1.6-2,1.1-2s-1.1-0.9-1.4-2c-0.3-1.1-1.6-2.4-3-2.9s-2.8-1.7-3.1-2.6
	c-0.8-2.1,3.8-8.4,6.1-8.4c0.9,0,2.5-0.8,3.6-1.8c1.4-1.3,3.5-1.7,7.6-1.6c3.1,0.1,5.9-0.2,6.1-0.5c0.3-0.4,1.6-1.1,3-1.7
	c1.6-0.7,2.5-1.9,2.5-3.5c0-2.2,0.4-2.4,4-2.2c5.8,0.3,12.3-0.7,13.7-2.1c1.7-1.6,9.3-4.6,11.8-4.6c1.1,0,2-0.5,2-1s0.9-1,2-1
	c2,0,2,0.7,2,32.5v32.5h-2.5C-42,569.2-43.5,568.4-44.1,567.3z M-101.7,522.4c0.4-0.6-0.2-3.3-1.4-5.9l-2.1-4.7l4.5-4.6
	c2.5-2.5,4.5-5.1,4.5-5.8c0-2,3-0.1,4.6,2.9c1.1,2.2,2.4,3,5.5,3.5c5.3,0.9,5.1,3-0.5,5.5c-2.5,1.1-4.5,2.6-4.5,3.3
	c0,1.7-3.2,4.6-5.6,5.1c-1,0.2-2.7,0.7-3.8,1.1C-101.9,523.3-102.2,523.2-101.7,522.4z" id="_2" class="area excluded" title=""></path>
<path id="_3" d="M-283.6,360.2c-0.4-0.6-1.2-0.8-1.8-0.4c-0.7,0.5-0.9,0.1-0.4-1.2c0.4-1,0.4-1.6,0-1.2c-1.2,1.2-4.4-1.2-4.4-3.3
	c0-1.1,0.5-2,1.1-2s0.8-0.5,0.4-1s-0.3-1.6,0.1-2.2c1.7-2.7,1.1-4.4-1.3-4c-1.3,0.2-2.3,1-2.3,1.6s-0.4,0.5-0.9-0.3
	c-0.7-1-0.3-1.7,1.2-2.5c2.1-1.1,3.5-7.4,1.7-7.7c-0.5-0.1-1.4-0.2-2.1-0.2s-1.3-0.7-1.6-1.3c-0.4-1.3,7.9-2.9,9.7-1.9
	c0.7,0.4,1.1-0.3,1.1-1.9c0-2.9-1.2-3.3-3-1.1c-1.6,1.9-5.7,1.9-7.6,0.1c-0.8-0.8-1.4-3.4-1.4-6c0-4.1,0.2-4.6,2.2-4.6
	c1.2,0,2.9-0.5,3.8-1c1.1-0.7,0.5-1-2.5-1.1c-3.6-0.1-3.8-0.2-1.8-1.2c1.2-0.6,2.2-1.5,2.2-2s1-0.8,2.2-0.6s2.5-0.1,2.8-0.7
	c0.3-0.5-0.6-1.1-1.9-1.3c-1.8-0.3-2.1-0.6-1.1-1.2c0.8-0.5,2.2-0.4,3.2,0.1c2.4,1.3,2.5-1.6,0.2-2.9c-1.1-0.6-1.3-1.1-0.5-1.6
	c0.6-0.4,1.1-0.4,1.1,0s0.7,0.1,1.5-0.5c0.8-0.7,2-0.9,2.7-0.5c0.8,0.5,1,0.2,0.6-0.8c-0.3-0.9,0-2.4,0.8-3.4
	c1.2-1.6,1.5-1.7,2.4-0.3c0.8,1.2,1,1.2,1,0.1c0-0.9,0.7-1.2,2.1-0.8c2.7,0.7,6.1-2.6,5.2-5c-0.4-0.9-0.2-1.4,0.3-1.1
	s1.8-0.6,2.9-2.1c1.9-2.6,1.9-2.6,0-1.2c-1.1,0.8-3.1,2.8-4.5,4.4c-1.9,2.2-2.7,2.6-3.1,1.5c-0.8-2,2.2-8.9,3.8-8.9
	c0.8,0,1.5-0.7,1.5-1.5c0.1-0.8,0.2-2.1,0.2-2.7s1.4-2.5,3.1-4s2.5-2.7,1.8-2.8c-0.8,0-1.1-1.2-0.8-3.3c0.6-5,1-6.4,2.5-8.1
	c1.1-1.4,1.1-1.6-0.3-1.6c-1.3,0-1.5-0.6-1-2.8c1.1-4.9,2.7-7.3,5.9-8.2c2.8-0.8,2.9-1,0.9-1.6c-2-0.6-2.1-0.8-0.6-3.8
	c1.1-2.2,1.2-3.2,0.4-3.5c-2-0.7-1.3-2.5,0.8-2c1.3,0.4,1.8,0.1,1.4-0.9c-0.3-0.8,0.4-1.7,1.7-2.2c1.6-0.6,1.9-1,0.9-1.4
	c-0.8-0.3-2.3-0.2-3.4,0.3s-1.4,0.8-0.7,0.9c0.7,0,1.1,0.5,0.7,1c-0.7,1.2-6,0.7-6.1-0.5c0-0.5-0.3-1.4-0.7-1.9
	c-1.1-1.8,0.8-3.8,3.1-3.2c1.2,0.3,2.1,0.1,2.1-0.5s0.6-0.3,1.3,0.7c1.2,1.7,1.4,1.7,3,0.1c0.9-0.9,1.7-2,1.7-2.4
	c0-1.2-1.5-3-2.5-3.1c-0.5-0.1-1-0.9-1-1.8c0-1.4,0.7-1.7,3.4-1.4c1.8,0.2,3.1-0.1,2.8-0.6c-0.3-0.5,0.4-2.4,1.6-4.3l2.1-3.4l1.3,3
	l1.3,3l0.3-3.5c0.3-2.9,0.7-3.5,2.6-3.4c2.9,0.1,2.9-2.2,0.1-3.1c-1.5-0.5-1.8-0.9-0.9-1.5c0.7-0.4,1-1.5,0.7-2.4s-0.2-1.8,0.4-2.2
	c0.8-0.5,1.4,1.4,1.1,3.6c0,0.3,1,1.1,2.2,1.7c2.1,1,2.3,0.8,2.4-1.6c0.1-4.9,1.5-9.4,3.3-11.3c1.8-1.8,1.8-1.7,2.5,1.6
	c0.4,1.9,0.4,4.6,0,6s-0.2,2.5,0.4,2.5s1-2.1,1-4.8s0.5-5.4,1-6.2c0.8-1.3,1-1.3,1,0.2c0,0.9,0.5,2,1.1,2.4c0.7,0.4,1-0.5,0.8-2.7
	c-0.2-2.5,0.1-3.4,1.4-3.7c1.4-0.3,1.8,0.3,1.8,2.8c0,2.1,0.4,3,1.2,2.7c0.7-0.2,1.2-1.5,1.2-2.8c0-1.9,0.6-2.4,2.5-2.5
	c2.1-0.1,5.3,0.9,6.8,2.2c0.8,0.7-2,4.5-3.4,4.5c-0.8,0-1.5,0.4-1.5,0.9c0,1.4,2.9,2.2,5.6,1.5c1.5-0.4,2.4-0.2,2.4,0.5
	c0,0.6-0.4,1.1-0.9,1.1s-1.2,1.9-1.6,4.2l-0.7,4.2l-1.3-3.1c-1.4-3.1-5.3-6.4-7.7-6.4c-0.7,0-2.4,1.4-3.6,3.1
	c-2,2.7-2.2,3.6-1.3,7.2c0.6,2.3,0.8,5.4,0.5,6.9c-0.5,2.3-0.9,2.6-2.8,2.2c-1.7-0.4-2.6,0-3.4,1.5c-1.5,2.8-2.3,2.6-6.4-0.9
	c-3.3-2.9-3.5-2.9-4.8-1.2c-0.7,1-2.2,2.2-3.2,2.5c-1.6,0.6-1.7,0.9-0.5,2.3c1.8,2.2,1.9,6.6,0.1,5.9c-2.3-0.9-7.4,2.3-6.8,4.3
	c0.4,1.1-0.2,2-1.7,2.7c-3.1,1.4-5.4,6.3-3.9,8.6c1.5,2.4,0.4,12.1-1.6,13.6c-1.2,1-1.4,2.5-0.8,7.1c0.4,3.5,0.2,7-0.4,8.7
	c-0.6,1.6-0.7,3.1-0.2,3.4c0.5,0.3,1.2,1.6,1.6,2.8c0.6,1.8,0.2,2.3-1.9,2.9c-3.8,0.9-6.8,7.3-5.9,12.2c0.4,2,0.6,4.1,0.5,4.5
	s0.5,2.1,1.3,3.7s1.5,4.2,1.5,5.7c0,1.7,0.8,3.3,2,4.1c2,1.3,2.9,6.2,1.1,6.2c-0.5,0-0.3,1.6,0.5,3.5c1.3,3.1,1.3,4.2,0.1,8.3
	c-0.9,3.2-1.1,5.3-0.5,6.5c1.3,2.4,0.3,3.5-2.5,2.9c-2-0.4-2.6-1.3-3.4-5.1l-0.9-4.7l-1.2,2.8c-0.8,1.9-0.8,3.4-0.2,4.7
	c0.8,1.5,0.2,2.7-3.2,6.2c-2.3,2.4-5,5.6-5.9,7.3c-1,1.6-2.4,3-3.1,3.1s-2.5,0.5-3.9,0.9C-281.8,361.1-283.2,360.9-283.6,360.2z
	 M-227.4,201.4c-0.3-1-0.5-0.2-0.5,1.8s0.2,2.7,0.5,1.8S-227.2,202.4-227.4,201.4z" class="area" title=""></path>
<path id="_4" d="M-198.1,319.1c0-1.5-0.7-1.9-2.9-1.9c-3.7,0-6.1-3.2-6.1-8.2c0-2-0.4-4-0.9-4.3s-2.1-3-3.5-5.9l-2.6-5.3l3.2-6.9
	c3.6-7.9,6.8-17.2,6.9-19.6c0-0.9,0.7-2.2,1.5-2.9c1.3-1.1,1.2-1.5-1-3.6c-1.4-1.3-2.5-2.8-2.5-3.4s-0.3-1-0.8-0.9
	c-4.3,0.7-5.3-0.4-9.8-10.1c-5.1-11.1-7-13.4-13.4-16.6c-7.5-3.7-7.6-3.8-6.8-5.9c0.5-1.4,1.2-1.2,4.2,1.5c4.2,3.7,4.9,3.8,6.8,1
	c1.1-1.5,2.1-1.9,3.9-1.4c2.2,0.6,2.6,0.3,3-2.7c0.3-1.8,0.1-5.2-0.5-7.5c-0.8-3.5-0.7-4.6,0.8-6.7c2.2-3,3.5-3.2,6.8-1.1
	c2,1.3,3.6,4.4,4.1,7.9c0.4,2.9,3.6,8.5,4.9,8.5c0.8,0,2.6,0.5,4,1.1c2.1,0.9,2.6,2.1,3.1,6.9c0.6,5.2,1.1,6.2,5.6,10.6
	c2.7,2.7,4.4,5.1,3.9,5.5c-0.7,0.4-0.5,1.7,0.5,3.6c0.8,1.6,1.5,3.5,1.5,4.2s0.9,1.2,2,1.2s2,0.6,2,1.3c0,0.7,1.2,2,2.6,2.7
	c2.1,1.1,2.5,1.9,2.1,4c-0.5,2.4,0,2.9,4.4,5c4.2,2,5.1,2.9,6.1,6.3c1.3,4.2,1.3,4.2-4.3,22.9c-2.3,7.6-2.3,7.7-6.1,8.3
	c-2.1,0.3-3.8,1-3.8,1.5s-1.6,2.5-3.5,4.6s-3.5,4-3.5,4.4c0,1.4-4.3,3.3-8.1,3.7C-197.5,321-198.1,320.7-198.1,319.1z" class="area" title=""></path>
<path id="_5" d="M-240.3,385.5c0.9-1.6,0.6-2.4-1.5-4.2c-1.5-1.3-2.2-2.5-1.6-2.9s1.2-0.9,1.3-1.1c0.4-0.7-3.4-7-4.2-7
	c-1.3,0-6-9-5.8-11.2c0.4-5,0-5.9-2.1-4.8c-1.1,0.6-2,0.7-2.1,0.3s-0.3-2.2-0.5-4s0-3.2,0.5-3.2c1.4,0,2.2-3,1.2-4.8
	c-0.6-1-0.4-3.4,0.5-6.3c1-3.3,1.1-5.5,0.4-7.2c-0.5-1.4-0.7-4.1-0.4-6c0.4-2.7,0.1-3.9-1.6-5.3c-1.2-1-2.1-2.9-2.1-4.1
	s-0.7-3.7-1.6-5.4c-0.9-1.7-1.4-3.3-1.1-3.5c0.3-0.3,0-2.1-0.5-4.1c-0.8-2.8-0.6-4.4,0.8-7.4c1-2.1,2.3-3.9,2.9-3.9s2-0.6,3-1.3
	c1.7-1.2,1.7-1.6,0.4-4.3c-1-2.1-1.2-3.7-0.6-5.4c0.5-1.3,0.6-4.8,0.2-7.7c-0.5-4-0.3-5.7,0.8-7c1.9-2.2,3-11.8,1.6-14.1
	c-1.6-2.5,1-7.5,4-7.9c1.9-0.3,2.2-0.8,1.7-2.7c-0.6-2.5,1.5-3.9,5.8-4c2.4,0,3-4.3,0.8-6.8c-2.5-2.8,0.3-2.2,8.5,1.8
	c6.1,3,7.6,4.3,9.3,7.8c1.1,2.3,2.7,5.3,3.4,6.7s2.4,4.5,3.6,6.9c2.1,4.4,2.1,4.4,0.2,6.4c-1.6,1.6-2.3,1.7-4.1,0.8
	c-2-1.1-2.1-1-1.1,0.9c0.6,1.2,0.8,2.6,0.4,3.2c-1.4,2.3-1.3,10.3,0.2,11.9c2.4,2.7-0.2,8.7-7.7,17.8c-0.6,0.8-1.2,2.4-1.4,3.6
	c-0.1,1.2-0.7,3.1-1.2,4.1c-1.4,2.7-0.7,13.2,1.1,17.6c0.9,2.1,2.4,4.1,3.4,4.5c3.6,1.5,9.3,5.4,9.3,6.4c0,0.5-0.7,2.2-1.4,3.7
	c-0.8,1.5-1.2,3.7-0.9,4.9c0.4,1.5-0.3,2.9-2.6,5c-3.1,2.8-3.1,3-2.1,7.7c0.7,2.9,0.7,5.2,0.2,5.9c-0.6,0.7-0.5,3.3,0.1,6.6
	c1.3,7.1-0.7,12.5-5,13.4c-3.3,0.7-5.8,4.1-4.4,5.9c1.6,1.9-1,4.4-5.3,5.2C-241.1,387.4-241.3,387.3-240.3,385.5z M-212.9,358.8
	c-0.7-1.6-0.8-2.7-0.2-3.1c0.5-0.3,1-1.6,1.1-2.8c0.1-2,0.2-2,0.6-0.2c0.3,1.1,0.9,2.5,1.3,3c0.4,0.6,0.3,2-0.4,3.3l-1.2,2.3
	L-212.9,358.8z" class="area" title=""></path>
<path id="_6" d="M-422.6,288.2c-2.2-1.1-4.8-3.4-5.7-5.1c-1-1.7-2.2-2.8-2.7-2.5s-2.1,0-3.6-0.6c-2.5-1.1-2.5-1.3-0.6-2
	c2-0.7,1.9-0.9-1-6.4c-1.7-3.1-2.9-5.8-2.7-5.9c0.2-0.2,2.5,0,5.1,0.4s5,0.4,5.3-0.1c0.3-0.5,0-0.8-0.7-0.8c-0.9,0-0.9-0.3,0-1.4
	s0.7-1.7-1.1-3c-1.2-0.9-3.3-1.6-4.6-1.6c-1.3,0-2.1-0.4-1.7-1c0.3-0.5,1.3-0.7,2.2-0.3c1.2,0.5,1.5,0.2,1.1-0.9
	c-0.3-0.8-0.2-2.1,0.3-2.9c0.7-1.1,1.3-0.8,2.9,1.1l2.1,2.4l-0.4-3.2c-0.6-4.4,0.7-4.9,2.9-0.9c1.4,2.6,1.5,3.7,0.6,5.4
	c-1.4,2.6-1.5,7.2-0.1,7.2c0.6,0,1.3-0.7,1.6-1.5s1.2-1.5,1.9-1.5c0.7,0,1.6-1,2-2.2c0.6-1.9,0.9-2,1.8-0.7c0.9,1.2,1.5,1.3,3.6,0.2
	c2.3-1.2,2.6-1.1,3.3,1.2c0.5,1.4,1.3,2.5,1.9,2.5s0.8-0.7,0.4-1.5c-0.6-1.5,0.5-2,1.7-0.8c0.4,0.4,1.8,0.8,3.2,0.9
	c2,0.2,2.8-0.3,3.6-2.4c0.8-2.1,1.2-2.3,1.9-1.2c0.5,0.8,0.7,1.7,0.4,2.1s0.8,1.7,2.3,2.9c2.2,1.7,2.5,2.5,1.6,3.8s-0.7,2.4,0.8,4.9
	c2.1,3.4,1.7,8.3-0.6,8.3c-0.7,0-2,0.8-2.9,1.9c-0.9,1-2.8,1.9-4.2,1.9c-1.4,0-3.3,0.8-4.4,1.7c-1.3,1.2-3.2,1.6-6.1,1.4
	c-2.7-0.2-4.4,0.1-4.7,0.9C-416.4,290.7-418,290.5-422.6,288.2z" class="area" title=""></path>
<path id="_7" d="M-400.9,597.8c-4.7-1.2-4.9-1.5-2.8-5.5c0.9-1.7,1.1-3.3,0.6-4.1s-0.4-2.2,0.1-3.2c1.1-2.1,0.2-4.1-1.6-3.4
	c-1.9,0.7-3.9-3.7-2.8-6c0.5-1,0.8-2.4,0.5-3.1s0-1.2,0.5-1.2c1.4,0,5.8-7.8,6.7-12c0.4-1.9,0.8-6.4,0.9-10c0.1-6,0.3-6.5,2.3-6.8
	c1.6-0.2,2.1,0.1,1.7,1.1c-0.4,1.1,0.9,1.4,6.7,1.6c6.3,0.1,7.5,0.4,9,2.4c2.3,3,2.3,2.9-1.5,5.5c-2.8,1.9-3.5,3.2-4.6,8.5
	c-1.8,8.7-1.8,8.8-4.1,8.8c-2.5,0-2.5,0.7-0.2,4.5c1.7,2.7,1.7,3.3,0.4,6.1c-1.1,2.3-1.2,3.6-0.4,5c0.8,1.5,0.5,2.3-1.4,4.1
	c-1.3,1.2-2.4,3.3-2.4,4.6c0,2.2-1.7,4.9-3,4.6C-396.4,598.9-398.5,598.4-400.9,597.8z" class="area" title=""></path>
<path id="_8" d="M-380.9,607.9c-1.8-1.8-3.2-4.3-3.2-5.4c0-2.4-3.4-5.3-6.2-5.3c-3.5,0-1.6-6.9,2.3-8.2c0.8-0.3,0.8-1.1-0.1-3
	c-0.9-2.1-0.9-3.2,0.4-5.5c1.4-2.7,1.4-3.2-0.4-5.9c-1.9-2.9-1.9-2.9,0.1-3.7c2.2-0.8,2.3-0.9,4.1-9.5c0.7-3.4,1.5-6.3,1.8-6.3
	s1.8-1.1,3.3-2.3c2.5-2.1,2.6-2.5,1.5-5c-1.5-3.3-2.6-3.7-10.5-3.9c-4.9-0.1-6-0.5-5.5-1.6c0.4-1.1-0.1-1.4-2.6-1
	c-3.5,0.5-3.6,0.4-2.2-2.1c0.7-1.4,0.5-2.5-1-4.3c-1.1-1.4-2-3.1-2-3.7c0-1.8,3.1-3.9,5.8-3.9c1.3,0,3-0.7,3.9-1.6
	c1.1-1.1,2.4-1.4,4.2-0.9c1.4,0.4,6,1,10.1,1.4c4.1,0.4,8.8,1.3,10.5,2s5.7,1.4,9,1.6c11.5,0.6,17.9,1.5,19.5,2.9
	c3.1,2.8,13.1,5.8,17.1,5.1c3.3-0.5,4.2-0.3,6,1.8c1.9,2.2,2.7,2.4,9.5,2.1c4.1-0.2,7.7,0.1,8,0.6s0.1,1-0.5,1c-0.8,0-0.8,0.6,0,2
	c0.9,1.6,0.6,2.2-1.7,3.7c-1.5,0.9-3.7,2.5-4.8,3.4c-1.1,0.9-4,2.3-6.4,3c-3,1-5.1,2.5-6.7,4.9c-1.3,2-4,5.7-5.9,8.4
	c-4.4,6.1-4.8,11.1-1,12.8l2.5,1.2l-3.1,1.9c-3.4,2.1-7.5,9.1-6.4,10.9c0.5,0.7-0.2,0.9-1.9,0.6c-2-0.4-3.3,0.2-5.5,2.6
	c-1.6,1.7-3.2,3.9-3.5,4.8c-0.4,1.1-1.2,1.5-2.2,1.1c-0.9-0.3-2.1-0.1-2.8,0.5c-0.8,0.7-2.6,0.7-5.2,0.1c-2.2-0.5-5.6-0.9-7.6-0.9
	c-4.2,0-11.7,2.9-13.7,5.3C-376,611.9-377.3,611.6-380.9,607.9z M-313.1,580.2c0-0.6,0.5-1.1,1-1.1c1.3,0,1.3,0.7,0,1.5
	C-312.7,581-313.1,580.8-313.1,580.2z M-299.5,574.6c-1-0.8-2.3-1.2-2.8-0.9s-0.9,0.2-0.9-0.3c0-1.6,3.9-3.3,5.9-2.5
	c1.7,0.6,1.8,1.1,0.8,2.9C-297.5,575.8-297.8,575.9-299.5,574.6z M-290.6,568.2c0.8-1.3,2.5-1.3,2.5,0c0,0.5-0.7,1-1.6,1
	S-291,568.7-290.6,568.2z" class="area" title=""></path>
<path id="_9" d="M-248.9,545.3c-3.9-4.1-4-6.4-0.5-9.9l2.7-2.7l1.3,3.3c0.9,2.3,1.1,4.7,0.5,8l-0.8,4.7L-248.9,545.3z M-311,538.9
	c-1.6-1.6-3.2-2-8.3-1.9c-6.3,0.1-15.4-2.4-18.2-5c-1.1-1-1.1-1.4,0.1-2.3c1.9-1.4,4.3-10.9,4.3-16.9c0-4.2,0.2-4.7,1.5-3.6
	c1.2,1,1.5,1,1.5-0.3c0-0.8-0.7-2.1-1.5-2.7c-0.8-0.6-1.5-2.8-1.5-4.6c0-2.7-0.6-3.6-2.9-4.9c-2.9-1.5-4.7-4.7-3.6-6.5
	c0.3-0.5-0.4-1.6-1.5-2.4c-1.2-0.8-1.9-1.9-1.6-2.4c0.7-1.2-11.1-6.6-12.9-5.9c-0.8,0.3-1.4,0.4-1.4,0.2c0-0.2-0.3-1.2-0.7-2.1
	c-0.5-1.2-0.3-1.5,0.5-1c1.7,1.1,1.4-1.5-0.4-3.5c-1.4-1.6-1.4-1.8,0.5-2.4c1.1-0.4,2.5-0.4,3-0.1c0.5,0.3,2.2,0.1,3.7-0.5
	c2.3-0.9,3.1-0.7,4.8,0.9c1.4,1.3,2.6,1.7,3.5,1.1c0.8-0.5,2.9-0.7,4.7-0.4c3.2,0.4,3.3,0.3,2.3-2.3c-0.6-1.5-0.8-3.3-0.5-4
	c0.3-0.7,0.1-1.3-0.5-1.3c-1.5,0-1.1-2.7,0.4-3.3c0.8-0.3,1.6,0.2,1.9,1.4c0.3,1.2,1.1,1.7,1.9,1.4c0.8-0.3,2.7-0.1,4.2,0.5
	c2.9,1.1,6.1-0.3,5-2.1c-0.9-1.4,1.3-3.6,4.4-4.3c3.9-1,6.2-3.9,6.2-8c0-2.8,0.5-3.8,2.3-4.6c2-0.9,2.8-0.6,5.7,2.1
	c1.8,1.7,4.6,3.8,6.2,4.6c1.6,0.8,2.8,1.9,2.8,2.4s0.9,1,2,1s3.6,0.9,5.5,2s4.9,2,6.5,2c1.9,0,3.3,0.7,4,2c0.7,1.2,2.1,2,3.8,2
	c1.5,0,4.3,0.3,6.3,0.6l3.6,0.6l-1.9,4.9c-1,2.7-1.9,6.3-1.9,7.9c0,2.2-0.6,3.3-2.3,4c-2.1,1-5.7,6-5.7,8c0,0.5-1.1,2.5-2.5,4.6
	c-1.4,2-2.3,3.9-2,4.2c0.3,0.3,2.1-0.5,4-1.6c1.9-1.2,4.2-1.8,5-1.5c1.6,0.6,2,3.9,0.6,4.8c-0.5,0.3-0.4,1.8,0.2,3.6
	c0.9,2.4,0.9,3.2-0.2,3.9c-1,0.6-1.1,1.3-0.2,2.9c0.6,1.1,1.1,3.2,1.1,4.6c0,1.9,0.8,2.8,3.4,3.7c3.9,1.4,3.8,2.5-0.9,8.2
	c-4.4,5.3-7,6-14.5,3.7c-3.4-1.1-7.3-1.9-8.7-1.9c-5.8,0-10.9,5.2-9.7,9.9c0.4,1.4,0.1,2.1-0.8,2.2
	C-308.1,540.9-309.1,540.7-311,538.9z" class="area" title=""></path>
<path id="_10" d="M-364.3,453.1c-1-0.7-1-0.9,0.4-0.9c0.9,0,2.1-0.6,2.5-1.4c0.4-0.7,1.8-1.9,3-2.5s2.2-1.8,2.2-2.6
	c0-2,3.2-3.5,7.3-3.5c3.3,0,6.4-2,5-3.3c-0.4-0.4-1.7-0.4-2.9-0.1c-1.5,0.4-3.4-0.2-5.4-1.6c-1.7-1.2-3.7-2-4.4-1.7
	c-1.4,0.5-3.6-1.1-3.6-2.5c0-0.4,0.7-0.8,1.6-0.8s2.9-1.3,4.4-2.9c3.4-3.4,3.4-6.8,0.1-6.4c-1.5,0.2-2-0.1-1.4-1
	c0.4-0.7,0.6-2.1,0.5-3.1c-0.2-1.5,0.1-1.7,1.5-1.1c2.6,1.1,6.6,0.7,8.1-0.9c0.7-0.7,1.6-3.2,1.8-5.4c0.4-3.4,0.2-4-1.3-3.9
	c-1.4,0.1-1.8-0.7-1.8-3.9l-0.1-4l-5.7,0.1c-6.1,0.1-6.8-0.5-3.7-3.6c1.5-1.5,1.8-2.8,1.4-5c-0.4-1.9-0.2-3,0.5-3
	c0.6,0,0.9-0.6,0.6-1.3c-0.5-1.4-4.4-1.8-4.4-0.5c0,0.4-0.4,0.8-0.9,0.8s-1-1.5-1-3.2s-0.1-4.1-0.1-5.2c-0.2-6.3,1-13,2.4-14.1
	c0.9-0.6,1.6-1.8,1.6-2.5c0.1-3,2.6-4.6,7.7-5.1c4.5-0.4,5.2-0.3,5.2,1.3c0,1-1.6,2.8-3.6,4c-2.7,1.7-3.3,2.4-2.2,3.2
	c1,0.7,1.1,1.1,0.1,1.4c-0.7,0.3-1.2,1.2-1.2,2c0,1.3,0.2,1.2,1.6-0.1c1.2-1.2,2.7-1.5,6.2-1c7.6,1,7.5,0.8,4.1,7.4
	c-1.7,3.3-3.5,6-4.1,6c-0.8,0-0.8,0.4,0,1.4c0.9,1.1,0.7,1.5-1,1.9c-1.3,0.3-1.8,1-1.4,1.7c0.4,0.6,1.3,0.9,2.1,0.6s3,0.9,4.9,2.6
	c3,2.6,3.4,3.6,2.9,6c-0.5,2.3-0.1,3.4,2.2,5.6c3.1,2.9,7.8,9.2,6.9,9.2c-0.3,0,0.4,2.1,1.5,4.7c1.5,3.6,1.8,5.3,1,6.9
	c-1.3,2.9-0.4,3.6,2.4,1.7c3.3-2.2,8.1,0.1,7.7,3.7c-0.4,4-2.3,7.9-4.2,8.5c-2,0.6-2.2,3.6-0.3,4.8c0.7,0.4,1.8,0.5,2.4,0.1
	c2.3-1.4,0.2,2-2.5,4c-2,1.5-4.4,2.1-9.5,2.1c-3.7,0.1-7.3,0.4-7.8,0.7c-1.5,0.9-7.6,1.1-9.6,0.2c-1.2-0.5-2.6,0.1-4.6,2.2
	c-2.5,2.5-3.2,2.7-4.8,1.7c-1.5-1-2.6-0.9-5.5,0.6C-361.5,453.2-363.4,453.6-364.3,453.1z M-367.9,405.7c-1.3-2.8-3-3.2-3.8-1
	c-0.8,2.1-2.1,1.9-3.4-0.6c-0.9-1.8-0.7-2.5,1.6-4.9c1.6-1.7,2.5-3.5,2.1-4.4c-0.7-1.7,0.8-2.2,1.8-0.6c0.3,0.5,1.6,1,2.8,1
	c1.5,0,2.9,1.3,4.6,4.2l2.4,4.2l-2.7,2.3C-365.9,408.8-366.5,408.8-367.9,405.7z M-356.1,407.7c0-0.2,0.5-0.7,1-1.1
	c0.5-0.3,1-0.1,1,0.4s-0.5,1.1-1,1.1S-356.1,408-356.1,407.7z M-364.5,370.6c-0.8-2.1-0.8-2.1,0.8-2.7c0.9-0.3,1.6,0.3,1.9,1.9
	C-361.3,372.5-363.5,373.2-364.5,370.6z M-366.5,363.3c-0.9-1.4-0.1-2.8,2.5-4.2c2.5-1.3,2.5,0.1,0.1,3.1
	C-365.2,363.8-366,364.1-366.5,363.3z M-344.1,353.5c0-2,2.5-4.3,4.5-4.3c1.8,0,1.5,2.4-0.3,2.6c-2.4,0.3-2.6,0.4-1.3,1.3
	c1,0.6,0.8,1-0.8,1.4C-343.4,354.8-344.1,354.5-344.1,353.5z M-332.1,341c0-0.9-0.5-1.8-1.1-2c-1.6-0.5-0.2-3,2.8-5.2
	c2.6-1.9,2.6-1.9,1.8,0c-0.4,1.1-1.4,3.5-2.1,5.4C-331.4,341.1-332,341.9-332.1,341z" class="area" title=""></path>
<path id="_11" d="M-263,399.1c-1.3-0.5-2.8-0.7-3.2-0.4c-0.5,0.3-0.9-0.8-0.9-2.4s-1.1-6.1-2.5-9.9c-2.9-8-3.1-11.6-0.9-13.4
	c0.9-0.7,3.4-3,5.6-5.1c4.8-4.6,6.1-3.9,4.9,2.6c-0.9,5-0.1,6.8,3.1,6.8c1.7,0,1.5,0.8-1.7,6.7c-3.8,7.1-4.5,11.7-2.1,12.6
	c0.8,0.3,1.5,1.3,1.5,2.1C-259.1,400.4-259.6,400.4-263,399.1z M-250.2,396.9c-0.1-0.1-0.2-2-0.4-4c-0.2-3.7,1.3-5.7,4.4-5.7
	c1.4,0,0.2,8.2-1.3,9.2C-248.6,397.1-250,397.4-250.2,396.9z M-257.8,393.4c-0.9-0.5-0.8-1.2,0.2-2.7c1.7-2.4,3.1-1.3,1.8,1.4
	C-256.2,393.3-257.1,393.8-257.8,393.4z M-363.1,316.2c-1.2-0.8-1.2-1,0.3-1.6c2.1-0.8,3.4,0.2,2.1,1.5
	C-361.3,316.7-362.2,316.7-363.1,316.2z" class="area" title=""></path>
<path id="_12" d="M-191.5,592c-1.1-0.6-3.3-1.5-5-1.9c-11-2.9-17.3-6.5-15.1-8.7c0.7-0.7,4.3-1.2,8-1.2c6.7,0.1,7.9-0.1,9.5-1.5
	c0.9-0.8,2.4-1.5,3.2-1.5c0.8,0,2-0.5,2.7-1.2c1.6-1.6,1.6,2.1,0,5.7c-1,2.2-0.9,2.8,1,4.6c2.6,2.4,2.7,3.3,0.6,5.4
	C-188.5,593.4-189,593.5-191.5,592z M-183.4,573.5c0.3-2.1,1.3-4.4,2.2-5.1c1.5-1.2,1.5-1.4,0.1-2.5c-0.9-0.7-2.9-3.5-4.4-6.3
	c-2.1-3.8-3.3-5-4.6-4.6c-1.1,0.3-2.9-0.7-4.7-2.8c-1.6-1.8-3.4-3-3.9-2.7s-2.5-0.7-4.5-2.3c-1.9-1.6-3.8-2.6-4.1-2.3
	c-0.3,0.3-1.3,0-2.2-0.7s-1.8-1-2.1-0.7c-0.3,0.3-3.3-1.1-6.7-3s-7.8-4.4-9.7-5.4c-4.3-2.3-9.8-8.2-11.6-12.4
	c-1.2-2.9-4.4-6.6-4.4-5.1c0,0.4-1.8-0.3-4.1-1.5l-4.1-2.1l-4.3,4.6c-4.6,5-6,5.7-5.2,2.6c0.4-1.6-0.2-2.3-2.9-3.4
	c-2.5-1-3.4-2.1-3.4-3.7c0-1.3-0.4-2.9-0.9-3.7c-0.5-0.9-0.5-2.1,0.2-3.2c0.8-1.3,0.8-2.5-0.1-4.4c-1.1-2.5-1-2.7,2.6-4.2
	c2.1-0.9,4.7-2.5,6-3.6l2.2-2l3.5,2.1l3.5,2.1v-2.3c0-2,0.5-2.3,2.9-2.2c1.6,0.1,3.3,0.5,3.7,0.9c1.4,1.4,2.6,0.7,2.1-1.2
	c-0.3-1.1,0.1-2.5,1-3.2c0.9-0.7,1.2-2.1,1-3.1c-0.4-1.5-0.1-1.7,1.4-1.3c1,0.3,2.9,0.1,4.1-0.6c3.5-1.9,8.6-2,9.3-0.2
	c0.4,1.1,1.6,1.4,4.3,1c3.7-0.5,3.7-0.5,3.7,3.1c0,2-0.2,4.2-0.2,4.8c-0.2,1.2-5.7,4.7-7.7,4.7c-1.8,0.1-1.8,5.5,0,6.2
	c1.2,0.5,1.3,0.9,0.5,1.9c-2.3,2.8,3.6,9.8,10.3,12.4c1.4,0.5,3.6,2.9,4.9,5.2c2.5,4.5,9.4,10.5,13.4,11.5c1.3,0.3,3.7-0.1,5.4-0.9
	c3.2-1.6,3.8-0.9,2,2.4c-0.9,1.6-0.7,1.9,0.9,1.9c1.1,0,5.1,1.1,8.9,2.5s7.6,2.5,8.5,2.5c2.4,0,6.7,4.4,6.7,6.9
	c0,2.6-1.3,2.7-3.6,0.4c-1-1-3.4-2.3-5.5-2.9c-3.2-1-4-0.9-5.3,0.6c-0.9,0.9-1.5,3.4-1.5,5.4c0,3,0.5,3.9,2.4,4.6
	c1.3,0.5,3,1.9,3.6,3.1c1,1.9,0.9,2.4-0.6,3.5c-1,0.7-2.2,1.3-2.7,1.3s-0.6,1.2-0.3,2.7s0.3,2.9-0.1,3.2s-1.3,1.5-1.9,2.6
	c-0.6,1.1-1.8,2.1-2.7,2.3C-183.7,577.2-183.9,576.6-183.4,573.5z M-248.5,574.4c-0.3-1-0.8-4-1.1-6.7c-0.3-2.7-1.2-6.2-2-7.7
	c-1.8-3.5-1.8-3.9,0-3.9c0.8,0,2.3-1.1,3.4-2.5c4.6-5.8,8.2-0.8,8.2,11.4c0,7.3-0.1,7.9-1.9,7.5c-1.3-0.3-2.3,0.2-3,1.6
	C-246.4,576.6-247.8,576.8-248.5,574.4z" class="area" title=""></path>
<path id="_13" d="M-287.2,457.1c-1.2-0.6-2.2-1.5-2.2-1.9s-0.9-0.8-2-0.8c-2.4,0-13.7-7.6-14.5-9.8c-0.7-1.7,3.5-5.7,4.5-4.2
	c1,1.6,4.5,1.4,7.2-0.3c3.8-2.5,8-1.7,9.8,1.9c0.8,1.6,2,3.3,2.8,3.7c1.7,1,1.7,2.5-0.2,6.1c-0.8,1.6-1.5,3.7-1.5,4.8
	C-283.4,458.7-283.9,458.7-287.2,457.1z" class="area" title=""></path>
<path id="_14" d="M-283,442.5c-0.3-4.5-7-6.3-11.2-3c-1.6,1.3-3,1.6-4.4,1.1c-1.1-0.4-1.4-0.8-0.7-0.9c0.7,0,2.4-0.8,3.7-1.7
	c1.9-1.3,2.2-1.9,1.4-3.2c-2.3-3.7,5.4-16.6,10.5-17.6c1.4-0.3,3-0.7,3.5-1c1.6-1,4.1,0.6,4.1,2.5c0,1-0.6,3.1-1.2,4.6
	c-1,2.2-1,2.8,0,3.1c2.1,0.7,1.4,2.8-1.9,5.2c-2.1,1.5-2.9,2.9-2.6,4.1c0.3,1,0.1,3.3-0.3,5.2C-282.6,442.6-283,443.4-283,442.5z" class="area" title=""></path>
<path id="_15" d="M-251.4,479.8c-2-1.6-2.8-1.7-7.2-0.6c-2.7,0.7-5.6,1-6.4,0.7c-2-0.8-1.8-4.4,0.5-10.6c1.1-2.9,2-5.3,2-5.5
	c0-0.1-3.1-0.5-6.9-0.9c-5.8-0.6-7.1-1-8.1-3c-0.7-1.3-0.9-2.8-0.5-3.4c0.4-0.6-0.1-1.4-1-1.7c-1.3-0.5-1.5-1.4-1.1-4.4
	c0.3-2.2,0.2-4.1-0.4-4.4s-0.9-3.2-0.9-6.3c0.1-5,0.5-6,3.3-8.4c2.7-2.3,2.9-3,1.9-4.7c-0.9-1.5-0.9-2.7,0-5.1
	c0.9-2.4,0.9-3.6-0.1-5.1c-2-3.1-1.5-4,2.3-4c2.5,0,3.5,0.4,3.5,1.6c0,1,0.6,1.4,1.4,1.1s1.7,0,1.9,0.6c0.3,0.7,0.4-0.4,0.3-2.3
	c-0.2-2.9,0.2-3.6,2.1-3.8c1.4-0.2,2-0.7,1.5-1.5c-0.4-0.6-0.9-1.9-1.1-2.7c-0.6-3-0.8-3.5-1.6-4.9c-0.7-1.1-0.3-1.2,1.5-0.6
	c1.3,0.4,3.5,0.9,4.9,1.1c5.8,0.7,7,1,7.6,1.6c0.4,0.4,2.5,0.4,4.8,0.1s6.4,0,9.1,0.6c2.8,0.6,6.1,1.2,7.4,1.4
	c3.3,0.4,4.7,3.1,3.2,6.4c-1,2.1-0.9,2.8,0.3,3.7c0.8,0.6,2.8,3.8,4.5,7.1c1.7,3.3,3.8,6.6,4.6,7.4c2.2,1.8,2.1,5.5,0,4.7
	c-1-0.4-3,0.6-5.3,2.7c-2,1.8-6,4.4-8.8,5.8c-5.6,2.6-6.2,3.5-3.2,4.4c1.1,0.3,2,1.3,2,2c0,2.3,7.9,9.2,11.3,9.9l3.1,0.6l-4.5,3.8
	c-4.7,4.1-4.7,3.9-1.3,10.2c0.2,0.3-1.1,0.6-2.9,0.8c-1.8,0.1-3.7,0.6-4.3,1.1s-4.2,1.6-8,2.5s-7.5,2-8.1,2.6
	C-248.8,481.3-249.9,481-251.4,479.8z" class="area" title=""></path>
<path id="_16" d="M-282.4,456c0-2.2,0.2-2.4,1.9-1.3c2.1,1.3,1.7,3.8-0.5,3.8C-281.9,458.5-282.4,457.5-282.4,456z" class="area" title=""></path>
<path id="_17" d="M-268.4,496.9c0-2.7-3.7-3.8-6.5-1.9c-3.3,2.2-4,1.3-1.5-1.9c1.1-1.4,2-3.3,2-4.1c0-2.6,7-8.9,9.2-8.3
	c1.1,0.3,4.1,0,6.7-0.7c4.2-1.1,5-1,6.9,0.5c1.2,1,2.1,2.2,2.1,2.7s1.8,1.2,4,1.6c4.2,0.7,5.2,2.4,2.6,4.6c-0.8,0.7-1.2,1.9-0.8,2.9
	c0.5,1.4,0.4,1.5-0.9,0.4c-0.9-0.7-2.3-1-3.2-0.6c-1,0.4-1.6,0.1-1.6-0.6c0-1-0.3-1-1.5,0c-0.8,0.7-1.5,1.9-1.5,2.6
	c0,1.1-0.5,1.1-2.5,0.2c-1.4-0.6-2.5-1.6-2.5-2.2c0-0.6-1.2,0.2-2.8,1.6C-263.8,497.1-268.4,498.9-268.4,496.9z" class="area" title=""></path>
<path id="_18" d="M-245.8,482.4c-1.6-1.6-1.4-1.8,3.2-3c2.7-0.7,7.2-2,9.9-2.8c2.8-0.9,5.9-1.7,7-1.8c2.3-0.3,2.4-1.1,0.5-5
	c-1.4-2.8-1.3-3,2.5-6.2c2.5-2.1,4.3-3,4.9-2.4c0.5,0.5,2.2,1,3.7,1c2.1,0,2.9-0.6,3.4-2.5c0.7-2.6,0.9-2.7,9.9-2.9
	c3.5-0.1,4,0.2,4.3,2.4c0.2,1.4,0.8,3,1.3,3.6c1.1,1.4,0.1,4.5-1.5,4.3c-3.4-0.4-3.9,0.1-2.1,2.1c2.7,3,1,6.9-4.2,9.5
	c-2.3,1.1-4.7,2.5-5.5,3.1c-0.7,0.6-4.8,1.4-9,1.7c-6.2,0.5-7.7,0.4-8.2-0.8c-0.6-1.6-6.3-1.6-8.7-0.1
	C-236.8,484.4-244,484.2-245.8,482.4z" class="area" title=""></path>
<path id="_19" d="M-193.9,339.7c0.3-0.9,0.6-1.8,0.6-2s1.1-0.4,2.5-0.4c2.2,0,2.4,0.2,1.5,2C-190.6,341.7-194.8,342.1-193.9,339.7z
	 M-178.6,340.6c-0.4-0.4-0.7-1.7-0.7-3c0-2.5-1-3-2.7-1.2c-1.6,1.6-3.1,0.3-4.4-4.1c-1.1-3.7-1-4.1,1.7-7c3.8-4.1,9.8-7.2,12.6-6.5
	c1.2,0.3,3.1-0.1,4.2-0.9c1.4-1.1,2.7-1.2,4.7-0.5c3.3,1.2,4.3,3.6,2.9,7.2c-0.9,2.2-0.6,3.3,1.5,6.4c1.4,2,2.5,4,2.5,4.3
	s-1.8,1.4-3.9,2.4c-2.9,1.3-5.1,1.6-8.5,1.1c-3.3-0.5-5.1-0.3-6.9,0.9C-176.9,340.6-178.3,341-178.6,340.6z M-193.8,333.4
	c0.3-0.5,1.3-0.7,2.1-0.4c2.1,0.8,1.8,1.3-0.6,1.3C-193.5,334.3-194.2,333.9-193.8,333.4z" class="area" title=""></path>
<path id="_20" d="M-193.8,364.1c-0.4-0.6-0.3-3.7,0-6.9c0.5-4.2,1.3-6.5,2.9-8l2.2-2.1l4.4,2.9c3.4,2.2,5.2,2.8,7.7,2.4
	c3.4-0.5,4.1-1.6,2-3c-0.7-0.4-1.8-2.2-2.4-4c-1-2.9-0.9-3.3,1.3-4.8c1.8-1.2,3.7-1.4,7.2-0.9c3.6,0.5,5.7,0.2,8.1-1
	c3.2-1.6,3.3-1.6,5.7,0.6c1.3,1.3,3.5,4.3,4.9,6.7l2.5,4.4l-3.9,3.5c-4.5,4-8.1,4.8-15.8,3.2c-4.8-1-5.5-0.9-9.5,1.4
	c-2.4,1.4-6.2,2.8-8.5,3.2c-2.3,0.4-4.7,1.3-5.4,2.1C-191.7,365.4-192.9,365.5-193.8,364.1z" class="area" title=""></path>
<path id="_21" d="M-171.5,382.4c-1.5-0.8-2.7-1.8-2.7-2.3s-1.1-1.6-2.4-2.5c-2.1-1.4-2.9-1.4-6.5-0.1c-3.8,1.3-4.1,1.3-4.1-0.3
	c0-1-1.3-3.7-2.9-6.1l-2.9-4.3l2.2-1.7c1.2-0.9,4-2,6.2-2.4s5.9-1.8,8.3-3.2c4-2.3,4.6-2.4,9.8-1.3c3.1,0.6,6.6,0.9,7.8,0.6
	c3.4-0.9,5,3.2,2.5,6.5c-1,1.3-1.9,4-1.9,5.9c-0.1,4-2,6.9-7.1,10.3C-168.5,383.6-169,383.6-171.5,382.4z" class="area" title=""></path>
<path id="_22" d="M-185.1,443.8c-0.7-1.9-1.8-2.7-3.8-2.8c-1.5-0.1-3.7-0.2-4.8-0.2c-1.1-0.1-1.9-0.6-1.8-1.3
	c0.3-1.6-6.7-2.9-7.7-1.4c-0.9,1.4-4.1,0.4-4.1-1.3c0-0.7-1.8-1.8-4-2.6c-2.2-0.8-4-1.9-4-2.5c0-0.7-0.7-1.8-1.6-2.5
	c-0.9-0.7-3.1-4.3-5-8c-1.9-3.7-3.9-6.9-4.5-7.1c-0.8-0.3-0.8-1.1,0.1-3c1-2.1,0.9-3.2-0.4-5.6c-1.4-2.8-1.4-3.1,0.2-4.5
	c0.9-0.8,3.4-2.2,5.4-3s3.9-2.3,4.2-3.3c0.6-1.9,9.3-8.3,11.3-8.3c0.6,0,1.4,0.7,1.7,1.4c0.9,2.4,6.6,4.9,8.2,3.5
	c0.8-0.6,4.4-1.8,8.1-2.5c3.7-0.8,8.6-2.3,10.9-3.4s4.9-1.8,5.8-1.5s2.5,2.9,3.8,5.8c1.2,2.8,2.9,5.7,3.8,6.3c1.4,1,1.4,1.6,0.2,5
	c-1.3,3.6-1.2,3.9,0.8,5.2c1.3,0.9,2.1,2.5,2.1,4.2c0,1.8,0.9,3.5,2.4,4.7c3.2,2.5,3.3,4.5,0.8,12.9c-1.7,5.6-2,7.7-1.2,9.9l1,2.7
	l-6.3-0.7c-4.8-0.5-6.7-0.3-8.3,0.8c-1.1,0.8-2.7,1.5-3.6,1.5s-1.9,0.8-2.3,1.6c-0.5,1.4-0.9,1.4-2.2,0.3c-1.3-1.1-1.8-1-3,0.5
	C-184,446.4-184.1,446.3-185.1,443.8z" class="area" title=""></path>
<path id="_23" d="M-219,459.2c-1.3-1.1-3.1-2-4-2c-2,0-9.1-6.7-9.1-8.6c0-0.7-0.7-1.7-1.6-2.2c-1.3-0.7-0.7-1.4,3.2-3.7
	c2.7-1.5,6.1-4,7.6-5.4c4.5-4.1,11.1-3.8,15.8,0.9c2,2,4.9,2.6,4.9,0.9s3.8-1.1,4.9,0.7c0.5,0.9,2.2,1.8,3.8,1.9
	c1.6,0.1,3.9,0.2,5.1,0.3c2.9,0.2,3,3.6,0.2,5.1c-1.1,0.6-2,1.7-2,2.5c0,0.8-1,2-2.2,2.6c-1.2,0.7-2.5,1.6-2.8,2
	c-0.3,0.5-3.9,0.9-8,1.1c-7.1,0.3-7.5,0.4-8,2.8C-211.8,461.4-215.7,461.9-219,459.2z" class="area" title=""></path>
<g id="_24" class="area" title="">
	<path d="M-194.1,388.4c0-0.3,0.8-1.4,1.8-2.5c1.7-1.9,1.7-2,0-1.4c-1,0.4-1.7,0.3-1.7-0.1c0.1-1.6,2.6-3.7,4.5-3.9
		c1.1-0.1,3.9-0.9,6.2-1.7s4.9-1.3,5.8-1c1.9,0.7,3.8,4.1,3,5.3C-175.7,384.9-194.1,389.8-194.1,388.4z" id="_25" class="area included excluded" title=""></path>
	<path d="M-161.5,405.6c-1.6-1.2-1.7-1.8-0.8-4c1.6-3.5,1.5-6.1-0.3-6.8c-0.8-0.3-2.4-2.7-3.6-5.4l-2.1-4.8l2.2-1.5
		c5.7-3.8,8.9-8.1,8.9-11.8c0-2,0.9-4.8,1.9-6.1c1.4-1.9,1.6-2.9,0.9-4.3c-1.1-2.1,1-5.2,4.2-6.2c1-0.3,2.1-1.4,2.4-2.5
		c0.8-2.7,6.5-3.6,10.1-1.7c2.6,1.4,3.2,1.3,6.6-0.4l3.7-1.9l1.5,2.3c0.8,1.2,2,3.5,2.7,5c1.4,3.2,10.4,8.7,14.1,8.7
		c2.6,0,4.8,1.7,4.8,3.6c0,0.7-1.6,2.1-3.6,3.3l-3.6,2.1l2.2,3.9l2.2,3.9l-2.7,3.5c-1.9,2.5-2.5,4.2-2.1,6c0.6,2.3,0.3,2.5-4.3,3
		c-2.7,0.3-7.8,1.8-11.3,3.2c-5.5,2.3-7.3,2.5-12.7,2c-5.2-0.5-7.3-0.3-11.8,1.6c-3.1,1.3-6,3.2-6.7,4.5
		C-159.5,406.8-159.8,406.9-161.5,405.6z" id="_26" class="area included excluded" title=""></path>
</g>
<path id="_27" d="M-107.7,457.5c-0.8-5.2-1.9-7.3-4-7.3c-1.4,0-4.8-2.6-10.5-8.2l-3.7-3.7l2.3-2.8l2.3-2.8l3.5,1.9
	c1.9,1,4.8,3.7,6.3,5.8s4,4.9,5.6,6.2l2.8,2.2l-1.5,6.3c-0.8,3.5-1.7,6.5-2,6.8C-106.7,462.1-107.3,460.2-107.7,457.5z" class="area" title=""></path>
<path id="_28" d="M-192.1,463.3c-2.1-0.6-2.5-1.3-2.5-4.7c0-3.1,0.5-4.2,2.3-4.9c1.2-0.5,2.5-1.9,2.9-3c0.8-2.4,3.5-4.6,4.7-3.8
	c0.5,0.3,1.6-0.3,2.4-1.3c1-1.3,1.6-1.5,1.9-0.7c0.5,1.4,3.3,1.7,3.3,0.4c0-0.5,1.9-1.9,4.2-3.1c3.3-1.7,5.1-2,8.9-1.5l4.7,0.6
	l-1,3.9c-0.9,3.6-1.2,3.8-3.4,2.9c-2.9-1.1-9.3,1.7-11.7,5.1c-0.8,1.1-3,2.9-4.8,3.9s-3.9,3-4.7,4.4
	C-186.2,464.2-187.6,464.5-192.1,463.3z" class="area" title=""></path>
<path id="_29" d="M-186.6,485c-3-1.1-9.4-5.4-10.7-7.1c-0.4-0.5-0.2-2,0.4-3.4c0.8-1.8,0.8-2.9-0.1-4.3c-1.6-2.5-1.5-3,0.2-2.3
	c0.8,0.3,1.9-0.4,2.6-1.6c0.9-1.7,1.8-2,4.3-1.6c3.7,0.6,5.3-0.2,5.8-2.9c0.2-1,2.1-2.8,4.1-3.9c2.1-1.1,4.2-2.8,4.8-3.8
	c1.7-3.2,8.4-6,11.4-4.9c1.4,0.5,2.6,0.7,2.6,0.4c0-0.3,1.5,0.3,3.2,1.3c1.8,1,3.4,1.9,3.6,2s-0.6,1.9-1.9,4s-2.4,4.9-2.6,6.3
	c-1,8.9-1.7,10.8-4.1,11.9c-1.3,0.6-3.3,1.1-4.3,1.1s-2.2,0.5-2.6,1.1c-0.8,1.2-12.4,8.9-13.3,8.8C-183.3,486.1-185,485.5-186.6,485
	z" class="area" title=""></path>
<path id="_30" d="M-139.4,495.5c-1-0.3-1.8-1.3-1.8-2.3s-0.5-2.2-1-2.5c-0.7-0.5-0.7-1,0-1.9c0.8-1,0.4-1.4-1.7-1.8
	c-1.5-0.3-2.9-0.1-3.1,0.4c-0.6,1.7-5.7,1-6.9-1c-0.7-1.1-2.7-2.2-4.5-2.6c-1.8-0.4-3.9-1.6-4.7-2.7c-0.7-1.1-2.3-2.3-3.5-2.8
	c-1.8-0.7-1.8-0.9-0.3-0.9c1,0,3.1-0.7,4.6-1.5c2.8-1.4,3.3-2.9,4.5-12.5c0.2-1.4,1.5-4.6,3-7.2c2-3.5,3.3-4.8,5.1-4.8
	c1.3,0,3.5-0.4,4.9-1c1.6-0.6,2.7-0.6,3.1,0c1,1.7,3.3,1.1,4-1.1c0.4-1.1,2.4-2.9,4.6-4c2.2-1.1,3.9-2.6,3.9-3.4
	c0-3.5,5.3-2.4,6.5,1.4c0.3,1.1,1.5,2.2,2.5,2.5c1,0.3,2.9,1.6,4.2,2.9c1.3,1.3,3.2,2.5,4.3,2.7c1.5,0.3,2.2,1.8,3.1,6.1
	c1.3,6.7,1.3,6.6,5.1,7.3c2.1,0.4,3.5,0,5.1-1.5c3-2.8,4.9-2.6,5.7,0.6c0.5,1.8,0.2,3.2-0.9,4.2c-1.1,1.1-1.6,1.2-1.6,0.3
	c0-0.7-0.4-1-0.8-0.8c-0.9,0.6-0.8,3.7,0.4,10.4l0.7,4.3l-2.6-1c-1.6-0.6-3.6-0.6-4.9-0.1c-1.2,0.5-2.6,0.8-2.9,0.7
	c-1.4-0.3-8.8,4.9-9.4,6.5C-115.7,491.6-134.1,496.9-139.4,495.5z" class="area" title=""></path>
<path id="_31" d="M-153.1,520.7c0-0.8-1.1-2.2-2.4-3.1c-1.3-0.9-2.2-2.2-1.9-2.9c0.3-0.8-0.4-1.6-1.8-2c-5.5-1.5-7.7-2.8-7.2-4
	c0.3-0.7,0-1.6-0.6-2s-0.8-1.1-0.5-1.7c0.3-0.6-0.7-2.3-2.4-4c-1.7-1.6-3.3-4.4-3.7-6.2c-0.4-1.8-1.5-4-2.6-5
	c-2.9-2.8-2.3-5.1,2.6-8.5c3.7-2.6,4.9-3,6.9-2.2c1.3,0.5,2.9,1.8,3.5,2.9c0.6,1.1,2.6,2.2,4.5,2.6c2,0.4,4,1.5,4.6,2.6
	c0.7,1.4,2.1,2,4.5,2c1.9,0,3.5-0.4,3.5-1c0-0.5,0.7-0.7,1.5-0.4c0.8,0.3,1.3,0.8,1,1.1c-0.3,0.3,0,1.1,0.6,1.9s1.1,3.1,1.1,5.3
	c0,3.5,0.4,4.2,2.9,5.5c3.3,1.7,3.4,2,1.4,5.5c-0.8,1.4-1.4,3.9-1.5,5.5c0,2.7-0.7,3.3-5.3,5.4c-2.9,1.3-6,2.8-7,3.3
	C-152.6,522-153.1,521.8-153.1,520.7z" class="area" title=""></path>
<path id="_32" d="M-217.2,495.8c-0.1-0.6,0-1.6,0.2-2.2c0.2-0.5,0.3-2.8,0.4-5c0.1-3.8,0.2-4,3.6-4.3c1.9-0.2,4.2-0.9,5-1.6
	c2.7-2.3,9.2-4.8,10.1-3.9c1.3,1.3-0.1,5.2-2.2,5.9c-1,0.3-1.9,1.4-1.9,2.4s-0.5,3.2-1.1,4.9c-0.8,2.3-1.6,3-3.1,2.7
	c-1.1-0.2-2.3-0.6-2.6-0.9s-1.2,0.1-2.1,0.8C-213.2,496.4-217.1,497.2-217.2,495.8z" class="area" title=""></path>
<path id="_33" d="M-177.6,519.6l-3-1.4l3,0.6c3.1,0.6,4.1,1.1,3.4,1.8C-174.4,520.8-176,520.4-177.6,519.6z M-194.2,513.5
	c-0.5-0.6-2.3-1.7-4-2.4c-2.7-1.1-2.9-1.4-1.5-2.5c1.4-1,1.3-1.3-0.8-2.3c-1.3-0.6-3.4-3-4.5-5.2c-1.4-2.8-2.6-4-3.8-3.7
	c-1.8,0.4-1.8,0.9-0.6,4.3c0.7,1.7,0.6,1.8-0.8,0.7c-1.2-1-1.8-1-2.3-0.1c-0.5,0.8-1.2,0.4-2.1-1.2c-1.8-3.2-1.7-3.9,0.5-3.9
	c1,0,2.4-0.7,3.1-1.5c0.7-0.8,1.6-1.2,2.1-0.9c0.5,0.3,2,0.8,3.3,1c2.1,0.4,2.5-0.1,3.7-4.3c0.7-2.6,2.3-5.7,3.6-6.9
	c1.3-1.2,2.3-2.7,2.3-3.3s1.5,0,3.2,1.3c4.6,3.4,9.5,4.9,11.8,3.6c1.5-0.8,1.9-0.7,1.9,0.5c0,0.8,0.9,2.4,2,3.5c2,2,2.7,5,1.2,5
	c-0.4,0-1.2-0.4-1.8-1c-0.7-0.7-2.9-0.5-6.7,0.5c-3.1,0.8-6.3,1.2-7.1,0.9c-0.8-0.3-2.1,0.2-3,1.1c-0.9,0.9-2.2,1.5-2.9,1.4
	c-4.5-0.6-4.6,2.6-0.2,6.9c1.3,1.3,2.4,2.7,2.4,3.2s1,1.2,2.2,1.6s2.6,1.2,3,1.8c0.4,0.6,2.2,1.6,4,2.2c3.2,1.1,3.2,1.1-2,1
	C-190.9,514.7-193.7,514.2-194.2,513.5z" class="area" title=""></path>
<path id="_34" d="M-179.3,517.5c-1.5-0.2-2.9-1.2-3.1-2.2c-0.3-1-1.8-2.1-3.5-2.5c-1.7-0.4-3.3-1.3-3.6-2.1c-0.3-0.8-1.1-1.4-1.7-1.4
	c-1.7,0-7.7-6.4-8.1-8.6c-0.2-1.4,0.2-1.8,1.5-1.6c1,0.2,2.7-0.4,3.7-1.3c1-0.9,2.3-1.4,2.8-1.1c0.5,0.3,3.6-0.1,6.7-0.9
	c4.1-1.1,6.1-1.2,7-0.4c0.7,0.6,1.8,0.8,2.3,0.4c0.6-0.4,1,0,1,0.8c0,0.8,1.4,2.9,3.1,4.5c1.7,1.6,2.8,3.5,2.5,4s-0.2,1.2,0.4,1.5
	c0.5,0.3-0.1,1.7-1.4,3.1c-1.3,1.4-2.9,3.8-3.6,5.5c-0.7,1.6-1.7,2.9-2.4,2.8C-176.1,517.9-177.8,517.7-179.3,517.5z" class="area" title=""></path>
<path id="_35" d="M-166,523.7c-1.3-1.4-3.4-2.5-4.7-2.5c-3.4,0-3.6-1.9-0.7-7.2c2-3.7,2.8-4.5,3.9-3.6c0.7,0.6,3,1.7,5.1,2.4
	s3.5,1.5,3.3,1.7s0.1,1.2,0.9,2.1c1.6,1.9,0.2,2.3-1.6,0.5c-1.5-1.5-2.3,0.3-2.5,5.5c-0.1,2-0.4,3.6-0.7,3.6S-164.7,525-166,523.7z" class="area" title=""></path>
<path id="_36" d="M-151.1,548.3c0-0.6-1.2-1.6-2.8-2.3c-1.5-0.7-2.8-1.9-2.8-2.6c0-0.7-0.5-1.6-1.1-2c-0.6-0.4-1.5-3.6-1.9-7.2
	c-0.4-3.6-1.1-7.3-1.6-8.2c-0.5-1-0.5-3.3,0-5.5c0.5-2.1,0.9-3.2,1-2.5c0.1,0.8,1.1,1.2,2.7,1c2.4-0.3,2.8,0.2,4.4,5.1
	c1,3.1,3.1,6.6,4.9,8.3c2.7,2.5,2.9,3.2,2,5c-0.6,1.2-1.2,4.2-1.3,6.7c-0.1,3.4-0.6,4.6-1.9,4.9
	C-150.4,549.2-151.1,548.9-151.1,548.3z" class="area" title=""></path>
<path id="_37" d="M-148,531.3c-2.7-2.5-5.1-7.7-4-8.5c0.2-0.2,3.5-1.8,7.3-3.5c6.9-3.2,6.9-3.2,10.8-1.5c2.1,1,3.8,2.1,3.8,2.5
	c0,0.4,0.2,1.4,0.5,2.1c0.3,0.9-1,2.1-3.9,3.5c-2.4,1.2-4.7,3-5,4.1c-0.5,1.5-4.3,4.2-6,4.2C-144.7,534.2-146.3,532.9-148,531.3z" class="area" title=""></path>
<path id="_38" d="M-129.1,520.6c0-0.8-2-2.5-4.5-3.7c-5-2.4-5.7-4.6-2.9-9.9c1.7-3.3,0.9-5.3-2.7-6.4c-1.1-0.3-1.9-1.4-1.9-2.3
	c0-1.4,1.1-1.7,6.2-1.9c8.1-0.3,17.3-3.9,22.5-8.9c4.7-4.6,11-6.7,15.4-5.2c2.7,0.9,4.2,4.8,1.9,4.8c-1.9,0-3.2,3.9-2,6
	c0.8,1.4,0.8,2.6,0,4c-0.6,1.2-0.7,2-0.1,2c2,0-0.3,4.1-4.5,8c-3.2,3-4.3,4.6-3.8,6c0.9,2.9-2.8,4.3-8.8,3.6
	c-4.2-0.6-5.3-0.3-7.1,1.3c-1.2,1.1-3.4,2.5-4.9,3C-128.6,521.9-129.1,521.8-129.1,520.6z" class="area" title=""></path>
<g id="_39" class="area active" title="">
	<path d="M-104.9,463.5c-0.7-0.3-1-1-0.6-1.5c0.3-0.5,1.2-3.7,2-7l1.4-6l-5-5c-2.7-2.7-5-5.4-5-5.9s-1.8-2.1-3.9-3.5
		c-4.3-2.8-7.5-2.6-8.6,0.5c-0.3,1-1.7,2.6-3.1,3.5c-1.4,0.9-2.5,2.2-2.5,3c0,0.8-1,1.7-2.2,2.1c-1.2,0.4-3.5,2.1-5.1,3.8
		c-2,2.2-3.1,2.7-3.6,1.8c-0.5-0.8-1.5-0.9-3.2-0.3c-4.8,1.8-12.3,2.2-14.2,0.8c-2-1.5-1.5-6.2,0.9-8.2c1.1-0.9,1.2-1.8,0.4-3.8
		c-0.8-2.1-0.6-4.3,1.2-9.9c2.6-8.5,2.5-10.5-0.7-13c-5-3.8-2.5-10.6,5.1-13.7c4.3-1.8,6.4-2,11.6-1.5c5.4,0.6,7.2,0.3,12.6-1.9
		c3.4-1.4,8.6-2.9,11.5-3.4c5-0.7,5.2-0.9,5-3.6c-0.2-3.1,3-8.6,5.1-8.6c0.7,0,3.9-1.6,7.1-3.5c6.5-3.9,8.8-3.8,11,0.4
		c2,3.8,5.6,6,8.8,5.4c2.1-0.4,3.3,0.2,5.7,2.7c2.7,2.9,3.4,3.2,7.1,2.6c2.2-0.4,5.4-1.3,7.1-2.2c2.7-1.4,3.2-1.4,5.4,0
		c2,1.3,3.2,1.4,7.5,0.5c7.9-1.7,8-1.6,8,11.1v11.1l-3,2.6c-1.7,1.4-3.6,3.7-4.4,5.2c-1.9,3.7-6.2,8.1-7.9,8.1
		c-0.8,0-1.7,1.2-2.1,2.7c-0.7,2.6-5.9,8.3-7.7,8.3c-0.5,0-0.9,0.5-0.9,1s-0.9,1-2,1s-2,0.7-2,1.6c0,1.1-0.6,1.4-2,0.9
		c-1.1-0.4-2-0.2-2,0.4c0,1.7-3.7,3.1-6,2.3c-1.9-0.7-2-0.9-0.6-2.1c2.2-1.9,2-3.4-0.4-2.1c-1.6,0.8-2.2,0.7-3-1
		c-0.6-1.1-1.5-2-2.1-2s-0.6,0.7,0.1,2c0.6,1.1,0.8,2.1,0.5,2.1c-0.3,0.1-0.9,0.2-1.4,0.2c-1.9,0.3-5.1,5.6-5.1,8.6
		c0,1.9-0.6,3.4-1.6,3.7c-0.9,0.3-1.3,1.2-1.1,1.9c0.6,1.5-7.5,8.5-9.6,8.4C-103,464.1-104.2,463.8-104.9,463.5z" id="_40" class="area included excluded" title=""></path>
	<path d="M-61.6,456.9c-0.2-0.7-0.6-2.1-0.7-3.2c-0.3-1.7-1.1-2-5.1-1.9c-4.4,0.1-4.6,0-3.2-1.6c0.8-0.9,1.5-2.1,1.5-2.6
		s0.9-1.5,2-2.2c1.1-0.7,1.8-1.7,1.5-2.2s0.8-1.6,2.4-2.5c3.5-1.8,4.4-1.9,3.6-0.5c-0.3,0.5-0.1,1,0.5,1s2.3,0.9,3.7,2l2.5,2
		l2.3-2.5c2.6-2.8,4.9-3.2,5.7-1.1c0.5,1.3-1.4,2.8-3.8,3c-0.5,0-1.6,1.4-2.3,2.9s-2,3.1-2.8,3.4s-1.4,1.3-1.4,2.2
		C-55.2,456.9-60.6,460.1-61.6,456.9z" id="_41" class="area included excluded" title=""></path>
</g>
<path id="_42" d="M-106.6,589.2c-0.9-1.5-0.4-1.9,3.3-3c2-0.6,3.3-0.5,3.7,0.1c0.4,0.6,1,0.6,1.8,0c0.6-0.5,3.9-1.3,7.2-1.7
	c3.3-0.4,6.8-1.1,7.8-1.6c1.1-0.6,1.8-0.5,1.8,0.1c0,0.6-2.7,2.4-6.1,4.1c-4.8,2.4-6.4,2.8-7.5,1.9c-1.3-1.1-6.2-0.7-9.9,0.7
	C-105.3,590.1-106.2,589.8-106.6,589.2z M-122.2,575.9c-1.5-1.9-1.6-2-3.3-0.2c-1.5,1.5-1.9,1.6-2.7,0.4c-0.5-0.8-0.9-2.1-0.9-3
	c0-0.9-1.4-2.5-3-3.8c-1.7-1.2-2.7-2.8-2.4-3.6c0.6-1.6,10.9-5.1,12.4-4.1c0.6,0.3,1.7,0.2,2.6-0.2c1.3-0.7,1.3-1.1,0.3-2
	c-2.1-1.8-6.1-1.8-9.4,0c-1.7,0.9-4.2,1.6-5.5,1.5c-2.9-0.2-8.1-3.8-5.5-3.8c0.9,0,1.6-0.5,1.6-1c0-1.1-0.2-1.1-3.7-1.5
	c-4.3-0.5-5.3-2.2-4.9-9c0.5-7.4,1.6-10,5.5-12c1.6-0.8,3.2-2.3,3.5-3.3s2.6-2.8,5.1-4c2.5-1.2,4.5-2.6,4.5-3.2c0-0.6,0.6-1,1.4-1
	s2.8-1.1,4.4-2.5c2.7-2.3,3.6-2.5,8.1-1.9c3.8,0.5,5.6,0.3,7.5-0.9c2.4-1.5,2.5-1.5,3.5,1.5c0.6,1.7,1.1,3.3,1.1,3.5
	c0,0.2-2.5,0.4-5.5,0.4s-5.5,0.5-5.5,1s-0.7,1-1.5,1s-2.3,0.9-3.2,2c-0.9,1.1-2.3,2-3,2c-1,0-1.1,0.5-0.2,2c0.6,1.1,2.1,2,3.3,2
	c1.7,0,1.2,0.5-1.8,1.9c-3.4,1.6-4.4,1.6-6.6,0.5c-3.2-1.6-3.9-1-3.9,3.2c0,6.2,7,12.3,16.3,14.1c4.5,0.9,4.6,2.7,0.1,1.9
	c-2.1-0.4-5.9-0.9-8.4-1.1c-4.8-0.5-3.8,0,5,2.6c4.5,1.3,7,3.3,7,5.6c0,0.9-0.7,1-2.9,0.1c-2.3-0.9-3.2-0.8-4.5,0.5
	c-1.5,1.5-1.4,1.8,0.9,3.6c2.8,2.2,1.7,3.9-1.4,2.2c-4-2.1-4.2-0.5-0.6,3.8c2.8,3.3,3.3,5.7,1,4.8c-0.8-0.3-1.8,0-2.2,0.8
	C-120.4,577.7-120.9,577.5-122.2,575.9z M-82.6,573.1c-0.8-1.3,1.3-4,3-4c1.8,0,2.6,2.5,1.2,3.9C-79.8,574.5-81.8,574.5-82.6,573.1z
	" class="area" title=""></path>
<path id="_43" d="M-389.8,435.2c-1.4-0.3-2-0.9-1.6-1.9c0.3-0.8,0-1.4-0.6-1.4s-0.9-0.5-0.5-1.1c0.5-0.7,0-0.9-1.4-0.4
	c-1.2,0.4-2.1,0.2-2.1-0.3s1.2-1.3,2.8-1.7l2.8-0.8l-2.5-0.8c-1.4-0.4-1.8-0.8-0.8-0.9c1-0.1,2.2-1.8,3.2-4.8c1.9-5.5,2-8,0.5-8.5
	c-0.8-0.3-0.8-1,0.1-2.7c0.8-1.5,0.9-2.6,0.3-3c-0.6-0.4-0.6-1.5-0.1-2.9c0.9-2.4,2.4-2.9,3.4-1.2c1,1.6,4.4,1.1,6.6-0.9
	c1.8-1.7,1.9-2,0.4-2.8c-2.3-1.3,0-3.9,4.2-4.8c4.1-0.8,4.3,0.8,0.6,4.6c-2.5,2.7-2.6,2.9-1,5.3c1.9,2.9,3.4,3.3,4.3,1
	s1.8-1.8,3.7,2c2.1,4.5,2.2,14.6,0.2,18.9c-1.4,3-1.8,3.2-6,3c-2.5-0.1-4.3,0.1-3.9,0.7c0.3,0.5-0.6,1.2-2.1,1.6
	c-1.5,0.4-3.5,1.5-4.5,2.5s-2.2,1.8-2.6,1.7C-387.2,435.7-388.6,435.5-389.8,435.2z" class="area" title=""></path>
</svg>
