<!--?xml version="1.0" encoding="utf-8"?-->
<svg version="1.1" xmlns="http://www.w3.org/2000/svg" xmlns:xlink="http://www.w3.org/1999/xlink" x="0px" y="0px" width="599.7999877929688" height="283.3999938964844" viewBox="239.9 -0.2 599.8 283.4" style="enable-background:new 239.9 -0.2 599.8 283.4;" xml:space="preserve">
<style type="text/css">
	.st0{stroke:#FFFFFF;stroke-width:0.5;stroke-miterlimit:1.4142;}
	.st1{fill-opacity:0;stroke:#FFFFFF;stroke-width:0.5;stroke-miterlimit:1.4142;}
</style>
<g id="_1" class="area" title="">
	<path id="_2" class="st0 area included" d="M495.8,35.7h0.4l-0.3,0.4l-0.8-0.4H495.8L495.8,35.7z" title=""></path>
	<path id="_3" class="st0 area included" d="M297.7,48.4l0.9-1.3l0.8,0.9l-1.2,2.4l-1.2-0.1L297.7,48.4z M243.4,51.6l-2.1,1.2l-1.4,0.2l1.2-0.9
		C241.2,52.1,243.4,51.6,243.4,51.6z M271.5,43.7l2.3-0.8l-2,2l-4.1,1.1l0.2-0.8C267.9,45.2,271.5,43.7,271.5,43.7z M325.2,109.4
		l0.2-0.9l-0.4-0.3l-0.9-2.6l-0.8-2.5l-0.2-0.2l-0.3-0.2l-1.6-0.6l-2.1,2l-2.1-1.5l-0.2-1.8l-2.1-2.6l-3-0.1l-0.3,1l-5.1-0.1
		l-5.9-2.4l0.3-0.5l-4.5,0.4l0.1-1.2l-1.3-1.6l-3.4-1.5l-0.7-5.5l0.3-1.5l-0.9-2.4l0.4-3l1.7-2.1l0.8-2.9l1.5-1.5l4.5-6.8l0.5-3
		l3.3,0.2l1.1-1.9h45.3l3.7,0.9l1.5,1l3,0.1l-5.3,2.5l2.7-0.3l-0.2,0.8l4.4-1.8l0.8,1.9l4.2-0.5l0.5,0.7l0.7-0.2l-0.2,0.3l0.6,0.9
		l-3.3-0.3l-0.3,1.6l1.6-1l1.5,0.9l-0.6,2.3l0.8,0.9l-0.3,1.8l-0.4,0.8l-0.3,0.3l-0.2-0.3l-0.7,0.7l-0.1,0.1l-1.1,1.2l2.9,0.3
		l5.1-2.1l0.7-0.7l-0.2-0.2v-0.3l0.1-0.1l0.1-0.3l4-0.1L377,72l0.6-0.3l0.3-0.3l1.1-0.8l1-0.3l5.4-0.2l2.7-1.9l2.8-3.3l2.1,0.9
		l-0.9,2.7l0.2,0.3h0.3l-0.3,0.8l0.4,0.2l0.1,0.9l-3.3,1.5l-0.4-0.5l-3.4,2.1l-1.5,2l1.5,1.4l-6.5,1.5l2.2-0.1L378,80l-4.4,5.1
		l-0.5-2.7l-1.6,5h0.9l-0.3,2.7l-2,2.2l-1-0.1l-2,1.7l-6.2,3.9l-1.6,2.7l-0.1,2.1l0.9,6.3l-1.1,3.3l-1.4,0.2l-2.1-5.1l0.8-2.9
		l-2-2.6l-1.9,1l-1.8-1.9l-2.7,0.5l-2.1-0.3l-4.1,2.9l-1.3-1.5l-1.4,0.4l-3.2-0.3l-6.4,3.3l-0.8,4.5l-2-0.3L325.2,109.4L325.2,109.4
		z M303.9,62l-0.2,0.1L303.9,62L303.9,62z M299.7,43.8l-1.8,1l-1.5,1l0.7-1.9L299.7,43.8l0.2-0.4h-2.5l-0.8-1.6l-4.7-2.1l-2,0.3
		l-2.2-0.9l0.8-0.7h-3.2l-1.7,2.1l-1.9-0.4l-2.6,1.1l-2.7,0.2l4.4-3.3l-8.3,3.9l1.1,0.2l-3.4,1.7l-3.6,0.9l-5.5,2.5l-4.1,0.9
		L246.1,51l7.9-3l2.3,0.2l0.8-0.9l6.8-2.6l3.9-2.6l-4,0.9l-0.5-1.3l-3.3,1l2.1-1.9l0.5-1.2l-2.7,0.6l-0.8-1l-3,1l-1-0.8l2.8-0.2
		l3-1.1l-0.8-1.3l7.2-3.3l1,0.4l5-1.3l2.2-2.2l-4,0.9l-3.9-0.3l1.8-1.3l-1.9-0.7l7.1-1.7l0.3,0.9l4.2-0.3l0.8-1.5l-2.5-0.2l0.7-0.9
		l-1.5-1.4l1.9-0.9l2.7-0.1l4.2-1.6l7-1.7l2.6-0.1l2.5-0.8l1.8,0.9l3.1-0.1l-0.6,0.7l4.3-0.1l4.6,0.9l2.1-0.3l2,0.9l-4.8,3.9
		l-10.2,9l-4.7,4.5l2.2,0.4l0.3,2.3l4.7-1.8l0.5,2.7l-0.5,3.6l1.2,1.4l-1,1.2l-1.1,0.5l-1.2,0.5l-0.7-0.4l0.8-2l-1.5-1.9L301,45
		l0.1-1.5l-2,1.7L299.7,43.8L299.7,43.8z" title=""></path>
	<path id="_4" class="st0 area included" d="M522,75.3l0.2,1.1l-0.5,1.5l-1.2-1.8C520.4,76.1,522,75.3,522,75.3z M812.4,209.9l1.6-0.1l-2.8,3.1
		l-2.6-2.9l-0.1-1.5l2.6,2.7L812.4,209.9L812.4,209.9z M389,127.5l0.2-0.2v0.2H389z M518.5,73L518.5,73l-0.2,0.1l-0.1,0.1l-2.1,1.3
		l-3.7-0.9l-1.5,1.2l0.3,1.1l-1.2,0.2l-0.9-0.3h-0.1l-0.4-0.1l0.1-0.3l-0.5,0.1l-2.5-0.3l-3-1.4l0.5-0.4l0.8-5.2l-2.9-3.1l-3.1-1.1
		v-1.1l2.6-0.6l0.8,0.8l1.8-0.5l-0.6-2.1l2.8,0.9l2.9-1.9v-1.4l1.5-0.4l2.7,2.2l2.7,0.9l0.3,0.2h0.6l3.1,1l-0.9,2.8l-2.4,2.1
		l0.3,0.6l0.1-0.2h0.1l0.8-0.1l-0.1,0.6l0.4,0.4l-0.6,1.6L518.5,73L518.5,73z M404.2,154.4l0.5-0.9l1.8,0.7l2.3,2.2v0.8l-2.5,3.9
		l-3.1-0.3l1.2-2.4l-0.9-3.1L404.2,154.4z" title=""></path>
	<path id="_5" class="st0 area included" d="M710,125.5l-1.5,1.7l-1.8-0.8l-0.3-1.5l1.7-1.6l2.2,0.1L710,125.5L710,125.5z M633.8,80.8l0.3-0.2
		l2-1.1l0.5,0.7l1.5-1.4l2.1-0.2l2.8-2.4l0.3-2l-2.7-4l3.3-1l-0.2-3.4l3.2,0.8l1-0.5l-0.8-2.8l2-1.4l0.3-0.1l0.4-0.1l0.9,1.3
		l4.8,1.9l2.1,2.2l1,2.8l4,0.4l4.4,1.6l3.2,3.3l9.3,0.4l4.3,1.5h2.6l2.1-1.1l4.5-0.3l2.8-2.6l-1.7-1.5v-1.3l3.3,0.7l0.9-1.5l1.8-0.2
		l0.5-1.8l4.8-1.2l-3.6-2.2h-1.3h-0.1l-0.1,0.4l-2.7,0.1l-1.1-0.9l-0.3-3.5l2.2,0.7l1.1-1.8l0.1-3.6l-2.1-1.3l0.5-1l3.3-0.6l4.9,1.2
		l2.6,1.6l2.3,2.2l4.1,3.2l2.3,0.3l4,2.3l1.2,1.3l2.4-0.1l2.1-1.4l1.5,1.4l0.6,3l-0.1,2.5l-0.8-0.4l-0.9,0.1l-1.2,1l1.5,1.6l0.7,3.1
		l-3.6,1.1l0.9,1.3l-3-0.6l-0.1,1.6l-2,1.6l-2.1,0.9l-2,1.9l-0.4-1.4l0.5-2.2l-2.4-0.9l-1.7,2l-0.2,1.5l-2.1,0.2l1.5,2.1h1.3
		l2.1,2.2l1.6-1.5l3.8,0.9l-2.5,2.1l-1.2,1.9V92l2.2,0.9l2.4,3.4l2.3,1.5l1,2.2l-1.5,0.8l1.9,1.2l0.9,3.5l-0.9-0.1l-0.5,2.5
		l-1.3,2.6l0.9,0.9l-4.4,4.3l-0.6,1.3l-3.1,0.3l-0.8,1.3l-1.5-1.8l0.2,2l-2.7,0.7l-2.9,1.8l-0.4,1.5l-0.7-2.6l-2.6-0.9l-0.7,0.9
		l-2.5-1.1l-0.8-2l-2.3-0.9l-2.2,1.8l-2.8-0.5l-0.5,0.8l-1,0.3l0.7,2.3l-1.1-0.9l-1.7,0.3l-0.7-1.3l-1.5-0.3l0.3-1.9l-1.2-0.3
		l-0.8-2l-1.7,0.5l-0.3-2.6l1.5-1.8l-0.8-3.5l-2.5-2.1l-0.3,0.7l-2.7-2.5l-1.4,0.7l-1.4-0.6l-2.9,3l-1.7,0.3l-2.8-1.3l-2,2.2
		l-0.4-1.5l-1.2,0.3l-3-0.5l-0.9,0.5l-4-2.9l-0.9,0.2l-3.2-2.5l-1.9,0.3l-4.6-2.5l-1.2-2.5l1.9-0.4l-1.6-1.6l-0.3-1.9l-1.3-0.5
		l-1.4-1.9h-0.7l-1.2-0.3l-1.9-1.8l-2.8-1.2l-0.3-0.2l0.9-0.3l-1-2.8l-1.7-0.1l-0.9-1.9l0.4-0.3L633.8,80.8L633.8,80.8z M721,80.7
		L721,80.7L721,80.7z M633.8,80.7L633.8,80.7L633.8,80.7z" title=""></path>
	<path id="_6" class="st0 area included" d="M492.8,86.7L490,87l0.4-2.5l-1.2-1.1l1.5-4.3v-2.4h3.8l0.6,0.8l-1.3,1.2v2.1l-1.2,0.6l1,1.4
		C493.7,82.7,492.8,86.7,492.8,86.7z" title=""></path>
	<path id="_7" class="st0 area included" d="M335.2,166.4l3,1l-0.5,0.4l-2-1.3L335.2,166.4z M355,173l1-1.5l-2.1-0.7l-0.1-2.7l1.6-2.4l-0.1-1.5
		l2.4-1.5l2.6,1.7l2.1,0.4l2,1.2l-0.5,3l-2.1,2.2l-3.2,1.8l-1.2,3.3l-2.7-2L355,173L355,173z" title=""></path>
	<path id="_8" class="st0 area included" d="M736.5,144.5l0.8-2l0.9,2.9l-2.2,1.2l-1.4-1.7l1.3-2.5L736.5,144.5L736.5,144.5z M733.4,140l2.4,1.5
		l-0.9,1.7l-1.1,0.5L733.4,140z M729.8,136.8l1.8,0.4l0.7,0.7l-0.3,2L729.8,136.8z M738.2,141.4l1-0.6l-1.6-1.7l2.4,0.7l0.6,2.4
		l-1.3-0.3l-1.3,1.4L738.2,141.4L738.2,141.4z M740.9,154l-2.7-1.9l-0.1-2.5l-2.6-0.3l-0.6,2.5l-2.6,2.3v-1l1.9-1.5l0.3-2.7l2.1-1.5
		l1,1.2l1.5-2l1.4,0.1l-0.1-2.1l1.6,2.4l0.8,3.3l-0.6,2.1l-0.9-2.2l-0.7,1.4L740.9,154L740.9,154z M737,136.5l-0.9,3.3l-0.8-2.7
		l-0.9,0.5l-2-1.6l-0.4,0.7l-2.8-2.4l-1-3.3l1.1,0.4l-0.5-5l2.6,0.4l-0.3-1.1l1.1,0.9l0.9,2.7l-1.5,3.7l0.9,2.5l1.4-0.3L737,136.5
		L737,136.5z M729.1,141.8l-0.2-0.3l0.5-1.2L729.1,141.8L729.1,141.8z M729.1,141.8l0.8,1.7l-2.1,1.3l-0.3,1.2l-2.1,1.8l3.3-4.8
		L729.1,141.8z" title=""></path>
	<path id="_9" class="st0 area included" d="M643.8,154.6l-0.4-0.2l0.2-0.4l0.3,0.3L643.8,154.6z" title=""></path>
	<path id="_10" class="st0 area included" d="M722.2,142.8L722.2,142.8L722.2,142.8z" title=""></path>
	<path id="_11" class="st0 area included" d="M409.6,275.7l-0.9,0.6l-0.2-2l3.9,0.2l-0.3,1.5L409.6,275.7L409.6,275.7z M565.8,91.5L565.8,91.5h-0.2
		h-0.1h0.1h-0.2v-0.1l-0.1-0.1l0.2,0.1l0.3-0.1h-0.2L565.8,91.5L565.8,91.5z M564.4,92.2l-0.2-0.1h-0.3l0.2-0.1L564.4,92.2z
		 M494.5,49.6l1.7-0.4l0.9,1.3l-1.2,1.1l-3-0.7L494.5,49.6z M503.3,48.6l0.6,2l1.8,1l0.6,2.1l2.3,1.2l-1.7,2.1l1.1,0.8l-4.3,1.1
		l-3.5-0.1l-0.6,0.9H497l2.1-2.1h1.8l-3.6-1.4l1.8-0.9l0.1-1.9l1.5-0.3l0.6-1.6l-0.9-1.4h-2.7l0.9-1.2l-1.8,0.3l0.3-2.2l-2.1-3.5
		l1.3-0.6l0.1,2.2l1.9-2.5l2.4-0.1l3.2-2.5l-4.2,3.9l3.5,0.9l-2.2,2.7L503.3,48.6z" title=""></path>
	<path id="_12" class="st0 area included" d="M551.2,84.5l0.8,1l-1.6,0.6l1.1-0.4C551.4,85.7,551.2,84.5,551.2,84.5z M553.3,90.6l-1.2,0.8l-2.5,0.2
		l-2.2-0.8l0.1-0.7C547.5,90.1,553.3,90.6,553.3,90.6z M542.1,79.4l0.2-0.2L542.1,79.4l-0.2-0.2v-0.1l0.1-0.1h0.2l1.3-0.5l1.7-0.5
		l2.7-0.4l1.3,0.6l1.8-0.9l0.6,0.6l-0.9,1.5l-1.5,1.7l0.6-2.1l-3.1,0.4l1.3,1l-3.2,0.1l1.5,1.9l-0.9,0.9l2.1,1l0.8,1.6l-2-0.9
		l-0.8,0.9l1,2.4l-2.7-0.7l-1.1-2.3l-0.4-2.6l-1.9-1.5l1-0.7L542.1,79.4L542.1,79.4z" title=""></path>
	<path id="_13" class="st0 area included" d="M524.8,49.9l-1.7-1.5l1.7-0.9l0.8,1L524.8,49.9z M520.6,50.2l-0.9-0.3l-0.3,0.1l-1-3.3l3.6-2.4
		l-0.1,2.4l1.1,2.8l-0.9,0.6l-0.9-1.1L520.6,50.2L520.6,50.2z" title=""></path>
	<path id="_14" class="st0 area included" d="M432,20.6l2.1,0.3l1.1,1.3l-2.3,0.5l-1.5-0.9L432,20.6z M463.1,0.3l7-0.3l7.4,0.4l4.5,0.8l-1.4,0.4
		l-8.4,0.3l5.8,0.2l-2.3,0.7l6-0.9l-0.1,0.8l-2.4,0.8l4.9-0.9l3.9-0.3l4.9,0.5l-5.3,1.5l-4.4,0.2l-0.5,2.3l-1.8-0.1l-0.8,1.2
		l0.8,0.9l2.6,0.3l-2.8,0.4l-1.7,1.1h2.2l0.3,1.5l2.4,0.6l-2.8,1.3l-2.5,0.3l0.7,1.1l-2.3,0.3l-2.1-0.6l-2.9,0.6l2.9,0.3l2.1,4.3
		l-2.6,0.3l-2.4-1.7l-0.2,1.7l3.8,0.5l-5.8,2.6l-4.5,0.9l-3.7,0.3l-4.6,3.1l-4.8,1.5l-1-0.3l-3.3,1.6l-0.7,2.1l-3.1,2.2l-1.7,3.2
		l-2.8,2.1l-1.7-0.8l-0.5-1.5l-3.3,0.3l-1.4-3.9l-1.9-2.3l0.8-1.5l-1.5-2.1l2.6-1.5l-2.2-0.3l3.4-2.8l1.7,0.2l1.3-2l-3.4-1.3
		l0.8-1.9l-1.8,0.1l0.3-2.4l1.4-2.7l-1.8-1.2l0.3-1.1l-5.5-1l-6.6,0.5l-2.3-1.5l3.2-1.1l-3.4-0.7l0.9-0.6l6.2-0.8l2.5-0.1l2.3-1.4
		l-2.4-0.4l8.6-1.9l8.6-0.9l5.2,0.5l-1.3-0.7l6.4,0.6L452.8,1l3.5-0.5l6.7,0.1L463.1,0.3L463.1,0.3z" title=""></path>
	<path id="_15" class="st0 area included" d="M384.8,127.2l-3.3,0.5v-1.2l2.8,0.3L384.8,127.2L384.8,127.2z" title=""></path>
	<path id="_16" class="st0 area included" d="M367,126.7L367,126.7L367,126.7z" title=""></path>
	<path id="_17" class="st0 area included" d="M386,128.1h0.3l-0.7,0.2l0.1-0.2H386z" title=""></path>
	<path id="_18" class="st0 area included" d="M380,70.5l-1,0.3l-1.1,0.8l-1,0.4L377,72l-5.3,0.9l-0.3,1.1l-0.1,0.3l-0.1,0.1v0.3l0.2,0.2l-4.4,0.5
		l-2.7,1.3l-0.6-0.5l0.1-0.1h1l-0.2-0.4l0.3-0.3l0.4-0.8l1.4-0.6l2.2-3h2.4l-0.9-2.5l-1.3-0.4l-0.8,1.2l-2.5-0.8l3.1-0.4l-3.8-0.5
		l0.2-0.3l-0.7,0.2l0.6-3.2l-1.9,0.5l0.2-2.2l-3.3,0.2l-2.7,1.5l-3-0.1l-1.5-1l-3.7-0.9h-45.3l-0.1-0.2l-0.3,0.2h-0.1l-1.1-0.8
		l0.3,0.4l-0.3,1.5l-2.1-0.3l-1.6-1.5l-1.5-2.7l1.2-0.7l1.4,0.6l-0.8-1.2l1.5-3.4l-1.3,1.4l0.5-2.2l-1.3-0.1l1.7-1.5l0.1-1.2
		l0.8-0.6l2.1-1.7l-1.2-1.4l0.5-3.6l-0.5-2.7l-4.7,1.8l-0.3-2.3l-2.2-0.4l4.7-4.5l10.2-9l4.8-3.9l2.8,0.1v0.9l2.6,0.3l3.9-1.4
		l0.8,0.5l6.7-1.5l-2.1,1l5.5-1l0.4,1.7l4.4-0.9l7.6,1.8l2.2,0.3l-2.9,1.6l4.8,0.1l3.5-0.9l0.7,1.8l1.9-2.5l3.2-0.4l1,1.5l3.5,0.6
		l4.6-0.2l0.3-1l3.8,0.1l-2,1.5l1,0.3l1.2-1.4l3.3-0.9l-1.2-0.3l1.5-1.3l-2-0.8l1.9-2.5l3.7-1.2l1,1.1l-0.9,0.9l0.7,3.5l-0.7,1.1
		l3.2-1.7l-0.9,3.8l1.8-0.4l0.3-1.3h1.5l2.5-1.2l0.3-1.9l3.8,0.2l0.5,1.9l-1.8,0.5l0.4,1.6l-0.9,0.9l-3.5,1.2l-0.6-1.2l-0.3,2.6
		l-1.8-1.8l-4.3,2.3l-2.5-1.1l0.3,1.1l2.5,0.2l-2.7,2l-2.9,0.1l-2.4,2.1l-3.8,1.1l-0.9,1l-2.4,0.9l-3.3,2.9l-1,2.4l2-0.1l-0.6,2.6
		l-0.9,1l2.9-0.7l2.8,0.9l1,1.6l3.7,1.5l3.4,0.3l-1.5,3.6l1.6,1.2l-2.3-0.5l1.5,3.3l0.9,0.4l3.2-2.6l-0.1-1.3l1-2.4l-0.6-0.9l3-0.9
		l-1.2-2l0.7-0.9l1.6,2.2l2.1-1.2l1.5-2.7l-0.1-1.1l-1.8-1.7l3.8-2.2l-0.7-1.5l1.7-1.8l0.6-1.7l4.4,0.9l1.6-0.6l2.4,1.5l-0.5,0.4
		l3.1,1.2l-1.9,2.6l2.3,2.4l4.1-2L409,39l2.3,6.6l-1.1,0.6l1.9,3.3l3.3,0.9l-2.3,1.3l-2.5,0.5l-0.7,1l5.1-1.9l2,1.3l-0.3,2.2
		l-2.8,2.1l-3.2,0.7l-2.7,1.8l-10.3-0.2l-2.2,2l-3.2,1.1l-2.2,2.1l-3.1,2.1l-3.2,1.1l-0.3,0.3l5-2l3.3-2.5l5.4-2.1l3,0.5l-0.4,1.1
		l-2.1,0.9l0.4,3.5l0.9-0.9l2.7,0.9l1.6,2.1l-5.1,2l-0.1-0.5l-3.8,2.7l-1.5-3.8l-0.4-0.2l0.3-0.8l-0.3-0.1l-0.2-0.2l0.9-2.7
		l-2.1-0.9l-2.8,3.3l-2.7,1.9L380,70.5L380,70.5z M300.6,58.8l0.5,0.3l1.3,1.7l0.2-1.5C302.6,59.4,300.6,58.8,300.6,58.8z M401.2,60
		l3.3,1.2l-0.8,0.6l-2-0.6L401.2,60z M401.8,24.2l-0.2,1.4l-3,0.6l1.5-1.9L401.8,24.2z M387.4,11.3l0.7,0.9l-1.2,1l-2.5,0.3
		l-0.8-0.8L387.4,11.3L387.4,11.3z M371.6,7.4l-1.5-0.3l4.2-0.5l-0.6,1.1l-2,0.9l-2.7,0.3l-0.7-0.8L371.6,7.4L371.6,7.4z
		 M403.3,65.7l0.9-0.9l1.3,1.7l-0.6,1.2l1.1,0.5l-2.5,1.1l-0.5-1.2l1.5-1.6L403.3,65.7L403.3,65.7z M295.6,53.4l-0.9-0.2l1.1-1.9
		l2.1,0.1C297.9,51.5,295.6,53.4,295.6,53.4z M374.7,22.1l-0.2,1.4l-1.4,0.5l-4.6-1l3.4-0.5l1.5-1C373.4,21.4,374.7,22.1,374.7,22.1
		z M401.6,15.9l0.2-1.2l3.3,0.1l1.2,1.5l-3.8,0.2L401.6,15.9L401.6,15.9z M389.5,5.1l0.3,1.4l2.1,0.6L389,8.6l-0.9-1.3L389.5,5.1z
		 M382.4,7.4l1.1-1.6l3.4,1.1L386.1,8L382.4,7.4L382.4,7.4z M416.4,24.8l3.5,2.4l-2.1,0.8l0.1,1l-4,1.1l-0.3-1.6l-2.2-1l-0.9,2.7
		l2.1,0.9l0.5,2l-1.4,1.3h-3.1l-0.8-1.4l-0.7,1l2,1.7l-0.3,0.6l-3.4-0.7l-3.7-1.8l-1.2-2.8l-3.2,0.1l-3.2,1.2l0.3-1.8l1.6-0.9
		l2.9,0.4l2.7-0.4l-0.6-1.3l4.3-2.1l0.1-1.6l-4.5-0.9l0.4-2.7l-3.2,2.2l1.2-1.7l-2,0.5l-7.1-0.9l-2.1,0.1l-1.3-0.8l0.2-2.6l3.2-2.1
		l2.7-0.9h3.9l-3.8,1.5l-0.9,1.5l4.1-2.4l4.7-0.5l0.3,2.1l1,0.3l2.4-0.9l2.7,0.4l1.8,1.6l1.8,0.1l0.7,1l2.6,0.6l0.5,2.6l-2.7,0.9
		L416.4,24.8L416.4,24.8z M364.4,8.5L363,9.9l-4.2,0.3l-0.9,0.9l-1.7,0.5l-2.9-0.9l7.7-2L364.4,8.5z M418.5,64.5l-0.9,2.1l-1.1,0.3
		l0.1-1.7l-3.9,1l0.8-1.4l-5.8-0.6l1.5-1.5l5.1-5.7l2.3-0.5l-0.7,1.5l-1.5,1.4l-0.1,1.4l2.4-0.3l1.5,0.9l-1.2,1.4h1.5l-1.9,1.8
		C416.7,64.7,418.5,64.5,418.5,64.5z M386,34.7l-3.2,1l1-1.3l-0.6-1.1l-1.9,0.5l0.3-1.8l2.5-3.1h1.2l0.6,0.9l4,2.7l-1.5,0.7
		l-2.9-1.3l-1.5,1l0.6,1.5C384.7,34.4,386,34.7,386,34.7z M371.3,20.4l-2.9,1.7l-0.7-0.7l-2.2,0.5l1.9,0.9l-3.1,0.6l-3.4-0.7
		l-4.4,0.8l-6,0.4l0.4-1.3l-2.9-0.2l0.2-1.5l6.1-0.2l-0.9-0.9l-4.7,0.3l-0.6-0.8l1.8-0.7l-1.5-0.4l4.8-2.2l4.5-0.8l3.1,1.1l2.1-0.4
		l1.4,1.5l2.9-2.6l1.5,1l0.1-1.1L371,15l-2.8,1.5l-1.4,3.3L369,21L371.3,20.4L371.3,20.4z M376.1,14.6l3.6-0.1l0.4,0.9l-1.7,2.6
		l-3.9,1l-0.9-1.6l-1.8-0.9L376.1,14.6L376.1,14.6z M383.5,16.9l-3,0.9l0.6-1.4l2-1.7l3.4-0.7l3.5,0.5l-3.9,1.8l-3.1,0.1
		C383,16.4,383.5,16.9,383.5,16.9z M340,17.7l6.6-3v-1l4.5-0.3l5.1,0.8l0.7,1l-4.7,1l-4.1,1.1l-2.1,1.3l-4.1,0.7v-1
		C341.8,18.2,340,17.7,340,17.7z M378.9,12.6l1.9-1l-3.8,0.3l-1-0.9l1.2-1.9l1.3,2.1l3.4-1.4l3.2,0.4l-3.2,2.4H378.9z M374,11
		l-2.1,1.5h-3.3l-6.9,1.1l-1.2-0.4l5.7-0.9l-6.6,0.4l-1.8-0.4l6.8-2.5l1.8,2l2.7,0.1v-1.4l3.2-0.9l-1.4,1.3L374,11z M393.1,9.9
		l2,1.9l6.1-0.5l4.6,0.6l-0.5,1l-3.7,0.7l-2.1-0.2l-8.2,0.1l-2.2-0.4l1.7-1.9l-0.3-0.8l-3.1,0.3l-0.3-1.3
		C387.1,9.3,393.1,9.9,393.1,9.9z M405.5,5.8l-6.8,1.6l-4-0.2l-0.8-1l2.8-0.7l-3.3,0.3l-0.3-1.2l1.8-0.8l5.9-0.7l2.7,2.1L405.5,5.8
		L405.5,5.8z M406.6,11.3l-0.8-1l-5.7,0.3l-5.7-0.4l1.1-0.2l-0.4-1.5l2,0.9l2.7-0.4l-0.5-0.9h3.5l-2.3-0.5l2.3-1l3-0.2l-0.3-2h3.1
		l7.2-0.4l-1.5-0.3l-3.6,0.3h-5.1l-2.8-0.6l0.1-1.1l9.9-0.6l4.1-0.8l6.9,0.1l1.7-0.3l8.6,0.3l2.9,0.9l-9.7,1.9l-4.6,1.4l-5.2,0.6
		L417,6.6l-6.6,2.1l-3.1,0.1l2.9,0.6L406.6,11.3L406.6,11.3z" title=""></path>
	<path id="_19" class="st0 area included" d="M380,255.8l0.6,2.1l-1.3-0.3l-0.3-2.7L380,255.8z M380.2,259.8l0.7-0.8l0.7,1.4l0.3,2.4L380.2,259.8
		L380.2,259.8z M381.4,267.2l0.6-0.1l2.4,4.5l-0.9,1.7v-1.8l-1.2-0.5l-1-2.2L381.4,267.2z M396.1,277.1l1.8,4.4h-0.1h0.1l0.1,0.2
		l-0.4,0.1l3.3,0.2l-0.3,1.1l-3.9-0.3l-0.5-0.8v-0.2l-0.9,0.1l-3.5-1.8h2.1l-0.3-2.2l1.1-1.1L396.1,277.1L396.1,277.1z M375.6,204.8
		l0.8-0.2l0.7-1.5l1.3,3l1.1,1l-0.4,2.1l1.3,1.8l0.9,3.3l1.2,0.1l0.1,2.5l-2.1,1.6l1.1,4.5l-0.9,0.4l-1.5,4.8l-0.1,4.6l1.6,2.8
		l1,2.9l-0.6,2l0.5,1.9l-0.9,0.9l0.4,2.7l1.1,2.1l-0.8,0.5l0.2,3.6l1.3,2.8L383,257l1.5,1.9l-0.1,1.7l1.7,1.3l-0.5,0.9l0.9,2
		l-0.5,2.6l0.8,0.9l-1.2,2.5l1.7,2.5l1.4-0.2l0.5,1.9l1.3,0.9h3.2l2.7,0.7l-1.2-0.3l-2.1,1.1l0.4,2.1l-4.1-1.5l-5-5.9l0.4-0.3
		l-1-3.3l-1.5-1.5l0.8-1.5l-2.1-1l0.9-1.5l1.2,1.1l-0.5-2.9l0.9-1l-1.3-0.7l-0.1-4.3l-1.2-1.2l-1.2,0.5l-0.9-1.6l0.3-2.9l-1.9-3.8
		l0.6-4.7l0.5-0.9l0.1-5.9l-1.3-4.5l-0.3-2.8l0.6-2.7l0.1-4.8l-0.8-4.8l0.5-3.6L375.6,204.8L375.6,204.8z" title=""></path>
	<path id="_20" class="st0 area included" d="M461.7,133.3l0.4,0.4v0.4l-0.5-0.3L461.7,133.3z" title=""></path>
	<path id="_21" class="st0 area included" d="M391.8,132.7l0.3,0.4l-0.3,0.4l-0.1-0.6L391.8,132.7z" title=""></path>
	<path id="_22" class="st0 area included" d="M592.7,185.7v0.2l-0.4,0.1L592.7,185.7L592.7,185.7z" title=""></path>
	<path id="_23" class="st0 area included" d="M362.6,126.6l2.2,1.1l-2.9,0.2l-0.7-1.3H362.6L362.6,126.6z" title=""></path>
	<path id="_24" class="st0 area included" d="M608.6,112.2L608.6,112.2l-0.1-0.2h0.3L608.6,112.2L608.6,112.2z M608.1,110.4l0.4-0.7v1.6l-0.3-0.1
		L608.1,110.4L608.1,110.4z M601.9,125.5l5.3-2.1l0.9-4.2l-0.9-1.5l0.7-4.7l1-0.2l1.6,2.2l3.1,0.9l2.1,2.7l-3.4,5.3l0.4,1.5
		l-2.1,0.9l-0.4,1.4l-1.6,0.2l-0.7,1.8l-3.5,0.8l-0.8-1.4L601.9,125.5L601.9,125.5z" title=""></path>
	<path id="_25" class="st0 area included" d="M391.8,138.1l-0.2-0.3l0.3-0.3v0.4L391.8,138.1L391.8,138.1z" title=""></path>
	<path id="_26" class="st0 area included" d="M675.7,121l-2.1-3.7l-1.8,1.6l-2.3,0.3v-0.1v-0.1l-0.1-0.3l-1.4-3.3l0.1-1.4l-1.4-0.8l1.5-1.1
		l-1.9-1.5l0.5-1.2l2.7,1.1l1.2,1.7l3.1-0.1l0.9,0.5l-2.1,2.8l1,1.5l0.8-1.7l1.4,3.8l0.3,1.4L675.7,121L675.7,121z" title=""></path>
	<path id="_27" class="st0 area included" d="M803.4,185.2l0.9,0.4l2.7-1.5l0.9,2.2l-2.1-0.9l0.3,1.6l-1.5-0.3L803.4,185.2L803.4,185.2z
		 M797.8,180.9l1.3-1l2.3,1.9l-1.9,0.5l1.2,0.5l1.2,1.8l-3-1.5L797.8,180.9L797.8,180.9z" title=""></path>
	<path id="_28" class="st0 area included" d="M392.3,136.7l-0.2-0.3l0.3-0.5l0.1,0.3L392.3,136.7L392.3,136.7z" title=""></path>
	<path id="_29" class="st0 area included" d="M531.1,7.5h1.6l2.6,0.6l-4.1,0.6L531.1,7.5z M547.5,21.6l-0.9,0.8l-1.2,0.6l-0.1-1.1l-1.8-0.7
		l-2.4,0.6l-1.1,2.1l-3.4-0.3l-1.3-0.9L534,23l-0.7,1.2l-2.6-0.3l-2.5,2.1l0.5,0.7l-2.4,1.7l0.1,1.5l-1,1.4l0.5,1.1l-1.8,0.1
		l-0.9,1.3l1.3,6.1l-1.5,2.2l-1.3-0.9l-3,2.2l-3,0.3l-1.7-1.3l-0.9-3l0.6-2.5l-0.9-0.5l3.3-2.1l2.9-1l1.9-1.7l1.8-0.7l0.4-2.3
		l3.9-3.9l1-0.5l-4.3,0.5l3.1-1.4l1.5-0.2l-0.1,0.9l1.3-0.7L531,21l5-0.3l-0.3-0.8l2.4,0.3l2-1l-0.4,1.9l1.7-1.5h2.5l3.7,1.2
		C547.6,20.7,547.5,21.6,547.5,21.6z M518.4,6.3V5.1l3.8,0.3l0.7-0.3l2.6,1.3l-0.6-1.6l4.8,1.5l1.8,0.3L528.6,7l-2,3l-3.2-0.9
		l-1.3-1.4C522.1,7.7,518.4,6.3,518.4,6.3z M536.4,5.5l-7.3,0.3l-1.3-0.6l1.6-1.3l2.5,0.9l5.1-0.3l0.5,2
		C537.5,6.5,536.4,5.5,536.4,5.5z" title=""></path>
	<path id="_30" class="st0 area included" d="M389.8,129.3l-0.4-0.3l0.1-0.1l0.2,0.2L389.8,129.3z" title=""></path>
	<path id="_31" class="st0 area included" d="M597.8,110.1l0.3,0.1v0.9l-0.3-0.4V110.1z" title=""></path>
	<path id="_32" class="st0 area included" d="M730.3,185.7l1.4,1.6l-0.7,0.4l-2.1-2L730.3,185.7L730.3,185.7z M765.6,183.2l-2.1,0.5l0.9-1.6
		l1.5-0.6L765.6,183.2L765.6,183.2z M735.6,177.4l-0.3-1.5l1.3-0.8l-0.6,2.7L735.6,177.4z M737.8,169l5.2,0.7l-0.9,0.6l-3.8-0.1
		L737.8,169z M707.6,171.8l-1.9,0.6l-0.9-0.6l-1.1-2.5l1.3-0.2l0.9,2.8L707.6,171.8L707.6,171.8z M755.4,177.7l2.3,0.3l0.8,0.8
		l-1.3,1.8l0.1-2L755.4,177.7z M725.8,183.6l2.7-0.2l-1.1,1.2l-2.7,0.5l-2.1-0.6l1.1-1.3L725.8,183.6z M738.6,185.4h0.3l0.7-0.4v0.5
		l0.2,0.6l-1.3,1.4l-2,0.4l1.4-2.1l0.3,0.3L738.6,185.4z M727,157l-0.6,0.2l0.2-0.2H727z M770.4,171.4l-0.4,7.9l-0.5,5.9l-1.7-2.1
		l-2,0.4l0.4-1.5l-2.1-5l-3.3-1.5l-1.4-0.1l-2.9-2.1l-1.4,1.3l-0.3-2.7l0.9-0.9l-2.1-0.7l-0.4-1l-2.6-1.5l4.3-1.1l2.4,0.8l0.2,3
		l1.5,2.6l1.8-0.8l0.9-1.5l1.5-0.3l1.3-1.3l3.8,1.9L770.4,171.4L770.4,171.4z M704.9,172.8l-0.7,5.1l-2.1,0.6l-5.6-5.7l-1.5-2.2
		l-0.9-2.9l-1.8-2.2l-1.7,0.5l1.5,3.8l-0.7-0.2l-1-3.6l1.5-0.5l-1.2-3.6l-2.2-0.2l1.2,2.2l-0.5,0.9l-1.2-1.8l0.9-3.1l-4.2-4.2
		l-0.1-1.7l1.9,0.9l2.1-0.1l1.5,2.2l2.8,2.1l2.3,2.7l2.5,1.5l3.4,0.4l-1.3,1l0.8,1.1l-0.8,1.5l1.9,0.7l0.9,2.7l1.5,0.3L704.9,172.8
		L704.9,172.8z M738,184l-7.8,0.7l0.6-1.2l3.9,0.7l1.3-0.9l4-0.1l1.7-1.1l2.9-0.3l2-0.9l-0.9,2.2l-1.4-1.1l-2.5,0.5L738,184L738,184
		z M717.9,183.5l-3.1,0.2l-4.3-1.4l-2,0.2l-3.3-0.9l-1.9-1.3l1.1-2l4.3,0.8l0.4,1.1l3.5,0.3l0.5-1l3.2,0.9l0.4-2.2l0.3,2.8l0.9,1.3
		l1.3-0.3l0.8,1l2.2,0.5l-0.3,1l-1.8-0.1L717.9,183.5L717.9,183.5z M747.7,172.7l-1.8,1.1l-1.3-0.3l-0.9,0.5l-1.3-1.5l2.7,0.3
		l0.9-0.8l2.9-0.3l2,0.8l0.4,1.2L747.7,172.7L747.7,172.7z M733.7,175.8l0.3-1.2l-1.3-1.2l0.4-1.6l-1.3,1l-0.3,4.5l-2,0.1l0.6-2.3
		l-1.4-3.6l1-1.4l1.4-5.7l1.6-1.4l1.4,0.7l4.4,0.4l2.1-2l0.3,0.8l-1.8,2.1l-7.4-0.2l-0.8,1.5l1.3,2.5h0.8l1.1-2l1,0.6l2.2-0.3
		l-3.5,2.7l1.6,2.6l0.6,2.7L733.7,175.8L733.7,175.8z M746.8,164.4l2,1.6l-2.7-1.2l-0.8,3.5l0.3-2l-0.6-3.1l2.1-3l-1.3,3.9l1.1-1.5
		L746.8,164.4L746.8,164.4z M726.3,157l-0.3,1.8l1.5,2.2l-0.4,0.8l2.1,1.8l-2.3,0.7l-0.6,2.7l-1.7,2.1l-0.3,4.1l-3.4,1.6l-0.6-1.8
		l-2.3-0.3l-2.3,0.8l-0.2-1.6l-2.7,0.5l-0.6-4l-1.8,1.1l1.2-1.6l-0.9-0.8l-0.5-2.8l1.5-2.7v1l1.7,1.6l2.9-0.6l1.6-0.9l1.2,0.8
		l1.6-0.5l1.7-3.3l0.6-2.9L726.3,157L726.3,157z" title=""></path>
	<path id="_33" class="st0 area included" d="M612.2,208.6l-0.2,0.8l-0.5,0.1l0.3-1L612.2,208.6L612.2,208.6z" title=""></path>
	<path id="_34" class="st0 area included" d="M758.3,66.5l-1.5,2.6l-2.8,1.1l2.5-1.6L758.3,66.5L758.3,66.5z M571.6,2.4L571,3.2l2.7,0.4l-5.7,0.9
		l0.3-1.4C568.4,3.2,571.6,2.4,571.6,2.4z M686.3,14.5l4.6,0.6l0.6,0.6l-4.2-0.5C687.3,15.2,686.3,14.5,686.3,14.5z M576.5,2.6
		l-0.5,1l5-0.2l-7.2,1.1C573.8,4.5,576.5,2.6,576.5,2.6z M630.4,6.4l1.1,0.9l-6.1,0.4l0.1-1.8L630.4,6.4z M561.3,3.9l4.2-0.1
		l-3.3,0.9l-2.2-0.3L561.3,3.9z M728.7,75.5l-0.7-3.1l-1.5-1.6l1.2-1l1.5,1.6l0.2-1.3l0.1-2.5l-0.6-3l-1.5-1.4l-2.1,1.4l-2.4,0.1
		l-1.2-1.3l-4-2.3l-2.3-0.3l-4.1-3.2l-2.3-2.2l-2.6-1.6l-4.9-1.2l-3.3,0.6l-0.5,1l2.1,1.3l-0.1,3.6l-1.1,1.8l-2.2-0.7l-4.5-0.9
		l-1.1,1.5l-3.3,0.9l-3.9-0.4l-1.7-1.3l-4.9-1.1l-2.3,0.8l-2.8-1l-0.9-1.5l-6.3-1.6l-0.4,2.3l1.4,0.9l-0.7,1.6l-4.8-0.6l-1.1-1.1
		l-3.4-0.6l-5.7,3.5l-0.4,0.1l-0.3,0.1l-1.7-1.1l-2.1,0.1l-4.4-2.9l-3,0.5l-1.8-1.1l-0.7,0.9l-5.7-5l-2.8-1.4l-0.2-1l-3.1,1.7
		l-1.5-0.7l-3.8-0.3l-1.6-2.4l-3.9,0.3l0.1,0.4l-4.1,1.3l-6.3,0.9l2.3,1.5l-1.9,0.9l-0.3,1.6L605,57l0.3,1.3l-2.5,0.5l-2.2-1
		l-3.4-0.1l-1,1.1l-4.4-2l-4.5-0.3l-2.4,2.1v1.5L583,59l-0.7,1.3v2.9l1.4,1.3l1.5,0.1l2.7,3l-2.4,1.3l-1,2.3l1.9,1.9l0.2,1.5L589,77
		l-1.1,1.3l-2.6-1.4l-3.1-1.8l-1.5,0.4l-2.1-1.3l-5-0.4l-2-1.6l-4.5-2.3l1.5-0.3l0.1-2.3l2.2-1.1l-1.8-0.2l0.7-1.5h1.5l-0.3-3.4
		l-4.6-1.9l-2.8,0.2l-1.4-1.8l-1.5-0.1l-1.1-2.2l-3.2,0.5l-1.1-1.9l2.1-0.9l-1.7-0.8l-2.1-3.6l-4.5-1.1l-1.1-1.4l-0.7-1.4l0.2-0.5
		l0.1-0.4l0.9,0.3l-1.1-2.2l0.2-0.3l0.1-0.3l0.2-0.1h-0.1h0.1l0.2-0.1l-0.2-0.2l-0.2-0.1l2.5-1.3l-3.2-0.8l4.2-3.8l0.3-0.8l-2.7-1.5
		l0.7-0.5l-1.8-1.9v-2.1l-1.5-1.4l0.9-1.5l-2.1-0.9l0.1-1.5l1.2-0.6l0.9-0.8l7.3,1.1l7.9,2.7l0.8,1.6l-3.3,1.4l-9-1.5l3.3,1.5
		l1.4,2.6l2.7-0.9l3.9,1.2l1.1-0.5l-1.4-1.5l2.7-1.7l3.3,1.2l-0.1-1.5l-1.3-0.9l-0.1-2l-1.5-0.6l3.7,0.3l1.5,1.1l-2.1,0.9l1.5,0.8
		l2.6-0.2l0.9-1.4l-1.8-2.7h2.6l0.9,2L580,23l-0.9,1.4l2.1,0.2l1.4-0.9l2,0.2l1.7-0.9l1.7,1.2l0.9-1.4l-4.1-1.7l0.3-0.7l2.4,0.9
		l5.4,0.7l4.6,1.2l2.5,1.3l0.4-1.5l-3.5-0.8l-0.9-2.4l-1.2-0.9l1.5-0.9l0.1-2.7l1.6-0.2l3,1.3l0.1,2.1l1.5,0.7l2.5,3.9l2,0.8
		l-0.8,3.3l-3.4,0.1l4.5,0.7l2.1-2.7l-1.5-1.8l2.3-0.5l3.3,1.3l-1.5-1.2l-3.3-0.6l-1.9,0.3l-1.4-1.2l0.2-1.4l-2.8-1.6l1.7-1.1
		l-1.3-1.4l1.9-1l3.4-3.9l2.8,2.8l2.3,0.2v-0.8l4.2-1.5l4.9-0.7l1.4-2.1l1.4,2l5-0.9l-0.6-0.9l3.1-0.9l5.9,1.5l7.1,0.5l3,1.9
		l-5.1,3.5l5-0.9l-0.3-1.5l1.7,0.1l1.9,1.8l2.4-0.4l4.2,0.2l1.5,0.8l6,0.3l-0.7-1.7l1.8,0.6l3.9,0.2l2.8,0.8l1.5,1.6l3.9,2l1.9,0.3
		l-0.7-2l2.5,0.8l2.7-0.3l5.7,0.3l-3.1-1.7l2-0.5l5.6,0.4l2.8,1.2l0.1-0.9l11.4,2.6l3.3-0.4l7.2,0.5l0.9,1.5l3,0.8l3.1-0.3l4.8,0.3
		l0.4-0.9l2.1,1.4l3.1,0.9l1.1-0.5l-3.2-1.2l-0.2-0.7l4.6,0.5l3.4-0.1l0.4-2.9l0.4,3.2l6.9,1.4l10.8,7.2L761,31l-3.2-0.4l4,1.2
		l6.3,2.9l-0.1,0.6l-2.9-0.4l-3,2l-1.5,2.2l-3.9-0.3l-1.4,1.5l-1.1-1.3l-0.8,1.3l-2.4-0.4l1.7,1.9l1.5-0.3l0.1,2.5l1.5,0.5l1.3,1.9
		l2.1,1.2l-1.8,0.1l2.7,2.5l-1.8,1.4l1.2,1.9l-0.9,0.8l1.2,1.9l-0.7,3.6l-1.1-0.2l1.2-1.5l-9.4-7.9l-3.3-3.8v-2.1l1-1.2l-0.1-3.9
		l0.9-1.8l-2.4-2.6l-1.5,0.3l1.3,1.4l-1.4,2.4l-2.8-2.7l-3.9,0.3l-0.5,2.7l0.6,1.7l-2.7,1.3l-1.9-1.2l-2.7-0.6l-1.8,0.8l-6.1-0.1
		l-1.9,0.6l-0.2,2.5l-1.2,1.7l0.2,1.7L718,50l3.2,0.6l3.4,2v-1.5l1.7,0.1l4.3,2l3.3,5.7l1.1,0.9l1.7,3.3l-0.5,1.4l0.3,3.3l-1.1,5.3
		l-2.5,2.1l-3.1-1.3l-0.6,2.1l-0.2-0.3L728.7,75.5L728.7,75.5z M537,50.9l0.9-0.5l-1.2,0.5L537,50l1.5-0.8h0.2l0.3,0.7l0.2-0.7
		l2.5,0.8l0.1,1l-0.1,0.1L537,50.9L537,50.9z M616.4,4.7l-1,0.2l-3,0.1l-1.7-1.8l1.7,0.3l2.8-0.5l3.6,0.8v0.7L617,4.6l5.3,0.3l0.9,1
		l-1.1,0.6l-3.7-0.3l-2.6-0.8L616.4,4.7L616.4,4.7z M579.5,11l5.7-0.5l2.7-1l3,0.6l-1.6,0.8l-6.8,1.6l-4.1,4.8l2,1.8L583,20
		l-3.2,0.3l-2.8-0.5l-0.9-0.9l-2.3-0.8l0.4-1.6l1.9-0.9l-1.2-0.8l2.7-1.3l-1.1-0.3L579.5,11L579.5,11z M738.9,62.4l-3.2-4.9l-2-1.2
		l-2.7-3.3l1-0.6l1.7,1.1l2.1,2.6l6.2,5.4l-1.9-0.3l1.6,3.6l3,2.3l-2.7-0.2l-1.5-2.8L738.9,62.4L738.9,62.4z M249.2,30.2L260,23
		l2.7,2.8l-2.3,2.1l2.4-1.2h3.2l0.3,1.7l-4.7,1l-2,1.2l-2.9,1l-1.7-1.4l0.9-0.9l-3.3-0.1l0.8-1C253.3,28.4,249.2,30.2,249.2,30.2z
		 M689.9,12.2l-0.9-2.3h0.9l0.2,2l6.2,0.4l-2.5,0.6L689.9,12.2z M687.6,12.8l-4.9,0.3l-6.1-1.2l1.5-1.3l3.8,0.8l-0.7-0.7l6.9,1
		L687.6,12.8L687.6,12.8z" title=""></path>
	<path id="_35" class="st0 area included" d="M392,142.8l-0.3,1.5l-0.9-0.3l-0.3-0.9L392,142.8L392,142.8z" title=""></path>
	<path id="_36" class="st0 area included" d="M410.2,167.4l1-1.3l3.8,0.3l-0.9,2.5l-3.3,0.8L410.2,167.4L410.2,167.4z M410.4,237.2l0.5-1.6
		l-0.2-0.3l-5-3.8l-0.7,0.4l-1.8-2.1L402,230l2.7-4.1l3.3-2.3l-0.5-3.3l-1.3-0.1v-0.1l-0.1-0.3l0.5-1.5l-0.2-1.4l-2.1-0.2l-0.6-2.8
		l-1.5-1.2h-2.9l0.1-2.4l-0.8-1.6l0.8-4.3l-1.7-1.9l-0.3-2.1l-3.2-0.1l-0.9-5.2l-2.6-0.6l-2.5-1.9l-2.5-0.4l-2.1-2.7l-0.3-3.2
		l-2.1,0.5l-3,2.3l-2.4-0.1l-2,0.1v-3.3l-1.2,1.1l-1.8,0.1l-3.7-5.2l1.5-2.4l0.3-2.7l3.9-2.1l1.5,0.2l0.9-6.5l-1.3-2.1v-1.6l1.7-0.1
		l-1.3-0.9v-1.4l3.2-0.1l1.5-0.8l0.9,1.9l2.5,1.2l2.7-2l1.5-1.8l-1.2-0.1l-0.3-2.4l-0.9-0.9l5.8-0.6l1.5-2l1.5,0.3l-0.3,1.2l1,1.2
		l-0.9,2.7l0.5,1.8l1.7,1.5l3.3-1.8l1.1,0.2l1-1.3l2.5,0.4l3.1,0.3l2.5-3.9l1.1,0.3l0.8,3.7l1.4,1l0.2,3.5l-2.5,0.3l-0.3,2.3
		l1.2,1.2l2.7,0.3l2.7-2.9l3.1,0.8l1.6,1.7l0.6-0.8l1.8,3l0.7-1.1l3.9,1.4l3.1-0.1l2.8,1.8l2.5,2.6l3,0.4l1.5,4.4l-0.9,4.3l-2.9,3.3
		l-2.5,4.6l-1.1,0.7l-0.1,3l0.5,2.6l-0.3,3.9l-0.9,1.1v2.5l-2.2,4.5l0.3,0.9l-1.9,2.1l-4.1-0.1l-4.6,2.9l-1.6,1.5l-1,2.1l0.7,3.3
		l-0.3,2l-1.7,2l-0.6,2.1l-1.7-0.6l-0.2,1.9l-1.1,1.5l-0.3,2.8l-1.2,1.4l-0.3-0.2L410.4,237.2L410.4,237.2z" title=""></path>
	<path id="_37" class="st0 area included" d="M366.1,111.9l-2.4,1.5l-0.3,1.8l-0.7-1.7l1.9-0.9l0.5-1.8L366.1,111.9z M368,114.5l0.1,1.5l-0.4-1.5
		H368z M368.3,116.7h-0.2l-0.1-0.6L368.3,116.7z M368.3,116.7l3.9,1.6l-3.7-1L368.3,116.7L368.3,116.7L368.3,116.7z M368,114.5
		l1.4,0.1L368,114.5z" title=""></path>
	<path id="_38" class="st0 area included" d="M751.9,159.4L751.9,159.4L751.9,159.4L751.9,159.4z" title=""></path>
	<path id="_39" class="st0 area included" d="M521.9,155.6l-4.5,1.1l-1.1-0.8l-1.4-2.9l-0.9-0.8h-3.3l0.2-5.7l2-3.3l-0.4-2.3l0.9-3.8l2.6-0.9
		l2.7,1.9l1.6-0.8l3.4,1.1l0.9-0.9l2.5-0.3l2,0.7l2.1-1.4l0.9,1.3l1.2,2l-0.2,1.5l-1.1,0.4l-3.3,6.3l-0.6,2.6l-1,1.5l-1.4-1.5
		l-3.3,2.7L521.9,155.6L521.9,155.6z" title=""></path>
	<path id="_40" class="st0 area included" d="M390.8,140.2h-0.3l0.1-0.3l0.3-0.1L390.8,140.2L390.8,140.2z" title=""></path>
	<path id="_41" class="st0 area included" d="M391.3,129.4l0.1,0.2l-0.3,0.1l-0.1-0.2L391.3,129.4z" title=""></path>
	<path id="_42" class="st0 area included" d="M725.1,115.6l0.9-0.3l1-2.7l1.5-0.1v4.2l-0.5,2.6L725.1,115.6z" title=""></path>
	<path id="_43" class="st0 area included" d="M836.4,201.6l3.2-1.2l-3.6,2.5l0.5,1.3l-2.6,0.1L836.4,201.6z" title=""></path>
	<path id="_44" class="st0 area included" d="M394.9,138.1l-0.2-0.1l0.1-0.5l0.3,0.5L394.9,138.1L394.9,138.1z" title=""></path>
	<path id="_45" class="st0 area included" d="M521.7,82.4h-1.6l0.5-1.5l-0.6-2l2-0.8l0.8,1.5l-0.3,2.7L521.7,82.4z M532.3,87.5h-1.1l-3.7-2.1
		l0.5-0.9l1.9,0.4l3.2-0.6L532.3,87.5L532.3,87.5z M518.5,73l-1.6-2.9l0.6-1.6l1.8-0.7l3.1-0.3l0.8-1l2.7-0.4l2.7,1.1l-0.5,0.5
		l0.7,1.5l-2.5,0.5l0.4,2.5l2.1,1.4l0.9,2l3.3,2.3l3.7,1.7l0.9,1.1l-2.6-0.9l-0.9,1.3l1.2,0.9l-1.6,3.2l0.1-1.8l-1-2.6l-3.6-2.5
		l-1.2,0.1l-4.5-4l-0.6-1.4l-2.6-1.2C520.6,71.7,518.5,73,518.5,73z M526.9,72.7v-0.2V72.7h-0.2H526.9z" title=""></path>
	<path id="_46" class="st0 area included" d="M531,89.3l0.4,0.2l0.1,0.3l-0.3-0.1L531,89.3L531,89.3z" title=""></path>
	<path id="_47" class="st0 area included" d="M795.9,177.4l2.1,2.3l-1,0.5l-1-1.8V177.4z M769.5,185.2l0.5-5.9l0.4-7.9l6.5,2.6l2.3,2.2l-0.3,1.2
		l2.2,0.9l0.5-1.4l1.1,3.2l-1.7,0.2l0.3,1.5l1.6,1.3l0.7,2.2l2.5,1.1l1.5-0.5l0.7,1.7l-0.9,0.8l-5.2-0.9l-1.5-1.5l-1.5-2.9l-4.3-1.1
		l-0.9,3l-1.5,0.8L769.5,185.2L769.5,185.2z M791.7,173.7l-1.1-1l1,0.8L791.7,173.7z M791.7,173.7l1.4,1.2l-0.5,1.2L791.7,173.7
		L791.7,173.7z M787.8,179.2l-1.6,0.1l-2.8-1.2l5.6-0.8l1.3-1l-0.1-1.5l1.5,0.3l-0.7,2.3L787.8,179.2L787.8,179.2z M790.6,172.7
		l-1.3-0.9l-1.5-0.3l-0.9-2.4l0.7,1.8l1.5,0.3L790.6,172.7L790.6,172.7z" title=""></path>
	<path id="_48" class="st0 area included" d="M700.8,162.7l0.3,0.2l-0.3,0.3l-0.3-0.1L700.8,162.7z" title=""></path>
	<path id="_49" class="st0 area included" d="M566,91.3l0.2,0.2h-0.3l-0.2-0.2H566z M565.6,91.5L565.6,91.5L565.6,91.5z M565.5,91.5l-0.2,0.3
		l-0.9,0.4l-0.3-0.2l-0.2,0.1l-0.9-0.9l0.5-0.3h1.5L565.5,91.5L565.5,91.5z" title=""></path>
	<path id="_50" class="st0 area included" d="M586.9,191.2l-0.4-0.3l0.1-0.7l0.2-0.2L586.9,191.2L586.9,191.2z" title=""></path>
	<path id="_51" class="st0 area included" d="M526.9,72.7h-0.2H526.9v-0.2V72.7z" title=""></path>
	<path id="_52" class="st0 area included" d="M584.2,79.6L584.2,79.6l0.2-0.1L584.2,79.6L584.2,79.6z M583.6,78.8L583.6,78.8L583.6,78.8L583.6,78.8
		z M583.4,81.3l-2.1-0.7l-0.8-2.1l1.2-0.3l1.5-0.2l0.9,1.4l0.9,1.3h-0.1h-0.2l-0.1-0.1l0.1,0.1h0.3l1.3,1.2l0.4,1l-0.3-0.1l-0.3,0.2
		l-0.9-1.5C585.3,81.6,583.4,81.3,583.4,81.3z M583.3,78.6L583.3,78.6L583.3,78.6L583.3,78.6L583.3,78.6z" title=""></path>
	<path id="_53" class="st0 area included" d="M583.3,78.6L583.3,78.6L583.3,78.6L583.3,78.6L583.3,78.6z M585,80.8h0.2l-1.1-1.3l-0.9-1.4l2.7,0.5
		l-0.5-1.7l2.6,1.4L589,77l2.3,2.5L591,84l-1.6-0.9l-0.4-1.9l-2.2,1.7l-0.4-1L585,80.8L585,80.8z M584.2,79.6L584.2,79.6l0.2-0.1
		L584.2,79.6L584.2,79.6z M583.6,78.8L583.6,78.8L583.6,78.8L583.6,78.8z M583.5,81.5l-0.1-0.2l1.9,0.3l0.9,1.5l-1.3-0.3L583.5,81.5
		z M584.8,80.8L584.8,80.8L584.8,80.8z M584.8,80.8h0.3H584.8z" title=""></path>
	<path id="_54" class="st0 area included" d="M627.5,78.8L627.5,78.8l-0.3-0.1h0.1L627.5,78.8z M627.1,78.7l1.4,1.6l-0.2,0.2l-0.3,0.2l-0.1,0.1
		h-0.1v-0.1h-0.1h-0.3h-1.7l0.3,1l3.7-0.3l1.6,0.9l2.2-0.6l0.9,1.9l1.7,0.1l1,2.8l-3-0.5l-2.1,1.6l-1.1-2.6l-2.1-0.9l-0.3,1.7
		l-1.3,0.9l-2.7-0.2l0.5-2.2l-0.9-1.6l-1.4-0.5l2-1.6l0.2,0.3l-0.1-0.3h0.3l0.2-1.5C625.4,79.1,627.1,78.7,627.1,78.7z" title=""></path>
	<path id="_55" class="st0 area included" d="M526.7,174.2l-3.5-4.5l-1-2.7l1-0.4l0.2-2.1l0.9-0.9h2.9l-0.1-2.5l0.1-0.3l3.7,0.3l-0.1,2.1l1.9-0.3
		l0.3,0.9l-1.1,2.4l1.2,0.9l-0.8,4l-3.1-1.3v0.9h-1.6l0.5,2.9L526.7,174.2z" title=""></path>
	<path id="_56" class="st0 area included" d="M630.1,80.9L630.1,80.9l-0.2-0.1l0.2-0.1V80.9z M629,80.7l0.1,0.2l-0.3,0.1l-0.3-0.4L629,80.7
		L629,80.7z M604.5,76.3l-0.5-0.3l-0.3,0.9l0.3,1.4l-1.8-0.2l-2.1-7.5l4.1-1.3l-0.3,1.5l0.5-1.3l1.4,0.7l-0.2,0.9l1.5,1.1l-0.2-1.3
		l4.2,2.7l4.8-0.4l2,1.7l2.6,3.4h2.2l1.5,1.3l0.3-1.6l2.7-1.8l-0.9,1.4l2.5,0.9l0.3-0.7l2.8,1.4l-2.1,1.4l-1.3-0.2l-1.4-1.6
		l-2.6,2.9l-1.6,0.7l1.4,0.5l0.9,1.6l-0.5,2.2h-0.9l-1.4-0.3l-0.3-1.5l-1.8-0.4l-6.4-3.7l-1.4-2.1l-3.4-0.8l-0.9-1.9l-2.5-1
		L604.5,76.3L604.5,76.3z M627.5,78.8l-0.2-0.1h-0.1L627.5,78.8L627.5,78.8z" title=""></path>
	<path id="_57" class="st0 area included" d="M554.6,228.8l3.1-2.2l1.3,1.6l-2.7,2.8L554.6,228.8L554.6,228.8z" title=""></path>
	<path id="_58" class="st0 area included" d="M668.1,115.5l1.5,3.6v0.1l-3.3,0.8l-0.1,1.9l-0.9,1.5l-1.7,0.2l-2.1,3.5l-2.7,2.2l-0.2,1.4l-3.6,1.8
		l-0.3,1.5l0.9,3.6l-0.7,2.8l0.3,3.7l-0.9-0.1l-0.7,2.2l-1.4,0.7l-1.3,1.9l-1.9-1.8l-2.2-5.9l-1.5-2.5l-1.2-3.6l-2-3.3l-2.3-8.1
		l0.3-1.5l-1.5-3.9l-0.2,2.5l-2,1l-1.8-0.9l-2.3-2.4l2.2-0.6l-3-1.3l-1-1.5l1.1-0.8l2.1,0.1l1.8-1.1l-2.1-3.9l-1.4-0.6l1.4-2.7
		l0.8,0.7l1.8-0.5l1.5-2.2l0.5-2l1.5-2.5l-0.3-1.3l1.3-0.9l-2.8-2.1l-1-2.6l0.8-0.9l2.7,0.6l1.9-1.3l1.1-0.9l1.4,1.9l1.3,0.5
		l0.3,1.9l1.6,1.6l-1.9,0.4l1.2,2.5l4.6,2.5l-0.9,0.9l-0.2,2l5.5,2.9l3.3,0.3l2.7,1.6l2.7,0.4l1.5-0.8l-0.6-2.5l1.2-0.3l0.4,1.5
		l2,1.3l4-0.5l-1.2-1.7l1.7-0.3l2.9-3l1.4,0.6l1.4-0.7l2.7,2.5l-0.7,1.8l-2.7,1.9l0.3,1.5l-0.9,4l-1.5-0.3l0.3,3.4l-0.9,0.9
		l-1.4-3.8l-0.8,1.7l-1-1.5l2.1-2.8l-0.9-0.5l-3.1,0.1l-1.2-1.7l-2.7-1.1l-0.5,1.2l1.9,1.5l-1.5,1.1l1.4,0.8L668.1,115.5
		L668.1,115.5z" title=""></path>
	<path id="_59" class="st0 area included" d="M721,80.7L721,80.7l1.9-1.7l0.1-1.6l3,0.6l-0.9-1.3l3.6-1.1l0.4,0.3l0.2,0.3l-0.9,1.5l0.9,1.5
		l-2.6,2.1l0.5,1.2l2.2,1.2l-1.8,0.7l-0.3,1l-3.9-1.5l0.2-1.6L721,80.7z" title=""></path>
	<path id="_60" class="st0 area included" d="M633.8,80.7L633.8,80.7l0.2,0.9l-0.4,0.3l-2.2,0.6l-1.6-0.9l-3.7,0.3l-0.3-1l2.7-0.3l1.3,0.2l2.1-1.4
		l-2.8-1.4l-0.3,0.7l-2.5-0.9l0.9-1.4l1.1-1.2l3.2,0.9l0.5-1.7l2,0.9l5.6-0.1l3.5,1.4l-2.8,2.4l-2.1,0.2l-1.5,1.4l-0.5-0.7
		L633.8,80.7L633.8,80.7L633.8,80.7z M630.1,80.9v-0.2l-0.2,0.1L630.1,80.9L630.1,80.9z M629,80.7l-0.5-0.2l0.3,0.4l0.3-0.1
		L629,80.7L629,80.7z" title=""></path>
	<path id="_61" class="st0 area included" d="M493.9,80.8v-2.1l1.3-1.2l-0.6-0.8h-3.8l-0.7-2.5l2.3-1.2l1,0.3l9.3,0.4l3,1.4l2.5,0.3l0.2,0.3
		l0.3-0.2l0.4,0.1l0.1-0.1v0.1l0.9,0.3l1.2-0.2l0.1,0.9l-2,1.4l-1.9,0.5l-2.2,3.1l0.9,1.5l-1.3,0.9l-0.3,1.5l-1.7,0.6l-0.7,1.3
		l-4.2,0.1l-1.6,1.3l-1.4-0.4l-0.6-1.4l-1.6-0.5l0.9-3.9l-1-1.4L493.9,80.8L493.9,80.8z M496.3,89.4l0.2,0.1l-0.1,0.1L496.3,89.4
		L496.3,89.4z M500.6,90.9l-0.1-0.2L500.6,90.9L500.6,90.9z M479.5,106.1l1.4-2.1l-0.3,1.7L479.5,106.1z M479.4,106.1L479.4,106.1
		L479.4,106.1z M479.4,106.1l-1.5,0.5l-3.6-0.5l2.3-1l1.3,1.2C477.9,106.3,479.4,106.1,479.4,106.1z" title=""></path>
	<path id="_62" class="st0 area included" d="M322.9,102.9v0.3l0.4,0.1l0.8,2.5l0.9,2.6l0.3,0.6v0.5l1.5,1l2,0.3l-1.5,3.1l-1,3.8l0.6,4.5l2,4
		l2.3,1.3l4.9-1l1.9-1.2l1.6-3.9l4.3-1.2l2.5,0.9l-1.2,1.5l-1.7,4.8l-0.8-0.5l-1.2,1.3l-0.6,0.2h-3.3l-1,1.2l1.7,1.9l-2.6,0.6
		l-1.3,3.3l-2.7-3.3l-1.6-0.8l-3.4,1.6l-3.9-1.9l-4-1.5l-1.2-1.3l-3-0.9l-2.4-2.1l-0.9-2.2l0.9-0.5l-1.8-1.7l1.8-0.4l-0.3-2.1
		l-3.6-5.6l-1.7-1.1l0.4-2l-1.7-1.5l-2-3.4l-0.6-3.9l0.4-0.7l-2.3-1.3l-1.3,3.3l2.2,3.7l1.4,5.7l0.9,1.6l-0.4,1l1.5,0.9l0.3,1.9
		l-0.9,0.8l-0.5-1.4l-2.7-2.7l0.3-2.7l-3.5-2.6l-1-1.9l2,1.1l0.6-1.8l-2.2-2.8l0.1-2.1l-0.7-3.7l4.5-0.4l-0.3,0.5l5.9,2.4l5.1,0.1
		l0.3-1l3,0.1l2.1,2.6l0.2,1.8l2.1,1.5l2.1-2L322.9,102.9L322.9,102.9z" title=""></path>
	<path id="_63" class="st0 area included" d="M500.6,90.9L500.6,90.9l0.1,0.3l1.1,0.1l0.9,0.8l0.1,3.2l1.1,1.5l-0.3,0.9l-2.2-0.1l-2.1,1v2l-3.9,2.3
		l-3.3,0.5l-2,1.5L490,107l-0.2,1.2l-1.7,0.5h-3.1l-1.2,1.8l-0.8,2.6l-3,3l-0.4,2.3l-1.2,1.9h-3.9l2.7-5.5l1.4-1.5l0.9-3.1l1.6-1.1
		l1.3-2.7l2.7-0.9l1.7-1.5l1.8-3l-0.3-2.1l1.1-2.5l1.4-1.5l3.1-1.7l1.6-3.7l0.9-0.3l0.1,0.1v0.1l1.7,1.5l2.5-0.4L500.6,90.9
		L500.6,90.9z" title=""></path>
	<path id="_64" class="st0 area included" d="M357.8,162.7l0.3-1.5l1.5-0.9l1.4-2.4l-0.4-3.9l0.3-2.1l-0.9-1.5l1.5-1.5l-0.3-1.5l0.8,0.3l2.6-2
		l0.3-2.4l2.7-1.6l1.5,0.2l3.4-2.5l0.3,1.3l-1.2,0.4l-2,2.6l-0.3,2.4l1,2.1l0.4,2.6l3.7,0.3l1.3,1.8l3.6-0.2l-0.8,3.6l1,2.3l-1,1.1
		l1.2,1.1l0.5,2.5l-0.9-1.9l-1.5,0.8l-3.2,0.1v1.4l1.3,0.9l-1.7,0.1v1.6l1.3,2.1l-0.9,6.5l-1.5-0.9l1.2-2.3l-1.6-1l-2.7,0.5
		l-1.5-0.5l-0.9-2.1l-3.1-2.4l-2-1.2l-2.1-0.4L357.8,162.7L357.8,162.7z" title=""></path>
	<path id="_65" class="st0 area included" d="M571,190.4v-0.2l-0.1-0.2l-0.3-0.1v-0.2l-0.1-0.1l-0.3-2.7l-0.3-0.5l-0.2-0.2l-0.1-0.1l-0.1-0.2h-0.1
		l-0.3,0.1v0.3l-0.9-0.3l-0.9-0.3l-1.7-0.8l-1.5-1l-2.1-5.7l-0.5-3.1l2.1-2.6l-0.4-1.8l0.5-1.7l-0.7-1.1l0.7-0.2h1.8v0.1l0.1-0.1
		l-0.3,2.9l2.9,0.3l1.2-0.6l-0.5-1.1l0.9-1.4l6.7,4.3l0.3,1.3l2.6,2.1l1.3,1.2l-1,1l0.4,1.5l-0.5,4.9l0.8,2.4l1.1,1.4l-5.6,2.7
		L571,190.4L571,190.4z" title=""></path>
	<path id="_66" class="st0 area included" d="M397.9,281.5l0.3,0.2H398L397.9,281.5z M397.9,281.5l-1.8-4.4l2.7,2.6l5.4,2.1l-2.7,0.3L397.9,281.5
		L397.9,281.5z M402,230l-0.4,3.7l0.2,1.1l0.1,3.9l3.1,2.5l-0.3,0.9l1.7,2.1l-1,2.7l-2.3,1.2l-5.4,1.1l0.5,0.3l0.3,3.1l-2.4,0.6
		l-2.1-0.9l0.4,2.6l1.1,0.9l1.1-0.7l0.8,1.4l-2.4,1.9l0.3,3.1l-0.9-0.3l-1.5,2.6l2,1.8l1.4,0.1l0.7,2.1l-1.9,2.1l0.2,2l-1.3,0.7v1.4
		l2.3,2.7l-2.7-0.7h-3.2l-1.3-0.9l-0.5-1.9l-1.4,0.2l-1.7-2.5l1.2-2.5l-0.8-0.9l0.5-2.6l-0.9-2l0.5-0.9l-1.7-1.3l0.1-1.7L383,257
		l0.1-1.9l-1.3-2.8l-0.2-3.6l0.8-0.5l-1.1-2.1l-0.4-2.7l0.9-0.9l-0.5-1.9l0.6-2l-1-2.9l-1.6-2.8l0.1-4.6l1.5-4.8l0.9-0.4l-1.1-4.5
		l2.1-1.6l-0.1-2.5l1.5-2.2l3.2,0.9l0.6,1.5l0.5-1.9l2.4,0.5l3.4,3.3l1.8,0.4l4.9,3.1l-1.5,3.9l5.2,0.3l1.5-1.7l0.1-2.2l1.3,0.1
		l0.5,3.3l-3.3,2.3L402,230L402,230z" title=""></path>
	<path id="_67" class="st0 area included" d="M593.5,105.2l1.1,2l2.5,2l0.2,2l1.5,2.1l0.3,0.3l0.4-0.1l0.2,0.3l0.1-0.3h0.1l-0.2,0.7l0.5,0.1
		l2.1,2.8l4.9,0.5l0.9,1.5l-0.9,4.2l-5.3,2.1l-5.2,0.8l-1.7,1l-1.2,2.2l-4.3-0.8l-3.7,0.3l-0.6,2.1l-1-2.3l-2.1-2.7l-0.6-1.7
		l-2.6-2.1l-1.1-1.8l-0.2-2.7l-1.3-2.6l-1.8-1l-0.7-2l-4.5-6.3h-0.9l0.4-2.7l2.1,0.3l3.2-2.7l-2.1-2.1l3.8-1.4l2.4,0.4l3.2,1.8
		l5.1,3.9l3.3,0.3l1.7,0.2L593.5,105.2z" title=""></path>
	<path id="_68" class="st0 area included" d="M599.7,113.5L599.7,113.5h-0.3l-0.4,0.1l-0.3-0.3l-0.3-1.6l1.4-0.8L599.7,113.5L599.7,113.5
		L599.7,113.5z" title=""></path>
	<path id="_69" class="st0 area included" d="M389.2,127.5H389H389.2z M511.2,57.1h1.5l-0.7,0.3L511.2,57.1L511.2,57.1z M512.7,57.1l-0.7-0.5
		l1.5-3.3l1.2-0.5l2.5,0.4l-0.2,2.1l-1,0.9l-0.5,2.2l-1.6-1.5L512.7,57.1L512.7,57.1z" title=""></path>
	<path id="_70" class="st0 area included" d="M601.9,125.5l1.6,3.6l0.8,1.4l-1,0.4l-0.4,1.7l-4.8,1.9l-1.5,1.5h-1.3l-2.4,1.4l-1.6,0.1l-3.4,1.6
		l-1.4-1.3l-1.2-5V131l0.6-2.1l3.7-0.3l4.3,0.8l1.2-2.2l1.7-1L601.9,125.5z" title=""></path>
	<path id="_71" class="st0 area included" d="M608.5,111.3l0.2,0.2l0.2,1.2l-1,0.2l-0.7,4.7l-4.9-0.5l-2.1-2.8l4.7,0.3l3.2-4.1l0.2,0.9L608.5,111.3
		L608.5,111.3z M608.6,112.2l0.2-0.2h-0.3L608.6,112.2L608.6,112.2L608.6,112.2z" title=""></path>
	<path id="_72" class="st0 area included" d="M579.3,175.8l-2.6-2.1l-0.3-1.3l-6.7-4.3l0.3-1.7l-0.4-1l1.8-3l-0.1-1.7l-1.9-3.8l2.7-1.7l0.9,0.9
		l1.7,0.4l2.4,1.7l2.7,0.5l2.2-1.9l2.1,0.6l-1.7,2.5l0.1,7.9l1,1.7l-2.6,2.3L579.3,175.8L579.3,175.8z" title=""></path>
	<path id="_73" class="st0 area included" d="M550.7,79.3l0.9-1.5l-0.6-0.6l1.1-0.8l1.7,0.3l2.1,1.5l-2.7,0.5l-1.4,1.1l4.3,0.1l-0.1-1.7l3.5,0.3
		l3.3-2l4.6,0.6l2.9,1.5l4.6,0.3l2.1-1.2l2.1-0.2l1.3,1l0.8,2.1l2.1,0.7l0.1,0.2l-1.3,0.5l0.9,3l1.2,1.8l-3.7-0.4l-0.5,0.5l-0.3-0.4
		l-4.1,1.2l-5.5-0.2l-1,2l-0.2-2.1l-2.5,0.3l-2.9,1.5l-1.5-1.1l-2.4-0.7l-0.4,1.4l-1.2,0.3l-2.7-2l-2-0.7l-0.1-1.4l-1.8-0.6l1.3-1.4
		l-2.6-2.6l1.8-0.9L550.7,79.3L550.7,79.3z" title=""></path>
	<path id="_74" class="st0 area included" d="M727,157h-0.4l0.1-0.1l-0.3,0.1l-3.3-0.5l-0.6,2.9l-1.7,3.3l-1.6,0.5l-1.2-0.8l-1.6,0.9l-2.9,0.6
		l-1.7-1.6v-1l2.6,1.1l0.5-2.6l3.2-0.8l1.7-3.1l1.1,1.2l0.7-1.8l0.1-0.1v0.2l0.7,1.1l-0.4-1.3l3.4-4.8l0.3,1.1l3.9,3.1l-2.1,0.7
		l0.9,1.1l-1.4,0.3L727,157L727,157z M693.4,152.1l1.8,0.4l0.2,1.3l1.7-1.3l2.7,3.1l0.1,3.9l1.6,3.3l-1.7-0.3l-2.8-1.8l-2.3-3.2
		L693.4,152.1L693.4,152.1z" title=""></path>
	<path id="_75" class="st0 area included" d="M693.4,118.2l0.5-0.8l2.8,0.5l2.2-1.8l2.3,0.9l0.8,2l2.5,1.1l-3.1,3.2l-0.4,2.1l2.3,3.2l4.6,4.5l2,5.3
		l-0.5,3.3l-3.1,2.1l-0.9-0.4l-0.5,2.2l-3,1.3l-0.3-2.7l-0.7-0.5l2.3-1.2l3.1-2.8l-0.6-5.1l0.1-1.2l-2.6-3.7l-3.9-3.8l-1.8-1.1
		l1.8-1.6l-1.9-1.9l-1.7,0.2l-0.5-1.5L693.4,118.2L693.4,118.2z" title=""></path>
	<path id="_76" class="st0 area included" d="M351.3,145.4l0.9,1.4l1.9,0.3l2.8-1.6l2.9,0.8l1.2,1.2l0.3,1.5l-1.5,1.5l-1.1-2.8l-0.9-0.9l-2.7,1.9
		l0.9,1.4l-1.6,0.5l-1.6-2l-2.1,0.3l-0.3-0.7h0.1L351.3,145.4z" title=""></path>
	<path id="_77" class="st0 area included" d="M591,84l0.6,1.5l5.5,2.5l3.6-0.5l-0.3-1.1l2.3-1.6l3-0.3l3.1,1.2l3.2,2.3l1.5,0.2l0.5,2.1l-0.1,5.5
		l1,3.3l1.6,0.3l0.4,1.1l-1.4,2.1l2.3,2.8l1.6,0.6l1.1,3.4l-2.1,0.9l-0.2,2.2l-3.2-0.3l-4.8-0.9l-1.3-2.9l-3.5,1.4l-2-0.4l-2.6-2
		l-2-0.6l-3-4.8l-2.1-0.4l-0.6,0.9l-1.9-2.1l0.1-1.6l-0.9-1.4l-2.2-1.2l-1.9-2.1l1.1-3.9l-1.9-0.4l-1.4-2.5l-1.2-1.8l-0.9-3l1.3-0.5
		l1.4,1.3l1.3,0.3l0.3-0.2l0.3,0.1l2.2-1.7l0.4,1.9L591,84L591,84z" title=""></path>
	<path id="_78" class="st0 area included" d="M372.8,126.5L372.8,126.5L372.8,126.5L372.8,126.5z M372.7,126.3v0.3h0.2l0.3,0.4l-0.3,0.5l-0.4-0.4
		l-3.6,0.2l-0.2-1l2.6,0.4l0.2-2.1l-1.2-0.8l3.1,0.2l-0.1,2L372.7,126.3L372.7,126.3z" title=""></path>
	<path id="_79" class="st0 area included" d="M372.8,126.4l-0.1-0.2l0.6-0.3l0.1-2l1.5-0.5l1.9,0.6l0.5,1.2l2.2,0.9l-1.1,0.5h-3.3l-1.5,1.7
		l-0.6-0.9l0.3-0.5L372.8,126.4L372.8,126.4L372.8,126.4z" title=""></path>
	<path id="_80" class="st0 area included" d="M477.8,142.5l-1.7-1.4l-1.5-1.5l2.9-0.8l2.7,0.1v2l-1.8,0.5L477.8,142.5L477.8,142.5z" title=""></path>
	<path id="_81" class="st0 area included" d="M537.4,75.8l-1.2-0.9l-0.3-0.1l0.4,0.1l1,0.5v0.2L537.4,75.8L537.4,75.8z M528.7,69.3l2.9,0.1l0.3-1.5
		l1.5-0.6l1.5,1.1h2.7l0.3,1.7v0.7l-0.6-0.6l-4.9-0.3l-0.1,1l3.5,3.8l-1.6-0.3l-2.7-2.2l-1.5-2.6l0.3,1.7L528.7,69.3z" title=""></path>
	<path id="_82" class="st0 area included" d="M697.1,152.5l-1.7,1.3l-0.2-1.3l-1.8-0.4l-2.5-3.4l-1.4-1l0.8-3.9l1.4-3.1l-1.2-2.7l-0.1-1.4l-2-2.3
		l0.8-2.9l-3.3-5l0.7-2.7l0.9,0.3l2.7-1.4l0.9,1.6h1.5l0.3,4.5l1.5-1.6l1.7,0.4l1.8-0.7l1.9,2.1l0.1,1.8l1.8,1.7l-0.4,2.9l-3.9,0.1
		l-1.2,1.5l1.5,4.1l-2.2-2.1l-1.5,0.1l-0.3-1.8l-1.8,0.4l0.3,2.2l-1.2,5.2l1.5,1.1l1.2,3.7L697.1,152.5L697.1,152.5z" title=""></path>
	<path id="_83" class="st0 area included" d="M548,40.9l0.2,0.1l0.2,0.2l-0.1,0.1h-0.2h0.1H548l-0.1,0.3l-0.2,0.3l-1.1,0.3l1.4,1.5l-0.1,0.4
		l-0.2,0.5l-3.3-1L543,44l-3.8-2.1l5.2-1.5L548,40.9z" title=""></path>
	<path id="_84" class="st0 area included" d="M560.6,172.9l-0.3,3.7l0.8,3.4l1.9,3.3l-3.1,0.6l-1.1,1.3l0.3,0.6l0.3,0.9l-0.8,3.5l1.3,2l1.4-0.4
		l-0.1,2.7l-1.1,0.1l-1.5-2.1l-1.3-0.3l-0.8-1.5l-0.9,0.9l-2.5-0.8l-0.1-0.9l-1.9,0.4l-0.6-1.1l-3.3,0.8l-0.1-2.7l-0.7-1.1l0.1-4.5
		l-4.3-0.6l-0.3,2.1l-3.3,0.2l-1.1-1.7l-0.7-2.9l-6.4-0.2l-1.5,0.4l-0.3-0.6l0.4-1.5l1.2-0.9l0.6,0.5l1.8-1.3l0.9,1.2l2.7-3.3v-2.5
		l2.8-3.4l0.6-5.7l1-2.7l-0.2-1.8l2.2-1.7l1.6,1.5l3.6,0.5l0.8-1.4l1,0.3l3.9-1.5l3.5,0.6l1.7,1.7l2.7-0.6l2,2.2l-0.3,2.2l1.1,0.6
		l-1.5,1.5l-0.1,0.5l-0.9,0.9l-0.5,1.9l-0.7,1.1l0.6-0.3l-0.2,0.9l0.1,1l-0.4,0.3l-0.3,0.3l-0.6,0.6l-0.1,1.1v0.3l0.3,0.2l0.4,0.7
		L560.6,172.9L560.6,172.9z" title=""></path>
	<path id="_85" class="st0 area included" d="M593.5,105.2l-1.9-1l-1.7-0.2l0.9-1.9h1.5l0.4,1.4L593.5,105.2L593.5,105.2z" title=""></path>
	<path id="_86" class="st0 area included" d="M519.4,50l0.3-0.1l0.9,0.3l3.3,1.8l2.7-1.5l1.7,1.5l-0.1,0.1h0.1l-0.6,0.1l0.7,0.3l0.9,2.2l0.5,3.5
		l-3.6,0.9l-0.2,1.4l2.5,2.1l-1.6,1.3l0.1,0.9l-2.9,0.6l-2.1-0.3l-1.1-0.5l0.3,0.3l-1.2,0.2h-1.5l0.9-2.8l-3.1-1l0.3-0.7l-0.6-0.7
		l0.3-0.4l-0.6-0.9l0.5-2.2l1-0.9l0.2-2.1l0.2-0.9L520,52L519.4,50L519.4,50z M521,64.8L521,64.8L521,64.8z" title=""></path>
	<path id="_87" class="st0 area included" d="M528.5,62.5l-2.5-2.1l0.2-1.4l3.6-0.9l2.7,0.6l3.7,1.4l0.5,0.9l-1.1,0.9l-1.8,1l-3.3-0.8L528.5,62.5
		L528.5,62.5z" title=""></path>
	<path id="_88" class="st0 area included" d="M494.5,49.6l-1.5,1.3l3,0.7l0.3,2.3l-0.7,1.6l-1.7,0.1l-3.9,1.4l-0.9-0.9l2.4-2.8l-1.1,0.1l-0.3-2.2
		l2.1,0.2l0.7-1.9L494.5,49.6z" title=""></path>
	<path id="_89" class="st0 area included" d="M675.7,121l0.6-0.5l-0.3-1.4l0.9-0.9l-0.3-3.4l1.5,0.3l0.9-4l-0.3-1.5l2.7-1.9l0.7-1.8l0.3-0.7
		l2.5,2.1l0.8,3.5l-1.5,1.8l0.3,2.6l1.7-0.5l0.8,2l1.2,0.3l-0.3,1.9l1.5,0.3l0.7,1.3l1.7-0.3l-0.7,0.5l-0.9,2.1l-2.7,1.4l-0.9-0.3
		l-0.7,2.7l3.3,5l-0.8,2.9l2,2.3l0.1,1.4l1.2,2.7l-1.4,3.1l-0.9-6l-1.4-1.5l-1.1-5.1l-1-1.5l-3,2.7l-2.3-0.7l0.3-3.2l-1.2-2.7
		l-1.4-1.1L675.7,121L675.7,121z" title=""></path>
	<path id="_90" class="st0 area included" d="M524.2,163.7l-0.9-0.3l0.9-2.5l0.3,0.3h2.5l0.1,2.5H524.2z" title=""></path>
	<path id="_91" class="st0 area included" d="M565.6,168L565.6,168L565.6,168z M565.5,168h-1.8l-0.7,0.2l-0.9,0.9l-0.7-0.2l-0.1-1l0.2-0.9l0.5-0.7
		l-0.4-0.2l0.5-1.9l0.9-0.9l1.8-1.4l-0.3-0.6l-1.1-0.6l0.3-2.2l1.8-0.7l0.7,0.7l2.5-0.5l0.9-1l1.9,3.8l0.1,1.7l-1.8,3l-1.5-0.1
		l-2.5,0.9L565.5,168L565.5,168z" title=""></path>
	<path id="_92" class="st0 area included" d="M604.1,69.2l-4.1,1.3l2.1,7.5l-0.8,0.2l-2.8-2.2l-2.7,1.2v-2.1l-1.4-0.2l-3.7-3.8l1.5-1.5l1.9-0.2
		l0.6-1.2l-0.5-1.9l-3.2-0.4l-2.9,1.6l-2.7-3l-1.5-0.1l-1.4-1.3v-2.9L583,59l1.8,1.3v-1.5l2.4-2.1l4.5,0.3l4.4,2l1-1.1l3.4,0.1
		l2.2,1l2.5-0.5L605,57l-2.5-0.9l0.3-1.6l1.9-0.9l-2.3-1.5l6.3-0.9l4.1-1.3l-0.1-0.4l3.9-0.3l1.6,2.4l3.8,0.3l1.5,0.7l3.1-1.7l0.2,1
		l2.8,1.4l5.7,5l0.7-0.9l1.8,1.1l3-0.5l4.4,2.9l2.1-0.1l1.7,1.1l-2,1.4l0.8,2.8l-1,0.5l-3.2-0.8l0.2,3.4l-3.3,1l2.7,4l-0.3,2
		l-3.5-1.4l-5.6,0.1l-2-0.9l-0.5,1.7l-3.2-0.9l-1.1,1.2l-2.7,1.8l-0.3,1.6l-1.5-1.3h-2.2l-2.6-3.4l-2-1.7l-4.8,0.4l-4.2-2.7
		l-0.9-2.4l-1,0.4l-0.2-0.3l-0.2,0.3L604.1,69.2L604.1,69.2z" title=""></path>
	<path id="_93" class="st0 area included" d="M727.4,85.3l0.3-1l1.8-0.7l3.1,2.9l1.9,3.8l-0.7,1.7l-1.5-0.4l-2.7,1.3v-3.2l-2.1-2.1l0.9-0.6
		C728.3,87,727.4,85.3,727.4,85.3z" title=""></path>
	<path id="_94" class="st0 area included" d="M737.8,185.7l0.3-0.3l0.4-0.1l-0.4,0.7L737.8,185.7z M739.5,184.9l0.4-0.7l4.1-0.5l-4.4,2.3l-0.2-0.6
		V184.9L739.5,184.9z" title=""></path>
	<path id="_95" class="st0 area included" d="M490,107.8l5.7,3.9l1.2,0.9h-3.2l1.8,20.1l-9.7,0.2l-1.9-0.3l-1,1.6l-3.8-3.9l-3.8,0.4l-0.3,1.4l1-4.6
		l-0.9-3l0.7-1.8l-1.3-2l-0.3,0.9l0.3-1.2h7.3v-3.6l1.9-0.9l0.2-5.4h6L490,107.8L490,107.8z" title=""></path>
	<path id="_96" class="st0 area included" d="M497,112.7l-1.2-0.9l-5.7-3.9V107l0.1-2.1l2-1.5l3.3-0.5l3.9-2.3v-2l2.1-1l2.2,0.1l0.3-0.9l-1.1-1.5
		l-0.1-3.2l-0.9-0.8l5.8-3l3.3-0.7l3.3-0.3l0.9,0.6l3.8-0.9l2.1,0.3l-0.5,5l-1.3,1.6l1.5,2.9l1.3,0.9l1,3.9l0.6,2.3l0.1,5.6
		l-0.8,0.9l1.2,2.7l2.8,1.2l0.8,1.6l-8.1,5.7l-3.1,3l-2.9,0.7h-2.1l0.3-1.4l-2.5-0.9l-1.4-1.9L497,112.7L497,112.7z" title=""></path>
	<path id="_97" class="st0 area included" d="M377,198.8l-1.2,0.8l1.8,0.8l0.1-0.1l0.2,0.1l-0.2,0.5l0.1,0.2l-1,1.5l0.3,0.5l-0.7,1.5l-0.8,0.2
		l-2.2-2.2l-7.3-4.1l-2.3-2.7v-1.5l-2.9-4.5l-2.9-6.5l-2-3l-2.1-1.5l-0.4-3.9l1.6-1.8l-0.3,1.5l2.7,2l1.2-3.3l3.2-1.8l2.1-2.2l0.5-3
		l3.1,2.4l0.9,2.1l1.5,0.5l2.7-0.5l1.6,1l-1.2,2.3l1.5,0.9l-1.5-0.2l-3.9,2.1l-0.3,2.7l-1.5,2.4l3.7,5.2l1.8-0.1l1.2-1.1v3.3l2-0.1
		l1.9,3.3l-0.6,2.5l0.5,1.1L377,198.8L377,198.8z" title=""></path>
	<path id="_98" class="st0 area included" d="M528.7,178.1v-0.6l-0.4-0.9l1.5-1.4l0.6,0.5l-1.2,0.9L528.7,178.1L528.7,178.1z M527.6,202.5v-3.1
		l1-2.2l0.4-2.8l2.1-2.5l0.3-3.3l-1.5-3.3l0.8-1.6l-2.1-4.7l1.7-0.6l6.4,0.2l0.7,2.9l1.1,1.7l3.3-0.2l0.3-2.1l4.3,0.6l-0.1,4.5
		l0.7,1.1l0.1,2.7l3.3-0.8v4.5h-3.8l-0.2,6.7l2.5,3.2l-4.8,0.9l-3.8-0.6l-0.6-0.8h-8.3l-1.5-0.9L527.6,202.5L527.6,202.5z" title=""></path>
	<path id="_99" class="st0 area included" d="M570.7,194.5l-0.2-2.7l0.5-1.4l4.7,0.3l5.6-2.7l0.4,9.2l-1.9,3.4l-5.4,3.2l-4.3,4.2l-0.5,1.2l1.4,3.6
		l-1,5.3l-4.2,2l-0.8,0.9l0.6,1.9l-1,0.1l-0.4-0.1v-1.2L564,221l0.3-3.3l-1.1-4.3l2.2-2.3l1.2-2.7l-0.3-1.2l0.6-2.3v-3.6l-4.7-2.2
		l-0.3-1.4l5.7-2.1l0.8,1.3l1.3-0.5l0.3,2l-0.7,1.2l1.9,2.7L571,201l1.3-1.1l0.3-2.9L570.7,194.5L570.7,194.5z" title=""></path>
	<path id="_100" class="st0 area included" d="M349.6,142.6l0.3,0.9l1.5,1.9l-0.9,2.7l-0.3-0.6l-2.7-2.1l-0.9,0.2l-1.3-1.7l0.4-1.5l2.5,0.2
		C348.3,142.4,349.6,142.6,349.6,142.6z M350.6,148.8l-0.3-0.7h0.1L350.6,148.8z" title=""></path>
	<path id="_101" class="st0 area included" d="M342.2,137.3l-1.8,0.3l-2.4-1v-0.2l1.5-1.3l3,1.3L342.2,137.3z" title=""></path>
	<path id="_102" class="st0 area included" d="M340.7,132.1l0.5,0.3h0.7l-1.9,1.4l-0.5,1.4l-1.5,1.3v0.2l-2.2-0.4l-1.5-1.3l1.3-3.3l2.6-0.6l-1.7-1.9
		l1-1.2h3.3l-0.6,4.1H340.7L340.7,132.1z" title=""></path>
	<path id="_103" class="st0 area included" d="M340.7,128l0.6-0.2l1.2-1.3l-0.3,3.3l-1.5,2.3h-0.6C340.1,132.1,340.7,128,340.7,128z" title=""></path>
	<path id="_104" class="st0 area included" d="M393.5,147.7l-2.7,5.6l1.1,1.5l-1.5,2l-5.8,0.6l0.9,0.9l0.3,2.4l1.2,0.1l-1.5,1.8l-2.7,2l-2.5-1.2
		l-0.5-2.5l-1.2-1.1l1-1.1l-1-2.3l0.8-3.6l-3.6,0.2l-1.3-1.8l-3.7-0.3l-0.4-2.6l-1-2.1l0.3-2.4l2-2.6l1.2-0.4l-1.1,0.5l0.5,1.9
		l-1.1,1.9l1,1.6l1-1.5l-0.9-2.2l3.2-1.5l2,0.2l1.6,2.1l3.6-0.2l1.4-0.9l1,1.5l1.3-0.9l2.6-0.3l0.6,2.2l1.3-0.4l1.5,1.3l-0.6,1.1
		L393.5,147.7L393.5,147.7z" title=""></path>
	<path id="_105" class="st0 area included" d="M391.9,154.8l-1.1-1.5l2.7-5.6l1.6,1.1l3.5,4.1l-0.2,1.3l-1.6,2.8l2.9,4.7l-1.1-0.2l-3.3,1.8l-1.7-1.5
		l-0.5-1.8l0.9-2.7l-1-1.2l0.3-1.2L391.9,154.8L391.9,154.8z" title=""></path>
	<path id="_106" class="st0 area included" d="M339.5,135.2l0.5-1.4l1.9-1.4l4.4-0.6l3,0.4l2,1.7l-3.6,0.6l-1.5,1.5l-1.9,0.4l-1.3,1.7l-0.3-0.7
		l-0.6-0.3l0.3-0.9L339.5,135.2L339.5,135.2z" title=""></path>
	<path id="_107" class="st0 area included" d="M345.8,142.3l-3.3-3.8l0.6-0.3l1.3-1.7l1.9-0.4l1.5-1.5l3.6-0.6l-1.1,3.3l-0.6,5.3l-1.3-0.2
		C348.3,142.4,345.8,142.3,345.8,142.3z" title=""></path>
	<path id="_108" class="st0 area included" d="M570.7,189.8L570.7,189.8L570.7,189.8z M569.9,186.5l-0.2-0.2L569.9,186.5z M569.6,186L569.6,186
		L569.6,186z M567.4,185.9l0.9,0.3l0.9,0.3l0.6,4.2l-0.5,1.5l0.4,2.1l1.6,2.2l-0.7-2l1.8,2.5l-0.3,2.9L571,201l0.3,1.2l-1.9-2.7
		l0.7-1.2l-0.3-2l-1.3,0.5l-0.8-1.3l-0.7-0.7l1-2.5l-0.1-3.5l0.9-0.6L567.4,185.9L567.4,185.9z" title=""></path>
	<path id="_109" class="st0 area included" d="M603.6,76.8l1.5,0.5l-0.6-1l1.2-1.3l2.5,1l0.9,1.9l3.4,0.8l1.4,2.1l6.4,3.7l1.8,0.4l0.3,1.5l-2.5,0.3
		l-0.5,2.1l-3.3,2.5l-2.1-1l-0.5-2.1l-1.5-0.2l-3.2-2.3l-3.1-1.2l-3,0.3l-2.3,1.6l-0.6-3.3l-1.6-1.4l0.4-0.9l-1.6-0.4v-1.5l1.5,0.7
		l1.5-1l-1.9-2l-2.4,0.7l2.7-1.2l2.8,2.2l0.8-0.2l1.8,0.2L603.6,76.8L603.6,76.8z" title=""></path>
	<path id="_110" class="st0 area included" d="M559.1,185.8l1.2-1.5l-0.4-0.3l3.1-0.6l0.9,1.2l0.3-0.4l1.5,1l1.7,0.8l1.4,2.5l-0.9,0.6l0.1,3.5
		l-1,2.5l0.7,0.7l-5.7,2.1l0.3,1.4l-2.8,0.9l-0.3,1l-1.2,0.7l-1.1,0.6l-1,1.8l-0.6,0.3l-2.7-0.6l-1.9-0.7l-1.5,0.3l-2.5-3.2l0.2-6.7
		h3.8V189l0.6,1.1l1.9-0.4l0.1,0.9l2.5,0.8l0.9-0.9l0.8,1.5l1.3,0.3l1.5,2.1l1.1-0.1l0.1-2.7l-1.4,0.4l-1.3-2l0.8-3.5L559.1,185.8
		L559.1,185.8z" title=""></path>
	<path id="_111" class="st0 area included" d="M565.8,91.3l-0.3,0.1l-0.2-0.1l-0.5-0.3l-1.2,0.1l3.2-1.1l-0.9,1.4L565.8,91.3
		C565.9,91.3,565.8,91.3,565.8,91.3z" title=""></path>
	<path id="_112" class="st0 area included" d="M564.2,222.9l0.4,0.1l1-0.1l-1.2,3.7l-2.3,2.1l-1.7,2.7l-3,3l-3.3,2.7l-4.1,1.4l-4-0.3l-1.3,0.7
		l-4,0.9l-2-2l-1-2.1l0.8-0.4v-2l-1.5-2.9l-1.3-3.8l0.8-1l0.9,1.4l3.1,0.5l1.6-1.1l0.3-7.9l1.5,3l-0.3,1.6l1.7-0.1l2.1-1.9l0.6-1.5
		l3.3,1.1l1.4-0.4l0.6-1.9l1.9-1l0.3-1.3l2.3-2.1l2.1-1l1.7,0.3l1.8,0.2l1.1,4.3L564,221l-0.9-0.4l-1.3,1.4l0.5,1.7l1.5,0.3
		L564.2,222.9L564.2,222.9z M554.6,228.8l1.7,2.2l2.7-2.8l-1.3-1.6L554.6,228.8L554.6,228.8z" title=""></path>
	<path id="_113" class="st0 area included" d="M539.1,49.3l-0.3-0.9l-0.3-0.8l1.5-0.7l5.7,0.5l1.5,1l-1.3,2.7l-3,0.7l-0.1-0.4l-1.2-0.4l-0.1-1
		C541.6,50,539.1,49.3,539.1,49.3z M538.5,49.3l0.3-0.5l-0.1,0.5H538.5L538.5,49.3z" title=""></path>
	<path id="_114" class="st0 area included" d="M583.8,141.8l-0.2,0.2l0.2,0.3l0.3,0.3l1.8-0.1l-0.4,0.8l1.5,2.6l1.2,0.9l5.6,2.1h1.9l-5.6,6.5
		l-1.8-0.1l-3.9,2.1l-2.1-0.6l-2.2,1.9l-2.7-0.5l-2.4-1.7l-1.7-0.4l-2.3-4.3l-2-2.1l-1.2-0.3l0.2-1.4h1.5l0.2-2.2l0.9-3l0.5,0.3
		l1.4-3.9l0.9-0.3l0.7-3.3l2.5-1.3l5.6,1.6l3,3.5l-1.1,2L583.8,141.8L583.8,141.8z" title=""></path>
	<path id="_115" class="st0 area included" d="M508,152.9l-6.2,2.8L500,155v-0.1l0.3,0.1l0.3-0.2l-0.7-3.6l1.4-2.9l-0.3-2.7l-0.2-3.3l4.9-0.3
		l0.9,1.9l0.3,7.2L508,152.9L508,152.9z" title=""></path>
	<path id="_116" class="st0 area included" d="M528.7,69.3L528.7,69.3l0.2-0.2l-0.7-1.5l0.5-0.5l1.5,0.3l2.5-1h0.3l0.5,0.8l-1.5,0.6l-0.3,1.5
		L528.7,69.3L528.7,69.3z" title=""></path>
	<path id="_117" class="st1 area included" d="M535.8,74.9l-0.2-0.2h0.1l-3.5-3.8l0.1-1l4.9,0.3l0.6,0.6h0.6v2.7l-1.2,1.1l0.1,0.9l-1-0.5L535.8,74.9
		L535.8,74.9z" title=""></path>
	<path id="_118" class="st0 area included" d="M569.4,99.7l0.2-0.2l-0.3-0.1v-0.1l0.1-0.1h0.2l-0.1-0.9l-0.2-1.9l0.3-0.2l2,0.9l3.3-2.2l0.7,1.9
		l0.3,0.8l-3.8,1.4l2.1,2.1l-3.2,2.7l-2.1-0.3l0.1-0.3l-0.1-0.1l0.2-1.8L569.4,99.7L569.4,99.7z" title=""></path>
	<path id="_119" class="st0 area included" d="M574.9,94.9l-3.3,2.2l-2-0.9l0.2-0.4l-0.3-1l1.2-1.7l-1.2-0.9l-0.3-1.6l-0.1-1.1l1-2l5.5,0.2l4.1-1.2
		l0.3,0.4l-1.5,1.3l0.3,3.8L574.9,94.9L574.9,94.9z" title=""></path>
	<path id="_120" class="st0 area included" d="M518.5,73.1L518.5,73.1l-0.2,0.1L518.5,73.1L518.5,73.1z" title=""></path>
	<path id="_121" class="st0 area included" d="M541.9,79L541.9,79L541.9,79z M538.9,76.5v-0.3V76l0.5-0.7l0.6,0.3l0.9,0.7l0.2,0.7L541,78l0.3,0.5
		l0.1,0.3h0.4V79l0.1,0.1l-0.1,0.2l0.1-0.1v0.1l0.1,0.2h0.1l-0.6,1.2l-1,0.7l-1.4-1.8L539,77l-0.1-0.3V76.5z" title=""></path>
	<path id="_122" class="st0 area included" d="M410.8,235.2l-0.7,1l0.3,0.9l0.1,0.2l0.3,0.2l-0.4,1.5l-1.8,1.1h-2.2l-3.2-0.9l-1.2-1.2l-0.3-3.2
		l-0.2-1.1l0.4-3.7l1.4-0.2l1.8,2.1l0.7-0.4L410.8,235.2L410.8,235.2z" title=""></path>
	<path id="_123" class="st1 area included" d="M566,91.3h-0.2H566z M563.4,91h0.2H563.4L563.4,91z M563.7,91L563.7,91L563.7,91z M565.4,91.3
		L565.4,91.3l0.1,0.2L565,91h-1.3l1.2-0.1L565.4,91.3z" title=""></path>
	<path id="_124" class="st0 area included" d="M700.2,64.6l0.5-0.3l-0.3-0.2h1.3l3.6,2.2l-4.8,1.2l-0.5,1.8l-1.8,0.2l-0.9,1.5l-3.3-0.7v1.3l1.7,1.5
		l-2.8,2.6l-4.5,0.3l-2.1,1.1h-2.6l-4.3-1.5l-9.3-0.4l-3.2-3.3l-4.4-1.6l-4-0.4l-1-2.8l-2.1-2.2l-4.8-1.9l-0.9-1.3l5.7-3.5l3.4,0.6
		l1.1,1.1l4.8,0.6l0.7-1.6l-1.4-0.9l0.4-2.3l6.3,1.6l0.9,1.5l2.8,1l2.3-0.8l4.9,1.1l1.7,1.3l3.9,0.4l3.3-0.9l1.1-1.5l4.5,0.9
		l0.3,3.5l1.1,0.9L700.2,64.6L700.2,64.6z" title=""></path>
	<path id="_125" class="st0 area included" d="M560.3,171.6l-0.3-0.2v-0.3l0.9-0.9l-0.3-0.8l0.3-0.3l0.4-0.3l0.7,0.2l0.9-0.9l0.7,1.1l-0.5,1.7
		l-1.2,0.5L560.3,171.6L560.3,171.6z" title=""></path>
	<path id="_126" class="st0 area included" d="M377.6,200.3l-0.1-0.3l0.3,0.3H377.6L377.6,200.3L377.6,200.3z M377,203.1l-0.3-0.5l1-1.5l0.8-0.5
		l-1.5-1.7l0.7-2.8l-0.5-1.1l0.6-2.5l-1.9-3.3l2.4,0.1l3-2.3l2.1-0.5l0.3,3.2l2.1,2.7l2.5,0.4l2.5,1.9l2.6,0.6l0.9,5.2l3.2,0.1
		l0.3,2.1l1.7,1.9l-0.8,4.3l-1.9-1.9l-4.8,0.8l-0.8,1.9l-0.4,3.6l-2.4-0.5l-0.5,1.9l-0.6-1.5l-3.2-0.9l-1.5,2.2l-1.2-0.1l-0.9-3.3
		l-1.3-1.8l0.4-2.1l-1.1-1L377,203.1L377,203.1z" title=""></path>
	<path id="_127" class="st0 area included" d="M530.8,161.2l-3.7-0.3l-0.1,0.3h-2.5l-0.3-0.3l-0.3-3.3l-2-2l0.5-2.2l3.3-2.7l1.4,1.5l1-1.5l0.6-2.6
		l3.3-6.3l1.1-0.4l0.2-1.5l-1.2-2h0.5l-0.1,0.4l0.4-0.2l1.2,3.1l-0.1,1.5l1.2,1.7h-2.8l-0.4,0.8l2.3,2.5l0.6,2l-2.1,3.2l1.5,4.9
		l1.7,2l0.2,1.3v1l-3-1L530.8,161.2L530.8,161.2z M532.6,138L532.6,138L532.6,138z" title=""></path>
	<path id="_128" class="st0 area included" d="M530.4,175.7l-0.6-0.5l-1.5,1.4l-0.3-0.9l-1.3-1.4l1.4-0.5l-0.5-2.9h1.6v-0.9l3.1,1.3l0.8-4l-1.2-0.9
		l1.1-2.4l-0.3-0.9l-1.9,0.3l0.1-2.1l2.4-0.1l3,1v-1l0.7-2.7l1.7-0.5l2.1,0.5l-1,2.7l-0.6,5.7l-2.8,3.4v2.5l-2.7,3.3l-0.9-1.2
		l-1.8,1.3L530.4,175.7L530.4,175.7z" title=""></path>
	<path id="_129" class="st0 area included" d="M474.3,121.7l-0.1-0.3l0.3-1.2h3.9l1.2-1.9l0.4-2.3l3-3l0.8-2.6l1.2-1.8h3.1l1.7-0.5l0.2-1.2v0.9
		l-0.1,2.7h-6l-0.2,5.4l-1.9,0.9v3.6h-7.3L474.3,121.7L474.3,121.7z" title=""></path>
	<path id="_130" class="st0 area included" d="M537.8,70.7v-0.7l-0.3-1.7l1-0.4l1.1,0.1l2.3,2l-0.1,0.8l2.3,1.3l-0.4,0.9l1.2,1.2L544,76h-0.7
		l-0.6,0.2l0.3-0.9l-1.8-1.2l-0.7,0.9l-1.3-0.7l-0.8-0.8v-2.7C538.4,70.7,537.8,70.7,537.8,70.7z" title=""></path>
	<path id="_131" class="st0 area included" d="M538.4,73.5l0.8,0.8l1.3,0.7l-0.5,0.3l0.1,0.3l-0.6-0.3l-0.5,0.7v0.1h-0.4l0.4,0.4v0.3L539,77
		l-1.1-0.9l-0.5-0.3l-0.1-0.2v-0.2l-0.1-0.9L538.4,73.5L538.4,73.5z" title=""></path>
	<path id="_132" class="st0 area included" d="M510.8,152.3l-1.5,0.2l-0.5,0.2l-0.1-6.1l-0.5-2l-1-0.8l0.3-1.4l1-1l1.7-0.9l0.9-1.1l1.5,1.5l0.4,2.3
		l-2,3.3L510.8,152.3L510.8,152.3z" title=""></path>
	<path id="_133" class="st0 area included" d="M508.9,152.6l-0.3,0.1l-0.5,0.2l-1.2-1.6l-0.3-7.2l-0.9-1.9l1.2,0.3h0.8l-0.3,1.4l1,0.8l0.5,2
		L508.9,152.6L508.9,152.6z" title=""></path>
	<path id="_134" class="st0 area included" d="M690.4,122.7l0.9-2.1l0.7-0.5l1.1,0.9l-0.7-2.3l1-0.3l1.9,1.8l0.5,1.5l1.7-0.2l1.9,1.9l-1.8,1.6
		l1.8,1.1l3.9,3.8l2.6,3.7l-0.1,1.2l-1.2,0.9l-3.1-0.1l0.4-2.9l-1.8-1.7l-0.1-1.8l-1.9-2.1l-1.8,0.7l-1.7-0.4l-1.5,1.6l-0.3-4.5
		h-1.5L690.4,122.7L690.4,122.7z" title=""></path>
	<path id="_135" class="st0 area included" d="M637.2,86.6l-0.9,0.3l0.3,0.2l-3.3,0.4l-2.1,1.7l1.3,1.9l-0.4,2.4h-1.9l0.9,1.5l-1.2,0.5V98l-2,0.2
		l-2.8,2l0.1,2.3l-3.6,0.9l-2.9-0.1l-3.1-0.9l1.4-2.1l-0.4-1.1l-1.6-0.3l-1-3.3l0.1-5.5l2.1,1l3.3-2.5l0.5-2.1l2.5-0.3l1.4,0.3h0.9
		l2.7,0.2l1.3-0.9l0.3-1.7l2.1,0.9l1.1,2.6l2.1-1.6L637.2,86.6L637.2,86.6z" title=""></path>
	<path id="_136" class="st0 area included" d="M542.3,63.2l0.3-0.5l0.3-0.9l0.1-0.9l2.1-2.1l-1-2.1l3.3-0.8l5.9,1.1l3.6-1.5l3.2-0.5l1.1,2.2l1.5,0.1
		l1.4,1.8l2.8-0.2l4.6,1.9l0.3,3.4H570l-0.7,1.5l-3.7,0.9l-1.6,1l1.7,2.1l-2.6,1.7l-2.2-2.7l1.4-0.7l-3.5-0.6l-1-0.8l-2.1,2.9
		l-1.5-0.1l-1-0.4l0.9-2.1l1.9,0.2l-1.8-3.2l-2.7-1.2l-1.8,0.4l-2.1,0.8l-3.9-0.1l-0.5-0.3L542.3,63.2L542.3,63.2z" title=""></path>
	<path id="_137" class="st0 area included" d="M542.8,61.8l-0.3,0.9l-0.3,0.5l-2.7-0.3l-0.9,0.9l-3.3,0.8l-1.2-0.5l-0.6-0.8l0.2-0.4l1.8-1l1.1-0.9
		l4.9,0.3L542.8,61.8L542.8,61.8z" title=""></path>
	<path id="_138" class="st0 area included" d="M643.3,90.4l-1.1,0.9l-0.8-1.2l1.2,0.3H643.3z" title=""></path>
	<path id="_139" class="st0 area included" d="M641.4,90l0.8,1.2l-1.9,1.3l-2.7-0.6l-0.8,0.9l1,2.6l2.8,2.1l-1.3,0.9l0.3,1.3l-1.5,2.5l-0.5,2
		l-1.5,2.2l-1.8,0.5l-0.8-0.7l-1.4,2.7l1.4,0.6l2.1,3.9l-1.8,1.1l-2.1-0.1l-1.1,0.8l-1.5-0.4l-0.5-1.4l-1.9-1.6l-5,0.6h-3.4l0.2-2.2
		l2.1-0.9l-1.1-3.4l-1.6-0.6l-2.3-2.8l3.1,0.9l2.9,0.1l3.6-0.9l-0.1-2.3l2.8-2l2-0.2v-2.5l1.2-0.5l-0.9-1.5h1.9l0.4-2.4l-1.3-1.9
		l2.1-1.7l3.3-0.4l2.8,1.2L641.4,90L641.4,90z" title=""></path>
	<path id="_140" class="st0 area included" d="M554.3,73.1l-1.3,2.7l0.9,1l-1.7-0.3l-1.1,0.8l-1.8,0.9l-1.3-0.6l-2.7,0.4l0.1-0.9L544,76l0.9-1.8
		l-1.2-1.2l0.4-0.9l1.2,0.8l3.5,0.4l2.7-1L554.3,73.1L554.3,73.1z" title=""></path>
	<path id="_141" class="st0 area included" d="M521.6,65.6l0.2,0.3l-0.1,0.1h-0.2L521.6,65.6z" title=""></path>
	<path id="_142" class="st0 area included" d="M521.7,66L521.7,66l-0.1-0.4l0.2-0.3l-0.2-0.3h0.3V65l2.1,0.3l2.9-0.6l-0.1-0.9l1.6-1.3l1.9-0.4
		l3.3,0.8l-0.2,0.4l0.6,0.8l-0.9,0.5l-0.6,1.9l-2.5,1l-1.5-0.3l-2.7-1.1l-2.7,0.4h-0.5L521.7,66L521.7,66z" title=""></path>
	<path id="_143" class="st0 area included" d="M564,221l0.2,0.7v1.2l-0.3,1l-1.5-0.3l-0.5-1.7l1.3-1.4L564,221z" title=""></path>
	<path id="_144" class="st0 area included" d="M537.5,68.4h-2.7l-1.5-1.1l-0.5-0.8h-0.3l0.6-1.9l0.9-0.5l1.2,0.5l3.3-0.8l0.9-0.9l2.7,0.3l0.9,0.7
		l0.5,0.3l-1.4,0.9l-1.1,2.5l-1.5,0.3l-1.1-0.1L537.5,68.4L537.5,68.4z" title=""></path>
	<path id="_145" class="st0 area included" d="M512.5,141l-1.5-1.5l-0.9,1.1l-0.3-1.5l-2.2-0.9l-1.5-3.3l0.1-0.8l2.1-0.8l4-0.2l1.3-2.2v-5.8l2.9-0.7
		l3.1-3l8.1-5.7l2.8,0.8l1.4,1.2l1.4-0.9l0.4,3.3l1.5,2.4l-0.4,0.9l-0.3,6.3l-2,2.5l-1.7,2.9l0.3,1.5l-2.1,1.4l-2-0.7l-2.5,0.3
		l-0.9,0.9l-3.4-1.1l-1.6,0.8l-2.7-1.9l-2.6,0.9L512.5,141L512.5,141z" title=""></path>
	<path id="_146" class="st0 area included" d="M516.1,61.1h-0.6l-0.3-0.2l-0.2-0.7l0.7-0.5l0.6,0.7C516.4,60.4,516.1,61.1,516.1,61.1z" title=""></path>
	<path id="_147" class="st0 area included" d="M508.3,75.5l0.5-0.1l-0.1,0.3l-0.3,0.2L508.3,75.5z" title=""></path>
	<path id="_148" class="st0 area included" d="M500,155l-0.3-0.1L500,155L500,155z M491.6,156.6l0.2-3.2l-2.1-1.4l0.3-2.3l0.5-2l1,0.3l-0.8-2.2
		l0.2-1.5h1.9l1.4-1.2l1.4,0.6l1.5,1.6l2.7-0.5l1,0.9l0.3,2.7l-1.4,2.9l0.7,3.6l-5.7,0.3L491.6,156.6L491.6,156.6z" title=""></path>
	<path id="_149" class="st0 area included" d="M489.9,149.7l-0.3,2.3l2.1,1.4l-0.2,3.2l-3.3-1.7l-4.1-3.8l1.6-1.8l0.7-1.5l1.5,0.3l0.7,2.5
		L489.9,149.7L489.9,149.7z" title=""></path>
	<path id="_150" class="st0 area included" d="M486.6,147.8l-0.7,1.5l-1.6,1.8l-2.7-1.4l-0.6-3.1l1.5-1.7l2.4-0.3L486.6,147.8z" title=""></path>
	<path id="_151" class="st0 area included" d="M721.5,155.5h0.2l0.1-0.2l0.4,1.3L721.5,155.5z M719.7,156.1l0.9-0.2l0.9-0.4l-0.7,1.8L719.7,156.1
		L719.7,156.1z" title=""></path>
	<path id="_152" class="st0 area included" d="M515.8,59.7l-0.7,0.5l0.2,0.7l-2.7-0.9l-2.7-2.2l0.9-0.5l0.3-0.1l0.8,0.3l0.7-0.3l0.1,0.1v-0.1
		l1.2-0.3l1.6,1.5l0.6,0.9C516.1,59.3,515.8,59.7,515.8,59.7z" title=""></path>
	<path id="_153" class="st0 area included" d="M593.3,102.1l-0.8-0.2l-0.3,0.2h-1.5l-0.9,1.9l-3.3-0.3l-5.1-3.9l-3.2-1.8l-2.4-0.4l-0.3-0.8l-0.7-1.9
		l3.9-3l-0.3-3.8l1.5-1.3l0.5-0.5l3.7,0.4l1.4,2.5l1.9,0.4l-1.1,3.9l1.9,2.1l2.2,1.2l0.9,1.4l-0.1,1.6L593.3,102.1L593.3,102.1z" title=""></path>
	<path id="_154" class="st0 area included" d="M583.2,78.1l-1.5,0.2l-1.2,0.3l-1.3-1l-2.1,0.2l-0.5-2.3l-2.9-1.5l5,0.4l2.1,1.3l1.5-0.4l3.1,1.8
		l0.5,1.7L583.2,78.1z" title=""></path>
	<path id="_155" class="st0 area included" d="M474.6,138.1l-0.2-0.6l0.5-0.5l3.2-0.4l-1.8,1.4L474.6,138.1z" title=""></path>
	<path id="_156" class="st0 area included" d="M521,64.8L521,64.8l0.5,0.4l0.1-0.1l0.2,0.3l-0.2,0.3l-0.1,0.4h0.2l0.9,0.4h0.5l-0.8,1l-3.1,0.3
		l-1.8,0.7l-0.4-0.4l0.1-0.6l-0.3-0.3l-0.4,0.3l-0.2,0.2l-0.3-0.6l2.4-2.1h1.5L521,64.8L521,64.8z" title=""></path>
	<path id="_157" class="st0 area included" d="M532.8,138.2l0.5-0.2l-0.8-0.1l-0.2-0.1l0.1,0.1H532l-0.9-1.3l-0.3-1.5l1.7-2.9l2-2.5l0.3-6.3l0.4-0.9
		l-1.5-2.4l-0.4-3.3l1.8-0.9l15,8.4l0.3,8.1h-1.6l-0.9,3.3l-0.9,0.8l0.3,2.2l1.3,3.9l-0.8-0.2l-3.7,3.9l-2.6,0.3l-0.9,2.1l-3.4,1.1
		l-0.4-0.7l-2,0.7l-0.6-2l-2.3-2.5l0.4-0.8h2.8l-1.2-1.7l0.1-1.5L532.8,138.2z" title=""></path>
	<path id="_158" class="st0 area included" d="M541.1,76.9l-0.2-0.7l-0.9-0.7l-0.1-0.3l0.5-0.3l0.7-0.9l1.8,1.2l-0.3,0.9l-0.8,0.1
		C541.9,76.2,541.1,76.9,541.1,76.9z" title=""></path>
	<path id="_159" class="st0 area included" d="M568.4,95.5l0.7-1.7l0.5-1.6l1.2,0.9l-1.2,1.7l-0.5,0.7H568.4z" title=""></path>
	<path id="_160" class="st0 area included" d="M595.6,148.9h-1.9l-5.6-2.1l-1.2-0.9l-1.5-2.6l0.4-0.8l0.6-1l2,2.2l2.7-0.9l1.3,0.4l1.8-1.1l2.8-0.1
		l0.2,3.8L595.6,148.9L595.6,148.9z" title=""></path>
	<path id="_161" class="st0 area included" d="M595.6,148.9l1.7-3.2l-0.2-3.8l4.4-1.3l-0.7,5.1l-2.6,5.2l-0.6,1.9l-2,3.5l-3.5,4.4l-2.7,1.8l-3.7,3.9
		l-2,3l-1-1.7l-0.1-7.9l1.7-2.5l3.9-2.1l1.8,0.1L595.6,148.9L595.6,148.9z" title=""></path>
	<path id="_162" class="st0 area included" d="M586,142.4l-1.8,0.1l-0.3-0.3l0.2-0.3l-0.2-0.2l-0.1-0.5l1.1-2l0.6,0.2l0.8-0.7l0.5,1.5l-0.2,1
		L586,142.4L586,142.4z" title=""></path>
	<path id="_163" class="st0 area included" d="M586.2,138.8l-0.8,0.7l-0.6-0.2l-3-3.5l-5.6-1.6l-2.5,1.3l-0.3-1.9l0.9-4.1l2.2-0.9l0.6-1l2.4,6.2
		l2.7,1L586.2,138.8L586.2,138.8z" title=""></path>
	<path id="_164" class="st0 area included" d="M561.5,175.3l-0.5-1.2l-0.3-1.2l0.1-0.6l-0.4-0.7l1.7-0.2l1.2-0.5l0.4,1.8L561.5,175.3L561.5,175.3z" title=""></path>
	<path id="_165" class="st0 area included" d="M398.5,154.2l0.6-1.1l5.5,0.3l-0.3,1l-0.6,0.9l0.9,3.1l-1.2,2.4l-2.5-0.4l-1,1.3l-2.9-4.7L398.5,154.2
		L398.5,154.2z" title=""></path>
	<path id="_166" class="st0 area included" d="M567.2,99.3l0.9-2.1l0.3-1.7h0.7l0.5-0.7l0.3,1l-0.2,0.4l-0.3,0.2l0.2,1.9l-0.2,0.5l0.1,0.4l-0.1,0.1
		v0.2l0.1,0.2l-0.3,1.5l-0.2,1.8l-0.1,0.2l-0.2-0.5L567.2,99.3L567.2,99.3z" title=""></path>
	<path id="_167" class="st0 area included" d="M480.2,138.9l-2.7-0.1l-2.9,0.8l-0.1-1l0.1-0.5l1.7-0.2l1.8-1.4l-3.2,0.4l-1.2-2.4l1.4-2.3l0.3-1.4
		l3.8-0.4l3.8,3.9l0.3,2.3l1.3,2.7l-1.8,0.3L480.2,138.9L480.2,138.9z" title=""></path>
	<path id="_168" class="st0 area included" d="M480.2,138.9l2.6,0.8l1.8-0.3l1.3,1.1l2.8-1.3l1.5,2.4l0.7,2.6l-0.2,1.5l0.8,2.2l-1-0.3l-0.5,2
		l-1.2,0.9l-0.7-2.5l-1.5-0.3l-1.8-3.2l-2.4,0.3l-1.5,1.7l-0.5-1.5l-2.7-2.6l0.6-1.1l1.8-0.5L480.2,138.9L480.2,138.9z" title=""></path>
	<path id="_169" class="st0 area included" d="M536.7,50.9l-0.3,0.3l0.6-0.3l4.6,0.3l0.1-0.1l1.2,0.4l0.1,0.4l1,2.6l-1,0.8l0.9,1.5l1,2.1l-2.1,2.1
		l-0.1,0.9l-1.3-0.6l-4.9-0.3l-0.5-0.9l-3.7-1.4l-2.7-0.6l-0.5-3.5l-0.9-2.2l0.6-0.3l-0.7-0.1h-0.1l0.1-0.1l6.3-1.8L536.7,50.9
		L536.7,50.9z" title=""></path>
	<path id="_170" class="st0 area included" d="M544,76l1.3,1.2l-0.1,0.9l-1.7,0.5l-1.3,0.5l-0.3-0.3V79l-0.1-0.1h-0.2h-0.2l0.2-0.4l-0.3,0.1L541,78
		l0.1-1.1l0.9-0.7l0.8-0.1l0.6-0.2H544z" title=""></path>
	<path id="_171" class="st0 area included" d="M406.4,217v0.6l-0.3,2.3l0.1,0.3v0.1l-0.1,2.2l-1.5,1.7l-5.2-0.3l1.5-3.9l-4.9-3.1l-1.8-0.4l-3.4-3.3
		l0.4-3.6l0.8-1.9l4.8-0.8l1.9,1.9l0.8,1.6l-0.1,2.4h2.9l1.5,1.2l0.6,2.8L406.4,217L406.4,217z" title=""></path>
	<path id="_172" class="st0 area included" d="M543,51.9l3-0.7l1.3-2.7l1.5-0.3l0.8-0.8l4.5,1.1l2.1,3.6l1.7,0.8l-2.1,0.9l1.1,1.9l-3.6,1.5l-5.9-1.1
		l-3.3,0.8l-0.9-1.5l1-0.8L543,51.9L543,51.9z" title=""></path>
	<path id="_173" class="st0 area included" d="M549.6,47.5l-0.8,0.8l-1.5,0.3l-1.5-1l-5.7-0.5l-1.5,0.7l0.6-3l1.3-0.3l2,1.5L543,44l1.5-0.3l3.3,1
		l0.7,1.4L549.6,47.5L549.6,47.5z" title=""></path>
	<path id="_174" class="st0 area included" d="M507.5,142.4h-0.8l-1.2-0.3l-4.9,0.3l0.2,3.3l-1-0.9l-2.7,0.5l-1.5-1.6l0.7-3.2l1.1-0.4l0.9-2.7
		l1.6,0.2l0.8-1.5l1.3-0.3l2.7-2l1.7,0.3l-0.1,0.8l1.5,3.3l2.2,0.9l0.3,1.5l-1.7,0.9L507.5,142.4L507.5,142.4z" title=""></path>
	<path id="_175" class="st0 area included" d="M569.5,156.8l-0.9,1l-2.5,0.5l-0.7-0.7l-1.8,0.7l-2-2.2l-2.7,0.6l-1.7-1.7l-1.9-2.1l-0.2-1.2l-1.9-1.5
		l-2.3-2.9l0.8-0.4l0.9-2.9l1.5-0.3l1.4,2l2.5-0.2l1.8,0.6l2.1-2.1l2.3,1l2.1-2.7l-0.7-2.1l2.1-0.4v2.9l1.4,1.5l0.3,1.5l-0.2,2.2
		h-1.5l-0.2,1.4l1.2,0.3l2,2.1l2.3,4.3l-0.9-0.9L569.5,156.8L569.5,156.8z" title=""></path>
	<path id="_176" class="st0 area included" d="M551,147.3l2.3,2.9l1.9,1.5l0.2,1.2l1.9,2.1l-3.5-0.6l-3.9,1.5l-1-0.3l-0.8,1.4l-3.6-0.5l-1.6-1.5
		l-2.2,1.7l0.2,1.8l-2.1-0.5l-1.7,0.5l-0.7,2.7l-0.2-1.3l-1.7-2l-1.5-4.9l2.1-3.2l2-0.7l0.4,0.7l3.4-1.1l0.9-2.1l2.6-0.3l3.7-3.9
		l0.8,0.2l1.5,2.2l-0.3,2.3L551,147.3L551,147.3z" title=""></path>
	<path id="_177" class="st0 area included" d="M549.1,203.3l1.5-0.3l1.9,0.7l-3.2,1.4l-0.4-0.9l-4.4,0.7l-0.2,7.7l-1.9,0.1l-0.2,5.8l-0.3,7.9
		l-1.6,1.1l-3.1-0.5l-0.9-1.4l-0.8,1l-2.1-2.7l-1.1-5.8l-0.3-4.9l-4.5-8.8l-0.1-1.9l2.6-0.6l1.5,0.9h8.3l0.6,0.8l3.8,0.6
		L549.1,203.3L549.1,203.3z" title=""></path>
	<path id="_178" class="st0 area included" d="M553.1,69.4l1,0.4l1.5,0.1l-1.3,1.2l-0.1,2l-2.7-0.9l-2.7,1l-3.5-0.4l-1.2-0.8l-2.3-1.3l0.1-0.8
		l-2.3-2l1.5-0.3l1.1-2.5l1.4-0.9l3.9,0.1l2.1-0.8l0.6,0.2l2.6,3.3L553.1,69.4L553.1,69.4z" title=""></path>
	<path id="_179" class="st0 area included" d="M552.5,203.7l2.7,0.6l0.6-0.3l2.1-2.4l1.2-0.7l0.3-1l2.8-0.9l4.7,2.2v3.6l-0.6,2.3l0.3,1.2l-1.2,2.7
		l-2.2,2.3l-1.8-0.2l-1.7-0.3l-2.4-1.3l-0.5-2.3l-2.8-2.1L552.5,203.7L552.5,203.7z" title=""></path>
	<path id="_180" class="st0 area included" d="M701,143.6l-2.6-1l-0.5-1.5l-1.5-4.1l1.2-1.5l3.9-0.1l3.1,0.1l1.2-0.9l0.6,5.1l-3.1,2.8L701,143.6
		L701,143.6z" title=""></path>
	<path id="_181" class="st0 area included" d="M573.6,119.1l0.9,2.5l-0.1,1.7l0.8,2.8l2.1,1.5l-0.6,1l-2.2,0.9l-0.9,4.1l0.3,1.9l-0.7,3.3l-0.9,0.3
		l-1.4,3.9l-0.5-0.3l-0.9,3l-0.3-1.5l-1.4-1.5v-2.9l-2.1,0.4l0.7,2.1l-2.1,2.7l-2.3-1l-2.1,2.1l-1.8-0.6l-2.5,0.2l-1.4-2l-1.5,0.3
		l-0.9,2.9l-0.8,0.4l-1.3-0.2l0.3-2.3l-1.5-2.2l-1.3-3.9l-0.3-2.2l0.9-0.8l0.9-3.3h1.6l-0.3-8.1v-1h1.8l-0.2-4.3L573.6,119.1
		L573.6,119.1z" title=""></path>
	<path id="_182" class="st0 area included" d="M526.3,95.3l0.2,1.5l-2.6,2.2l0.3,1.1l-1.3,1.5l-1-3.9l-1.3-0.9l-1.5-2.9l1.3-1.6l0.5-5l2-0.9l2.7,4.5
		l-1.9,2.8l1.8,0.3L526.3,95.3z" title=""></path>
	<path id="_183" class="st0 area included" d="M523,101.6l1.3-1.5l-0.3-1.1l2.6-2.2l-0.2-1.5l3.3,0.6l3.3,1l1.7,2.4l2.4,0.4l3.1,1.7l1.2-0.5l0.2-2.7
		l1-1.7l1.9-0.8l2.7,0.6v0.7l3.5,0.8l0.3,0.6l-0.6,3.2l0.6,2.1l0.8,15.2l0.2,4.3h-1.8v1l-15-8.4l-1.8,0.9l-1.4,0.9l-1.4-1.2
		l-2.8-0.8l-0.8-1.6l-2.8-1.2l-1.2-2.7l0.8-0.9l-0.1-5.6L523,101.6L523,101.6z" title=""></path>
	<path id="_184" class="st0 area included" d="M495.5,143.6l-1.4-0.6l-1.4,1.2h-1.9l-0.7-2.6l-1.5-2.4l-2.8,1.3l-1.3-1.1l-1.3-2.7l-0.3-2.3l1-1.6
		l1.9,0.3l9.7-0.2l-1.8-20.1h3.2l11,8.2l1.4,1.9l2.5,0.9l-0.3,1.4h2.1v5.8l-1.3,2.2l-4,0.2l-2.1,0.8l-1.7-0.3l-2.7,2l-1.3,0.3
		l-0.8,1.5l-1.6-0.2l-0.9,2.7l-1.1,0.4L495.5,143.6L495.5,143.6z" title=""></path>
	<path id="_185" class="st0 area included" d="M667.3,107.8l2-2.2l2.8,1.3l1.2,1.7l-4,0.5L667.3,107.8L667.3,107.8z" title=""></path>
	<path id="_186" class="st0 area included" d="M552.5,203.7l1.5,3.6l2.8,2.1l0.5,2.3l2.4,1.3l-2.1,1l-2.3,2.1l-0.3,1.3l-1.9,1l-0.6,1.9l-1.4,0.4
		l-3.3-1.1l-0.6,1.5l-2.1,1.9l-1.7,0.1l0.3-1.6l-1.5-3l0.2-5.8l1.9-0.1l0.2-7.7l4.4-0.7l0.4,0.9L552.5,203.7L552.5,203.7z" title=""></path>
	<path id="_187" class="st0 area included" d="M553.1,69.4l-0.3-2.4l-2.6-3.3l-0.6-0.2l1.8-0.4l2.7,1.2l1.8,3.2l-1.9-0.2L553.1,69.4z" title=""></path>
	<path id="_188" class="st0 area included" d="M744.1,92.4l-3.4,0.6l-1.6,0.7l1.2-3.3l3.1-0.5l2.3,0.4l0.4-2.6l2.2-1.1l-0.3-1.5l1.4-0.5l-0.5-2.9
		l-1.1-0.9l-0.6-2.6l0.7-0.6l3.9,3.2l0.9,1.8l-0.6,2l1,1.7l0.3,2.4l1.2,1.2l-0.9,1.8l-0.6-0.9l-2.5,1.5l-2.2-0.2l-0.5,2.4l-1.9-0.6
		l-0.1-1.7L744.1,92.4l0.9,0.5l0.1,2.2l-1-0.6l-1.4,1.7l-1.1-1.5C741.5,94.7,744.1,92.4,744.1,92.4z M738.2,96.1l-1.7-0.8l-1.2-2
		l1.9,1.6l0.7-1.1l2.2,0.4l1.3,1.5l0.1,3.4l-1.9,0.3l-1-1.3L738.2,96.1L738.2,96.1z M751.2,76.8l-3.5-1.5l-2,0.8l2.1,0.9l-1.7,0.5
		l-1.6-2.3v-1.5h1.6l-1.4-2.8l-1.4-1l0.6-0.8l4.2,2.7l3.6,1.1l1.2,1.3l-1.6,0.3L751.2,76.8L751.2,76.8z" title=""></path>
	<path id="_189" class="st0 area included" d="M755.7,252.3l2.2,0.9l3.5-1.3l-1.5,2.6l-2,2l-3.1,1.9l-1.1-0.7l0.7-3.9L755.7,252.3z M775.7,200.6
		l0.8,2.7l-0.1,3.1l4.2,2.6l0.2,4.1l2,0.9l-0.3,1l1.4,1.8l0.9,2.7l1.4-0.5l-1,1.6l-0.3,3.5l-1,3.1l-5.2,7.5l-1.7,0.9l-6.2,6.4
		l-2.1,3.5l-3.3,0.7l-4.4,2.1l-2.3-0.6l0.8-1.3l-3.7,2.1l-1.4-1l-2.7-0.7l-0.7-1.9l0.8-1.2l-0.3-2.3l-3.3,1.1l-1.3-0.7h2.7l1.9-2.2
		l-0.3-1.3l-1.7,2.2l-1.5,0.3l4.1-4.6h-1l-5,3.9l-0.3-5.4l-3-0.9l-1.5-1.2l-4,0.4l-3.5,1.3l-2-0.1l-4.5,2l-1.7,1.6h-6.3l-3.6,2.1
		l-3.5,0.3l-2-2l1.9-1.7l1.3-3.5l-0.3-3l0.4-1.5l-0.4-4.6l-1.1-3.3l1.1-0.6l0.6,2.1l0.4-1.5l-0.7-2.7l1.2-4.2l5.3-3.6l2.9-0.4
		l6.3-2.2l3.1-3.1v-1.9l1.7-1.5l0.8,2l0.7-2.6h1.3l0.4-2.3l1.5-1.3l1.8-0.3l2-1.6l2,2.1l2.6,0.8l-0.3-1.4l1.9-3.2l1.8-2.1l-1.6-0.3
		l0.8-1.4l2.1,0.5l-0.4,1.9l2.4-0.3l0.1-2.3l0.9,1.5l3.4,1.1l2.6-1.4l0.9,1.7l-2.4,2.6l-0.9,3l4.5,3.7l1.7-0.1l1,2.1l1.6-0.6
		l2.5-5.1l0.7-5.3l1.4-2.6l0.3-2.4l0.8,1.2l0.4,3.3l0.6,0.6l0.3,4l1.1-0.7l1.3,1.6L775.7,200.6L775.7,200.6z" title=""></path>
	<path id="_190" class="st0 area included" d="M793.7,261.5l-5.1,3.1h-1.3l-2.8,1.2l1.5-2l-1.4-0.8l2.5-1.9l3.7-2l3.1-0.9l4.4-2.3l4-3.3l1.7-0.8
		l-0.7,1.6l1.9-0.8l-0.9,2l-6.2,3.9l-2.7,1.1L793.7,261.5z M815.1,249.1l-6.3,4.1l-2.2,1l-0.5-0.7l2.8-2.5l-1.3-1.4l2.2-1.2l2-2.2
		l0.7-2.5l-0.3-4.6l2,2.4l-1.2,2.7l0.9,0.8l0.5-2.1l0.5,1.1l-0.6,2l1.7,0.8l2.3-0.6L815.1,249.1L815.1,249.1z" title=""></path>
	<path id="_191" class="st0 area included" d="M368.8,123.2l-6.4,0.5l1.4-1.4l-2.5-0.3l-0.3-2.2l-3-0.9l-2.1,0.1l-2.1-1.4l-3.4,1.9l0.3-1.2l2.3-1.4
		l5.2-0.3l4,1.6l1.9,2l3.9,1.8L368.8,123.2L368.8,123.2z" title=""></path>
	<path id="_192" class="st0 area included" d="M547.3,38.8l-5.8,1.1l-3.9-1l-0.8-5.1l1.4-0.3l2.9-2.9l0.6-1.2l-1.8-0.6l-1.5-3.9l-4.5-2l1.3-0.4
		l1.3,0.9l3.4,0.3l1.1-2.1l2.4-0.6l1.8,0.7l0.1,1.1l-0.1,1.5l2.1,0.9l-0.9,1.5l1.5,1.4v2.1l1.8,1.9l-0.7,0.5l2.7,1.5l-0.3,0.8
		L547.3,38.8L547.3,38.8z" title=""></path>
	<path id="_193" class="st0 area included" d="M540,28.8l-2.6,0.1l-1.6,3.6l-3.9,2.7l-0.6,2.8l3.2,2.1l-0.7,1.5l-2.3,0.9L531,44l0.9,1.1l2.1-0.9
		l0.1,1.3l-2.1-0.2l-0.7,2l-2.7,0.2L528,49h-1.9l-0.3-2.5l-2.8-3.4l0.2-1.2l1.5-2.2l-1.3-6.1l0.9-1.3l1.8-0.1l-0.5-1.1l1-1.4
		l-0.1-1.5l2.4-1.7l-0.5-0.7l2.5-2.1l2.6,0.3L534,23l4.5,2L540,28.8L540,28.8z" title=""></path>
	<path id="_194" class="st0 area included" d="M598.3,201l-5.3,15.5l-1.1,2.4l-3.7,1.3l-1.9-1.2l-0.3-3.3l-0.9-2.6l0.7-2l2-2.8l-0.6-5.4l1-2.7l3.4-1
		l2.4-1.4l1.5-3.5h0.9l1.1-3.1l1.2,2.3l0.7,5.1l-0.5,1.1l-1-0.9L598.3,201L598.3,201z" title=""></path>
	<path id="_195" class="st0 area included" d="M817.6,203.7l0.3-3.1l-1.4,0.5l-0.2-2.1l-0.9-0.4l1.9-2.3l1,1.4l-0.1,4.1l-0.4,2l0.9,2.3l-0.2,1.6
		L817.6,203.7L817.6,203.7z" title=""></path>
	<path id="_196" class="st0 area included" d="M476.1,29.6l1.5-1.4l3.4,0.3l2.1-1l2.1,0.9l1.4,1.6l-1.6,1.5l-6.3,1.9l-2.5-0.6l-3.1-0.2l1.6-1.1
		l-0.8-2.1l-2.8,0.1l3.1-1.8l1.6,0.9L476.1,29.6L476.1,29.6z" title=""></path>
	<path id="_197" class="st0 area included" d="M655.2,148.7l0.5-3.7l1.1,0.9l2.2,3.7v2.1l-2.1,1.5l-0.9-0.4L655.2,148.7z" title=""></path>
	<path id="_198" class="st0 area included" d="M568.8,103.1l-0.9,3.8l-2-1.8l-1.5-3l0.3,2.1l1.8,2.8l4.3,7.8l0.4,2.2l2.3,2h-10.4h-11.6l-0.8-15.2
		l-0.6-2.1l0.6-3.2l3.9,0.7l3.2,1.1l2.2-1.5l2.1,0.2l1.1,0.8l3.7-0.5l1.5,3.3L568.8,103.1L568.8,103.1z" title=""></path>
	<path id="_199" class="st0 area included" d="M665.7,106.6l0.6,2.5l-1.5,0.8l-2.7-0.4l-2.7-1.6l-3.3-0.3l-5.5-2.9l0.2-2l0.9-0.9l1.9-0.3l3.2,2.5
		l0.9-0.2l4,2.9l0.9-0.5L665.7,106.6L665.7,106.6z" title=""></path>
</g>
</svg>
