<?xml version="1.0" encoding="utf-8"?>
<!-- Generator: Adobe Illustrator 19.0.0, SVG Export Plug-In . SVG Version: 6.00 Build 0)  -->
<svg version="1.1" id="Layer_1" xmlns="http://www.w3.org/2000/svg" xmlns:xlink="http://www.w3.org/1999/xlink" x="0px" y="0px"
	 viewBox="-316 237 9 9" style="enable-background:new -316 237 9 9;" xml:space="preserve">
<g>
	<rect x="-307.6" y="240.4" width="0.6" height="0.6"/>
	<rect x="-307.6" y="239.2" width="0.6" height="0.6"/>
	<rect x="-307.6" y="239.8" width="0.6" height="0.6"/>
	<rect x="-307.6" y="240.9" width="0.6" height="0.6"/>
	<rect x="-308.1" y="242.1" width="0.6" height="0.6"/>
	<rect x="-308.1" y="242.6" width="0.6" height="0.6"/>
	<rect x="-307.6" y="241.5" width="0.6" height="0.6"/>
	<rect x="-308.1" y="238.7" width="0.6" height="0.6"/>
	<rect x="-308.7" y="243.8" width="0.6" height="0.6"/>
	<rect x="-308.7" y="243.2" width="0.6" height="0.6"/>
	<rect x="-308.7" y="238.7" width="0.6" height="0.6"/>
	<rect x="-309.2" y="245.4" width="0.6" height="0.6"/>
	<rect x="-309.2" y="244.9" width="0.6" height="0.6"/>
	<rect x="-309.2" y="244.3" width="0.6" height="0.6"/>
	<rect x="-309.2" y="240.4" width="0.6" height="0.6"/>
	<rect x="-309.2" y="239.2" width="0.6" height="0.6"/>
	<rect x="-309.2" y="239.8" width="0.6" height="0.6"/>
	<rect x="-309.2" y="238.7" width="0.6" height="0.6"/>
	<rect x="-309.2" y="238.1" width="0.6" height="0.6"/>
	<rect x="-309.8" y="237.6" width="0.6" height="0.6"/>
	<rect x="-310.4" y="237.6" width="0.6" height="0.6"/>
	<rect x="-310.9" y="239.2" width="0.6" height="0.6"/>
	<rect x="-310.9" y="239.8" width="0.6" height="0.6"/>
	<rect x="-310.9" y="238.7" width="0.6" height="0.6"/>
	<rect x="-310.9" y="237.6" width="0.6" height="0.6"/>
	<rect x="-310.9" y="238.1" width="0.6" height="0.6"/>
	<rect x="-311.5" y="237" width="0.6" height="0.6"/>
	<rect x="-312.1" y="237" width="0.6" height="0.6"/>
	<rect x="-312.6" y="239.2" width="0.6" height="0.6"/>
	<rect x="-312.6" y="239.8" width="0.6" height="0.6"/>
	<rect x="-312.6" y="238.7" width="0.6" height="0.6"/>
	<rect x="-312.6" y="237.6" width="0.6" height="0.6"/>
	<rect x="-312.6" y="238.1" width="0.6" height="0.6"/>
	<rect x="-313.2" y="245.4" width="0.6" height="0.6"/>
	<rect x="-313.2" y="244.9" width="0.6" height="0.6"/>
	<rect x="-313.2" y="238.7" width="0.6" height="0.6"/>
	<rect x="-313.2" y="238.1" width="0.6" height="0.6"/>
	<rect x="-313.8" y="244.3" width="0.6" height="0.6"/>
	<rect x="-313.8" y="240.4" width="0.6" height="0.6"/>
	<rect x="-313.8" y="241.5" width="0.6" height="0.6"/>
	<rect x="-313.8" y="240.9" width="0.6" height="0.6"/>
	<rect x="-313.8" y="237.6" width="0.6" height="0.6"/>
	<rect x="-314.3" y="243.8" width="0.6" height="0.6"/>
	<rect x="-314.3" y="239.2" width="0.6" height="0.6"/>
	<rect x="-314.3" y="239.8" width="0.6" height="0.6"/>
	<rect x="-314.3" y="240.9" width="0.6" height="0.6"/>
	<rect x="-314.3" y="237.6" width="0.6" height="0.6"/>
	<rect x="-314.9" y="243.2" width="0.6" height="0.6"/>
	<rect x="-314.9" y="242.6" width="0.6" height="0.6"/>
	<rect x="-314.9" y="240.4" width="0.6" height="0.6"/>
	<rect x="-314.9" y="238.7" width="0.6" height="0.6"/>
	<rect x="-314.9" y="238.1" width="0.6" height="0.6"/>
	<rect x="-315.4" y="242.1" width="0.6" height="0.6"/>
	<rect x="-315.4" y="240.4" width="0.6" height="0.6"/>
	<rect x="-316" y="241.5" width="0.6" height="0.6"/>
	<rect x="-316" y="240.9" width="0.6" height="0.6"/>
</g>
</svg>
