<svg xmlns="http://www.w3.org/2000/svg" width="80" height="30" viewBox="0 0 80 30"><path d="M31.23,19.68v-12h4.38a5.53,5.53,0,0,1,3.1.73,2.4,2.4,0,0,1,1.08,2.09,2.47,2.47,0,0,1-.66,1.7,3.51,3.51,0,0,1-1.68,1v0a3.29,3.29,0,0,1,2,.95,2.64,2.64,0,0,1,.77,1.92,3.22,3.22,0,0,1-1.19,2.62,5,5,0,0,1-3.23,1Zm2.71-10V12.5h1.19a2,2,0,0,0,1.32-.41A1.4,1.4,0,0,0,36.93,11c0-.89-.66-1.33-2-1.33Zm0,4.87v3.17h1.47a2.21,2.21,0,0,0,1.47-.44,1.43,1.43,0,0,0,.53-1.19,1.35,1.35,0,0,0-.52-1.13,2.36,2.36,0,0,0-1.47-.41Z" style="fill:#fff"/><path d="M47.59,13.48a2.23,2.23,0,0,0-1.12-.26,1.62,1.62,0,0,0-1.35.63,2.79,2.79,0,0,0-.48,1.72v4.11H42V11.09h2.65v1.59h0a2.31,2.31,0,0,1,2.27-1.75,1.62,1.62,0,0,1,.65.11Z" style="fill:#fff"/><path d="M56,19.68H53.46V18.44h0a2.8,2.8,0,0,1-2.56,1.45,2.7,2.7,0,0,1-2-.71,2.56,2.56,0,0,1-.71-1.89c0-1.67,1-2.63,3-2.89l2.33-.31q0-1.41-1.53-1.41a5.31,5.31,0,0,0-2.92.91v-2a6.85,6.85,0,0,1,1.52-.51,8.23,8.23,0,0,1,1.75-.21q3.68,0,3.67,3.66Zm-2.49-3.49v-.58l-1.56.2Q50.63,16,50.63,17a1,1,0,0,0,.31.74,1.23,1.23,0,0,0,.85.29A1.55,1.55,0,0,0,53,17.49,1.87,1.87,0,0,0,53.48,16.19Z" style="fill:#fff"/><path d="M66.25,11.09l-3.2,8.59H60l-3-8.59h2.83l1.5,5.29a8.52,8.52,0,0,1,.29,1.53h0A9.62,9.62,0,0,1,62,16.43l1.53-5.34Z" style="fill:#fff"/><path d="M71.31,19.89a4.6,4.6,0,0,1-3.38-1.21,4.35,4.35,0,0,1-1.23-3.26A4.36,4.36,0,0,1,68,12.08a4.83,4.83,0,0,1,3.45-1.2,4.57,4.57,0,0,1,3.35,1.2A4.27,4.27,0,0,1,76,15.26a4.58,4.58,0,0,1-1.25,3.39A4.72,4.72,0,0,1,71.31,19.89Zm.07-7a1.75,1.75,0,0,0-1.46.64,2.83,2.83,0,0,0-.52,1.83c0,1.65.66,2.48,2,2.48S73.3,17,73.3,15.31,72.66,12.91,71.38,12.91Z" style="fill:#fff"/><path d="M33.18,23H31.65v1.36h1.42v.42H31.65v1.74h-.46V22.62h2Z" style="fill:#fff"/><path d="M36.34,26.61A1.7,1.7,0,0,1,35,26.06a2,2,0,0,1-.51-1.43A2.16,2.16,0,0,1,35,23.12a1.8,1.8,0,0,1,1.4-.57,1.7,1.7,0,0,1,1.31.55,2.06,2.06,0,0,1,.5,1.43,2.17,2.17,0,0,1-.51,1.52A1.74,1.74,0,0,1,36.34,26.61Zm0-3.64a1.26,1.26,0,0,0-1,.45A1.69,1.69,0,0,0,35,24.59a1.77,1.77,0,0,0,.38,1.17,1.24,1.24,0,0,0,1,.44,1.3,1.3,0,0,0,1-.42,1.72,1.72,0,0,0,.38-1.18,1.84,1.84,0,0,0-.37-1.21A1.23,1.23,0,0,0,36.38,23Z" style="fill:#fff"/><path d="M42.35,26.55H41.8l-.52-1.19a.66.66,0,0,0-.6-.48h-.4v1.67h-.46V22.62H41a1.26,1.26,0,0,1,.88.28,1,1,0,0,1,.32.76,1.07,1.07,0,0,1-.24.71,1.13,1.13,0,0,1-.64.38h0a.85.85,0,0,1,.41.47ZM40.28,23v1.43h.61a.84.84,0,0,0,.59-.21.72.72,0,0,0,.23-.55.61.61,0,0,0-.21-.49.87.87,0,0,0-.59-.18Z" style="fill:#fff"/><path d="M46.71,25.06v1.49h-.46V22.62h1.08a1.38,1.38,0,0,1,1,.31,1.09,1.09,0,0,1,.35.86,1.2,1.2,0,0,1-.39.92,1.49,1.49,0,0,1-1,.35Zm0-2v1.62h.48a1.12,1.12,0,0,0,.73-.22.8.8,0,0,0,.25-.62c0-.52-.31-.78-.92-.78Z" style="fill:#fff"/><path d="M51.8,26.61a1.72,1.72,0,0,1-1.34-.55,2.06,2.06,0,0,1-.5-1.43,2.16,2.16,0,0,1,.51-1.51,1.79,1.79,0,0,1,1.4-.57,1.7,1.7,0,0,1,1.31.55,2.06,2.06,0,0,1,.5,1.43,2.17,2.17,0,0,1-.51,1.52A1.74,1.74,0,0,1,51.8,26.61Zm0-3.64a1.26,1.26,0,0,0-1,.45,1.69,1.69,0,0,0-.39,1.17,1.77,1.77,0,0,0,.38,1.17,1.24,1.24,0,0,0,1,.44,1.3,1.3,0,0,0,1-.42,1.72,1.72,0,0,0,.37-1.18,1.84,1.84,0,0,0-.36-1.21A1.24,1.24,0,0,0,51.83,23Z" style="fill:#fff"/><path d="M59.94,22.62l-1.11,3.93h-.54l-.81-2.87a1.34,1.34,0,0,1-.06-.4h0a2.7,2.7,0,0,1-.08.39l-.81,2.88H56l-1.15-3.93h.5l.84,3a2.57,2.57,0,0,1,.06.4h0a2.14,2.14,0,0,1,.08-.4l.87-3h.44l.83,3a1.87,1.87,0,0,1,.07.37h0a2,2,0,0,1,.08-.38l.8-3Z" style="fill:#fff"/><path d="M63.43,26.55H61.35V22.62h2V23H61.81v1.31h1.42v.42H61.81v1.37h1.62Z" style="fill:#fff"/><path d="M67.55,26.55H67l-.52-1.19a.66.66,0,0,0-.6-.48h-.4v1.67H65V22.62h1.17a1.26,1.26,0,0,1,.88.28,1,1,0,0,1,.32.76,1.07,1.07,0,0,1-.24.71,1.13,1.13,0,0,1-.64.38h0a.89.89,0,0,1,.41.47ZM65.48,23v1.43h.61a.84.84,0,0,0,.59-.21.71.71,0,0,0,.22-.55.6.6,0,0,0-.2-.49.87.87,0,0,0-.59-.18Z" style="fill:#fff"/><path d="M71.44,26.55V22.62h1.12a1.21,1.21,0,0,1,.81.25.79.79,0,0,1,.3.65,1,1,0,0,1-.18.58,1,1,0,0,1-.5.35h0a1,1,0,0,1,.64.3,1,1,0,0,1,.23.66,1,1,0,0,1-.36.81,1.33,1.33,0,0,1-.91.32ZM71.9,23V24.3h.48a.89.89,0,0,0,.59-.18.64.64,0,0,0,.22-.51c0-.38-.25-.58-.76-.58Zm0,1.69v1.41h.63a.93.93,0,0,0,.63-.19.65.65,0,0,0,.22-.53c0-.46-.31-.69-.95-.69Z" style="fill:#fff"/><path d="M76,26.55h-.46V22.62H76Z" style="fill:#fff"/><path d="M14.79,12.85V5.68H11.64v7.17h-1V3.39H4V26.55H18.38V22.69h6.4v-4.9L18.4,12.85Zm-4.15,3.21a1.42,1.42,0,0,1,2.83,0Z" style="fill:#fff"/><polygon points="24.78 16.48 20.05 12.84 24.78 12.84 24.78 16.48" style="fill:#fff"/></svg>