<?xml version="1.0" encoding="utf-8"?>
<!-- Generator: Adobe Illustrator 25.1.0, SVG Export Plug-In . SVG Version: 6.00 Build 0)  -->
<svg version="1.1" id="Layer_1" xmlns="http://www.w3.org/2000/svg" xmlns:xlink="http://www.w3.org/1999/xlink" x="0px" y="0px"
	 viewBox="0 0 100.1 30" style="enable-background:new 0 0 100.1 30;" xml:space="preserve">
<style type="text/css">
	.st0{fill:#FFFFFF;}
</style>
<g>
	<path class="st0" d="M12.8,5.1H5.4V25h7.4c6.6,0,10.8-3.8,10.8-10S19.4,5.1,12.8,5.1z M12.6,20.8h-2.1V9.2h2.1c3.5,0,5.7,2,5.7,5.7
		S16.2,20.8,12.6,20.8z"/>
	<path class="st0" d="M49.1,20.8c0.4-0.8,0.9-1.6,1.3-2.5h0.1c0,0,0.5,1.3,1.3,2.5l2.4,4.2h5.5l-6.4-9.8l6.4-10.1h-5.8l-2.3,4.1
		c-0.4,0.8-0.9,1.7-1.3,2.6h-0.1c0,0-0.5-1.3-1.3-2.6l-2.3-4.1h-5.8l6.3,10l-6.3,9.8h5.6L49.1,20.8z"/>
	<path class="st0" d="M40.5,24.6l1.2-1.9L35.3,5.1h-5.4L22.8,25h5.3l1.3-4.2h6.5l1.3,4.2h3L40.5,24.6z M30.6,16.9l1.2-3.8
		c0.4-1.3,0.9-3.4,0.9-3.4h0.1c0,0,0.4,2.1,0.9,3.4l1.2,3.8H30.6z"/>
	<path class="st0" d="M64.1,21c0.3,0,0.5,0.1,0.8,0.2s0.4,0.3,0.6,0.4s0.3,0.4,0.4,0.6s0.2,0.4,0.2,0.7c0,0.3-0.1,0.5-0.2,0.8
		c-0.1,0.3-0.3,0.4-0.4,0.6c-0.2,0.2-0.4,0.4-0.6,0.4C64.5,24.9,64.2,25,64,25c-0.3,0-0.5-0.1-0.7-0.2c-0.3-0.1-0.4-0.3-0.6-0.4
		c-0.2-0.2-0.3-0.4-0.4-0.6c-0.1-0.3-0.2-0.4-0.2-0.7c0-0.3,0.1-0.5,0.2-0.8c0.1-0.3,0.3-0.4,0.4-0.6s0.4-0.4,0.6-0.4
		C63.5,21.1,63.8,21,64.1,21z"/>
	<path class="st0" d="M76,10.5c0.5,0,1.2,0,1.7,0.1c0.4,0.1,0.9,0.2,1.3,0.3L80.2,5h2.4l-2.7,13.3c0,0.2-0.1,0.4-0.1,0.7
		s-0.1,0.7-0.2,1.2c-0.1,0.4-0.1,1.1-0.2,1.9c-0.1,0.8-0.2,1.7-0.3,2.7h-2.3l0.4-3.2c-0.5,1.1-1.3,1.9-2.3,2.6
		c-0.9,0.6-2,0.9-2.9,0.9c-0.6,0-1.3-0.1-1.8-0.4c-0.4-0.2-0.9-0.5-1.3-1c-0.4-0.4-0.6-1-0.7-1.5c-0.2-0.6-0.3-1.3-0.3-1.9
		c0-1.3,0.2-2.5,0.5-3.8c0.4-1.1,0.8-2.1,1.5-3.1C71.4,11.5,73.6,10.4,76,10.5z M70.3,20c-0.1,0.7,0.1,1.4,0.4,2.1
		c0.4,0.5,0.9,0.8,1.5,0.8c0.4,0,0.8-0.1,1.2-0.3c0.4-0.2,0.8-0.4,1.2-0.8c0.4-0.4,0.8-0.7,1.1-1.2c0.4-0.4,0.6-0.9,0.9-1.4
		c0.3-0.5,0.5-1.1,0.8-1.6c0.2-0.5,0.4-1.1,0.4-1.7l0.5-2.9c-0.4-0.2-0.9-0.4-1.3-0.4c-0.4-0.1-0.8-0.2-1.3-0.2
		c-0.7,0-1.3,0.1-2,0.4c-0.5,0.4-1,0.6-1.4,1.1c-0.4,0.4-0.7,0.9-1,1.4c-0.3,0.5-0.4,1.1-0.6,1.6c-0.2,0.5-0.3,1.1-0.4,1.6
		C70.4,19.2,70.3,19.6,70.3,20z"/>
	<path class="st0" d="M86.6,25c-1.4,0.1-2.9-0.4-3.9-1.3c-1-1.1-1.5-2.4-1.3-3.8c0-0.8,0.1-1.5,0.3-2.3c0.2-0.7,0.4-1.5,0.7-2.1
		c0.4-0.7,0.7-1.3,1.2-2c0.4-0.6,1-1.1,1.6-1.5c1.3-0.9,2.8-1.4,4.4-1.4c0.8,0,1.5,0.1,2.2,0.4c0.6,0.2,1.2,0.5,1.7,1
		c0.4,0.4,0.8,1,1.1,1.6c0.3,0.7,0.4,1.5,0.4,2.2c0,0.8-0.1,1.5-0.3,2.3c-0.2,0.7-0.4,1.5-0.7,2.1c-0.4,0.7-0.7,1.3-1.2,2
		c-0.4,0.6-1,1.1-1.6,1.5c-0.6,0.4-1.3,0.8-2,1C88.2,24.8,87.4,25,86.6,25z M92.2,15.9c0.1-0.9-0.2-1.8-0.8-2.5
		c-0.6-0.6-1.4-0.9-2.3-0.8c-0.5,0-1.1,0.1-1.6,0.3c-0.4,0.2-1,0.4-1.3,0.8c-0.4,0.4-0.7,0.8-1.1,1.3c-0.3,0.4-0.5,1-0.7,1.4
		c-0.2,0.5-0.4,1.1-0.4,1.6c-0.1,0.5-0.2,1.1-0.2,1.6c-0.1,0.9,0.2,1.8,0.8,2.5c0.6,0.6,1.4,0.9,2.3,0.9c0.5,0,1.1-0.1,1.6-0.3
		c0.4-0.2,0.9-0.4,1.3-0.8c0.4-0.4,0.7-0.8,1.1-1.3c0.3-0.4,0.5-1,0.7-1.4c0.2-0.5,0.4-1.1,0.4-1.6C92.2,17,92.2,16.4,92.2,15.9z"/>
</g>
</svg>
