<?xml version="1.0" encoding="utf-8"?>
<!-- Generator: Adobe Illustrator 21.0.2, SVG Export Plug-In . SVG Version: 6.00 Build 0)  -->
<svg version="1.1" id="Layer_1" xmlns="http://www.w3.org/2000/svg" xmlns:xlink="http://www.w3.org/1999/xlink" x="0px" y="0px"
	 width="106.6px" height="38.5px" viewBox="0 0 106.6 38.5" style="enable-background:new 0 0 106.6 38.5;" xml:space="preserve">
<style type="text/css">
	.st0{fill:#111111;}
	.st1{fill:#404040;}
	.st2{fill:#F5F5F5;}
	.st3{clip-path:url(#SVGID_2_);fill:#D6DDE5;}
	.st4{filter:url(#Adobe_OpacityMaskFilter);}
	.st5{clip-path:url(#SVGID_2_);fill:url(#SVGID_4_);}
	.st6{filter:url(#Adobe_OpacityMaskFilter_1_);}
	.st7{fill:#FFFFFF;}
	.st8{mask:url(#YyB7br_3_);}
	.st9{fill:#DDDDDD;}
	.st10{fill:#F1C732;}
	.st11{fill:#EEEEEE;}
	.st12{fill:none;stroke:#DDDDDD;stroke-miterlimit:10;}
	.st13{fill:#DBDBDB;}
	.st14{fill:#4D4D4D;}
	.st15{fill:#1A1A1A;}
	.st16{fill:#333333;}
	.st17{fill:#666666;}
	.st18{fill:#2F8C6D;}
	.st19{enable-background:new    ;}
	.st20{clip-path:url(#SVGID_6_);}
	.st21{fill:none;stroke:#E9E9E9;stroke-miterlimit:10;}
	.st22{fill:url(#SVGID_9_);}
	.st23{fill:url(#SVGID_10_);}
	.st24{fill:url(#SVGID_11_);}
	.st25{fill:url(#SVGID_12_);}
	.st26{filter:url(#Adobe_OpacityMaskFilter_2_);}
	.st27{clip-path:url(#SVGID_14_);fill:url(#SVGID_16_);}
	.st28{fill:#030303;}
	.st29{display:none;}
	.st30{display:inline;}
	.st31{fill:url(#SVGID_17_);}
	.st32{fill:#E14E37;}
	.st33{fill:#E9BF32;}
	.st34{fill:#E51C24;}
	.st35{fill:#008A45;}
	.st36{fill:#7AC143;}
	.st37{fill:#222222;}
	.st38{fill:#308E6D;}
	.st39{fill:#808080;}
	.st40{fill:#2B8060;}
	.st41{fill:#207345;}
	.st42{fill:#185634;}
	.st43{fill:#E9EAEA;}
	.st44{fill:none;stroke:#333333;stroke-miterlimit:10;}
	.st45{display:none;fill:#666666;}
	.st46{fill:#909090;}
	.st47{fill:none;stroke:#E25D5D;stroke-miterlimit:10;}
	.st48{fill:#E25D5D;}
	.st49{fill:#C3C3C3;}
	.st50{fill:none;stroke:#4D4D4D;stroke-miterlimit:10;}
	.st51{filter:url(#Adobe_OpacityMaskFilter_3_);}
	.st52{mask:url(#SVGID_18_);}
	.st53{fill:#ADC1CB;stroke:#FFFFFF;stroke-width:0.5;stroke-miterlimit:1.4142;}
	.st54{fill:#ADC1CB;fill-opacity:0;stroke:#FFFFFF;stroke-width:0.5;stroke-miterlimit:1.4142;}
	.st55{fill:#3572A4;}
	.st56{fill:#00528B;}
	.st57{fill:#F6C300;}
	.st58{fill:#E41C24;}
	.st59{fill:#303180;}
	.st60{fill:none;stroke:#333333;stroke-linecap:round;stroke-linejoin:round;stroke-miterlimit:10;}
	.st61{fill:none;stroke:#000000;stroke-width:2;stroke-linecap:round;stroke-linejoin:round;stroke-miterlimit:10;}
	.st62{fill:url(#SVGID_19_);}
	.st63{display:inline;fill:#DDDDDD;}
	.st64{fill:none;stroke:#333333;stroke-width:1.5;stroke-miterlimit:10;}
	.st65{fill:#444444;}
	.st66{fill:#9E9E9E;}
	.st67{fill:#F2C80E;}
	.st68{fill:#279863;}
	.st69{fill:#E25E5E;}
	.st70{fill:#CA5455;}
	.st71{fill:#4B4A4B;}
	.st72{fill:#AAAAAA;}
	.st73{fill-rule:evenodd;clip-rule:evenodd;fill:#FFFFFF;}
	.st74{opacity:0.7;}
	.st75{fill:none;stroke:#333333;stroke-width:1.5;stroke-linecap:round;stroke-miterlimit:10;}
	.st76{fill:#EC5D5D;}
	.st77{fill:url(#SVGID_20_);}
	.st78{opacity:0.3;}
	.st79{fill:#EAEAEA;}
	.st80{fill:#EB5E5E;}
	.st81{fill:#D35455;}
	.st82{opacity:0.28;}
	.st83{fill:#E31C24;}
	.st84{opacity:0.4;}
	.st85{fill:#555555;}
	.st86{fill:#00B8AA;}
</style>
<g>
	<g>
		<g>
			<path class="st7" d="M63.1,14.4c0,3.5-1,6.3-2.9,8.2c-1.9,1.9-4.7,2.9-8.2,2.9h-6.9V4.2h7.3c3.4,0,6,0.9,7.9,2.6
				C62.2,8.6,63.1,11.1,63.1,14.4z M57.2,14.6c0-1.9-0.4-3.4-1.2-4.3s-1.9-1.4-3.5-1.4h-1.7v11.9h1.3c1.7,0,3-0.5,3.8-1.5
				C56.8,18.2,57.2,16.7,57.2,14.6z"/>
		</g>
		<g>
			<path class="st7" d="M78.4,25.4l-1-4h-6.9l-1.1,4h-6.3L70,4.2h7.6l7,21.3H78.4z M76.2,16.8l-0.9-3.5c-0.2-0.8-0.5-1.8-0.8-3
				c-0.3-1.2-0.5-2.1-0.6-2.6c-0.1,0.5-0.3,1.3-0.5,2.4c-0.3,1.1-0.8,3.4-1.7,6.7H76.2z"/>
		</g>
		<g>
			<path class="st7" d="M104.6,25.4H98l-4.1-6.6l-4.1,6.6h-6.5l7-10.8L83.7,4.2H90l3.8,6.6l3.7-6.6h6.5L97.4,15L104.6,25.4z"/>
		</g>
	</g>
	<g>
		<g>
			<g>
				<g>
					<path class="st7" d="M28.1,22.5c0,0.5-0.4,1-1,1H12.6c-0.5,0-1-0.5-1-1v-5.2c0-0.5,0.5-1,1-1h14.5c0.6,0,1,0.5,1,1V22.5z"/>
				</g>
			</g>
		</g>
		<g>
			<g>
				<g>
					<path class="st7" d="M34.9,22.5c0,0.5-0.5,1-1,1h-2.8c-0.5,0-1-0.5-1-1v-5.2c0-0.5,0.5-1,1-1h2.8c0.5,0,1,0.5,1,1V22.5z"/>
				</g>
			</g>
		</g>
	</g>
	<g>
		<g>
			<g>
				<g>
					<path class="st7" d="M19.8,12.5c0,0.6-0.5,1-1,1H1c-0.6,0-1-0.4-1-1V7.3c0-0.6,0.4-1,1-1h17.8c0.5,0,1,0.4,1,1V12.5z"/>
				</g>
			</g>
		</g>
		<g>
			<g>
				<g>
					<path class="st7" d="M30.3,12.5c0,0.6-0.5,1-1,1h-6.1c-0.5,0-1-0.4-1-1V7.3c0-0.5,0.5-1,1-1h6.1c0.5,0,1,0.5,1,1V12.5z"/>
				</g>
			</g>
		</g>
	</g>
	<g>
		<g>
			<g>
				<path class="st7" d="M16.7,32.5c0,0.5-0.4,1-1,1H7.2c-0.6,0-1-0.5-1-1v-5.2c0-0.5,0.4-1,1-1h8.5c0.6,0,1,0.5,1,1V32.5z"/>
			</g>
		</g>
	</g>
	<g>
		<g>
			<path class="st7" d="M49.1,29.4v1.3H46v1.4h2.9v1.3H46v2.6h-1.5v-6.7H49.1z"/>
		</g>
		<g>
			<path class="st7" d="M56.2,35.2c-0.7,0.7-1.5,1-2.5,1s-1.8-0.3-2.5-1c-0.7-0.7-1-1.5-1-2.5s0.3-1.8,1-2.5c0.7-0.7,1.5-1,2.5-1
				s1.8,0.3,2.5,1c0.7,0.7,1,1.5,1,2.5S56.8,34.5,56.2,35.2z M55.6,32.7c0-0.6-0.2-1.1-0.6-1.5c-0.4-0.4-0.9-0.6-1.4-0.6
				s-1,0.2-1.4,0.6c-0.4,0.4-0.6,0.9-0.6,1.5s0.2,1.1,0.6,1.5c0.4,0.4,0.9,0.6,1.4,0.6s1-0.2,1.4-0.6C55.5,33.8,55.6,33.3,55.6,32.7
				z"/>
		</g>
		<g>
			<path class="st7" d="M64,31.6c0,1.1-0.4,1.8-1.3,2.1l1.7,2.4h-1.8L61.1,34h-1v2.1h-1.5v-6.7h2.5c1,0,1.8,0.2,2.2,0.5
				C63.8,30.3,64,30.9,64,31.6z M62.2,32.4c0.2-0.2,0.3-0.4,0.3-0.8s-0.1-0.6-0.3-0.7c-0.2-0.1-0.5-0.2-1-0.2h-1.1v2h1.1
				C61.7,32.7,62,32.6,62.2,32.4z"/>
		</g>
		<g>
			<path class="st7" d="M71.7,31.9l-1.8,3.6H69l-1.8-3.6v4.2h-1.5v-6.7h2l1.7,3.7l1.7-3.7h2v6.7h-1.5V31.9z"/>
		</g>
		<g>
			<path class="st7" d="M79.8,36.1l-0.6-1.4h-2.8l-0.6,1.4h-1.6l2.9-6.7h1.4l2.9,6.7H79.8z M77.8,31.4l-0.8,1.9h1.7L77.8,31.4z"/>
		</g>
		<g>
			<path class="st7" d="M84.7,30.7v5.4h-1.5v-5.4h-1.9v-1.3h5.3v1.3H84.7z"/>
		</g>
		<g>
			<path class="st7" d="M90.7,30.7v5.4h-1.5v-5.4h-1.9v-1.3h5.3v1.3H90.7z"/>
		</g>
		<g>
			<path class="st7" d="M98.6,29.4v1.3h-3.3v1.4h3v1.3h-3v1.4h3.4v1.3h-4.9v-6.7H98.6z"/>
		</g>
		<g>
			<path class="st7" d="M105.7,31.6c0,1.1-0.4,1.8-1.3,2.1l1.7,2.4h-1.8l-1.5-2.1h-1v2.1h-1.5v-6.7h2.5c1,0,1.8,0.2,2.2,0.5
				C105.4,30.3,105.7,30.9,105.7,31.6z M103.9,32.4c0.2-0.2,0.3-0.4,0.3-0.8s-0.1-0.6-0.3-0.7c-0.2-0.1-0.5-0.2-1-0.2h-1.1v2h1.1
				C103.3,32.7,103.7,32.6,103.9,32.4z"/>
		</g>
	</g>
</g>
</svg>
