<?xml version="1.0" encoding="utf-8"?>
<!-- Generator: Adobe Illustrator 24.1.0, SVG Export Plug-In . SVG Version: 6.00 Build 0)  -->
<svg version="1.1" id="Layer_1" xmlns="http://www.w3.org/2000/svg" xmlns:xlink="http://www.w3.org/1999/xlink" x="0px" y="0px"
	 viewBox="0 0 104 34" style="enable-background:new 0 0 104 34;" xml:space="preserve">
<style type="text/css">
	.st0{fill:#FFFFFF;}
</style>
<g>
	<path class="st0" d="M59.1,26.2h3.4v4.9c-0.5,0.2-1.1,0.3-1.6,0.4c-0.6,0.1-1.3,0.1-1.9,0.1c-1.3,0.1-2.6-0.4-3.5-1.4
		c-0.9-1-1.3-2.4-1.3-3.8c0-0.9,0.2-1.9,0.6-2.7c0.4-0.8,1-1.4,1.8-1.8c0.8-0.4,1.8-0.6,2.7-0.6c1,0,2,0.2,3,0.6l-0.4,1
		c-0.8-0.4-1.7-0.6-2.6-0.6c-1.1-0.1-2.1,0.3-2.8,1.1c-0.7,0.8-1.1,1.9-1,3c-0.1,1.1,0.3,2.2,1,3.1c0.7,0.8,1.8,1.2,2.8,1.1
		c0.7,0,1.3-0.1,2-0.2v-3.1h-2.2V26.2z"/>
	<path class="st0" d="M73.5,21.5v6.5c0.1,1-0.3,2-1,2.7c-0.8,0.7-1.8,1-2.8,1c-1,0.1-2-0.3-2.7-1c-0.7-0.7-1-1.7-1-2.7v-6.4h1.1V28
		c0,0.7,0.2,1.4,0.7,1.9c0.5,0.5,1.3,0.7,2,0.7c1.3,0.1,2.4-0.8,2.6-2.1c0-0.2,0-0.4,0-0.5v-6.5H73.5z"/>
	<path class="st0" d="M77.2,31.5v-10h1.2v10H77.2z"/>
	<path class="st0" d="M90.1,26.4c0.1,1.4-0.4,2.8-1.3,3.8c-1,0.9-2.4,1.4-3.8,1.3h-2.7v-10h3c1.3-0.1,2.6,0.4,3.6,1.3
		C89.8,23.7,90.2,25.1,90.1,26.4z M88.9,26.4c0.1-1.1-0.3-2.1-1-2.9c-0.8-0.7-1.8-1.1-2.9-1h-1.7v8h1.4c1.1,0.1,2.2-0.3,3.1-1
		C88.6,28.6,89,27.5,88.9,26.4L88.9,26.4z"/>
	<path class="st0" d="M99,31.5h-5.5v-10H99v1h-4.3v3.2h4.1v1h-4.1v3.7H99L99,31.5z"/>
	<path class="st0" d="M60.3,2.4h-6.1v16.3h6.1c5.4,0,8.9-3,8.9-8.2S65.8,2.4,60.3,2.4z M60.2,15.3h-1.7V5.8h1.7
		c2.8,0,4.7,1.6,4.7,4.7S63.1,15.3,60.2,15.3z"/>
	<path class="st0" d="M90.1,15.3c0.4-0.7,0.7-1.3,1.1-2h0c0,0,0.5,1,1.1,2l2,3.4h4.7l-5.3-8.1l5.3-8.2h-4.8l-1.9,3.3
		c-0.4,0.7-0.7,1.4-1.1,2.1h0c0,0-0.5-1.1-1-2.1l-1.8-3.3h-4.8l5.2,8.2l-5.2,8.1h4.6L90.1,15.3z"/>
	<path class="st0" d="M83,18.4l1-1.5L78.8,2.4h-4.4l-5.8,16.3h4.3l1-3.4h5.3l1.1,3.4h2.5L83,18.4z M74.9,12.1l1-3.2
		c0.3-1,0.7-2.8,0.7-2.8h0c0,0,0.4,1.8,0.7,2.8l1,3.2H74.9z"/>
	<path class="st0" d="M29.9,12.2H18.5c-1.3-0.1-2.3-1.3-2.1-2.6c0.1-1.1,1-2,2.1-2.1h11.3C31,7.6,32,8.6,32,9.9
		C32,11.1,31.1,12.1,29.9,12.2z"/>
	<path class="st0" d="M35.5,19.4H22.8c-1.3-0.1-2.3-1.3-2.1-2.6c0.1-1.1,1-2,2.1-2.1h12.7c1.3,0.1,2.3,1.3,2.1,2.6
		C37.5,18.3,36.6,19.3,35.5,19.4z"/>
	<path class="st0" d="M32.3,26.5H15.7c-1.3-0.1-2.3-1.3-2.1-2.6c0.1-1.1,1-2,2.1-2.1h16.6c1.2,0.1,2.2,1.1,2.2,2.4
		C34.4,25.4,33.5,26.4,32.3,26.5z"/>
	<path class="st0" d="M44.3,2.2h-7.1c-0.9,0-1.6,0.7-1.6,1.6c0,0.9,0.7,1.6,1.6,1.6c0,0,0,0,0,0H42v23.2h-4.8
		c-0.9,0-1.6,0.7-1.6,1.6c0,0.9,0.7,1.6,1.6,1.6c0,0,0,0,0,0h7.1c0.9,0,1.6-0.7,1.6-1.6V3.9C45.9,3,45.2,2.2,44.3,2.2
		C44.3,2.2,44.3,2.2,44.3,2.2z"/>
	<path class="st0" d="M6.6,2.2h7.1c0.9,0,1.6,0.7,1.6,1.6c0,0.9-0.7,1.6-1.6,1.6H8.8v23.2h4.9c0.9,0,1.6,0.7,1.6,1.6
		c0,0.9-0.7,1.6-1.6,1.6H6.6c-0.9,0-1.6-0.7-1.6-1.6c0,0,0,0,0,0V3.9C5,3,5.7,2.2,6.6,2.2C6.6,2.2,6.6,2.2,6.6,2.2z"/>
</g>
</svg>
