<?xml version="1.0" encoding="utf-8"?>
<!-- Generator: Adobe Illustrator 21.0.2, SVG Export Plug-In . SVG Version: 6.00 Build 0)  -->
<svg version="1.1" id="Layer_1" xmlns="http://www.w3.org/2000/svg" xmlns:xlink="http://www.w3.org/1999/xlink" x="0px" y="0px"
	 width="75.2px" height="33.7px" viewBox="0 0 75.2 33.7" style="enable-background:new 0 0 75.2 33.7;" xml:space="preserve">
<style type="text/css">
	.st0{fill:#111111;}
	.st1{fill:#404040;}
	.st2{fill:#F5F5F5;}
	.st3{clip-path:url(#SVGID_2_);fill:#D6DDE5;}
	.st4{filter:url(#Adobe_OpacityMaskFilter);}
	.st5{clip-path:url(#SVGID_2_);fill:url(#SVGID_4_);}
	.st6{filter:url(#Adobe_OpacityMaskFilter_1_);}
	.st7{fill:#FFFFFF;}
	.st8{mask:url(#YyB7br_3_);}
	.st9{fill:#DDDDDD;}
	.st10{fill:#F1C732;}
	.st11{fill:#EEEEEE;}
	.st12{fill:none;stroke:#DDDDDD;stroke-miterlimit:10;}
	.st13{fill:#DBDBDB;}
	.st14{fill:#4D4D4D;}
	.st15{fill:#1A1A1A;}
	.st16{fill:#333333;}
	.st17{fill:#666666;}
	.st18{fill:#2F8C6D;}
	.st19{enable-background:new    ;}
	.st20{clip-path:url(#SVGID_6_);}
	.st21{fill:none;stroke:#E9E9E9;stroke-miterlimit:10;}
	.st22{fill:url(#SVGID_9_);}
	.st23{fill:url(#SVGID_10_);}
	.st24{fill:url(#SVGID_11_);}
	.st25{fill:url(#SVGID_12_);}
	.st26{filter:url(#Adobe_OpacityMaskFilter_2_);}
	.st27{clip-path:url(#SVGID_14_);fill:url(#SVGID_16_);}
	.st28{fill:#030303;}
	.st29{display:none;}
	.st30{display:inline;}
	.st31{fill:url(#SVGID_17_);}
	.st32{fill:#E14E37;}
	.st33{fill:#E9BF32;}
	.st34{fill:#E51C24;}
	.st35{fill:#008A45;}
	.st36{fill:#7AC143;}
	.st37{fill:#222222;}
	.st38{fill:#308E6D;}
	.st39{fill:#808080;}
	.st40{fill:#2B8060;}
	.st41{fill:#207345;}
	.st42{fill:#185634;}
	.st43{fill:#E9EAEA;}
	.st44{fill:none;stroke:#333333;stroke-miterlimit:10;}
	.st45{display:none;fill:#666666;}
	.st46{fill:#909090;}
	.st47{fill:none;stroke:#E25D5D;stroke-miterlimit:10;}
	.st48{fill:#E25D5D;}
	.st49{fill:#C3C3C3;}
	.st50{fill:none;stroke:#4D4D4D;stroke-miterlimit:10;}
	.st51{filter:url(#Adobe_OpacityMaskFilter_3_);}
	.st52{mask:url(#SVGID_18_);}
	.st53{fill:#ADC1CB;stroke:#FFFFFF;stroke-width:0.5;stroke-miterlimit:1.4142;}
	.st54{fill:#ADC1CB;fill-opacity:0;stroke:#FFFFFF;stroke-width:0.5;stroke-miterlimit:1.4142;}
	.st55{fill:#3572A4;}
	.st56{fill:#00528B;}
	.st57{fill:#F6C300;}
	.st58{fill:#E41C24;}
	.st59{fill:#303180;}
	.st60{fill:none;stroke:#333333;stroke-linecap:round;stroke-linejoin:round;stroke-miterlimit:10;}
	.st61{fill:none;stroke:#000000;stroke-width:2;stroke-linecap:round;stroke-linejoin:round;stroke-miterlimit:10;}
	.st62{fill:url(#SVGID_19_);}
	.st63{display:inline;fill:#DDDDDD;}
	.st64{fill:none;stroke:#333333;stroke-width:1.5;stroke-miterlimit:10;}
	.st65{fill:#444444;}
	.st66{fill:#9E9E9E;}
	.st67{fill:#F2C80E;}
	.st68{fill:#279863;}
	.st69{fill:#E25E5E;}
	.st70{fill:#CA5455;}
	.st71{fill:#4B4A4B;}
	.st72{fill:#AAAAAA;}
	.st73{fill-rule:evenodd;clip-rule:evenodd;fill:#FFFFFF;}
	.st74{opacity:0.7;}
	.st75{fill:none;stroke:#333333;stroke-width:1.5;stroke-linecap:round;stroke-miterlimit:10;}
	.st76{fill:#EC5D5D;}
	.st77{fill:url(#SVGID_20_);}
	.st78{opacity:0.3;}
	.st79{fill:#EAEAEA;}
	.st80{fill:#EB5E5E;}
	.st81{fill:#D35455;}
	.st82{opacity:0.28;}
	.st83{fill:#E31C24;}
	.st84{opacity:0.4;}
	.st85{fill:#555555;}
	.st86{fill:#00B8AA;}
</style>
<g id="XMLID_164_">
	<g id="XMLID_171_">
		<g id="XMLID_185_">
			<path class="st7" d="M16.2,14.9c0.1,0.2,0,0.4-0.3,0.4H4.1c-0.3,0-0.4-0.2-0.3-0.4L9.8,5c0.1-0.2,0.4-0.2,0.5,0L16.2,14.9z"/>
		</g>
		<g id="XMLID_178_">
			<g id="XMLID_183_">
				<path class="st7" d="M49.8,0.9l-6.7,27.8c-1,4.3-4.3,5-7.4,5c-3.1,0-6.4-0.7-7.4-5L21.6,0.9c0-0.1,0-0.1,0-0.2
					c0-0.4,0.4-0.7,0.8-0.7h6.2c0.4,0,0.8,0.4,0.9,0.8l5.6,25.9c0.1,0.5,0.2,0.7,0.6,0.7s0.5-0.2,0.6-0.7L42,0.8
					C42,0.4,42.4,0,42.8,0h6.3c0.4,0,0.8,0.3,0.8,0.7C49.8,0.8,49.8,0.9,49.8,0.9z"/>
			</g>
			<g id="XMLID_181_">
				<path class="st7" d="M55.8,33.3h-4.2c-0.3,0-0.6-0.3-0.6-0.6V10.6c0-0.3,0.2-0.6,0.6-0.6h4.2c0.3,0,0.6,0.3,0.6,0.6v22.1
					C56.4,33,56.2,33.3,55.8,33.3z"/>
			</g>
			<g id="XMLID_179_">
				<path class="st7" d="M74.2,33.3H59.9c-0.7,0-1.3-0.3-1.3-1v-2.5c0-0.4,0.1-0.8,0.5-1.4l8.8-13.2c0.1-0.1,0.1-0.2,0.1-0.3
					c0-0.2-0.1-0.3-0.3-0.3h-7.8c-0.3,0-0.6-0.3-0.6-0.6v-3.5c0-0.3,0.3-0.6,0.6-0.6h13.5c0.7,0,1.3,0.3,1.3,0.9c0,0,0,0.3,0,0.8
					c0,0.8,0,2.1,0,2.1c0,0.3-0.1,0.6-0.3,0.8l-8.8,13.6c-0.1,0.1-0.2,0.3-0.2,0.3c0,0.1,0.1,0.2,0.3,0.2h8.5c0.3,0,0.6,0.2,0.6,0.6
					v3.5C74.8,33,74.5,33.3,74.2,33.3z"/>
			</g>
		</g>
		<g id="XMLID_172_">
			<g id="XMLID_175_">
				<path class="st7" d="M5,32c-2.8,0-5-1.5-5-5.4v-2c0-3.9,2.2-5.4,5-5.4c2.8,0,5,1.5,5,5.4v2C10,30.5,7.7,32,5,32z M7.1,24.6
					c0-2-0.7-2.9-2.1-2.9c-1.4,0-2.1,0.9-2.1,2.9v2c0,2,0.7,2.9,2.1,2.9c1.4,0,2.1-0.9,2.1-2.9V24.6z"/>
			</g>
			<g id="XMLID_173_">
				<path class="st7" d="M20.9,19.8l-4,5.7l4,6c0.1,0.1,0.1,0.1,0.1,0.2c0,0.1-0.1,0.2-0.2,0.2h-2.9c-0.2,0-0.3-0.1-0.4-0.2
					l-3.4-5.5v5.4c0,0.2-0.2,0.3-0.3,0.3h-2.2c-0.2,0-0.3-0.2-0.3-0.3V19.7c0-0.2,0.2-0.3,0.3-0.3h2.2c0.2,0,0.3,0.1,0.3,0.3v5.3
					l3.7-5.5c0.1-0.1,0.2-0.2,0.4-0.2h2.6c0.2,0,0.3,0.1,0.3,0.2C21,19.7,20.9,19.7,20.9,19.8z"/>
			</g>
		</g>
	</g>
	<g id="XMLID_165_">
		<g id="XMLID_166_">
			<path class="st7" d="M72.3,7.7c0-0.3,0.1-0.5,0.2-0.7c0.2-0.3,0.3-0.4,0.5-0.5c0.2-0.1,0.5-0.2,0.7-0.2s0.5,0.1,0.7,0.2
				S74.9,6.8,75,7c0.1,0.2,0.2,0.5,0.2,0.7S75.2,8.2,75,8.4c-0.1,0.2-0.3,0.4-0.5,0.5c-0.2,0.2-0.5,0.2-0.7,0.2S73.2,9.1,73,8.9
				c-0.2-0.1-0.4-0.3-0.5-0.5C72.4,8.2,72.3,8,72.3,7.7z M72.6,7.7c0,0.2,0.1,0.4,0.2,0.6c0.1,0.2,0.3,0.3,0.4,0.4
				c0.2,0.1,0.4,0.2,0.6,0.2c0.2,0,0.4-0.1,0.6-0.2c0.2-0.1,0.3-0.3,0.4-0.4s0.2-0.4,0.2-0.6c0-0.2-0.1-0.4-0.2-0.6
				c-0.1-0.2-0.3-0.3-0.4-0.4c-0.2-0.1-0.4-0.2-0.6-0.2c-0.2,0-0.4,0.1-0.6,0.2C73,6.8,72.8,7,72.7,7.1C72.6,7.4,72.6,7.5,72.6,7.7z
				 M74.3,7.4c0,0.2-0.1,0.4-0.3,0.4l0.5,0.8h-0.5L73.8,8h-0.1v0.6h-0.4V6.9h0.5c0.2,0,0.4,0.1,0.5,0.2C74.3,7.1,74.3,7.3,74.3,7.4z
				 M73.6,7.7L73.6,7.7c0.2,0,0.2,0,0.2-0.1c0.1-0.1,0.1-0.1,0.1-0.2c0-0.1,0-0.2-0.1-0.2c-0.1-0.1-0.1-0.1-0.2-0.1h-0.1L73.6,7.7
				L73.6,7.7z"/>
		</g>
	</g>
</g>
</svg>
