<?xml version="1.0" encoding="utf-8"?>
<!-- Generator: Adobe Illustrator 21.0.2, SVG Export Plug-In . SVG Version: 6.00 Build 0)  -->
<svg version="1.1" id="Layer_1" xmlns="http://www.w3.org/2000/svg" xmlns:xlink="http://www.w3.org/1999/xlink" x="0px" y="0px"
	 width="1500px" height="500px" viewBox="0 0 1500 500" style="enable-background:new 0 0 1500 500;" xml:space="preserve">
<style type="text/css">
	.st0{fill:#FFFFFF;}
</style>
<g id="SQLBI">
	<path class="st0" d="M1440.9,344.5c0-5,1.3-9.7,3.8-14.1s6-7.9,10.4-10.4s9.2-3.8,14.2-3.8s9.7,1.3,14.1,3.8s7.9,6,10.4,10.4
		s3.8,9.1,3.8,14.2c0,5-1.2,9.6-3.7,14c-2.4,4.4-5.9,7.8-10.3,10.5c-4.4,2.6-9.2,3.9-14.4,3.9c-5.2,0-10-1.3-14.4-3.9
		s-7.8-6.1-10.3-10.4C1442.1,354.1,1440.9,349.5,1440.9,344.5z M1446.2,344.5c0,4.1,1,8,3.1,11.5c2.1,3.6,4.9,6.4,8.5,8.4
		s7.4,3.1,11.5,3.1s8-1,11.5-3.1c3.6-2.1,6.4-4.9,8.4-8.5s3.1-7.4,3.1-11.5s-1-8-3.1-11.5c-2.1-3.6-4.9-6.4-8.5-8.4
		c-3.6-2.1-7.4-3.1-11.5-3.1s-8,1-11.5,3.1c-3.6,2.1-6.4,4.9-8.4,8.5C1447.2,336.6,1446.2,340.4,1446.2,344.5z M1480.7,337.9
		c0,4.3-1.8,7.2-5.4,8.8l8.9,15.1h-9.6L1468,349h-1.8v12.8h-8.6v-34.6h10c4.6,0,7.9,0.9,10,2.6
		C1479.7,331.6,1480.7,334.3,1480.7,337.9z M1466.2,342.7h1.2c1.7,0,2.9-0.4,3.6-1.1s1.1-1.9,1.1-3.6c0-1.6-0.4-2.8-1.1-3.5
		s-1.9-1-3.7-1h-1.1V342.7z"/>
	<g id="XMLID_3_">
		<g id="XMLID_16_">
			<g>
				<path class="st0" d="M178.1,156.1c-47.2,0-92.1-3.4-126.6-9.5c-22.5-4-38.6-8.7-49.1-14.7V376c0,18.8,79.6,33.2,175.7,33.2
					s173.5-15.5,173.5-33.2V131.2C315.2,153.2,223.1,156.1,178.1,156.1z M107.4,357.2c-23.2-2.2-46.4-4.4-69.6-7.7v-38.7
					c23.2,2.2,46.4,4.4,69.6,5.5C107.4,330.7,107.4,343.9,107.4,357.2z M211.3,359.4c-23.2,1.1-46.4,1.1-69.6,0V204.7h69.6
					C211.3,255.5,211.3,307.5,211.3,359.4z M314,349.5c-23.2,3.3-46.4,6.6-69.6,7.7V244.5c23.2,0,46.4-1.1,69.6-2.2V349.5z"/>
			</g>
			<g id="XMLID_17_">
				<path id="XMLID_19_" class="st0" d="M482,294.2c6.6,3.3,40.9,21,88.4,21c25.4,0,54.1-4.4,54.1-21c0-17.7-26.5-26.5-55.3-30.9
					c-42-6.6-100.6-18.8-100.6-80.7c0-63,56.4-79.6,110.5-79.6c49.7,0,82.9,14.4,101.7,25.4l-18.8,51.9c-15.5-9.9-46.4-21-82.9-21
					c-25.4,0-48.6,5.5-48.6,21c0,19.9,32,21,49.7,23.2c74,12.2,106.1,43.1,106.1,91.7c0,63-66.3,75.1-116,75.1
					c-45.3,0-81.8-11.1-107.2-25.4C463.2,346.1,482,294.2,482,294.2z M940.6,494.2h-61.9V367.1c-12.2,5.5-27.6,6.6-43.1,6.6
					c-72.9,0-128.2-40.9-128.2-131.5v-7.7c0-87.3,51.9-131.5,128.2-131.5c21,0,70.7,3.3,105,23.2V494.2L940.6,494.2z M770.4,242.3
					c0,61.9,28.7,75.1,69.6,75.1c18.8,0,32-3.3,38.7-7.7V167.1c-9.9-4.4-22.1-7.7-40.9-7.7c-42,0-67.4,14.4-67.4,75.1L770.4,242.3
					L770.4,242.3z M978.2,6.9h64.1v368h-64.1V6.9z"/>
				<path id="XMLID_18_" class="st0" d="M1078.8,8h61.9v101.7c12.2-5.5,27.6-6.6,43.1-6.6c72.9,0,128.2,40.9,128.2,131.5v7.7
					c0,88.4-51.9,131.5-128.2,131.5c-21,0-70.7-3.3-105-23.2V8L1078.8,8z M1249,233.4c0-61.9-28.7-75.1-69.6-75.1
					c-17.7,0-32,4.4-37.6,7.7v142.6c8.8,4.4,22.1,7.7,40.9,7.7c42,0,67.4-14.4,67.4-75.1L1249,233.4L1249,233.4z M1378.2,5.8
					c21,0,37.6,15.5,37.6,35.4s-16.6,36.5-37.6,36.5c-19.9,0-37.6-16.6-37.6-36.5S1357.3,5.8,1378.2,5.8L1378.2,5.8z M1347.3,116.3
					h61.9v257.5h-61.9V116.3L1347.3,116.3z"/>
			</g>
			<ellipse class="st0" cx="177.1" cy="107.3" rx="174.4" ry="28.3"/>
		</g>
	</g>
</g>
</svg>
