<!--?xml version="1.0" encoding="UTF-8" standalone="no"?-->
<!-- Created with Inkscape (http://www.inkscape.org/) -->

<svg xmlns:dc="http://purl.org/dc/elements/1.1/" xmlns:cc="http://creativecommons.org/ns#" xmlns:rdf="http://www.w3.org/1999/02/22-rdf-syntax-ns#" xmlns:svg="http://www.w3.org/2000/svg" xmlns="http://www.w3.org/2000/svg" xmlns:sodipodi="http://sodipodi.sourceforge.net/DTD/sodipodi-0.dtd" xmlns:inkscape="http://www.inkscape.org/namespaces/inkscape" width="100%" height="100%" viewBox="0 0 210 297" version="1.1" id="svg3883" inkscape:version="0.92.1 r15371" sodipodi:docname="Peru Provincias.svg">
  <defs id="defs3877"></defs>
  <sodipodi:namedview id="base" pagecolor="#ffffff" bordercolor="#666666" borderopacity="1.0" inkscape:pageopacity="0.0" inkscape:pageshadow="2" inkscape:zoom="0.35" inkscape:cx="400" inkscape:cy="902.85714" inkscape:document-units="mm" inkscape:current-layer="layer1" showgrid="false" inkscape:window-width="1920" inkscape:window-height="1057" inkscape:window-x="-8" inkscape:window-y="-8" inkscape:window-maximized="1"></sodipodi:namedview>
  <metadata id="metadata3880">
    <rdf:rdf>
      <cc:work rdf:about="">
        <dc:format>image/svg+xml</dc:format>
        <dc:type rdf:resource="http://purl.org/dc/dcmitype/StillImage"></dc:type>
        <dc:title>Peru Provincias</dc:title>
      </cc:work>
    </rdf:rdf>
  </metadata>
   <sodipodi:namedview inkscape:window-height="837" inkscape:window-width="1600" inkscape:pageshadow="2" inkscape:pageopacity="0.0" guidetolerance="10.0" gridtolerance="10.0" objecttolerance="10.0" borderopacity="1.0" bordercolor="#666666" pagecolor="#ffffff" id="base" inkscape:zoom="0.31049994" inkscape:cx="0.16543785" inkscape:cy="1019.5365" inkscape:window-x="-8" inkscape:window-y="-8" inkscape:current-layer="svg4400" showgrid="false" inkscape:window-maximized="1"></sodipodi:namedview>
  <defs id="defs4403"></defs>
    <g transform="matrix(0.26458333,0,0,0.26458333,30.24962,34.986905)" id="_x31_" class="area" title="">
      <path inkscape:connector-curvature="0" id="_x32_" title="Amazonas" class="area" d="m 154.14,293.95 -4.15,1.33 v 0 l -2.6,0.6 v 0 l -0.67,-6.26 -2.45,-2.89 -6.99,-13.68 -7.01,-3.67 -4.99,-9.71 -4.8,-3.48 0.16,-2.96 -4.88,-4.13 v -3.75 l 2.63,-6.38 0.37,-3 1.5,-3.75 1.88,-2.62 v -3.75 l -3.52,-1.6 -0.09,-0.55 -2.02,-0.1 -3,-3.01 v -7.5 l 3,-5.62 1.24,-4.56 -3.35,-9.86 v 0 l 1.8,-1.28 0.71,-3.45 -0.93,-7.09 1.3,-1.21 3.33,-7.78 0.43,-4.97 0.93,-2.8 5.65,-7.08 2.27,-13.22 1.91,-1.15 1.71,0.71 0.62,4.05 2.8,-2.03 0.46,-0.86 -0.46,-1.65 -1.47,-2.23 0.65,-1.12 3.59,-2.47 3.5,-5.09 4.65,-4.94 2.81,-2.29 2.11,-0.75 v 0 l 1.56,6.82 0.29,5.62 2.08,4.01 v 0 l 1.78,3.97 1.82,8.18 v 0 l -0.27,4.55 3.3,5.65 0.59,7.21 -1.1,10.53 0.51,2.36 -0.35,2.42 v 0 l -3.03,6.99 v 0 l -3.51,4.25 -1.52,3.01 -0.83,4.54 0.43,3.29 -2.75,3.09 v 3 l 4.41,3.52 0.86,3.63 2.99,6.1 v 0 l -2.56,2.42 -0.73,2.1 -0.39,8.96 1.22,2.9 4.43,8.47 1.77,1.98 11.61,3.37 3.16,3.91 2.02,5.99 -0.92,1.74 -4.96,4.02 -2.28,5.43 v 1.85 l -2.25,2.63 -2.25,1.12 -3.01,-2.25 -4.5,-0.37 -2.25,0.37 -2.27,1.92 -2.04,9.39 v 0 z"></path>
      <path inkscape:connector-curvature="0" id="_x33_" title="Ancash" class="area" d="m 116.33,380.21 1.72,-0.3 1.07,-2.56 -0.1,-3.12 2.16,-2.92 12.63,-4.32 5.88,-15.22 3.41,-3.02 3.82,-2.25 3.43,-4.98 9.21,-1.47 1.51,4.77 3.03,2.93 2.39,1.12 6.97,11.14 v 0 l 2.89,-0.64 v 0 l -0.36,5.85 2.95,1.82 -0.15,5.56 3.85,6.07 4.79,2.22 13.18,8.27 -0.22,3.57 -1.34,1.57 -5.4,0.66 -4.38,9.7 -2.07,0.36 -1.11,5.81 1.35,-0.21 4.9,2.67 2.01,3.35 0.67,3.13 0.23,5.14 -3.35,3.8 0.89,2.9 -1.34,4.25 -1.17,1.14 v 0 l -8.28,3.18 -1.43,2.04 -0.84,3.77 -2.71,2.99 -7.73,6.68 -3.36,1.23 -3.7,0.03 -0.74,-4.53 0.24,-2.87 -2.89,-1.95 -0.62,-2.72 0.38,-1.4 1.12,-1.56 2.01,-1.34 0.23,-2.91 -2.01,-0.89 -2.69,0.45 -3.36,3.31 -0.69,6.3 -0.75,1.86 -3.29,2.37 v 0 l -0.9,-2.53 -6.57,-10 -4.57,-10.06 -3.38,-9.3 0.41,-3.29 -5.62,-7.61 -1.01,-4.1 -0.16,-4.13 -1.47,-2.79 -1.95,-1.41 -1.5,-6.77 -5.09,-4.42 z"></path>
      <path inkscape:connector-curvature="0" id="_x34_" title="Apurímac" class="area" d="m 380.04,627.64 -5.43,1.06 -3.73,-0.4 -2.88,-1.4 -0.94,0.09 -1.23,1.28 -2.45,-0.49 v 0 l -3.34,-0.29 v 0 l -3.09,-1.78 -0.66,0.78 -0.96,-0.72 -2.9,0.45 -4.69,1.78 -3.8,0.23 -4.92,2.01 -1.78,2.01 -2.32,1.22 -2.15,-5.47 0.44,-4.02 -0.67,-3.8 -1.78,-3.35 4.24,-7.15 v -2.03 l -2.57,-3.54 -3.81,-10.5 -2.43,-4.79 0.36,-1.04 1.52,-0.23 0.57,-0.68 -2.26,-3.59 -2.2,-0.85 -0.76,-1.63 -1.7,-10.65 0.85,-3.95 1.12,-2.51 0.84,-0.31 1.14,0.65 0.89,1.64 10.78,7.89 6.93,-1.41 0.7,-2.49 v 0 l 0.67,0.85 v 0 l 2.32,1.72 9.81,0.27 4.4,-0.71 4.16,1.53 8.09,5.06 9.27,4.69 5.24,1.83 2.5,1.6 2.92,3.13 2.69,5.13 0.43,1.97 -0.1,5.58 -1.46,5.35 -0.72,1.35 -4.75,4.32 -1.37,2.9 -8.24,4.06 -1.2,1.37 -0.41,1.07 0.97,2.16 z"></path>
      <path inkscape:connector-curvature="0" id="_x35_" title="Arequipa" class="area" d="m 449.87,685.44 -0.69,11.48 -3.63,4.16 -0.51,1.03 0.37,2.23 -1.6,0.63 -2.9,-0.89 -5.14,-3.35 h -2.01 l -0.9,1.56 4.06,4.61 -2.54,1.21 -4.12,5.63 0.41,2.64 -0.41,2.33 -2.49,1.01 -2.76,2.3 -0.78,1.65 0.39,2.56 1.43,3.11 2.83,3.53 -1.22,4.63 -4.83,2.87 -4.28,1.26 v 0 l -4.34,-1.71 -6.39,-1.49 -2.29,-1.7 -1.58,-2.48 -8.56,-4.97 -4.54,-3.42 -5.63,-6.37 -3.99,-2.3 -6.69,-2.14 -4.94,-0.35 -2.65,-0.83 -4.81,-3.94 -14.07,-5.78 -3.38,-2.93 -3.96,-2 -18.32,-6.3 -6.97,-5.72 -2.01,-2.75 -5.35,-2.9 -9.5,-3.08 -2.04,-1.52 -1.72,-3.2 -24.29,-11.33 -2.12,-2.15 v 0 l 2.33,-6.57 3.35,-4.25 5.96,-3.2 4.35,-0.44 v 0 l 1.08,2.11 9.9,2.4 2.38,7.41 6.13,5.59 2.65,0.34 4.18,-2.06 1.31,7.06 1.45,-0.03 1.55,-0.88 0.31,-3.66 2.9,-6.26 6.48,-3.13 -0.22,2.46 1.12,3.13 1.8,1.01 5.75,-0.69 5.19,-2.57 2.66,1.03 2.02,-0.9 2.91,-4.47 3.8,-0.9 4.69,-6.48 1.34,-3.12 -0.67,-6.26 0.89,-2.9 1.34,-2.24 4.03,-1.34 0.69,-2.79 v 0 l 1.32,0.11 v 0 l 2.45,0.49 1.23,-1.28 0.94,-0.09 2.88,1.4 3.73,0.4 5.43,-1.06 v 0 l -0.33,1.9 0.56,1.23 3.31,3.67 3.62,0.57 4.56,-0.9 4.38,1.73 0.75,0.91 1.12,-0.05 1.07,-1.65 0.67,-4.2 -1.01,-1.97 0.64,-1.32 1.19,-0.07 6.88,8.37 -0.61,8.56 8.19,2.73 6.63,-3.43 0.08,-0.99 4.46,1.24 3.83,3.26 0.91,-0.19 1.65,-1.7 1.73,-0.01 -0.12,10.94 2.68,3.13 2.69,0.67 2.85,-0.36 v 0 l -0.06,2.46 v 0 l 0.52,4.47 4.87,5.63 -1.62,4.48 2.25,3.75 2.15,2.24 z"></path>
      <path inkscape:connector-curvature="0" id="_x36_" title="Ayacucho" class="area" d="m 362.06,627.67 -0.69,2.79 -4.03,1.34 -1.34,2.24 -0.89,2.9 0.67,6.26 -1.34,3.12 -4.69,6.48 -3.8,0.9 -2.91,4.47 -2.02,0.9 -2.66,-1.03 -5.19,2.57 -5.75,0.69 -1.8,-1.01 -1.12,-3.13 0.22,-2.46 -6.48,3.13 -2.9,6.26 -0.31,3.66 -1.55,0.88 -1.45,0.03 -1.31,-7.06 -4.18,2.06 -2.65,-0.34 -6.13,-5.59 -2.38,-7.41 -9.9,-2.4 -1.08,-2.11 v 0 l 1.39,-3.45 -0.01,-4.5 -2.95,-2.71 -4.91,-9.6 -1.34,-1.79 -1.63,-0.58 -1.51,1.54 -4.69,-0.07 -1.78,-4.91 -0.67,-4.7 1.11,-2.68 0.83,-12.86 v 0 l 0.3,0.1 v 0 l 1.78,-0.2 3.8,1.12 4.69,-1.34 2.46,-6.26 0.36,-7.79 -0.47,-1.92 0.53,-3.09 -3.2,-4.2 -2.75,-1.81 1.39,-4.74 4.43,-1.31 1.23,0.76 1.38,-0.69 4.69,-5.59 5.81,-3.35 2.01,-4.02 3.36,-1.12 2.13,-1.53 -0.93,-1.56 0.34,-1.25 -0.87,-4.38 -3.63,-13.76 -0.57,-0.83 -0.92,-0.13 -0.47,-1.59 -2.66,-3.04 1.44,-3.9 2.78,0.24 3.4,-2.82 v 0 l 0.01,0.02 v 0 l 1.96,-0.21 3.35,2.45 3.57,0.67 2.68,-0.44 1.79,-1.12 4.25,0.22 v 0 l -0.13,2 v 0 l 6.2,13.12 2.23,2.55 0.72,-0.52 2.32,2.18 2.29,4.84 3.12,2.09 4.69,9.6 1.12,4.47 4.92,7.15 -0.23,1.06 v 0 l 0.03,0.03 v 0 l -0.7,2.49 -6.93,1.41 -10.78,-7.89 -0.89,-1.64 -1.14,-0.65 -0.84,0.31 -1.12,2.51 -0.85,3.95 1.7,10.65 0.76,1.63 2.2,0.85 2.26,3.59 -0.57,0.68 -1.52,0.23 -0.36,1.04 2.43,4.79 3.81,10.5 2.57,3.54 v 2.03 l -4.24,7.15 1.78,3.35 0.67,3.8 -0.44,4.02 2.15,5.47 2.32,-1.22 1.78,-2.01 4.92,-2.01 3.8,-0.23 4.69,-1.78 2.9,-0.45 0.96,0.72 0.66,-0.78 3.09,1.78 v 0 z"></path>
      <path inkscape:connector-curvature="0" id="_x37_" title="Cajamarca" class="area" d="m 114.4,193.05 3.35,9.86 -1.24,4.56 -3,5.62 v 7.5 l 3,3.01 2.02,0.1 0.09,0.55 3.52,1.6 v 3.75 l -1.88,2.62 -1.5,3.75 -0.37,3 -2.63,6.38 v 3.75 l 4.88,4.13 -0.16,2.96 4.8,3.48 4.99,9.71 7.01,3.67 6.99,13.68 2.45,2.89 0.67,6.26 v 0 l -0.12,0.02 v 0 l 5.48,11.37 1.79,4.69 0.67,4.03 -5.81,6.7 -1.49,0.5 -0.62,1.42 -2.17,0.53 -1.6,-1.4 -2.63,-0.75 -3,2.62 -5.81,2.53 -0.5,-2.23 -1.73,-1.08 -0.21,-5.97 -2.25,-1.5 -6.75,1.13 -2.63,-0.75 -0.75,-3.38 -3,-1.87 -4.88,2.62 -4.87,5.25 -2.63,1.13 -2.38,-0.15 -0.07,-1.3 -1.71,-3.52 -3.87,-3.24 -4.14,-1.08 -1.33,-3.46 v -2.63 l -0.81,-1.15 -0.43,-8.52 v 0 l 0.94,-0.35 0.36,-1.41 0.08,-3.64 2.75,-1.32 3.59,-3.63 0.21,-1.64 -0.51,-0.97 -6.08,-1.2 -5.74,-6.83 -0.5,-6.66 2.81,-2.72 1.96,-0.86 2.69,0.18 1.69,-3.28 1.43,-7 -0.36,-0.8 -4.12,-1.83 -1.43,-2.76 v 0 l 0.18,-0.14 v 0 l -2.19,-3.95 -0.85,-3.6 0.85,-6.82 2.57,-3.14 0.93,0.13 -0.24,-7.05 -1.52,-2.1 -1.47,-5.19 3.52,-5.08 3.39,-3.61 v 0 l 5.62,0.48 1.58,1.08 1.14,-0.21 4.61,-5.41 0.44,-5.42 1.8,-2.71 3.64,-2.69 z"></path>
      <path inkscape:connector-curvature="0" id="_x38_" title="El Callao" class="area" d="m 179.43,498.31 4.42,0.33 0.23,7.82 3.57,5.81 0.67,2.23 -2.16,3.07 v 0 l -2.64,-2.45 -3.67,-0.99 1.48,-3.07 -0.5,-4.62 -1.41,-3.96 0.47,-2.86 z"></path>
      <path inkscape:connector-curvature="0" id="_x39_" title="Cusco" class="area" d="m 360.67,481.22 4.52,2.77 5.94,0.67 3,1.31 v 0 l 2.12,0.56 4.67,-2.44 v 0 l 2.37,-2.15 5.33,-1.59 v 0 l -0.89,8.9 -2.01,3.36 -4.25,4.69 3.7,4.68 -0.38,1.75 1.38,1.61 0.89,4.69 7.6,4.7 2.45,3.35 1.35,3.13 3.35,1.56 -1.13,2.26 0.51,0.26 -4.52,3.73 4.47,5.81 0.67,6.71 2.45,1.78 h 1.79 l 13.18,-2.68 4.92,6.93 3.57,2.46 6.48,1.78 1,2.03 2.13,9.37 2.01,0.45 2.68,-1.79 3.9,-3.49 0.57,-1.87 1.79,-0.67 3.35,1.34 5.14,0.44 4.25,1.34 3,-0.24 3.47,0.69 v 0 l -0.44,6.26 v 0 l -0.23,4.69 -7.82,8.71 -7.59,9.83 -3.58,1.57 -0.67,5.81 0.9,4.02 -1.34,8.27 -3.8,7.37 -1.79,6.92 -2.9,2.02 -1.12,1.78 3.3,4.33 1.13,0.29 1.98,2.96 0.74,4.57 -1.68,3.27 0.31,4.76 1.18,1.86 0.42,3.17 -0.26,3.66 -2.01,1.09 0.22,1.98 v 0 l -0.02,1.11 v 0 l -2.85,0.36 -2.69,-0.67 -2.68,-3.13 0.12,-10.94 -1.73,0.01 -1.65,1.7 -0.91,0.19 -3.83,-3.26 -4.46,-1.24 -0.08,0.99 -6.63,3.43 -8.19,-2.73 0.61,-8.56 -6.88,-8.37 -1.19,0.07 -0.64,1.32 1.01,1.97 -0.67,4.2 -1.07,1.65 -1.12,0.05 -0.75,-0.91 -4.38,-1.73 -4.56,0.9 -3.62,-0.57 -3.31,-3.67 -0.56,-1.23 0.33,-1.9 v 0 l 0.15,-2.75 -0.97,-2.16 0.41,-1.07 1.2,-1.37 8.24,-4.06 1.37,-2.9 4.75,-4.32 0.72,-1.35 1.46,-5.35 0.1,-5.58 -0.43,-1.97 -2.69,-5.13 -2.92,-3.13 -2.5,-1.6 -5.24,-1.83 -9.27,-4.69 -8.09,-5.06 -4.16,-1.53 -4.4,0.71 -9.81,-0.27 -2.32,-1.72 v 0 l -0.7,-0.88 v 0 l 0.23,-1.06 -4.92,-7.15 -1.12,-4.47 -4.69,-9.6 -3.12,-2.09 -2.29,-4.84 -2.32,-2.18 -0.72,0.52 -2.23,-2.55 -6.2,-13.12 v 0 l 0.11,-1.69 v 0 l 4.48,-1.2 4.92,0.22 3.57,4.25 9.61,-7.38 2.01,-2.68 -5.18,-10.17 -3.53,-1.44 -0.67,-3.58 1.94,-8.62 2.27,-3.12 2.43,-5.89 v 0 l 0.92,0.37 10.84,-1.42 8.17,-2.42 v 0 z"></path>
      <path inkscape:connector-curvature="0" id="_x31_0" title="Huánuco" class="area" d="m 190.28,437 1.17,-1.14 1.34,-4.25 -0.89,-2.9 3.35,-3.8 -0.23,-5.14 -0.67,-3.13 -2.01,-3.35 -4.9,-2.67 -1.35,0.21 1.11,-5.81 2.07,-0.36 4.38,-9.7 5.4,-0.66 1.34,-1.57 0.22,-3.57 -13.18,-8.27 -4.79,-2.22 -3.85,-6.07 0.15,-5.56 -2.95,-1.82 0.36,-5.85 v 0 l 1.67,-0.37 v 0 l 3.38,-2.25 v 0 l 2.25,3.47 1.77,-0.29 1.2,1.52 h 6.08 l -0.2,-0.77 5.4,-0.93 3,0.75 4.13,-1.5 4.87,2.25 3,-4.88 1.77,0.89 0.08,-0.51 3.31,2.06 5.5,11.25 2.16,0.26 1.49,-1.75 -1.93,-12.57 3.75,-3.76 4.02,-1.44 v 0 l 1.47,2.3 v 0 l -0.14,0.19 v 0 l -0.83,3.66 v 0 l -0.32,5.62 v 0 l 1.03,2.57 -0.14,3.46 v 0 l -0.67,4.05 1.31,4.9 3.93,8.68 7.28,11.64 2.23,0.7 6.97,-4.18 2.41,0.58 3.36,-0.9 4.02,-3.79 -0.23,-4.47 2.24,-2.68 0.88,-4.41 5.82,-0.96 1.12,2.24 h 2.01 l 1.12,-2.01 0.22,-2.91 2.48,-7.74 4.85,-1.94 5.46,0.26 1.84,1.44 0.79,4 -2.04,1.33 -2.51,4.88 -0.68,3.23 0.76,3.26 v 4.46 l 1.78,2.24 0.9,3.35 v 0 l -1.79,2.23 -0.84,3.08 v 0 l -5.64,6.31 -0.89,3.13 -2.91,3.12 -2.68,0.23 -3.57,2.23 -0.65,1.29 -0.76,-0.07 -3.06,2.8 -2.98,-3.01 -1.49,-0.78 -2.68,-0.23 -7.46,5.83 -1.4,0.19 -8.57,7.17 -4.24,6.47 -2.46,0.9 -1.12,1.79 -2.23,0.89 -1.79,6.03 -13.63,-2.46 -2.01,-0.89 -2.23,-2.23 -3.13,-0.23 -3.35,1.12 -6.26,4.24 -3.81,0.9 v 0 l -0.11,-0.13 v 0 l -2.55,-1.01 -0.83,-2.85 -0.95,-0.66 -1.87,0.43 -1.09,-0.66 z"></path>
      <path inkscape:connector-curvature="0" id="_x31_1" title="Huancavelica" class="area" d="m 300.08,519.5 -3.4,2.82 -2.78,-0.24 -1.44,3.9 2.66,3.04 0.47,1.59 0.92,0.13 0.57,0.83 3.63,13.76 0.87,4.38 -0.34,1.25 0.93,1.56 -2.13,1.53 -3.36,1.12 -2.01,4.02 -5.81,3.35 -4.69,5.59 -1.38,0.69 -1.23,-0.76 -4.43,1.31 -1.39,4.74 2.75,1.81 3.2,4.2 -0.53,3.09 0.47,1.92 -0.36,7.79 -2.46,6.26 -4.69,1.34 -3.8,-1.12 -1.78,0.2 v 0 l -1.35,-0.42 v 0 h -3.13 l -1.73,0.81 -2.96,-0.36 -3.57,-2.01 -0.97,-1.59 -4.6,-2.07 -1.3,-2.33 -0.21,-4.24 1.37,-2.62 -1.03,-5.23 1.97,-1.97 1.13,-2.21 0.06,-5 -1.34,-1.34 -2.68,0.22 -3.87,2.99 -4.74,0.21 -0.95,-1.04 -1.39,0.08 -1.34,-1.79 3.58,-5.59 1.02,-8.52 v 0 h 0.01 v 0 l -0.14,-1.31 2.68,-1.11 3.58,-6.48 1.56,-1.57 -0.67,-2.01 1.36,-4.85 -0.68,-0.46 v 0 l -0.06,-0.16 v 0 h 3.4 l 14.3,-13.41 4.25,-6.7 0.44,-5.14 2.46,-1.56 5.72,-0.89 8.13,-0.01 1.13,0.67 h 3.34 l 6.03,1.34 2.46,2.24 0.67,2.9 -1.57,0.43 v 0 z"></path>
      <path inkscape:connector-curvature="0" id="_x31_2" title="Ica" class="area" d="m 219,566.13 1.56,-1.36 1.79,-4.02 8.27,-6.03 2.68,-1.12 2.45,0.9 H 240 l 0.32,1.11 v 0 l 0.19,-0.03 v 0 l -1.02,8.52 -3.58,5.59 1.34,1.79 1.39,-0.08 0.95,1.04 4.74,-0.21 3.87,-2.99 2.68,-0.22 1.34,1.34 -0.06,5 -1.13,2.21 -1.97,1.97 1.03,5.23 -1.37,2.62 0.21,4.24 1.3,2.33 4.6,2.07 0.97,1.59 3.57,2.01 2.96,0.36 1.73,-0.81 h 3.13 v 0 l 1.05,0.32 v 0 l -0.83,12.86 -1.11,2.68 0.67,4.7 1.78,4.91 4.69,0.07 1.51,-1.54 1.63,0.58 1.34,1.79 4.91,9.6 2.95,2.71 0.01,4.5 -1.39,3.45 v 0 l -4.35,0.44 -5.96,3.2 -3.35,4.25 -2.33,6.57 v 0 l -5.52,-8.54 -2.78,-2.88 -4.27,-3.03 -5.37,-7.86 -13.59,-8.01 -4.02,-3.29 -0.35,-3.35 -1.85,-4.53 -4.31,-4.18 -2.31,-6.41 -2.7,-2.46 -4.35,-2.08 0.26,-9.78 -3.76,-1.81 0.68,-2.21 1.81,-0.67 1.15,0.58 1.24,1.81 3.05,-9.26 0.87,-7.86 -3.4,-6.29 z"></path>
      <path inkscape:connector-curvature="0" id="_x31_3" title="Junín" class="area" d="m 208.91,470.21 2.65,-0.39 2.46,0.67 0.82,1.44 1.11,-0.16 1.64,1.17 2.9,-0.44 2.24,-2.24 3.13,0.45 3.12,-1.34 0.9,-2.24 -0.45,-2.01 -3.57,0.23 -0.26,-2.4 0.48,-1.62 2.9,-1.79 2.24,0.22 2.01,1.57 6.48,-1.34 10.28,-4.7 h 1.11 l 3.13,3.52 4.03,0.07 2.13,-0.67 0.77,-1.35 5.36,-2.91 2.91,-0.44 3.49,0.81 2.09,-0.14 13.44,7.11 5.25,-0.07 v 0 l 1.11,5.29 2.99,1.07 h 4.47 l 6.94,-0.19 5.09,-0.97 1.6,6.08 4.24,0.89 2.01,-1.12 0.9,-2.9 0.13,-8.15 2.22,-4.11 5.47,1.66 v 0 l 3.07,3.24 v 0 l 0.73,7.02 2.39,0.67 1.85,1.57 0.9,6.48 -0.29,4.04 v 0 l -2.43,5.89 -2.27,3.12 -1.94,8.62 0.67,3.58 3.53,1.44 5.18,10.17 -2.01,2.68 -9.61,7.38 -3.57,-4.25 -4.92,-0.22 -4.48,1.2 v 0 l 0.02,-0.31 v 0 l -4.25,-0.22 -1.79,1.12 -2.68,0.44 -3.57,-0.67 -3.35,-2.45 -1.96,0.21 v 0 l -1.18,-2.02 v 0 l 1.57,-0.43 -0.67,-2.9 -2.46,-2.24 -6.03,-1.34 h -3.34 l -1.13,-0.67 -8.13,0.01 -5.72,0.89 -2.46,1.56 -0.44,5.14 -4.25,6.7 -14.3,13.41 h -3.4 v 0 l -0.32,-0.96 v 0 l -0.77,-2.28 -0.22,-5.59 0.84,-4.39 -2.71,-5.06 0.8,-2.05 -0.33,-1.3 -0.91,-0.72 -0.13,-4.35 -7.71,0.42 -9.09,-3.08 -3.68,-5.1 -2.58,-2.53 -1.02,-7.79 -0.99,-0.67 -2.47,0.1 -1.88,-0.79 -1.44,-2.44 -4.11,-8.36 -0.53,-5.32 0.4,-4.22 v 0 z"></path>
      <path inkscape:connector-curvature="0" id="_x31_4" title="La Libertad" class="area" d="m 154.36,294.58 7.51,10.05 -1.36,3.43 0.18,2.24 1.81,4.4 1.83,1.11 1.6,14.59 3.58,0.67 1.56,1.34 1.18,7.46 5.02,-1.88 3.38,-0.37 2.62,1.87 4.5,0.75 3.75,5.63 1.13,4.12 -0.92,0.47 0.28,2.23 -8.74,2.18 -1.87,1.88 v 0 l -3.38,2.25 v 0 l -4.56,1.01 v 0 l -6.97,-11.14 -2.39,-1.12 -3.03,-2.93 -1.51,-4.77 -9.21,1.47 -3.43,4.98 -3.82,2.25 -3.41,3.02 -5.88,15.22 -12.63,4.32 -2.16,2.92 0.1,3.12 -1.07,2.56 -1.72,0.3 v 0 l 0.04,-1.8 -2.7,-4.15 -1.95,-10.37 -6.56,-7.26 0.3,-1.94 -3.25,-6.52 -7.77,-8.29 -6.05,-4.39 -2.31,-3.03 -2.38,-4.12 -1.19,-4.26 -5.6,-8.32 0.14,-2.71 -2.29,-6.05 -3.04,-3.25 v 0 l 7.1,-7.48 2.7,-2.05 4.21,1.05 1.41,1.17 v 0 l 0.43,8.52 0.81,1.15 v 2.63 l 1.33,3.46 4.14,1.08 3.87,3.24 1.71,3.52 0.07,1.3 2.38,0.15 2.63,-1.13 4.87,-5.25 4.88,-2.62 3,1.87 0.75,3.38 2.63,0.75 6.75,-1.13 2.25,1.5 0.21,5.97 1.73,1.08 0.5,2.23 5.81,-2.53 3,-2.62 2.63,0.75 1.6,1.4 2.17,-0.53 0.62,-1.42 1.49,-0.5 5.81,-6.7 -0.67,-4.03 -1.79,-4.69 -5.48,-11.37 v 0 l 2.72,-0.62 v 0 l 4.15,-1.33 v 0 z"></path>
      <path inkscape:connector-curvature="0" id="_x31_5" title="Lambayeque" class="area" d="m 76.39,249.26 1.19,1.41 v 0 l 1.45,-0.34 v 0 l 3.06,1.16 0.64,1.36 v 0 l 0.91,-0.54 v 0 l 3.27,-2.59 v 0 l 1.43,2.76 4.12,1.83 0.36,0.8 -1.43,7 -1.69,3.28 -2.69,-0.18 -1.96,0.86 -2.81,2.72 0.5,6.66 5.74,6.83 6.08,1.2 0.51,0.97 -0.21,1.64 -3.59,3.63 -2.75,1.32 -0.08,3.64 -0.36,1.41 -0.94,0.35 v 0 l -1.41,-1.17 -4.21,-1.05 -2.7,2.05 -7.1,7.48 v 0 l -0.26,-2.77 -0.67,-1.09 -3.72,-4.49 -4.89,-4.08 -2.03,-5.21 -5.82,-5.26 -14.35,-7.29 -6.65,-4.92 v 0 l 5.26,-7.46 1.46,-3.66 4.22,-5.08 1.74,-1.46 5.38,-1.83 5.12,-4.13 3.48,-4.81 0.29,-3.39 1.19,-2.88 6.61,5.08 2.89,6.26 1.75,0.78 v 0 l 2.64,1.32 z"></path>
      <path inkscape:connector-curvature="0" id="_x31_6" title="Lima" class="area" d="m 209.3,471.15 -0.4,4.22 0.53,5.32 4.11,8.36 1.44,2.44 1.88,0.79 2.47,-0.1 0.99,0.67 1.02,7.79 2.58,2.53 3.68,5.1 9.09,3.08 7.71,-0.42 0.13,4.35 0.91,0.72 0.33,1.3 -0.8,2.05 2.71,5.06 -0.84,4.39 0.22,5.59 0.77,2.28 v 0 l 0.38,1.12 v 0 l 0.68,0.46 -1.36,4.85 0.67,2.01 -1.56,1.57 -3.58,6.48 -2.68,1.11 0.14,1.31 v 0 l -0.2,0.03 v 0 L 240,554.5 h -4.25 l -2.45,-0.9 -2.68,1.12 -8.27,6.03 -1.79,4.02 -1.56,1.36 v 0 l -1.72,-0.16 -8.25,-9.46 -1.19,-6.2 -5,-6.71 -6.39,-13.3 v 0 l 1.7,-1.28 -0.45,-4.02 4.03,-6.25 0.22,-5.59 -2.01,-3.57 -2.91,-3.35 -3.12,-1.35 1.11,-3.35 1.79,-0.44 -1.12,-2.24 -9.6,-9.61 -2.91,-0.67 -2.23,2.24 -2.24,1.12 -1.55,2.1 v 0 l -2.81,-4.17 -2.98,-2.6 -11.66,-6.62 -0.76,-1.96 0.7,-1.43 1.41,-0.14 0.22,-1.55 -2.93,-10.64 -4.43,-7.95 -4.75,-5.94 v 0 l 3.29,-2.37 0.75,-1.86 0.69,-6.3 3.36,-3.31 2.69,-0.45 2.01,0.89 -0.23,2.91 -2.01,1.34 -1.12,1.56 -0.38,1.4 0.62,2.72 2.89,1.95 -0.24,2.87 0.74,4.53 3.7,-0.03 3.36,-1.23 7.73,-6.68 2.71,-2.99 0.84,-3.77 1.43,-2.04 8.28,-3.18 v 0 l 0.46,2.02 1.09,0.66 1.87,-0.43 0.95,0.66 0.83,2.85 2.55,1.01 v 0 l 0.74,0.84 v 0 l 1.25,4.77 2.07,3.57 0.87,4.11 2.44,2.82 0.16,6.67 0.52,1.24 2.53,1.71 v 0 z"></path>
      <path inkscape:connector-curvature="0" id="_x31_7" title="Municipalidad Metropolitana de Lima" class="area" d="m 196.45,530.3 -1.48,-3.61 -8.81,-9.12 v 0 l 2.16,-3.07 -0.67,-2.23 -3.57,-5.81 -0.23,-7.82 -4.42,-0.33 v 0 l -2.27,-4.27 v 0 l 1.55,-2.1 2.24,-1.12 2.23,-2.24 2.91,0.67 9.6,9.61 1.12,2.24 -1.79,0.44 -1.11,3.35 3.12,1.35 2.91,3.35 2.01,3.57 -0.22,5.59 -4.03,6.25 0.45,4.02 z"></path>
      <path inkscape:connector-curvature="0" id="_x31_8" title="Loreto" class="area" d="m 266.88,0.36 4.93,3.29 3.56,3.22 3.32,1.42 2.04,-1.13 1.71,0.09 2.19,3.47 0.53,3.05 3.24,1.9 1.08,-0.97 9.12,6.77 1.01,1.46 2.31,8.65 2.92,3.05 -1.5,3.25 1.8,3.51 1.08,0.93 5.87,1.61 8.96,5.76 1.15,2.39 3.79,1.05 4.21,-0.23 4.18,3.85 0.55,3.94 4.08,6.04 -1.7,1.87 -0.87,3.98 3.89,2.9 5.09,2.41 2.48,-1.19 1.79,-1.66 2.74,1.82 1.81,3.15 1.38,9.42 -0.84,2.32 -2.3,1.95 0.7,3.51 1.77,1.8 3.02,1.67 2.92,-0.45 2.25,4.51 12.46,-4.21 12.4,3.58 3.08,0.32 10.47,-5.5 3.94,0.36 0.79,-2.44 2.68,-3.8 4.92,-3.52 0.81,3.27 6.58,0.41 4.61,1.98 2.16,2.79 7.41,0.57 3.71,-2.06 5.32,-1.42 5.01,-2.25 6.47,4.24 h 3.96 l 3.84,3.35 4.31,1.92 2.56,2.27 1.2,-0.45 1.72,0.38 3.27,2.93 0.42,1.66 7.6,-1.52 v 2.4 l -1.56,5.32 -28.03,43.5 8.37,3.38 h 1.16 l 5.92,-3.04 1.67,0.48 3.78,3.07 2.25,2.81 2.51,5.73 7.1,5.83 0.27,2.26 -1.25,2.12 -1.59,1.09 -7.72,-0.23 -4.43,-3.51 0.08,-3.23 -0.88,-1.46 -4.66,-0.33 -3.01,2.03 -3.6,0.67 -1.77,-1.49 -5.84,-0.54 -2.98,1.67 -1.72,3.96 -3.57,4.34 -1.57,-0.01 -2.54,2.26 h -4.79 l -4.31,2.39 -6.24,0.96 -6.22,2.4 -12.47,-0.48 -8.14,7.19 -4.8,3.35 -6.23,2.4 -6.71,4.31 -6.7,7.19 -6.24,2.4 -4.79,7.67 -2.87,16.29 -5.75,4.79 -5.28,8.63 4.32,10.54 1.91,6.71 -6.23,6.23 -21.56,10.55 -1.92,10.06 -2.09,0.6 3.25,4.66 0.6,3.69 -1.38,1.06 -8.24,1.07 0.03,3.59 -1.36,3.61 -1.06,0.06 v 0 l -1.32,-1.14 -0.08,-1.36 -5.81,-4.69 -7.37,-0.67 -1.57,-1.79 -3.8,0.22 -5.29,7.25 1.31,12.18 -0.15,3.77 -0.98,2.22 -2.09,1.36 -1.06,2.49 -2.46,1.34 -5.59,0.45 -4.47,-0.45 -2.23,-1.12 -4.92,-0.44 -5.33,5.68 -4.19,-0.64 -2.67,2.01 -0.99,1.88 -0.22,9.08 -1.48,1.15 -2.29,0.57 -3.49,-2.77 h -1.86 l -9.78,9.3 v 0 l -1.57,0.68 -0.98,-2.59 v 0 l 0.32,-5.62 v 0 l 0.83,-3.66 v 0 l 0.14,-0.19 v 0 l -1.74,-2.73 v 0 l 0.75,-5.63 1.88,-3.37 2.4,-2.23 -1.49,-3.02 h -2.95 l -0.73,-2.56 -2.64,-3.46 -1.23,-4.07 -1.01,-6.92 -3.46,-3.46 -1.23,-3.67 0.16,-5.94 2.8,-0.93 0.36,-1.67 4.14,-2.96 -1.12,-12.75 2.06,-2.07 2.55,-0.35 3.68,1.12 2.27,1.68 v 0 l 0.45,0.57 4.74,-0.2 3.75,-0.75 v 0 l 1.61,-0.64 1.15,-4.61 1.1,-12.84 -0.48,-3.36 1.87,-2.18 0.38,-3.75 -2.25,-3 -3.75,-1.87 v 0 l -5.26,1.12 -2.79,2.13 v 0 l -3.86,-0.81 -6.31,0.01 -6.54,4.3 -3,-1.5 -3,-3.75 -4.13,-3.75 -3.85,-0.39 -3.85,2.4 -2.38,0.36 -4.23,-2.36 -0.85,-1.27 v 0 l -2.18,-6.02 v 0 l -0.65,-1.19 v 0 l -0.69,-1.23 -4.34,-2.98 -2.15,-0.68 v 0 l -9.85,-0.45 v 0 0 0 l -2.37,-0.93 -4.78,-5.35 -7.26,-2.63 -4.19,-3.42 v 0 l -2.99,-6.1 -0.86,-3.63 -4.41,-3.52 v -3 l 2.75,-3.09 -0.43,-3.29 0.83,-4.54 1.52,-3.01 3.51,-4.25 v 0 l 3.03,-6.99 v 0 l 0.35,-2.42 -0.51,-2.36 1.1,-10.53 -0.59,-7.21 -3.3,-5.65 0.27,-4.55 v 0 l -1.82,-8.18 -1.78,-3.97 v 0 l -2.08,-4.01 -0.29,-5.62 -1.56,-6.82 v 0 l 49.07,-16.82 25.04,-18.71 19.07,-22.69 2.7,-2.39 6.91,-26.18 3.06,2.42 4.85,-0.44 -3.24,-10.13 0.4,-3.15 1.47,-1.13 0.2,-2.91 -0.78,-1.61 -3.3,-2.47 -1.03,0.08 -2.11,-1.99 -2.89,-7.94 -3.84,-2.22 -2.28,-0.34 0.37,-2.78 4.13,0.44 4.02,2.01 3.21,-0.55 2.73,-1.34 1.14,0.12 1.41,-1.12 0.9,-2.51 z"></path>
      <path inkscape:connector-curvature="0" id="_x31_9" title="Madre de Dios" class="area" d="m 459.18,466.71 0.03,1.46 4.48,-3.17 3.18,3.12 4.55,-0.38 14.18,-1.91 3.72,-1.77 6.22,0.46 1.81,1.6 7.27,-0.48 27.42,45.34 10.73,21.83 -2.98,3.63 -3.07,6.45 -2.73,1.06 0.39,3.45 -0.81,3.53 -3.59,2.59 v 0 l -3.28,2.09 -18.09,7.15 -2.46,2.68 -4.92,1.12 -4.78,0.41 -9.52,-1.97 -10.5,-5.14 -6.25,-0.67 -2.71,0.5 v 0 l 0.02,-0.28 v 0 l -3.47,-0.69 -3,0.24 -4.25,-1.34 -5.14,-0.44 -3.35,-1.34 -1.79,0.67 -0.57,1.87 -3.9,3.49 -2.68,1.79 -2.01,-0.45 -2.13,-9.37 -1,-2.03 -6.48,-1.78 -3.57,-2.46 -4.92,-6.93 -13.18,2.68 h -1.79 l -2.45,-1.78 -0.67,-6.71 -4.47,-5.81 4.52,-3.73 -0.51,-0.26 1.13,-2.26 -3.35,-1.56 -1.35,-3.13 -2.45,-3.35 -7.6,-4.7 -0.89,-4.69 -1.38,-1.61 0.38,-1.75 -3.7,-4.68 4.25,-4.69 2.01,-3.36 0.89,-8.9 v 0 l 0.46,0.07 v 0 l 3.13,-3.76 1.02,-3.66 0.61,-2.44 -1.63,-1.43 0.41,-2.04 12.26,0.29 4.45,-0.53 16.26,-0.16 4.48,-4.28 0.82,-2.44 0.61,-5.9 1.42,-4.28 4.28,-4.68 4.68,-1.83 8.35,-8.54 2.44,-1.03 6.65,-10.56 v 0 z"></path>
      <path inkscape:connector-curvature="0" id="_x32_0" title="Moquegua" class="area" d="m 449.87,685.44 1.17,-0.16 1.26,0.91 8.49,-0.43 0.72,0.72 6.72,1.64 0.83,1.09 1.91,5.43 0.14,6.08 1.91,5.7 7.49,7.69 3.79,0.97 1.18,1.29 -3.53,3.39 -0.38,6.89 -1.26,1.51 v 0 l 0.13,0.2 v 0 l -3.56,0.74 -0.6,-1.48 -0.74,-0.15 -0.45,-4.62 -2.01,-1.12 -4.11,0.37 -1.37,0.77 -1.42,1.8 -1.04,3.24 0.8,5.08 -5.1,6.11 -4.55,2.06 -6.67,12.22 v 2.09 l -2.23,5.14 -2.46,2.23 -6.7,3.35 h -1.88 v 0 l -1.86,-2.1 -3.89,-2.25 -2.35,-4 -1.82,-9.89 -3.69,-3.05 -0.36,-1.27 -3.83,-2 v 0 l 4.28,-1.26 4.83,-2.87 1.22,-4.63 -2.83,-3.53 -1.43,-3.11 -0.39,-2.56 0.78,-1.65 2.76,-2.3 2.49,-1.01 0.41,-2.33 -0.41,-2.64 4.12,-5.63 2.54,-1.21 -4.06,-4.61 0.9,-1.56 h 2.01 l 5.14,3.35 2.9,0.89 1.6,-0.63 -0.37,-2.23 0.51,-1.03 3.63,-4.16 z"></path>
      <path inkscape:connector-curvature="0" id="_x32_1" title="Pasco" class="area" d="m 293.7,461.22 -5.25,0.07 -13.44,-7.11 -2.09,0.14 -3.49,-0.81 -2.91,0.44 -5.36,2.91 -0.77,1.35 -2.13,0.67 -4.03,-0.07 -3.13,-3.52 h -1.11 l -10.28,4.7 -6.48,1.34 -2.01,-1.57 -2.24,-0.22 -2.9,1.79 -0.48,1.62 0.26,2.4 3.57,-0.23 0.45,2.01 -0.9,2.24 -3.12,1.34 -3.13,-0.45 -2.24,2.24 -2.9,0.44 -1.64,-1.17 -1.11,0.16 -0.82,-1.44 -2.46,-0.67 -2.65,0.39 v 0 l -0.3,-0.71 v 0 l -2.53,-1.71 -0.52,-1.24 -0.16,-6.67 -2.44,-2.82 -0.87,-4.11 -2.07,-3.57 -1.25,-4.77 v 0 l -0.63,-0.71 v 0 l 3.81,-0.9 6.26,-4.24 3.35,-1.12 3.13,0.23 2.23,2.23 2.01,0.89 13.63,2.46 1.79,-6.03 2.23,-0.89 1.12,-1.79 2.46,-0.9 4.24,-6.47 8.57,-7.17 1.4,-0.19 7.46,-5.83 2.68,0.23 1.49,0.78 2.98,3.01 3.06,-2.8 0.76,0.07 0.65,-1.29 3.57,-2.23 2.68,-0.23 2.91,-3.12 0.89,-3.13 5.64,-6.31 v 0 l 0.17,1.84 v 0 l 1.79,2.46 2.23,1.56 v 0 l 2.24,5.59 v 0 l -0.26,3.71 1.05,2.9 1.66,0.76 1.12,7.15 2.68,3.58 2.01,1.56 2.91,0.45 v 0 l -0.23,3.35 -1.11,2.46 v 0 l -0.45,2.9 1.12,2.9 3.13,2.69 0.67,1.78 -0.23,2.01 -1.31,0.66 -0.07,1.08 -5.12,2.18 -4.84,5.21 z"></path>
      <path inkscape:connector-curvature="0" id="_x32_2" title="Piura" class="area" d="m 11.21,258.51 -1.88,-4 0.67,-2.67 1.66,-2 2.84,0.17 1.99,-0.67 2.84,-3.66 1.33,-3.67 -0.33,-4.33 -4.84,-8.83 -6.49,-3.5 -3.67,-3 0.33,-2.33 1.5,-2.5 1.24,-0.66 0.58,-2.99 3.46,-0.57 -3.11,-4.44 -4.33,-3.33 -5,-5.5 0.17,-3.83 2.5,-12.5 2.94,-4.83 7.25,-6.32 v 0 l 0.95,2.84 2.76,2.27 11.82,-0.38 3.39,-1.26 0.88,-1.07 v 0 l 2.49,-2.2 4.04,5.28 1.26,4.22 -1.64,2.45 -0.06,1.19 0.75,1.07 3.12,1.57 2.41,-1.11 5.4,-4.61 1.21,-0.13 2.38,0.51 2.27,1.5 7.41,2.77 2.14,1.88 1.22,-0.86 2.9,-0.26 8.14,1.33 0.87,0.78 1.02,4.23 2.99,7.53 6.81,7.12 2.29,-0.04 v 0 l -3.39,3.61 -3.52,5.08 1.47,5.19 1.52,2.1 0.24,7.05 -0.93,-0.13 -2.57,3.14 -0.85,6.82 0.85,3.6 2.19,3.95 v 0 l -3.45,2.73 v 0 l -0.91,0.54 v 0 l -0.64,-1.36 -3.06,-1.16 v 0 l -1.45,0.34 v 0 l -2.22,-3.29 -2.64,-1.32 v 0 l -1.75,-0.78 -2.89,-6.26 -6.61,-5.08 -1.19,2.88 -0.29,3.39 -3.48,4.81 -5.12,4.13 -5.38,1.83 -1.74,1.46 -4.22,5.08 -1.46,3.66 -5.26,7.46 v 0 l -2.17,0.2 -3.34,1.5 -9.49,-7.17 -0.73,-1.58 z"></path>
      <path inkscape:connector-curvature="0" id="_x32_3" title="Puno" class="area" d="m 514.39,661.8 -3.37,-2.19 -4.26,-0.3 -1.53,-3.05 -5.48,-0.6 -0.91,-3.66 -3.35,-2.74 -9.74,-2.74 -6.69,0.31 -0.61,1.83 0.61,1.82 h 9.13 l 1.82,0.91 0.61,4.27 -3.95,3.04 0.61,3.04 2.13,1.22 v 3.96 l -1.83,0.3 -0.91,2.74 -5.18,2.13 2.44,9.44 4.26,-0.31 3.65,2.44 1.22,-2.44 1.22,-0.6 2.13,4.87 3.71,-0.33 1.77,0.93 4.56,0.92 0.61,1.82 -2.13,2.44 -1.22,3.35 2.44,2.43 3.95,-1.82 h 2.13 l 2.14,3.34 3.34,0.61 3.96,-1.52 1.83,-3.35 2.17,-1.33 v 0 l 2.35,2.17 1.59,3.68 -0.29,5.64 -1.93,2.39 -0.31,3.3 1.24,4.84 -7.67,5.37 -5.49,6.57 -2.83,5.61 -6.17,3.42 -3.73,3.77 -1.59,3.22 v 0 l -3.29,0.55 -8.07,-4.15 -4.78,-3.76 v 0 l -4.39,-7.44 v 0 l 1.26,-1.51 0.38,-6.89 3.53,-3.39 -1.18,-1.29 -3.79,-0.97 -7.49,-7.69 -1.91,-5.7 -0.14,-6.08 -1.91,-5.43 -0.83,-1.09 -6.72,-1.64 -0.72,-0.72 -8.49,0.43 -1.26,-0.91 -1.17,0.16 v 0 0 0 l 0.66,-2.7 -2.15,-2.24 -2.25,-3.75 1.62,-4.48 -4.87,-5.63 -0.52,-4.47 v 0 l 0.08,-3.57 v 0 l -0.22,-1.98 2.01,-1.09 0.26,-3.66 -0.42,-3.17 -1.18,-1.86 -0.31,-4.76 1.68,-3.27 -0.74,-4.57 -1.98,-2.96 -1.13,-0.29 -3.3,-4.33 1.12,-1.78 2.9,-2.02 1.79,-6.92 3.8,-7.37 1.34,-8.27 -0.9,-4.02 0.67,-5.81 3.58,-1.57 7.59,-9.83 7.82,-8.71 0.23,-4.69 v 0 l 0.42,-5.98 v 0 l 2.71,-0.5 6.25,0.67 10.5,5.14 9.52,1.97 4.78,-0.41 4.92,-1.12 2.46,-2.68 18.09,-7.15 3.28,-2.09 v 0 l 3.59,-2.59 -0.54,4.34 0.27,4.61 0.81,1.9 -1.36,5.97 -2.19,3.62 -0.06,5.21 -0.76,2.59 -3.57,6.19 2.07,3.64 1.67,7.65 2.39,2.26 -0.36,3.45 0.81,2.99 -2.98,1.08 -2.17,1.63 -0.82,5.16 -8.68,10.31 -2.72,3.8 -1.89,4.07 -0.92,8.99 3.68,5.04 6.74,6.51 -0.25,1.18 -2.26,0.32 -3.09,2.87 z"></path>
      <path inkscape:connector-curvature="0" id="_x32_4" title="San Martín" class="area" d="m 160.03,227.09 4.19,3.42 7.26,2.63 4.78,5.35 2.37,0.93 4.93,0.57 4.92,-0.12 v 0 l 2.15,0.68 4.34,2.98 0.69,1.23 v 0 l 0.65,1.19 v 0 l 2.18,6.02 v 0 l 0.85,1.27 4.23,2.36 2.38,-0.36 3.85,-2.4 3.85,0.39 4.13,3.75 3,3.75 3,1.5 6.54,-4.3 6.31,-0.01 3.86,0.81 v 0 l 2.79,-2.13 5.26,-1.12 v 0 l 3.75,1.87 2.25,3 -0.38,3.75 -1.87,2.18 0.48,3.36 -1.1,12.84 -1.15,4.61 -1.61,0.64 v 0 l -3.75,0.75 -4.74,0.2 -0.45,-0.57 v 0 l -2.27,-1.68 -3.68,-1.12 -2.55,0.35 -2.06,2.07 1.12,12.75 -4.14,2.96 -0.36,1.67 -2.8,0.93 -0.16,5.94 1.23,3.67 3.46,3.46 1.01,6.92 1.23,4.07 2.64,3.46 0.73,2.56 h 2.95 l 1.49,3.02 -2.4,2.23 -1.88,3.37 -0.75,5.63 v 0 l 0.27,0.43 v 0 l -4.02,1.44 -3.75,3.76 1.93,12.57 -1.49,1.75 -2.16,-0.26 -5.5,-11.25 -3.31,-2.06 -0.08,0.51 -1.77,-0.89 -3,4.88 -4.87,-2.25 -4.13,1.5 -3,-0.75 -5.4,0.93 0.2,0.77 h -6.08 l -1.2,-1.52 -1.77,0.29 -2.25,-3.47 v 0 l 1.87,-1.88 8.74,-2.18 -0.28,-2.23 0.92,-0.47 -1.13,-4.12 -3.75,-5.63 -4.5,-0.75 -2.62,-1.87 -3.38,0.37 -5.02,1.88 -1.18,-7.46 -1.56,-1.34 -3.58,-0.67 -1.6,-14.59 -1.83,-1.11 -1.81,-4.4 -0.18,-2.24 1.36,-3.43 -7.51,-10.05 v 0 l -0.53,-1.54 v 0 l 2.04,-9.39 2.27,-1.92 2.25,-0.37 4.5,0.37 3.01,2.25 2.25,-1.12 2.25,-2.63 v -1.85 l 2.28,-5.43 4.96,-4.02 0.92,-1.74 -2.02,-5.99 -3.16,-3.91 -11.61,-3.37 -1.77,-1.98 -4.43,-8.47 -1.22,-2.9 0.39,-8.96 0.73,-2.1 z"></path>
      <path inkscape:connector-curvature="0" id="_x32_5" title="Tacna" class="area" d="m 436.35,766.19 h 1.88 l 6.7,-3.35 2.46,-2.23 2.23,-5.14 v -2.09 l 6.67,-12.22 4.55,-2.06 5.1,-6.11 -0.8,-5.08 1.04,-3.24 1.42,-1.8 1.37,-0.77 4.11,-0.37 2.01,1.12 0.45,4.62 0.74,0.15 0.6,1.48 3.56,-0.74 v 0 l 4.26,7.24 v 0 l 4.78,3.76 8.07,4.15 3.29,-0.55 v 0 l 2.79,0.36 3.83,3.71 0.05,5.62 -8.74,7.85 -2.9,0.44 -1.12,1.57 2.46,10.28 0.22,4.46 -4.02,8.05 -4.24,4.02 -18.32,2.68 -1.63,-2.07 -0.37,0.33 -5.02,-4.46 -5.4,-2.47 -13.14,-12.41 -5.87,-2.52 z"></path>
      <path inkscape:connector-curvature="0" id="_x32_6" title="Tumbes" class="area" d="m 44.09,167.91 -1.41,-0.62 -3.25,0.26 -1.53,2.98 -5.24,4.42 v 0 l -0.88,1.07 -3.39,1.26 -11.82,0.38 -2.76,-2.27 -0.95,-2.84 v 0 l 1.17,-0.77 3.07,-5.29 5.32,-3.9 0.75,-3.15 1.24,-2.02 9.18,-5.38 2.98,-4.67 4.8,-0.61 1.86,-0.98 3.63,1.15 2.26,8.17 0.25,4.27 -1.63,5.53 z"></path>
      <path inkscape:connector-curvature="0" id="_x32_7" title="Ucayali" class="area" d="m 235.78,364.48 9.78,-9.3 h 1.86 l 3.49,2.77 2.29,-0.57 1.48,-1.15 0.22,-9.08 0.99,-1.88 2.67,-2.01 4.19,0.64 5.33,-5.68 4.92,0.44 2.23,1.12 4.47,0.45 5.59,-0.45 2.46,-1.34 1.06,-2.49 2.09,-1.36 0.98,-2.22 0.15,-3.77 -1.31,-12.18 5.29,-7.25 3.8,-0.22 1.57,1.79 7.37,0.67 5.81,4.69 0.08,1.36 1.32,1.14 v 0 l -0.64,0.07 -0.1,1.02 5.93,5.17 1,1.81 5.79,2.52 0.55,1.15 -0.19,1.84 -1.16,1.43 -2.21,-0.29 0.22,3.22 5.13,2.94 2.39,4.48 2.67,9.9 5.48,4.21 2.52,6.51 3.09,3.08 2.47,0.51 2.09,1.21 4.6,8.07 2.26,1.2 1.86,2.5 0.61,3.35 -0.78,3.29 -2.45,3.35 -6.8,6.18 -0.76,1.54 20.1,0.53 15.29,3.42 3,1.74 2.09,5.33 -0.72,3.16 0.38,1.23 3.42,1.91 0.66,1.35 0.6,2.25 -1.5,4.97 1.79,0.09 36.18,-0.4 4.95,-2.72 1.79,-2.94 5.32,-1.85 5.63,-6.49 4.39,-2.77 9.01,-7.4 -1.16,14.96 -1.29,1.92 -0.14,6 v 0 l -6.65,10.56 -2.44,1.03 -8.35,8.54 -4.68,1.83 -4.28,4.68 -1.42,4.28 -0.61,5.9 -0.82,2.44 -4.48,4.28 -16.26,0.16 -4.45,0.53 -12.26,-0.29 -0.41,2.04 1.63,1.43 -0.61,2.44 -1.02,3.66 -3.13,3.76 v 0 l -0.96,-0.15 -4.83,1.67 -2.37,2.15 v 0 l -4.67,2.44 -2.12,-0.56 v 0 l -3,-1.31 -5.94,-0.67 -4.52,-2.77 -1.22,-2.9 v 0 l -8.17,2.42 -10.84,1.42 -0.92,-0.37 v 0 l 0.29,-4.04 -0.9,-6.48 -1.85,-1.57 -2.39,-0.67 -0.73,-7.02 v 0 l -3.07,-3.24 v 0 l -5.47,-1.66 -2.22,4.11 -0.13,8.15 -0.9,2.9 -2.01,1.12 -4.24,-0.89 -1.6,-6.08 -5.09,0.97 -6.94,0.19 h -4.47 l -2.99,-1.07 -1.11,-5.29 v 0 l 4.6,-3.28 4.84,-5.21 5.12,-2.18 0.07,-1.08 1.31,-0.66 0.23,-2.01 -0.67,-1.78 -3.13,-2.69 -1.12,-2.9 0.45,-2.9 v 0 l 1.11,-2.46 0.23,-3.35 v 0 l -2.91,-0.45 -2.01,-1.56 -2.68,-3.58 -1.12,-7.15 -1.66,-0.76 -1.05,-2.9 0.26,-3.71 v 0 l -2.24,-5.59 v 0 l -2.23,-1.56 -1.79,-2.46 v 0 l -0.22,-2.46 0.89,-2.46 1.79,-2.23 v 0 l -0.9,-3.35 -1.78,-2.24 v -4.46 l -0.76,-3.26 0.68,-3.23 2.51,-4.88 2.04,-1.33 -0.79,-4 -1.84,-1.44 -5.46,-0.26 -4.85,1.94 -2.48,7.74 -0.22,2.91 -1.12,2.01 h -2.01 l -1.12,-2.24 -5.82,0.96 -0.88,4.41 -2.24,2.68 0.23,4.47 -4.02,3.79 -3.36,0.9 -2.41,-0.58 -6.97,4.18 -2.23,-0.7 -7.28,-11.64 -3.93,-8.68 -1.31,-4.9 0.67,-4.05 v 0 l 0.14,-3.46 z"></path>
      <path inkscape:connector-curvature="0" id="_x32_8" title="Lago Titicaca" class="land area exclude active" d="m 525.67,692.98 -2.17,1.33 -1.83,3.35 -3.96,1.52 -3.34,-0.61 -2.14,-3.34 h -2.13 l -3.95,1.82 -2.44,-2.43 1.22,-3.35 2.13,-2.44 -0.61,-1.82 -4.56,-0.92 -1.77,-0.93 -3.71,0.33 -2.13,-4.87 -1.22,0.6 -1.22,2.44 -3.65,-2.44 -4.26,0.31 -2.44,-9.44 5.18,-2.13 0.91,-2.74 1.83,-0.3 v -3.96 l -2.13,-1.22 -0.61,-3.04 3.95,-3.04 -0.61,-4.27 -1.82,-0.91 h -9.13 l -0.61,-1.82 0.61,-1.83 6.69,-0.31 9.74,2.74 3.35,2.74 0.91,3.66 5.48,0.6 1.53,3.05 4.26,0.3 3.37,2.19 v 0 l -3.51,7.47 6.91,18.48 z"></path>
    </g>
</svg>
