<?xml version="1.0" encoding="utf-8"?>
<!-- Generator: Adobe Illustrator 19.0.0, SVG Export Plug-In . SVG Version: 6.00 Build 0)  -->
<svg version="1.1" id="Layer_1" xmlns="http://www.w3.org/2000/svg" xmlns:xlink="http://www.w3.org/1999/xlink" x="0px" y="0px"
	 viewBox="-1229 262.8 100 76.2" style="enable-background:new -1229 262.8 100 76.2;" xml:space="preserve">
<style type="text/css">
	.st0{fill:#CCCCCC;}
</style>
<g>
	<g>
		<g>
			<path class="st0" d="M-1149.1,312.1l-6.9-4.9l3.9-3.8c0.4-0.2,0.6-0.6,0.6-1.1c0-0.4-0.3-0.8-0.7-1l-9.6-3.3v-19.2h2.4
				c0.6,0,1.1-0.5,1.1-1.1s-0.5-1.1-1.1-1.1h-2.4v-10.4c0-0.6-0.5-1.1-1.1-1.1h-46c-0.6,0-1.1,0.5-1.1,1.1v10.4h-2.5
				c-0.6,0-1.1,0.5-1.1,1.1s0.5,1.1,1.1,1.1h2.5v25.9c0,0.6,0.5,1.1,1.1,1.1h37l3.9,11.2c0.1,0.4,0.5,0.7,1,0.7
				c0.4,0,0.9-0.2,1.1-0.6l3.8-3.9l5.9,5.9c0.2,0.2,0.5,0.3,0.8,0.3c0.1,0,0.1,0,0.2,0h0.1h0.1l0,0c0.1-0.1,0.3-0.1,0.4-0.2l5.6-5.6
				c0.2-0.2,0.3-0.5,0.3-0.8C-1148.8,312.6-1148.9,312.3-1149.1,312.1z M-1207.8,267.3h43.8v22.3l-11.3-11.3c-0.4-0.4-1.1-0.4-1.6,0
				l-15.3,15.3l-5.1-5.1c-0.4-0.4-1.1-0.4-1.6,0l-9,9L-1207.8,267.3L-1207.8,267.3z M-1207.8,303.6v-3l9.8-9.7l5.1,5.1
				c0.4,0.4,1.1,0.4,1.5,0l15.3-15.3l12.1,12.1v4.5l-10-3.4c-0.4-0.1-0.9,0-1.2,0.3l0,0c-0.3,0.3-0.4,0.7-0.3,1.1l2.9,8.3H-1207.8z
				 M-1155.4,316.9l-6.2-6.2c-0.3-0.3-0.6-0.4-1-0.3c-0.4,0.1-0.6,0.3-0.8,0.6l-3.4,2.9l-3.2-9.4v-0.1l-2.6-7.7l17.2,5.9l-2.9,3.4
				c-0.3,0.2-0.5,0.5-0.6,0.8c-0.1,0.4,0.1,0.7,0.3,1l7.2,5.2L-1155.4,316.9z"/>
			<path class="st0" d="M-1154.7,319.2c-0.1,0.1-0.2,0.2-0.4,0.2C-1154.9,319.4-1154.8,319.3-1154.7,319.2z"/>
		</g>
	</g>
	<g>
		<g>
			<path class="st0" d="M-1145.4,278.8h-7c-0.6,0-1.1-0.5-1.1-1.1s0.5-1.1,1.1-1.1h7c0.6,0,1.1,0.5,1.1,1.1
				S-1144.8,278.8-1145.4,278.8z"/>
		</g>
		<g>
			<path class="st0" d="M-1135.1,282.1c-0.6,0-1.1-0.5-1.1-1.1v-2.2h-2.2c-0.6,0-1.1-0.5-1.1-1.1s0.5-1.1,1.1-1.1h3.3
				c0.6,0,1.1,0.5,1.1,1.1v3.3C-1134,281.6-1134.5,282.1-1135.1,282.1z"/>
		</g>
		<g>
			<path class="st0" d="M-1135.1,326.1c-0.6,0-1.1-0.5-1.1-1.1v-7.3c0-0.6,0.5-1.1,1.1-1.1c0.6,0,1.1,0.5,1.1,1.1v7.3
				C-1134,325.6-1134.5,326.1-1135.1,326.1z M-1135.1,311.4c-0.6,0-1.1-0.5-1.1-1.1V303c0-0.6,0.5-1.1,1.1-1.1
				c0.6,0,1.1,0.5,1.1,1.1v7.3C-1134,310.9-1134.5,311.4-1135.1,311.4z M-1135.1,296.8c-0.6,0-1.1-0.5-1.1-1.1v-7.3
				c0-0.6,0.5-1.1,1.1-1.1c0.6,0,1.1,0.5,1.1,1.1v7.3C-1134,296.3-1134.5,296.8-1135.1,296.8z"/>
		</g>
		<g>
			<path class="st0" d="M-1135.1,336.7h-3.3c-0.6,0-1.1-0.5-1.1-1.1s0.5-1.1,1.1-1.1h2.2v-2.2c0-0.6,0.5-1.1,1.1-1.1
				c0.6,0,1.1,0.5,1.1,1.1v3.3C-1134,336.2-1134.5,336.7-1135.1,336.7z"/>
		</g>
		<g>
			<path class="st0" d="M-1144.6,336.7h-6.2c-0.6,0-1.1-0.5-1.1-1.1s0.5-1.1,1.1-1.1h6.2c0.6,0,1.1,0.5,1.1,1.1
				S-1144,336.7-1144.6,336.7z M-1157.1,336.7h-6.2c-0.6,0-1.1-0.5-1.1-1.1s0.5-1.1,1.1-1.1h6.2c0.6,0,1.1,0.5,1.1,1.1
				S-1156.5,336.7-1157.1,336.7z M-1169.6,336.7h-6.2c-0.6,0-1.1-0.5-1.1-1.1s0.5-1.1,1.1-1.1h6.2c0.6,0,1.1,0.5,1.1,1.1
				S-1169,336.7-1169.6,336.7z M-1182.1,336.7h-6.2c-0.6,0-1.1-0.5-1.1-1.1s0.5-1.1,1.1-1.1h6.2c0.6,0,1.1,0.5,1.1,1.1
				S-1181.5,336.7-1182.1,336.7z M-1194.6,336.7h-6.2c-0.6,0-1.1-0.5-1.1-1.1s0.5-1.1,1.1-1.1h6.2c0.6,0,1.1,0.5,1.1,1.1
				S-1194,336.7-1194.6,336.7z M-1207.1,336.7h-6.2c-0.6,0-1.1-0.5-1.1-1.1s0.5-1.1,1.1-1.1h6.2c0.6,0,1.1,0.5,1.1,1.1
				S-1206.5,336.7-1207.1,336.7z"/>
		</g>
		<g>
			<path class="st0" d="M-1219.6,336.7h-3.3c-0.6,0-1.1-0.5-1.1-1.1v-3.3c0-0.6,0.5-1.1,1.1-1.1c0.6,0,1.1,0.5,1.1,1.1v2.2h2.2
				c0.6,0,1.1,0.5,1.1,1.1S-1219,336.7-1219.6,336.7z"/>
		</g>
		<g>
			<path class="st0" d="M-1222.9,326.1c-0.6,0-1.1-0.5-1.1-1.1v-7.3c0-0.6,0.5-1.1,1.1-1.1c0.6,0,1.1,0.5,1.1,1.1v7.3
				C-1221.8,325.6-1222.3,326.1-1222.9,326.1z M-1222.9,311.4c-0.6,0-1.1-0.5-1.1-1.1V303c0-0.6,0.5-1.1,1.1-1.1
				c0.6,0,1.1,0.5,1.1,1.1v7.3C-1221.8,310.9-1222.3,311.4-1222.9,311.4z M-1222.9,296.8c-0.6,0-1.1-0.5-1.1-1.1v-7.3
				c0-0.6,0.5-1.1,1.1-1.1c0.6,0,1.1,0.5,1.1,1.1v7.3C-1221.8,296.3-1222.3,296.8-1222.9,296.8z"/>
		</g>
		<g>
			<path class="st0" d="M-1222.9,282.1c-0.6,0-1.1-0.5-1.1-1.1v-3.3c0-0.6,0.5-1.1,1.1-1.1h3.3c0.6,0,1.1,0.5,1.1,1.1
				s-0.5,1.1-1.1,1.1h-2.2v2.2C-1221.8,281.6-1222.3,282.1-1222.9,282.1z"/>
		</g>
	</g>
	<g>
		<g>
			<path class="st0" d="M-1195.4,283.8c-3,0-5.4-2.4-5.4-5.4s2.4-5.4,5.4-5.4s5.4,2.4,5.4,5.4S-1192.4,283.8-1195.4,283.8z
				 M-1195.4,275.1c-1.8,0-3.2,1.5-3.2,3.2c0,1.8,1.5,3.2,3.2,3.2c1.8,0,3.2-1.5,3.2-3.2C-1192.2,276.6-1193.6,275.1-1195.4,275.1z"
				/>
		</g>
	</g>
</g>
</svg>
