<?xml version="1.0" standalone="no"?><!DOCTYPE svg PUBLIC "-//W3C//DTD SVG 1.1//EN" "http://www.w3.org/Graphics/SVG/1.1/DTD/svg11.dtd"><svg width="100%" height="100%" viewBox="0 0 15 12" version="1.1" xmlns="http://www.w3.org/2000/svg" xmlns:xlink="http://www.w3.org/1999/xlink" xml:space="preserve" style="fill-rule:evenodd;clip-rule:evenodd;stroke-linejoin:round;stroke-miterlimit:1.41421;"><g id="Layer 1"><path d="M4.51,5.25c-0.222,0 -0.394,0.069 -0.543,0.217c-0.148,0.148 -0.217,0.321 -0.217,0.543c0,0.209 0.069,0.375 0.217,0.523c0.288,0.287 0.759,0.307 1.066,0c0.149,-0.148 0.217,-0.314 0.217,-0.523c0,-0.222 -0.068,-0.395 -0.217,-0.542c-0.148,-0.149 -0.315,-0.218 -0.523,-0.218M4.51,7.5c-0.422,0 -0.783,-0.147 -1.073,-0.437c-0.289,-0.289 -0.437,-0.643 -0.437,-1.053c0,-0.422 0.148,-0.784 0.438,-1.074c0.568,-0.569 1.534,-0.589 2.125,0c0.29,0.291 0.437,0.652 0.437,1.074c0,0.409 -0.147,0.763 -0.437,1.053c-0.29,0.29 -0.644,0.437 -1.053,0.437M6.701,9l4.549,0l0,-1.353l-1.574,-1.774l-1.681,2.678l-0.788,-0.594l-0.145,0.501l-0.361,0.542ZM12,9.75l-6.701,0l1.102,-1.653l0.347,-1.426l1.047,0.789l1.777,-2.833l2.428,2.735l0,2.388ZM0.75,11.25l13.5,0l0,-7.5l-13.5,0l0,7.5ZM15,12l-15,0l0,-9l15,0l0,9Z" style="fill:#000;fill-rule:nonzero;"/><rect x="1.5" y="1.5" width="12" height="0.75" style="fill:#000;fill-rule:nonzero;"/><rect x="3.75" y="0" width="7.5" height="0.75" style="fill:#000;fill-rule:nonzero;"/></g></svg>