<?xml version="1.0" encoding="utf-8"?>
<!-- Generator: Adobe Illustrator 19.0.0, SVG Export Plug-In . SVG Version: 6.00 Build 0)  -->
<svg version="1.1" id="Layer_1" xmlns="http://www.w3.org/2000/svg" xmlns:xlink="http://www.w3.org/1999/xlink" x="0px" y="0px"
	 viewBox="-316 237 9 9" style="enable-background:new -316 237 9 9;" xml:space="preserve">
<g>
	<path d="M-312.2,237c-0.2,0-0.3,0-0.4,0.2l-0.4,1.5c0,0.2,0,0.3,0.2,0.4c0,0,0,0,0.1,0c0.1,0,0.3-0.1,0.3-0.2l0.4-1.5
		C-312,237.2-312.1,237-312.2,237z"/>
	<path d="M-313.8,243C-313.8,243-313.8,243-313.8,243c0.2,0,0.3-0.1,0.4-0.2l0.4-1.5c0-0.2,0-0.3-0.2-0.4c-0.2,0-0.3,0-0.4,0.2
		l-0.4,1.5C-314.1,242.8-314,242.9-313.8,243z"/>
	<path d="M-313.7,238.9l-1.1-1.1c-0.1-0.1-0.3-0.1-0.4,0c-0.1,0.1-0.1,0.3,0,0.4l1.1,1.1c0.1,0.1,0.1,0.1,0.2,0.1
		c0.1,0,0.2,0,0.2-0.1C-313.5,239.2-313.5,239-313.7,238.9z"/>
	<path d="M-312.1,239.8c0,0.1,0.2,0.2,0.3,0.2c0,0,0,0,0.1,0l1.5-0.4c0.2,0,0.3-0.2,0.2-0.4c0-0.2-0.2-0.3-0.4-0.2l-1.5,0.4
		C-312.1,239.4-312.2,239.6-312.1,239.8z"/>
	<path d="M-315.7,241C-315.7,241-315.6,241-315.7,241l1.6-0.4c0.2,0,0.3-0.2,0.2-0.4c0-0.2-0.2-0.3-0.4-0.2l-1.5,0.4
		c-0.2,0-0.3,0.2-0.2,0.4C-316,240.9-315.8,241-315.7,241z"/>
	<path d="M-307.1,245.5l-5.7-5.7c-0.1-0.1-0.3-0.1-0.4,0c-0.1,0.1-0.1,0.3,0,0.4l5.7,5.7c0.1,0.1,0.1,0.1,0.2,0.1
		c0.1,0,0.2,0,0.2-0.1C-306.9,245.8-306.9,245.6-307.1,245.5z"/>
</g>
</svg>
